<svg id="Layer_1" data-name="Layer 1" xmlns="http://www.w3.org/2000/svg" viewBox="0 0 65 65"><defs><style>.cls-1{fill:blue;}.cls-2{fill:#f3f945;}</style></defs><path class="cls-1" d="M52.55,59.56a10.26,10.26,0,1,1,10.3-10.24A10.25,10.25,0,0,1,52.55,59.56Zm-1.41-9.4c-.65-.66-1.33-1.39-2-2.07a2.24,2.24,0,0,0-1-.56,1.42,1.42,0,0,0-1.6.74,1.49,1.49,0,0,0,.26,1.8c1,1.06,2.08,2.1,3.13,3.14a1.58,1.58,0,0,0,2.61,0l5.61-5.67a2.93,2.93,0,0,0,.37-.42,1.52,1.52,0,0,0-.21-2,1.48,1.48,0,0,0-2,0c-.18.15-.34.32-.51.48Z"/><path class="cls-1" d="M42.34,42.51A12.51,12.51,0,0,0,40.57,52H19.2c-1.49,0-1.95-.58-1.6-2a15.08,15.08,0,0,1,24-8.11c.17.13.32.27.48.41A1.52,1.52,0,0,1,42.34,42.51Z"/><path class="cls-1" d="M39.84,29.76a7.62,7.62,0,1,1-7.45-7.71A7.59,7.59,0,0,1,39.84,29.76Z"/><path class="cls-2" d="M27.94,18c.35-1.27.63-2.48,1-3.66a1,1,0,0,0-.4-1.23c-.88-.65-1.73-1.36-2.57-2.06a3.59,3.59,0,0,1-.48-.61,3,3,0,0,1,.72-.26c1.12-.08,2.24-.17,3.35-.16a.93.93,0,0,0,1-.77c.36-1.06.78-2.1,1.19-3.13a2.62,2.62,0,0,1,.42-.57,2.55,2.55,0,0,1,.46.59c.42,1,.83,2.08,1.19,3.14a.9.9,0,0,0,1,.73c1.09,0,2.19.08,3.29.16a3.78,3.78,0,0,1,.79.24,3,3,0,0,1-.49.67c-.89.74-1.79,1.47-2.71,2.18a.69.69,0,0,0-.28.86c.36,1.19.67,2.4,1,3.6a1.94,1.94,0,0,1-.06.58,1.82,1.82,0,0,1-.58-.13c-1-.62-2-1.23-2.9-1.91a1,1,0,0,0-1.35,0c-.94.67-1.93,1.29-2.91,1.91a.85.85,0,0,1-.52.11C28,18.32,28,18.11,27.94,18Z"/><path class="cls-2" d="M2.38,22.8c1.27.21,2.44.37,3.6.6a1.1,1.1,0,0,0,1.39-.6c.54-1,1.18-1.89,1.81-2.82a2,2,0,0,1,.51-.37,1.77,1.77,0,0,1,.27.53c.2,1.18.4,2.37.55,3.56a.79.79,0,0,0,.72.79c1.19.28,2.36.62,3.54,1a1.5,1.5,0,0,1,.44.3c-.12.15-.21.36-.37.44-1.1.58-2.21,1.15-3.33,1.68a.74.74,0,0,0-.48.84q.13,1.74.21,3.48a3.52,3.52,0,0,1-.15.76,3,3,0,0,1-.68-.37c-.85-.82-1.68-1.66-2.5-2.51A.7.7,0,0,0,7,29.87c-1.13.46-2.28.89-3.42,1.31a1.76,1.76,0,0,1-.65,0,2.68,2.68,0,0,1,.11-.64c.5-1,1-2.05,1.57-3a1,1,0,0,0-.16-1.33c-.78-.88-1.51-1.82-2.25-2.74A.59.59,0,0,1,2.08,23C2.11,22.9,2.32,22.84,2.38,22.8Z"/><path class="cls-2" d="M22.32,19.29c-.61,0-1.22-.06-1.83-.12a.65.65,0,0,0-.74.43q-.83,1.68-1.68,3.33c-.1.17-.32.28-.48.42a1.88,1.88,0,0,1-.32-.49c-.32-1.14-.65-2.27-.9-3.42a.9.9,0,0,0-.93-.81c-1.15-.15-2.3-.33-3.44-.53a1.94,1.94,0,0,1-.56-.31,2.52,2.52,0,0,1,.38-.46c1-.64,1.93-1.28,2.93-1.88a1,1,0,0,0,.53-1.17c-.24-1.12-.4-2.25-.56-3.37a2.47,2.47,0,0,1,.13-.69,2.32,2.32,0,0,1,.6.26c1,.76,1.91,1.53,2.85,2.32a.64.64,0,0,0,.84.09c1.1-.58,2.21-1.15,3.32-1.7a1.85,1.85,0,0,1,.63-.07,2.21,2.21,0,0,1,0,.58c-.42,1.13-.84,2.25-1.3,3.36a.8.8,0,0,0,.21,1c.87.82,1.72,1.68,2.56,2.54a2,2,0,0,1,.26.58,2,2,0,0,1-.57.15c-.63,0-1.26-.06-1.9-.09Z"/><path class="cls-2" d="M53.31,30.5c0-.61,0-1.23.11-1.83a.71.71,0,0,0-.45-.8q-1.68-.81-3.33-1.68c-.17-.08-.27-.28-.4-.43a1.87,1.87,0,0,1,.48-.33c1.17-.33,2.35-.66,3.54-.94a.79.79,0,0,0,.68-.76c.17-1.17.35-2.34.55-3.5a2.42,2.42,0,0,1,.3-.63,2.22,2.22,0,0,1,.54.46c.66,1,1.3,2,1.92,3a.75.75,0,0,0,.88.41c1.18-.21,2.37-.41,3.56-.58a2.38,2.38,0,0,1,.68.12,2.16,2.16,0,0,1-.25.6c-.75.95-1.5,1.88-2.28,2.8a.72.72,0,0,0-.11.95c.59,1.08,1.14,2.17,1.68,3.27a1.81,1.81,0,0,1,.11.58,1.91,1.91,0,0,1-.63,0c-1.15-.42-2.3-.86-3.43-1.32a.73.73,0,0,0-.94.2c-.85.88-1.72,1.74-2.59,2.6a1.75,1.75,0,0,1-.53.26,1.91,1.91,0,0,1-.18-.54c0-.64.05-1.27.08-1.9Z"/><path class="cls-2" d="M49.8,10.54c-.21,1.26-.38,2.43-.61,3.59a1.1,1.1,0,0,0,.61,1.38c1,.55,1.89,1.19,2.82,1.81.16.11.24.35.36.52a2,2,0,0,1-.53.27c-1.16.19-2.33.37-3.5.53a.84.84,0,0,0-.85.74c-.24,1.09-.55,2.16-.86,3.24a3.22,3.22,0,0,1-.39.73,3.56,3.56,0,0,1-.58-.65c-.54-1-1.05-2-1.54-3.05a.72.72,0,0,0-.84-.47c-1.22.09-2.45.15-3.67.2a2.07,2.07,0,0,1-.56-.16,2.05,2.05,0,0,1,.24-.54c.83-.84,1.65-1.69,2.52-2.49A.92.92,0,0,0,42.66,15c-.43-1-.83-2.07-1.21-3.12a2.73,2.73,0,0,1-.06-.76,2.37,2.37,0,0,1,.7.15c1.06.52,2.12,1,3.15,1.61a.74.74,0,0,0,1-.12c.95-.8,1.92-1.59,2.9-2.36a.65.65,0,0,1,.49-.1C49.72,10.28,49.77,10.49,49.8,10.54Z"/></svg>