<svg id="Layer_1" data-name="Layer 1" xmlns="http://www.w3.org/2000/svg" viewBox="0 0 65 65"><defs><style>.cls-1{fill:#190f2d;}</style></defs><path class="cls-1" d="M25.64,59.63c0-.66,0-1.25,0-1.83a2.59,2.59,0,0,1,2.92-2.9h.6V48.29H15.76a3.35,3.35,0,0,1-3.69-3.66c0-10.21,0-20.42,0-30.63a3.44,3.44,0,0,1,3.64-3.65c2.31.08,4.63,0,6.94,0a.73.73,0,0,0,.76-.44c.28-.54.6-1.06.92-1.57a1.31,1.31,0,0,1,1.74-.65c1,.32,2,.68,3,1a1,1,0,0,0,.71-.11c.75-.39,1.49-.82,2.21-1.26a1,1,0,0,0,.42-.52c.25-1,.44-2.11.67-3.16a1.28,1.28,0,0,1,1.4-1.15q1.34,0,2.67,0A1.27,1.27,0,0,1,38.6,3.66c.23,1,.43,2.12.67,3.17a.9.9,0,0,0,.38.48c.75.45,1.5.88,2.27,1.29a1.12,1.12,0,0,0,.72.09c1-.29,1.94-.63,2.92-.94a1.37,1.37,0,0,1,1.87.69c.3.5.61,1,.88,1.52a.68.68,0,0,0,.72.41h7.11a3.27,3.27,0,0,1,3.49,3.49v30.8A3.35,3.35,0,0,1,56,48.29H42.55V54.9h.84a2.55,2.55,0,0,1,2.67,2.59c0,.68,0,1.36,0,2.1.24,0,.44,0,.64,0h5a1.17,1.17,0,0,1,.5,0c.13.06.28.23.27.35s-.16.27-.29.34a.83.83,0,0,1-.39,0l-25.39,0c-2.14,0-4.28,0-6.43,0a1.17,1.17,0,0,1-.5,0,.54.54,0,0,1-.27-.36c0-.1.14-.27.25-.31a1.72,1.72,0,0,1,.56,0ZM58.85,40.07V14a2.52,2.52,0,0,0-2.8-2.82H49.51l-.57,0a1.53,1.53,0,0,1-.64,1.44c-.75.64-1.47,1.31-2.23,2a.85.85,0,0,0-.31.78c0,.81,0,1.63,0,2.44a.87.87,0,0,0,.32.78c.8.67,1.58,1.36,2.35,2.07a1.3,1.3,0,0,1,.29,1.83c-.42.74-.86,1.47-1.3,2.21a1.35,1.35,0,0,1-1.86.68c-1-.32-2-.66-3-1a.86.86,0,0,0-.61.07q-1.17.63-2.31,1.32a1,1,0,0,0-.4.54c-.24,1.05-.43,2.11-.67,3.17a1.28,1.28,0,0,1-1.35,1.13q-1.4,0-2.79,0a1.29,1.29,0,0,1-1.35-1.15c-.22-1-.44-2.07-.63-3.12a.77.77,0,0,0-.49-.61c-.74-.38-1.44-.83-2.17-1.22a1.13,1.13,0,0,0-.76-.11c-1,.29-2,.65-3,1a1.34,1.34,0,0,1-1.78-.68c-.44-.73-.87-1.47-1.3-2.21a1.32,1.32,0,0,1,.33-1.91c.78-.7,1.57-1.38,2.33-2.09a1,1,0,0,0,.26-.62q0-1.3,0-2.61a1.07,1.07,0,0,0-.28-.66c-.64-.62-1.32-1.2-2-1.78-.51-.44-1-.85-.88-1.68H15.68A2.52,2.52,0,0,0,12.85,14V40.07ZM29.56,23.42l.4.22c.9.51,1.81,1,2.7,1.55a1,1,0,0,1,.45.57c.26,1.09.47,2.18.69,3.28.14.72.23.8,1,.8s1.45,0,2.17,0a.81.81,0,0,0,1-.78c.19-1.08.45-2.15.64-3.23a.92.92,0,0,1,.61-.72c.84-.43,1.67-.9,2.46-1.41a1,1,0,0,1,1-.16c1.07.38,2.16.71,3.23,1.08a.65.65,0,0,0,.9-.33c.42-.73.84-1.45,1.27-2.16a.71.71,0,0,0-.18-1c-.85-.73-1.67-1.49-2.53-2.21A1,1,0,0,1,45,18q.06-1.47,0-2.94a.92.92,0,0,1,.32-.84C46.13,13.5,47,12.73,47.8,12A.72.72,0,0,0,48,10.93q-.63-1-1.17-2A.78.78,0,0,0,45.7,8.5c-1.05.37-2.11.73-3.18,1a1.26,1.26,0,0,1-.82-.13C40.84,9,40,8.42,39.14,8a.93.93,0,0,1-.59-.74c-.2-1.09-.45-2.16-.65-3.24-.09-.52-.33-.76-.87-.74-.78,0-1.56,0-2.33,0-.57,0-.81.24-.91.78-.19,1.09-.45,2.16-.64,3.24a.9.9,0,0,1-.56.69c-.87.46-1.73.94-2.56,1.47a.94.94,0,0,1-.88.14L25.92,8.47a.73.73,0,0,0-1,.37c-.39.71-.81,1.41-1.23,2.11a.71.71,0,0,0,.18,1c.84.71,1.65,1.46,2.49,2.17a1,1,0,0,1,.38,1,26.72,26.72,0,0,0,0,2.83,1,1,0,0,1-.37.94c-.85.72-1.67,1.48-2.52,2.21a.68.68,0,0,0-.18,1c.44.74.87,1.47,1.29,2.21a.64.64,0,0,0,.86.32c.91-.32,1.83-.61,2.75-.92ZM12.85,40.91v3.75A2.54,2.54,0,0,0,15.7,47.5H56.17a2.38,2.38,0,0,0,2.6-2c.13-1.5,0-3,0-4.54Zm28.87,7.42H30v6.53H41.72Zm3.57,11.24V57.7a3.39,3.39,0,0,0,0-.45,1.75,1.75,0,0,0-1.74-1.56c-.84,0-1.67,0-2.5,0H28.34A1.66,1.66,0,0,0,26.5,57a19.51,19.51,0,0,0,0,2.54Z"/><path class="cls-1" d="M42.41,35.33H38.18c-.48,1.31-1.23,1.92-2.33,1.92s-1.83-.6-2.33-1.92H29.33c-.66,1.51-1.63,2.15-2.84,1.87a2.33,2.33,0,0,1,.13-4.58c1.16-.21,2.13.47,2.68,1.89h4.22a2.33,2.33,0,0,1,2.42-1.9,2.29,2.29,0,0,1,2.22,1.89h4.26a2.19,2.19,0,0,1,1.34-1.67,3.11,3.11,0,0,1,1.54-.13A2.21,2.21,0,0,1,47,35.09a2.32,2.32,0,0,1-2,2.15A2.42,2.42,0,0,1,42.41,35.33Zm-13.9-.42A1.54,1.54,0,0,0,27,33.37a1.55,1.55,0,1,0,0,3.1A1.52,1.52,0,0,0,28.51,34.91Zm16.23,1.56a1.55,1.55,0,1,0,0-3.1,1.55,1.55,0,0,0,0,3.1Zm-8.91-3.1a1.55,1.55,0,1,0,1.56,1.53A1.52,1.52,0,0,0,35.83,33.37Z"/><path class="cls-1" d="M35.86,21.13a4.59,4.59,0,1,1,4.6-4.59A4.59,4.59,0,0,1,35.86,21.13Zm3.84-4.57a3.85,3.85,0,0,0-7.7,0,3.85,3.85,0,0,0,7.7,0Z"/></svg>