<svg id="Layer_1" data-name="Layer 1" xmlns="http://www.w3.org/2000/svg" viewBox="0 0 65 65"><defs><style>.cls-1{fill:blue;}.cls-2{fill:#f3f945;}</style></defs><path class="cls-1" d="M57.73,62.77a5.19,5.19,0,0,1-2.34-1.55q-5.62-5.65-11.27-11.28c-.14-.14-.24-.3-.38-.47-.22.14-.38.23-.53.34A25,25,0,0,1,4.82,35.22c-.32-1.28-.43-2.62-.65-3.93a3.13,3.13,0,0,0-.1-.44V27.53c.15-1,.25-2,.44-2.93A24.18,24.18,0,0,1,16.37,7.69C23.42,3.53,30.87,3.1,38.51,6c.23.09.55.19.62.37a1.51,1.51,0,0,1,.06,1c-.18.43-.62.47-1.08.32a39,39,0,0,0-4.19-1.3,22.73,22.73,0,0,0-19.79,5,22.25,22.25,0,0,0-8,14.26,22.59,22.59,0,0,0,5.19,18.5,22,22,0,0,0,12.92,7.78c8.74,1.72,16.21-.75,22.26-7.29a21.24,21.24,0,0,0,5.62-12C53.27,23.06,49.83,15.43,42,9.8c-.19-.14-.39-.25-.58-.38A.85.85,0,0,1,41,8.2.84.84,0,0,1,42.29,8a27.09,27.09,0,0,1,2.42,1.71A24.62,24.62,0,0,1,54,31.16a23.93,23.93,0,0,1-4.3,12.19l-.3.45,1.82,1.79c.16.16.33.32.48.49a.86.86,0,0,1,0,1.19.82.82,0,0,1-1.22,0c-.52-.48-1-1-1.5-1.49-.2-.21-.37-.44-.47-.56L45.29,48.5l6.91,6.92,3.21-3.21c-.65-.64-1.37-1.34-2.08-2.05a3,3,0,0,1-.41-.47.71.71,0,0,1,.18-1,1.76,1.76,0,0,1,1-.1c.17,0,.32.26.47.4l6.87,6.88a3.32,3.32,0,0,1,0,5.12,5.7,5.7,0,0,1-2.58,1.8Zm-4.19-6c1.25,1.28,2.52,2.63,3.84,3.91a1.43,1.43,0,0,0,2-.1c.34-.3.66-.63,1-1a1.58,1.58,0,0,0,0-2.5c-.93-.93-1.87-1.85-2.78-2.79a7.83,7.83,0,0,1-.68-.89Z"/><path class="cls-1" d="M8.77,29.17A20.31,20.31,0,1,1,29.05,49.49,20.34,20.34,0,0,1,8.77,29.17Zm9.55-5c0,.84,0,1.62,0,2.4,0,.59,0,1.18,0,1.77a.76.76,0,0,1-.84.75.78.78,0,0,1-.84-.76c0-.14,0-.27,0-.4,0-2.23,0-4.47,0-6.7A5.73,5.73,0,0,1,16.73,20a4.61,4.61,0,0,1,4.75-3.59h21l0-.19c-5.35-5.07-11.61-7-18.74-4.83s-11.67,7.29-13,14.75c-1.13,6.51,1,12.07,5.67,16.66l.17,0V32.42c0-.88.27-1.3.84-1.31s.87.42.87,1.33c0,3.78,0,7.55,0,11.33a1,1,0,0,0,.5.92,18.26,18.26,0,0,0,14,2.7A18.54,18.54,0,0,0,47.63,28.44c-.05-1.41-.35-2.82-.53-4.22Zm28.2-1.77c-.69-1.24-1.33-2.36-1.93-3.49a1.3,1.3,0,0,0-1.45-.81,11.5,11.5,0,0,1-1.66,0h-20a3.07,3.07,0,0,0-2.61,1.16c-.74.94-.59,2-.56,3.13Z"/><path class="cls-2" d="M29.66,26.25A8.76,8.76,0,1,1,20.87,35,8.75,8.75,0,0,1,29.66,26.25Zm0,10.69a4.49,4.49,0,1,0-4.52-4.49A4.5,4.5,0,0,0,29.65,36.94ZM25.34,37c-.36.81-.71,1.54-1,2.29a.74.74,0,0,0,.22.58,7,7,0,0,0,10.19,0c.1-.12.23-.31.2-.44a4.53,4.53,0,0,0-1.16-2.28A6.41,6.41,0,0,1,25.34,37Zm10.86.53A6.69,6.69,0,0,0,35.92,32,7.46,7.46,0,0,1,35,35.6c0,.07,0,.25.1.34C35.45,36.46,35.81,37,36.2,37.53Zm-13.14,0c.38-.54.69-1,1.05-1.5.19-.23.16-.38.06-.65a17.18,17.18,0,0,1-.7-2.21,6.57,6.57,0,0,1-.08-1.26A6.66,6.66,0,0,0,23.06,37.53Z"/><path d="M22.35,21.12c-.69,0-1.11-.34-1.1-.88s.41-.84,1.07-.84,1.11.31,1.1.87S23,21.12,22.35,21.12Z"/><path d="M26.72,19.4c.68,0,1.05.29,1.07.83s-.39.89-1.09.89-1.06-.32-1.08-.84S26,19.4,26.72,19.4Z"/><path d="M31.08,19.4c.7,0,1.11.33,1.1.87s-.42.85-1.08.85S30,20.8,30,20.24,30.4,19.4,31.08,19.4Z"/></svg>