<svg id="Layer_1" data-name="Layer 1" xmlns="http://www.w3.org/2000/svg" viewBox="0 0 65 65"><defs><style>.cls-1{fill:blue;}.cls-2{fill:#f3f945;}</style></defs><path class="cls-1" d="M33.19,64c-8.36-3.91-15.46-9.34-20.67-17.06A42,42,0,0,1,6.33,32.81a1.57,1.57,0,0,1,.17-1.13c.44-.58,1.27-.26,1.5.53.46,1.56.84,3.15,1.4,4.68a42.41,42.41,0,0,0,16.34,20.8c2.38,1.63,5,2.93,7.5,4.35a1.09,1.09,0,0,0,.85,0c7.74-3.73,14.34-8.84,19.2-16a40.68,40.68,0,0,0,6-13.44c0-.16.08-.32.13-.47a.86.86,0,0,1,1-.66.84.84,0,0,1,.69,1c-.16.78-.36,1.55-.58,2.31A44.16,44.16,0,0,1,42.23,59.43c-2.55,1.72-5.37,3.06-8.06,4.57Z"/><path class="cls-1" d="M57.74,22.13a37.54,37.54,0,0,1-6.59,22.09A43.58,43.58,0,0,1,35.08,58.47a2.83,2.83,0,0,1-2.8,0c-8.89-4.78-15.65-11.55-19.67-20.9a37.09,37.09,0,0,1-3-14.69c0-1.65,0-3.3,0-4.95a3,3,0,0,1,2-3.09,15.64,15.64,0,0,0,8.29-7.66,2.86,2.86,0,0,1,2.75-1.69h22a2.84,2.84,0,0,1,2.75,1.68,15.62,15.62,0,0,0,8.24,7.64A3.09,3.09,0,0,1,57.75,18C57.72,19.21,57.74,20.43,57.74,22.13ZM33.69,7.26H22.86A1.32,1.32,0,0,0,21.51,8a17.44,17.44,0,0,1-9.27,8.56,1.21,1.21,0,0,0-.84,1.26c0,1.85,0,3.71,0,5.56A35.4,35.4,0,0,0,16,40.41,41.1,41.1,0,0,0,33,56.82a1.45,1.45,0,0,0,1.55-.07,42,42,0,0,0,14.11-12,35.24,35.24,0,0,0,7.06-17.84c.28-2.92.19-5.87.26-8.8,0-1.08-.1-1.22-1.09-1.65A17.21,17.21,0,0,1,46,8.16a1.48,1.48,0,0,0-1.49-.91C40.87,7.27,37.28,7.26,33.69,7.26Z"/><path class="cls-1" d="M33.69,1.36c4.83,0,9.67,0,14.5,0A2.5,2.5,0,0,1,51,3.69,9.41,9.41,0,0,0,57.58,11a12.52,12.52,0,0,0,2.26.51,2.39,2.39,0,0,1,2.26,2.56c0,3.77,0,7.55,0,11.32a20.56,20.56,0,0,1-.14,2.07c-.06.66-.46,1-1,.94s-.77-.49-.76-1.13c.08-4.4.14-8.81.21-13.21,0-.5-.27-.7-.75-.77a12.42,12.42,0,0,1-6.74-2.93A10.57,10.57,0,0,1,49.19,4c-.1-.62-.38-.84-1-.84h-29c-.58,0-.92.16-1,.78A11.46,11.46,0,0,1,9,13.1a11,11,0,0,1-1.26.21.71.71,0,0,0-.7.82c0,1.37,0,2.74,0,4.1.06,3.06.14,6.11.21,9.17a.94.94,0,0,1-.84,1.08.9.9,0,0,1-.94-.92c-.09-1.38-.18-2.76-.19-4.15,0-3.06,0-6.12,0-9.18a2.41,2.41,0,0,1,2.41-2.72,10,10,0,0,0,8.57-7,7.79,7.79,0,0,0,.2-1A2.43,2.43,0,0,1,19,1.36C23.9,1.35,28.8,1.36,33.69,1.36Z"/><path class="cls-2" d="M42.42,23.61h1.25a2.84,2.84,0,0,1,3.06,3.06c0,2.3,0,4.61,0,6.91,0,1.77,0,3.55,0,5.32A2.87,2.87,0,0,1,43.57,42H23.87a2.86,2.86,0,0,1-3.17-3.18V26.75a2.86,2.86,0,0,1,3.16-3.14H25c0-.23,0-.45,0-.66,0-1.61-.06-3.23.12-4.82a8.68,8.68,0,0,1,17.1-.57,13.67,13.67,0,0,1,.19,2.31C42.44,21.09,42.42,22.31,42.42,23.61ZM33.67,40.26c3.3,0,6.6,0,9.91,0,1,0,1.36-.36,1.36-1.36V26.74c0-1-.35-1.35-1.38-1.35H23.88c-1.06,0-1.39.34-1.4,1.39q0,6,0,12.1c0,1,.35,1.38,1.4,1.38Zm7-16.68c0-1.46,0-2.88,0-4.3a7,7,0,0,0-6-6.79,6.75,6.75,0,0,0-7.63,5.19,39.55,39.55,0,0,0-.35,5.9Z"/><path class="cls-2" d="M32.82,35.14c0-.19,0-.37,0-.55a1.24,1.24,0,0,0-.52-1.24,2,2,0,0,1-.09-2.94,2.08,2.08,0,0,1,3,0,2,2,0,0,1-.09,2.94,1.32,1.32,0,0,0-.52,1.25c0,.53,0,1.06,0,1.58a.9.9,0,1,1-1.78,0C32.81,35.83,32.82,35.48,32.82,35.14Z"/></svg>