<svg id="Layer_1" data-name="Layer 1" xmlns="http://www.w3.org/2000/svg" viewBox="0 0 65 65"><defs><style>.cls-1{fill:#4dc0b3;}</style></defs><path class="cls-1" d="M26.65,40.8c.71,0,1.34,0,2,0a.92.92,0,0,1,1,1c0,1.86,0,3.73,0,5.6a.93.93,0,1,1-1.84,0c0-1.58,0-3.15,0-4.76H22.27v2.43c0,1.5,0,3,0,4.5,0,.7-.33,1.1-.89,1.12s-.95-.4-.95-1.12q0-3.84,0-7.68a1.12,1.12,0,0,1,.24-.79A1.24,1.24,0,0,0,21.11,40c.05-1.46.1-2.92.19-4.38,0-.43-.09-.57-.5-.64a24.06,24.06,0,0,1-7-2.1,12.1,12.1,0,0,1-1.08-.67,3.19,3.19,0,0,1-1.54-3.2c.2-1.46.43-2.92.7-4.37a.94.94,0,0,1,1.21-.84c.53.16.7.65.58,1.33-.24,1.3-.43,2.61-.65,3.92a1.54,1.54,0,0,0,1,1.78,26.16,26.16,0,0,0,3.56,1.47c1.52.46,3.1.73,4.66,1,.74.15,1,.42,1,1.17-.07,1.87-.16,3.73-.24,5.6,0,.19,0,.38,0,.61h1.81c.25-1.71.5-3.4.74-5.09.09-.62.14-1.26.27-1.88a1.32,1.32,0,0,0-.63-1.47l-5.92-4.42c-.76-.57-.82-.84-.43-1.71a32.51,32.51,0,0,0,2.49-6.81A2.4,2.4,0,0,0,20.46,17a3.2,3.2,0,0,0-3.7-.75c-2.33,1.1-4.66,2.18-7,3.29a1.58,1.58,0,0,0-.58.62c-.89,1.5-1.76,3-2.63,4.54-.37.64-.28,1.16.22,1.46a1.06,1.06,0,0,0,1.51-.5c.67-1.17,1.29-2.36,2-3.52a1.82,1.82,0,0,1,.78-.7c1.38-.59,2.78-1.13,4.17-1.68.68-.28,1.18-.12,1.41.41s0,1-.75,1.31c-1.19.48-2.4.94-3.58,1.46a1.7,1.7,0,0,0-.73.65c-.61,1-1.15,2.09-1.75,3.12a2.9,2.9,0,0,1-2.94,1.41,2.8,2.8,0,0,1-2.34-2.18,2.62,2.62,0,0,1,.3-1.95c.94-1.65,1.88-3.31,2.86-4.94a2.9,2.9,0,0,1,1-1,59.78,59.78,0,0,1,8-3.72c2.71-1,6.23,1.49,6.43,3.78a8.53,8.53,0,0,1-.24,2.56,26.12,26.12,0,0,1-1,3.07c-.37,1-.81,1.95-1.23,3L21,27l5.32,4a3,3,0,0,1,1.26,3c-.31,2.1-.6,4.19-.9,6.29C26.68,40.4,26.67,40.57,26.65,40.8Z"/><path class="cls-1" d="M58.6,10.37c.73,1,1.43,1.93,2.14,2.86A1,1,0,0,1,61,14.39a1.08,1.08,0,0,1-1.12.54H51V26h3.29c1,0,1.29.28,1.29,1.31v6.12c0,.74-.33,1.16-.9,1.17s-1-.42-1-1.19V27.91H48.15V41.23a2.7,2.7,0,0,1,0,.57.92.92,0,0,1-1.81,0,2.24,2.24,0,0,1,0-.52v-14c0-1,.28-1.28,1.31-1.28h1.46V7.94c0-1.07.27-1.33,1.33-1.33h9.41c.51,0,1,.05,1.2.59s-.1.91-.45,1.26Zm-.41,2.68c0-.06,0-.08,0-.09-.44-.61-.89-1.21-1.33-1.81-.58-.79-.56-1.07.15-1.78l.85-.87H51v4.55Z"/><path class="cls-1" d="M58,33.43a6.73,6.73,0,0,1-.69,0,.9.9,0,0,1-.82-.9.87.87,0,0,1,.84-.92c1,0,1.93,0,2.89,0a.91.91,0,0,1,.88,1c0,.85,0,1.69,0,2.54a.94.94,0,0,1-.91,1c-.51,0-.86-.36-.93-1a1.64,1.64,0,0,1,0-.22l-.16-.14a4,4,0,0,1-.29.49Q54,40.53,49.15,45.72a1.53,1.53,0,0,1-1.62.54c-2.59-.56-5.2-1-7.8-1.59a1.13,1.13,0,0,0-1,.26c-4.25,3.41-8.51,6.8-12.75,10.22a1.42,1.42,0,0,1-1.58.26q-3.06-1.2-6.16-2.31a1.55,1.55,0,0,0-1,0c-3.88,1.64-7.74,3.3-11.61,5l-.32.14c-.63.25-1.13.1-1.36-.42s0-1,.63-1.28c1.59-.69,3.18-1.36,4.77-2,2.52-1.09,5.05-2.16,7.57-3.26a1.86,1.86,0,0,1,1.55,0c2,.77,4,1.47,5.92,2.24a.89.89,0,0,0,1-.17l12.7-10.18a1.47,1.47,0,0,1,1.38-.33c2.65.55,5.31,1.07,8,1.58a.82.82,0,0,0,.65-.18Q53,38.92,57.81,33.66A1.5,1.5,0,0,0,58,33.43Z"/><path class="cls-1" d="M48.15,59.26h5.54V43.64a2.7,2.7,0,0,1,0-.57.92.92,0,0,1,1.81,0,2.27,2.27,0,0,1,0,.52V59.8c0,1.07-.27,1.34-1.32,1.34h-6.7c-.91,0-1.22-.31-1.22-1.2V48.79c0-.74.32-1.15.9-1.17s.95.42.95,1.18Z"/><path class="cls-1" d="M35.21,59.28h5.55V47.87a3.62,3.62,0,0,1,0-.57.92.92,0,0,1,.93-.79.89.89,0,0,1,.88.77,1.78,1.78,0,0,1,0,.46V59.86c0,1-.29,1.28-1.27,1.28H34.58c-.91,0-1.22-.31-1.22-1.21V51.68c0-.78.34-1.19,1-1.18s.9.42.9,1.17v7.61Z"/><path class="cls-1" d="M9.81,44.9a3,3,0,0,1-2.94-1.75A2.75,2.75,0,0,1,7.39,40c.8-.88,1.66-1.72,2.45-2.61a3.48,3.48,0,0,0,.63-1.07c.27-.71.48-1.46.72-2.18s.66-.93,1.22-.76.73.67.53,1.32c-.29.93-.58,1.87-.91,2.79a2.25,2.25,0,0,1-.47.77c-.87,1-1.77,1.88-2.65,2.82-.51.55-.57,1.1-.2,1.54a1.1,1.1,0,0,0,1.56.1c1.19-.78,2.38-1.56,3.55-2.37a1.53,1.53,0,0,0,.47-.62c.52-1.24,1-2.49,1.51-3.74.26-.64.73-.9,1.24-.71s.73.73.47,1.39c-.56,1.41-1.11,2.82-1.7,4.22a1.79,1.79,0,0,1-.59.74c-1.33.92-2.67,1.83-4,2.68A6.25,6.25,0,0,1,9.81,44.9Z"/><path class="cls-1" d="M27.81,8.84c0,2.85-1.42,4.71-3.69,5.09a4.29,4.29,0,0,1-3.8-1.27,5.67,5.67,0,0,1-1.69-4.94A4.26,4.26,0,0,1,22.12,4a4.14,4.14,0,0,1,4.69,1.87A5.88,5.88,0,0,1,27.81,8.84ZM26,9.38a4.45,4.45,0,0,0-.82-2.71,2.36,2.36,0,0,0-2.72-.87,2.37,2.37,0,0,0-1.94,2,4,4,0,0,0,1,3.44,2.7,2.7,0,0,0,2.88.79A2.66,2.66,0,0,0,26,9.38Z"/><path class="cls-1" d="M40.74,35.28H35.21V43A1,1,0,0,1,34.47,44c-.63.14-1.1-.32-1.11-1.06V35.23c0-.29,0-.58,0-.87a.89.89,0,0,1,.94-.94c2.45,0,4.89,0,7.34,0a.89.89,0,0,1,1,1c0,2.1,0,4.19,0,6.29a.93.93,0,1,1-1.84,0c0-1.7,0-3.39,0-5.09C40.75,35.54,40.75,35.44,40.74,35.28Z"/><path class="cls-1" d="M26.77,26.94a7.74,7.74,0,0,1-3.84-.65c-.63-.25-.91-.7-.73-1.23a.91.91,0,0,1,1.33-.51c1.69.77,3.47.51,5.22.53a.89.89,0,0,0,.91-.92.91.91,0,0,0-.93-.91c-1.13,0-2.27,0-3.4,0a2.66,2.66,0,0,1-2-1.6,1.31,1.31,0,0,1,.36-.94.67.67,0,0,1,1,0c.62.81,1.46.7,2.29.69.62,0,1.23,0,1.85,0a2.77,2.77,0,0,1-.05,5.54Z"/><path class="cls-1" d="M22.27,59.26h5.55c0-1.12,0-2.21,0-3.3a.94.94,0,0,1,1-1,.91.91,0,0,1,.86.92c0,1.45,0,2.89,0,4.33a.89.89,0,0,1-.95,1H21.38a.88.88,0,0,1-.95-.94c0-1.13,0-2.27,0-3.4a.92.92,0,1,1,1.84,0C22.28,57.61,22.27,58.41,22.27,59.26Z"/><path class="cls-1" d="M9.38,59.27h5.5V56.33a.92.92,0,0,1,.75-1,.87.87,0,0,1,1.08.83c0,1.36,0,2.73,0,4.1a.88.88,0,0,1-.95.88H8.44a.89.89,0,0,1-.95-.94c0-.25,0-.5,0-.75a.9.9,0,0,1,.76-1,.89.89,0,0,1,1,.62Z"/><path class="cls-1" d="M9.34,50.06c0,.73,0,1.42,0,2.11S9,53.26,8.41,53.26s-.92-.42-.92-1.09c0-1,0-1.93,0-2.89,0-.74.34-1.08,1.1-1.08,2.35,0,4.69,0,7,0,.68,0,1.09.35,1.09.91s-.41,1-1.12,1Z"/></svg>