<svg id="Layer_1" data-name="Layer 1" xmlns="http://www.w3.org/2000/svg" viewBox="0 0 65 65"><defs><style>.cls-1{fill:#4dc0b3;}</style></defs><path class="cls-1" d="M13.54,39.06c-.5,0-.91,0-1.32,0-.56,0-.86-.23-.86-.81,0-1.14,0-2.27,0-3.41A.73.73,0,0,1,12.2,34c.83,0,1.66,0,2.48,0a.67.67,0,0,0,.51-.36,11,11,0,0,1,7.34-7.39l.21-.11c-2.61-2.78-2.83-5.73-.6-7.91a5.09,5.09,0,0,1,7.2.06c2.19,2.21,1.94,5.18-.57,7.74l4.14,2.23a3.16,3.16,0,0,0,0-.41c0-.91,0-1.82,0-2.73S33.07,24,34,24H49.09c.91,0,1,.14,1,1v9c.92,0,1.78,0,2.64,0s1,.18,1,.94c0,1.06,0,2.11,0,3.17,0,.73-.2.92-.91.93H51.57v.71c0,2.2,0,4.39,0,6.58,0,.76-.16.92-.9.92H14.44c-.75,0-.9-.15-.9-.92,0-2.17,0-4.34,0-6.51Zm36.76,0H14.82V46H50.3ZM34.22,34H48.85V25.32H34.22ZM12.64,37.78H52.45V35.3H12.64ZM33,34c0-1.11,0-2.14,0-3.17a1.65,1.65,0,0,0-.39-1A9.68,9.68,0,0,0,16.41,34ZM21.85,21.89A3.87,3.87,0,1,0,25.69,18,3.87,3.87,0,0,0,21.85,21.89Z"/><path class="cls-1" d="M52.05,15.72a25.73,25.73,0,0,0-6.73-5.4A6.28,6.28,0,0,1,41,13.21a9,9,0,0,1-5.77-.45,10.78,10.78,0,0,1-2-1.23c-.7-.51-1.33-1.12-2-1.67a8.94,8.94,0,0,0-4.76-1.93c-.1,0-.22,0-.3,0-.24-.17-.57-.33-.64-.55s.17-.57.38-.68a40.34,40.34,0,0,1,4.76-2.34A14.54,14.54,0,0,1,40.29,4a7.84,7.84,0,0,1,4.42,3.12,1.74,1.74,0,0,1,.33.59c.21,1.18,1.12,1.68,2,2.27A26.74,26.74,0,0,1,59.69,29.82a27.31,27.31,0,0,1-54,8.23c-1.94-11.32,2-20.51,11.21-27.4a3.27,3.27,0,0,1,.36-.25c.33-.2.69-.17.84.18a.91.91,0,0,1-.14.8,10.83,10.83,0,0,1-1.13.86C9.49,18,6,25.64,6.54,35a26.08,26.08,0,0,0,51.61,3.13A25.58,25.58,0,0,0,53.4,17.34a.74.74,0,0,0-.82-.39A3.18,3.18,0,0,1,52,17a2.21,2.21,0,0,0-2.18,1.29c-1.27,2.38-3.54,3-6,2.74-1.7-.18-3.37-.6-5.05-.93a.56.56,0,0,1-.41-.9C40,16.94,42,14.92,44.9,14.26a5,5,0,0,1,4.66,1.26,1.23,1.23,0,0,0,1.31.37A7.09,7.09,0,0,1,52.05,15.72ZM27.83,6.92a11.71,11.71,0,0,1,5.82,3.36,7.15,7.15,0,0,0,4.52,1.93A7.34,7.34,0,0,0,43,11.06c1.66-1.15,1.62-1.85.68-3.35A6.3,6.3,0,0,0,40.13,5.2a13.3,13.3,0,0,0-7-.32A17.38,17.38,0,0,0,27.83,6.92ZM40,19v.25c1.56.2,3.13.52,4.7.57A4.28,4.28,0,0,0,49,17.25a.49.49,0,0,0-.09-.69,4.07,4.07,0,0,0-3.64-1.11C43,15.89,41.48,17.37,40,19Z"/></svg>