<svg id="Layer_1" data-name="Layer 1" xmlns="http://www.w3.org/2000/svg" viewBox="0 0 65 65"><defs><style>.cls-1{fill:#4dc0b3;}</style></defs><path class="cls-1" d="M15.44,36.2V28.58A12.26,12.26,0,0,1,5.35,21.66a11.8,11.8,0,0,1-.58-9.49,12.31,12.31,0,0,1,23.54,7.14l-1.75-.46a10.46,10.46,0,0,0-18.62-8.7,10.39,10.39,0,0,0,.44,12.76,10.12,10.12,0,0,0,6.69,3.67,10.52,10.52,0,0,0,7.44-1.84l1.08,1.51a12.27,12.27,0,0,1-6.21,2.3v7.54c1.1.28,2.21.47,3.26.85a30.76,30.76,0,0,1,3,1.46L22.51,40a10.43,10.43,0,0,0-9.21-1.46A10,10,0,0,0,8,42.34,10.43,10.43,0,0,0,20.55,58.09a10.54,10.54,0,0,0,6-12.18l1.82-.49.38,2.12h7.58l.38-2.12,1.8.48a10.47,10.47,0,0,0,18.66,8.66,10.44,10.44,0,0,0-.54-12.81,10.1,10.1,0,0,0-4.16-3,10.38,10.38,0,0,0-5.12-.63A10.7,10.7,0,0,0,42.58,40L41.49,38.5a12.27,12.27,0,0,1,6.21-2.3V28.56a12.43,12.43,0,0,1-6.21-2.3l1.08-1.52a10.41,10.41,0,0,0,9.26,1.44,10,10,0,0,0,5.32-3.86,10.44,10.44,0,1,0-18.61-3.47l-1.83.48-.38-2.11H33.52v4.72h.56c1.32,0,2.65,0,4,0,.78,0,1.12.35,1.13,1.12,0,1.15,0,2.3,0,3.44,0,.78-.35,1.13-1.12,1.13-1.5,0-3,0-4.54,0v1.9h4.34c1,0,1.32.29,1.32,1.35V34c0,1-.31,1.26-1.29,1.26H33.68l-.15,0v1.86h4.14c1.29,0,1.51.22,1.51,1.51,0,1,0,2,0,3,0,.81-.34,1.15-1.15,1.15h-11c-.82,0-1.16-.34-1.16-1.15,0-1.13,0-2.25,0-3.38,0-.82.34-1.15,1.15-1.16h4.49v-1.9H27c-.74,0-1.1-.35-1.11-1.08,0-1.18,0-2.37,0-3.56a1,1,0,0,1,1.08-1c1.32,0,2.65,0,4,0h.61v-1.9H31c-1.32,0-2.65,0-4,0-.78,0-1.13-.35-1.13-1.12,0-1.15,0-2.3,0-3.44,0-.78.35-1.13,1.12-1.13,1.5,0,3,0,4.57,0V16.52c0-.89.32-1.22,1.21-1.22,1.16,0,2.33,0,3.54,0a12.32,12.32,0,0,1,6.27-9.79,11.8,11.8,0,0,1,8-1.45,12.36,12.36,0,0,1-.91,24.53v7.6A12.31,12.31,0,0,1,59,41.81,11.66,11.66,0,0,1,61,49.48,12.28,12.28,0,0,1,49.54,60.81a11.93,11.93,0,0,1-8.93-3,12.25,12.25,0,0,1-4.25-8.35H28.73a12.3,12.3,0,0,1-6.36,9.81,11.83,11.83,0,0,1-7.84,1.41A12.32,12.32,0,0,1,4.1,49.35a12,12,0,0,1,3-8.92A12.27,12.27,0,0,1,15.44,36.2ZM27.82,25.69h9.42V23.87H27.82Zm0,7.59h9.42V31.46H27.82Zm9.44,5.78H27.84v1.83h9.42Z"/><path class="cls-1" d="M10.71,48.51V42.16c0-.93.32-1.24,1.25-1.24,3,0,5.93,0,8.89,0,.93,0,1.25.31,1.25,1.24V54.85c0,.93-.32,1.25-1.25,1.25H12c-.93,0-1.24-.32-1.25-1.25Zm9.47,0H12.64v5.62h7.54Zm0-2V42.85H12.65v3.73Z"/><path class="cls-1" d="M52.48,42.84H44.91V54.17h7.53V50.44h1.92c0,1.61,0,3.21,0,4.8a.86.86,0,0,1-1,.85H44c-.66,0-1-.4-1-1.14,0-2.37,0-4.74,0-7.11V42.21c0-1,.3-1.29,1.26-1.29q4.44,0,8.89,0c.92,0,1.23.32,1.23,1.25,0,.47,0,.95,0,1.42a.56.56,0,0,1-.06.17H52.48Z"/><path class="cls-1" d="M55.43,12.36a3,3,0,0,1-.9,2.21q-3.47,3.48-7,7a1.7,1.7,0,0,1-.75.42c-1.16.32-2.33.61-3.5.89a1,1,0,0,1-1.23-1.25,3,3,0,0,0,.09-.41A9.27,9.27,0,0,1,45.64,15c1.68-1.43,3.14-3.11,4.72-4.66a2.83,2.83,0,0,1,3.28-.63A2.87,2.87,0,0,1,55.43,12.36Zm-11.08,8.2a4.45,4.45,0,0,0,3-1.5c1.72-1.85,3.55-3.59,5.34-5.38.19-.2.4-.39.57-.6a1,1,0,0,0-.08-1.36,1,1,0,0,0-1.39-.11,3.31,3.31,0,0,0-.44.4c-1.86,1.86-3.67,3.76-5.59,5.56A4.46,4.46,0,0,0,44.35,20.56Z"/><path class="cls-1" d="M16.39,16.27H18.3c0,1.31,0,2.59,0,3.87a.84.84,0,0,1-.9.84H9.73a.9.9,0,0,1-.91-1q0-3.77,0-7.53a.93.93,0,0,1,1-1h3.66v1.88H10.75V19h5.64Z"/><path class="cls-1" d="M46.07,50.16l1.47-1.36,1,1.28L53.65,45,55,46.36l-.29.34L49.6,51.77c-.72.72-1.13.72-1.85,0Z"/><path class="cls-1" d="M17.7,10.92l1.12,1.18L13.2,17.72l-1.1-1.2Z"/><path class="cls-1" d="M55.29,21v1.82H49.65V21Z"/><path class="cls-1" d="M24.92,16.29v1.82H20.25V16.29Z"/><path class="cls-1" d="M18.29,50.44v1.82H14.55V50.44Z"/></svg>