<svg id="Layer_1" data-name="Layer 1" xmlns="http://www.w3.org/2000/svg" viewBox="0 0 65 65"><defs><style>.cls-1{fill:blue;}.cls-2{fill:#f3f945;}</style></defs><path class="cls-1" d="M8.46,30.76l2.22.71.35.11c1.17.38,1.56.26,2.26-.77a.76.76,0,0,0,0-.56c-.27-.9-.57-1.79-.85-2.69-.23-.72-.13-1.07.51-1.45s1.59-.93,2.39-1.37a1,1,0,0,1,1.38.25c.63.71,1.28,1.39,1.89,2.11.27.31.52.29.9.25A1.5,1.5,0,0,0,21,25.74a16.09,16.09,0,0,1,.43-2,1,1,0,0,1,1-.86c1,0,2,0,3,0a1,1,0,0,1,1,.9c.19.93.41,1.84.59,2.77.07.39.27.53.64.68a1.54,1.54,0,0,0,2.11-.65A16,16,0,0,1,31.1,25a1,1,0,0,1,1.38-.28c.84.46,1.67.94,2.5,1.43a1,1,0,0,1,.46,1.32c-.29.9-.56,1.8-.87,2.69a.81.81,0,0,0,.22.9,1.52,1.52,0,0,0,2.14.5,16,16,0,0,1,1.92-.64,1,1,0,0,1,1.37.48c.47.79.92,1.59,1.38,2.39a1.09,1.09,0,0,1-.27,1.48c-.7.61-1.36,1.25-2.07,1.85-.31.26-.29.51-.25.9.1,1,.65,1.4,1.61,1.49a15.41,15.41,0,0,1,2.1.45.9.9,0,0,1,.79.89c0,1,0,2.08,0,3.12a.93.93,0,0,1-.83.93c-.94.2-1.88.42-2.83.6a.86.86,0,0,0-.68.64,1.53,1.53,0,0,0,.66,2.11,16,16,0,0,1,1.51,1.35A1,1,0,0,1,41.63,51c-.46.84-.94,1.68-1.43,2.51a1,1,0,0,1-1.33.45c-.89-.29-1.8-.55-2.68-.87-.39-.15-.59,0-.9.22a1.52,1.52,0,0,0-.49,2.15,17.25,17.25,0,0,1,.63,1.92A1,1,0,0,1,35,58.73l-2.45,1.4a1,1,0,0,1-1.38-.26c-.61-.69-1.25-1.36-1.85-2.06a.9.9,0,0,0-.94-.3,1.5,1.5,0,0,0-1.48,1.62,16.13,16.13,0,0,1-.44,2,1,1,0,0,1-1,.86q-1.5,0-3,0a1,1,0,0,1-1-.91c-.19-.92-.41-1.83-.59-2.76-.07-.39-.28-.53-.64-.68a1.54,1.54,0,0,0-2.11.66,14.72,14.72,0,0,1-1.34,1.52,1,1,0,0,1-1.38.27c-.84-.46-1.67-1-2.5-1.43a1,1,0,0,1-.45-1.33c.28-.89.56-1.79.87-2.68a.8.8,0,0,0-.18-.86,1.58,1.58,0,0,0-2.25-.51A16.9,16.9,0,0,1,9,53.94a1,1,0,0,1-1.37-.49c-.47-.81-.95-1.63-1.4-2.45a1,1,0,0,1,.26-1.38c.69-.61,1.36-1.25,2.06-1.85a.91.91,0,0,0,.3-.94,1.51,1.51,0,0,0-1.62-1.48,15.41,15.41,0,0,1-2.1-.45.91.91,0,0,1-.79-.9q0-1.56,0-3.12A.91.91,0,0,1,5.18,40c.94-.2,1.88-.43,2.82-.6.4-.08.53-.28.68-.65A1.53,1.53,0,0,0,8,36.6a16,16,0,0,1-1.52-1.34,1,1,0,0,1-.28-1.38c.47-.84.93-1.68,1.45-2.49A3,3,0,0,1,8.46,30.76ZM38.91,33l-2.82.91c-.94.3-1.11.24-1.76-.47A13.89,13.89,0,0,0,32.89,32a1.29,1.29,0,0,1-.46-1.62c.34-.95.63-1.93,1-2.92l-1.21-.67c-.69.76-1.36,1.45-2,2.19a1.37,1.37,0,0,1-1.78.47,9.92,9.92,0,0,0-2-.53,1.25,1.25,0,0,1-1.13-1.11c-.19-1-.43-2-.65-3h-1.4c-.23,1.06-.46,2.08-.66,3.1a1.22,1.22,0,0,1-1.05,1,16.42,16.42,0,0,0-2.19.58,1.26,1.26,0,0,1-1.57-.42c-.67-.77-1.37-1.52-2.07-2.29l-1.2.69c.34,1.06.65,2.08,1,3.09a1.12,1.12,0,0,1-.37,1.31,21.41,21.41,0,0,0-1.65,1.65,1.28,1.28,0,0,1-1.57.43c-1-.35-1.93-.64-2.94-1l-.67,1.21,2.4,2.18A1.11,1.11,0,0,1,11,37.69a17.78,17.78,0,0,0-.6,2.25,1.27,1.27,0,0,1-1.1,1.14c-1,.2-2,.43-3.06.66v1.39c1.07.23,2.11.46,3.15.67a1.19,1.19,0,0,1,1,1A18.09,18.09,0,0,0,11,47a1.28,1.28,0,0,1-.4,1.58c-.78.66-1.52,1.36-2.31,2.08L9,51.88c1-.33,2-.62,3-1a1.24,1.24,0,0,1,1.52.41,17.37,17.37,0,0,0,1.61,1.6,1.23,1.23,0,0,1,.41,1.47c-.35,1-.64,2-1,3l1.2.68c.71-.77,1.4-1.5,2-2.26a1.31,1.31,0,0,1,1.63-.44,12.86,12.86,0,0,0,2.13.57A1.23,1.23,0,0,1,22.58,57c.2,1,.43,2,.66,3.08h1.39c.23-1,.46-2.06.66-3.08A1.22,1.22,0,0,1,26.38,56a13.13,13.13,0,0,0,2.13-.57,1.3,1.3,0,0,1,1.62.44c.66.77,1.36,1.51,2.05,2.27l1.2-.69c-.34-1-.64-2.06-1-3.07A1.14,1.14,0,0,1,32.77,53c.55-.49,1.08-1,1.58-1.55s.81-.75,1.71-.46l2.85.91.68-1.2c-.81-.74-1.59-1.46-2.39-2.17a1.15,1.15,0,0,1-.35-1.37,20.86,20.86,0,0,0,.6-2.19c.19-.82.34-1,1.19-1.17l3-.65v-1.4l-3-.65c-.82-.17-1-.35-1.16-1.2a13.89,13.89,0,0,0-.55-2,1.28,1.28,0,0,1,.41-1.62c.78-.66,1.52-1.37,2.29-2.06Z"/><path class="cls-1" d="M51.34,24.41c-.27-.11-.48-.17-.68-.27-.68-.35-1.34-.71-2-1.05a.73.73,0,0,0-1.1.46c-.24.74-.48,1.48-.7,2.22a1,1,0,0,1-1,.83c-.84,0-1.67,0-2.51,0a1,1,0,0,1-1-.8c-.21-.7-.44-1.4-.67-2.11s-.61-.87-1.29-.51l-2,1a1,1,0,0,1-1.24-.13c-.61-.59-1.2-1.18-1.78-1.78A1,1,0,0,1,35.28,21c.34-.65.69-1.3,1-2s.2-1.06-.52-1.29-1.4-.46-2.1-.67a1,1,0,0,1-.81-1c0-.83,0-1.67,0-2.51a1,1,0,0,1,.83-1c.74-.22,1.48-.47,2.22-.71a.72.72,0,0,0,.46-1.1c-.34-.68-.68-1.35-1.05-2a1.1,1.1,0,0,1,.17-1.46L37.06,5.8a1.14,1.14,0,0,1,1.51-.18c.63.37,1.3.69,2,1a.72.72,0,0,0,1.14-.47c.24-.74.48-1.48.7-2.22a1,1,0,0,1,1-.79c.84,0,1.68,0,2.51,0a1,1,0,0,1,1,.84c.22.73.45,1.44.69,2.16a.74.74,0,0,0,1.18.48l2-1.06a1,1,0,0,1,1.3.14c.59.56,1.17,1.15,1.74,1.74a1,1,0,0,1,.14,1.29q-.55,1-1.08,2.07a.73.73,0,0,0,.49,1.13c.7.22,1.4.45,2.11.66a1.09,1.09,0,0,1,.91,1.08c0,.82,0,1.64,0,2.46a1,1,0,0,1-.79,1l-2.22.71A.72.72,0,0,0,52.82,19c.34.65.66,1.32,1,1.95a1.14,1.14,0,0,1-.18,1.51c-.53.54-1.06,1.08-1.61,1.59A3.43,3.43,0,0,1,51.34,24.41Zm3.08-9.51c.11-.44-.12-.61-.52-.71a11.87,11.87,0,0,1-1.86-.6,2.38,2.38,0,0,1-.89-.84,2.7,2.7,0,0,1,.2-3.38c.12-.16.17-.37.28-.54a.6.6,0,0,0-.05-.9.63.63,0,0,0-.95-.09c-.17.12-.38.17-.54.29a2.79,2.79,0,0,1-3.35.23,1.6,1.6,0,0,1-.9-1c-.17-.59-.37-1.17-.54-1.76-.1-.36-.22-.59-.69-.6s-.62.25-.73.63c-.16.59-.36,1.17-.53,1.76a1.6,1.6,0,0,1-.87.95,2.78,2.78,0,0,1-3.35-.21c-.19-.14-.45-.21-.65-.34s-.55-.17-.84.11-.3.53-.1.89c.68,1.24,1.63,2.45.52,3.93,0,0,0,.09-.05.11-.25.25-.46.59-.77.72a17.21,17.21,0,0,1-1.92.62c-.38.1-.58.24-.58.7a.61.61,0,0,0,.58.69c.22,0,.43.15.65.19A2.7,2.7,0,0,1,38.47,18a2.27,2.27,0,0,1,0,1.16,9.52,9.52,0,0,1-.89,1.74.66.66,0,0,0,.14.95c.32.32.55.2.86,0,1.24-.7,2.44-1.52,3.94-.52a1.72,1.72,0,0,1,.87,1c.16.55.34,1.09.5,1.64.12.39.16.76.76.75s.61-.36.72-.72c.17-.55.35-1.09.51-1.64a1.63,1.63,0,0,1,.9-1,2.79,2.79,0,0,1,3.35.23c.16.12.37.17.54.29a.64.64,0,0,0,.95-.09.6.6,0,0,0,.05-.9c-.11-.17-.16-.38-.28-.54a2.71,2.71,0,0,1-.2-3.38,2.38,2.38,0,0,1,.89-.84A12.65,12.65,0,0,1,54,15.54C54.32,15.45,54.51,15.29,54.42,14.9Z"/><path class="cls-1" d="M58.89,45.54l-1.58-.72a.94.94,0,0,0-1.42.6l-.09.23c-.25.54-.22,1.4-.89,1.51a13.41,13.41,0,0,1-3,0c-.18,0-.39-.35-.5-.57-.18-.39-.29-.81-.44-1.21a.94.94,0,0,0-1.36-.57l-.5.24c-1.3.62-1.4.61-2.46-.4l-.22-.21c-1.16-1.2-1.17-1.25-.45-2.76.19-.4.47-.8.13-1.24a2.13,2.13,0,0,0-.47-.43,1.71,1.71,0,0,0-.34-.13c-.54-.25-1.41-.21-1.52-.88a14,14,0,0,1,0-3c0-.18.34-.39.57-.5a9.39,9.39,0,0,1,1.09-.4c.78-.28,1-.77.64-1.5-.09-.2-.19-.41-.29-.61-.49-1.05-.47-1.19.32-2.06l.25-.27c1.27-1.32,1.38-1.38,3-.54a1.11,1.11,0,0,0,1.72-.72c.56-1.74.65-1.76,2.5-1.74l.85.06a1.11,1.11,0,0,1,1.07.86c.11.35.24.7.37,1a1,1,0,0,0,1.39.59l.44-.21c1.37-.64,1.45-.63,2.55.44l.22.21c1.09,1.13,1.1,1.21.44,2.61-.1.21-.3.43-.27.61A3.87,3.87,0,0,0,61.1,35c.06.11.29.12.44.19.57.25,1.44.22,1.56.92a12.32,12.32,0,0,1,0,2.91c0,.2-.37.42-.61.54a12.32,12.32,0,0,1-1.2.45.94.94,0,0,0-.55,1.36l.21.45c.65,1.36.64,1.45-.43,2.55a8.86,8.86,0,0,1-.91.83A4.06,4.06,0,0,1,58.89,45.54Zm-5.45,0c.22-.21.4-.31.47-.46.16-.37.25-.78.42-1.14a1.31,1.31,0,0,1,.53-.64c1.14-.55,2.3-1.16,3.52-.15l0,0c.2,0,.45,0,.56-.12a.68.68,0,0,0,.11-.56,4.46,4.46,0,0,0-.41-.89,1.67,1.67,0,0,1,0-1.4A2.83,2.83,0,0,1,61,38c.12,0,.28-.3.27-.44A.7.7,0,0,0,61,37c-.34-.17-.74-.24-1.09-.41a1.39,1.39,0,0,1-.65-.51c-.54-1.14-1.16-2.3-.16-3.52a.11.11,0,0,0,0-.05c0-.2,0-.47-.1-.56a.76.76,0,0,0-.61-.11c-.36.12-.69.37-1.06.47a1.77,1.77,0,0,1-.94,0c-1.23-.38-2.32-.93-2.47-2.42a.11.11,0,0,0,0-.06c-.14-.08-.29-.24-.42-.23a.65.65,0,0,0-.47.25c-.18.36-.25.78-.43,1.14a1.55,1.55,0,0,1-.56.69c-1.14.57-2.31,1.1-3.52.12l0,0c-.18,0-.42,0-.52.11a.68.68,0,0,0-.13.55c.12.38.37.73.49,1.12a1.77,1.77,0,0,1,0,.94c-.37,1.23-.91,2.32-2.41,2.5-.12,0-.3.27-.3.41a.65.65,0,0,0,.3.49c.36.19.79.25,1.14.44a1.65,1.65,0,0,1,.69.64c.58,1.13,1,2.29.07,3.48a.6.6,0,0,0,.13.54.68.68,0,0,0,.56.09c.36-.12.69-.36,1.06-.47a1.88,1.88,0,0,1,.94,0c1.22.38,2.33.9,2.5,2.41C53,45.2,53.24,45.33,53.44,45.54Z"/><path class="cls-2" d="M25.44,16.7l-1.22-1.08,1.44-1.31c.95.93,2,1.9,3,2.91a.9.9,0,0,1-.08,1.33c-.95,1-1.91,1.91-2.89,2.89l-1.4-1.56,1.17-.78-.21-.27A23.76,23.76,0,0,0,5.77,27.29L5,26.69l-.76-.64a25.58,25.58,0,0,1,21.07-9.17Z"/><path class="cls-2" d="M62.49,6,62.12,8l-2.51-.47a16.75,16.75,0,0,1,1.31,11,16.47,16.47,0,0,1-3.27,6.82l-1.5-1.21A14.56,14.56,0,0,0,57.87,8.67l-.51,2.45-1.92-.38c.34-1.7.65-3.35,1-5a.89.89,0,0,1,1.08-.71C59.15,5.35,60.77,5.69,62.49,6Z"/><path class="cls-2" d="M24,31.61A10.83,10.83,0,1,1,13.11,42.43,10.84,10.84,0,0,1,24,31.61Zm0,2a8.86,8.86,0,1,0,8.84,8.9A8.85,8.85,0,0,0,24,33.58Z"/><path class="cls-2" d="M44.61,10a4.92,4.92,0,1,1-4.93,4.92A4.92,4.92,0,0,1,44.61,10Zm2.94,4.9a3,3,0,1,0-3,3A3,3,0,0,0,47.55,14.86Z"/><path class="cls-2" d="M53.41,41.45a3.94,3.94,0,1,1,4-3.91A3.95,3.95,0,0,1,53.41,41.45Zm.06-2a2,2,0,1,0-2-1.94A2,2,0,0,0,53.47,39.48Z"/></svg>