<svg id="Layer_1" data-name="Layer 1" xmlns="http://www.w3.org/2000/svg" viewBox="0 0 65 65"><defs><style>.cls-1{fill:blue;}.cls-2{fill:#f3f945;}</style></defs><path class="cls-1" d="M32.12,63a15.13,15.13,0,0,1-2.23-.92,6,6,0,0,1-1.28-9.28,1.14,1.14,0,0,0,.34-1A13.14,13.14,0,0,0,15.78,39.67c-1.66,0-3.32,0-4.88,0A7.29,7.29,0,0,1,10.26,41a1.87,1.87,0,0,1-2.79.13C6,39.76,4.61,38.35,3.19,36.94a5.38,5.38,0,0,1-.56-.82v-.95a12.76,12.76,0,0,1,1-1.31C4.79,32.65,6,31.5,7.2,30.3a2.06,2.06,0,0,1,2.25-.67,1.92,1.92,0,0,1,1.31,1.86H14.9a20.21,20.21,0,0,1-.52-17A19.75,19.75,0,0,1,22.29,5.2,20.22,20.22,0,0,1,45.5,6.37,19.78,19.78,0,0,1,52.85,17.9a20.27,20.27,0,0,1-1.63,13.59h4.15c0-.13,0-.24.05-.36A1.93,1.93,0,0,1,58.64,30c1.49,1.39,2.93,2.84,4.36,4.3A1.81,1.81,0,0,1,62.94,37c-1.4,1.4-2.82,2.79-4.24,4.17a1.85,1.85,0,0,1-2,.44,1.92,1.92,0,0,1-1.29-1.8c-.05,0-.09-.07-.12-.07-2.25,0-4.53-.09-6.76.14A13.06,13.06,0,0,0,37.35,50.5c0,.21-.07.43-.1.64a2.24,2.24,0,0,0,.53,2,6,6,0,0,1-3.38,9.74L34,63ZM51.38,22.39c-.09-.94-.12-1.9-.27-2.83A18.27,18.27,0,1,0,16.53,30.17c.47,1,1,1.72,2.19,1.57a.57.57,0,0,1,.18,0A21.24,21.24,0,0,1,32,39a1.21,1.21,0,0,0,2.1,0,21.13,21.13,0,0,1,14.25-7.37.81.81,0,0,0,.72-.48A19.07,19.07,0,0,0,51.38,22.39Zm6.08,9.33c0,.19,0,.27,0,.34,0,1.27-.28,1.51-1.56,1.52-1.75,0-3.49,0-5.23,0a19.43,19.43,0,0,0-7.82,1.52A18.87,18.87,0,0,0,35.7,40.3a3.33,3.33,0,0,1-2.6,1.34,3.59,3.59,0,0,1-2.78-1.47,18.79,18.79,0,0,0-13.81-6.56c-2.12-.08-4.24,0-6.36,0-1.12,0-1.42-.31-1.44-1.41a1.09,1.09,0,0,0,0-.3L5,35.56l3.69,3.86c0-.15,0-.27,0-.38,0-1.12.31-1.4,1.42-1.4,2,0,4.09,0,6.13,0A15.08,15.08,0,0,1,30,47.34c.46,1.23.73,2.53,1.1,3.81a6.44,6.44,0,0,1,4.09,0c0-.3.11-.57.15-.84A15.24,15.24,0,0,1,47.44,37.91c3-.53,6-.2,9.07-.25a1,1,0,0,1,.91,1c0,.27,0,.53,0,.81l3.84-3.8ZM33.08,52.86a4,4,0,0,0-4.06,4,4.05,4.05,0,1,0,4.06-4Z"/><path class="cls-2" d="M28.92,29l1.69-2.25L40.13,14l.21-.29a1,1,0,0,1,1.42-.26,1,1,0,0,1,.2,1.46C41.2,16,40.4,17,39.62,18.08L30.1,30.77c-.74,1-1.25,1-2.11.17-1.19-1.19-2.4-2.37-3.56-3.59a1.55,1.55,0,0,1-.42-1,1,1,0,0,1,.62-.75,1.42,1.42,0,0,1,1.11.28c.94.84,1.81,1.77,2.71,2.66C28.58,28.66,28.73,28.79,28.92,29Z"/></svg>