<svg xmlns="http://www.w3.org/2000/svg" xmlns:xlink="http://www.w3.org/1999/xlink" width="225" zoomAndPan="magnify" viewBox="0 0 168.75 168.749997" height="225" preserveAspectRatio="xMidYMid meet" version="1.0"><defs><clipPath id="fc26e0797c"><path d="M 0 0 L 168.5 0 L 168.5 168.5 L 0 168.5 Z M 0 0 " clip-rule="nonzero"/></clipPath><clipPath id="44525f2ce1"><path d="M 41.152344 68.386719 L 61 68.386719 L 61 99.839844 L 41.152344 99.839844 Z M 41.152344 68.386719 " clip-rule="nonzero"/></clipPath><clipPath id="2bee2de7f4"><path d="M 41.152344 73 L 56 73 L 56 99.839844 L 41.152344 99.839844 Z M 41.152344 73 " clip-rule="nonzero"/></clipPath></defs><g clip-path="url(#fc26e0797c)"><path fill="#ffffff" d="M 0 0 L 168.5 0 L 168.5 168.5 L 0 168.5 Z M 0 0 " fill-opacity="1" fill-rule="nonzero"/><path fill="#ffffff" d="M 0 0 L 168.5 0 L 168.5 168.5 L 0 168.5 Z M 0 0 " fill-opacity="1" fill-rule="nonzero"/></g><path fill="#09565f" d="M 73.378906 75.992188 C 73.941406 75.722656 75.570312 74.972656 76.300781 74.652344 C 76.21875 75.003906 76.136719 75.355469 76.050781 75.707031 C 75.847656 76.546875 75.617188 77.507812 75.378906 78.5 C 74.953125 80.269531 74.515625 82.101562 74.136719 83.585938 C 73.550781 85.898438 72.875 88.265625 72.335938 89.914062 C 72.082031 90.785156 71.585938 91.566406 70.90625 92.171875 C 70.222656 92.777344 69.382812 93.175781 68.480469 93.328125 C 67 93.539062 65.503906 93.621094 64.007812 93.574219 C 65.167969 92.503906 66.351562 91.085938 66.566406 90.917969 L 66.847656 90.902344 C 67.5 90.917969 68.148438 90.777344 68.734375 90.488281 C 69.351562 90.121094 69.800781 89.53125 69.984375 88.839844 C 70.410156 87.097656 71.003906 84.941406 71.539062 82.855469 C 72.042969 80.886719 72.5625 78.847656 72.972656 77.191406 L 73.25 76.050781 Z M 73.378906 75.992188 " fill-opacity="1" fill-rule="nonzero"/><path fill="#09565f" d="M 126.894531 76.507812 C 125.621094 76.441406 124.34375 76.496094 123.082031 76.667969 C 122.144531 76.824219 121.273438 77.238281 120.566406 77.867188 C 119.855469 78.496094 119.339844 79.308594 119.078125 80.214844 C 118.515625 81.925781 117.527344 85.996094 117.3125 86.871094 C 117.222656 87.234375 117.195312 87.464844 117.109375 87.832031 L 119.933594 87.832031 C 119.933594 87.832031 121.03125 83.136719 121.476562 81.328125 C 121.550781 80.996094 121.691406 80.679688 121.898438 80.402344 C 122.101562 80.128906 122.359375 79.898438 122.660156 79.726562 C 123.152344 79.53125 123.675781 79.410156 124.203125 79.367188 Z M 126.894531 76.507812 " fill-opacity="1" fill-rule="nonzero"/><path fill="#09565f" d="M 94.585938 76.917969 C 94.019531 76.667969 93.40625 76.539062 92.789062 76.542969 C 92.167969 76.546875 91.554688 76.679688 90.992188 76.9375 C 89.507812 77.59375 88.269531 78.699219 87.457031 80.097656 C 86.648438 81.5 86.304688 83.117188 86.484375 84.722656 C 86.527344 85.484375 86.847656 86.207031 87.378906 86.761719 C 87.914062 87.3125 88.628906 87.660156 89.394531 87.738281 C 89.933594 87.785156 90.445312 87.777344 91.039062 87.785156 L 91.304688 87.769531 C 91.339844 87.757812 91.359375 87.640625 91.421875 87.375 C 91.476562 87.144531 91.882812 85.441406 92.015625 84.878906 L 92.105469 84.511719 L 92.097656 84.511719 C 91.886719 84.566406 91.691406 84.617188 91.496094 84.65625 C 91.234375 84.71875 90.964844 84.726562 90.703125 84.675781 C 90.4375 84.628906 90.191406 84.527344 89.96875 84.375 C 89.800781 84.25 89.660156 84.089844 89.558594 83.910156 C 89.457031 83.726562 89.398438 83.523438 89.382812 83.316406 C 89.292969 82.691406 89.378906 82.054688 89.640625 81.480469 C 89.898438 80.90625 90.3125 80.414062 90.839844 80.0625 C 91.164062 79.828125 91.550781 79.695312 91.953125 79.679688 C 92.355469 79.664062 92.75 79.769531 93.089844 79.980469 C 94.066406 80.570312 93.730469 81.828125 93.523438 82.71875 C 93.363281 83.410156 93.203125 84.101562 93.039062 84.789062 C 92.839844 85.636719 92.550781 86.589844 92.273438 87.515625 C 92.003906 88.417969 91.722656 89.351562 91.523438 90.171875 L 90.871094 92.90625 C 90.871094 92.90625 93.867188 91.144531 94.011719 91.054688 L 94.09375 90.726562 C 94.359375 89.613281 94.707031 88.402344 95.042969 87.230469 C 95.4375 85.847656 95.84375 84.417969 96.136719 83.121094 C 96.386719 82.132812 96.527344 81.125 96.566406 80.109375 C 96.601562 79.441406 96.433594 78.78125 96.078125 78.210938 C 95.726562 77.640625 95.207031 77.1875 94.589844 76.917969 " fill-opacity="1" fill-rule="nonzero"/><path fill="#09565f" d="M 85.664062 79.929688 C 85.644531 79.46875 85.535156 79.015625 85.339844 78.59375 C 85.144531 78.175781 84.867188 77.796875 84.523438 77.484375 C 84.476562 77.445312 84.433594 77.40625 84.386719 77.367188 C 83.726562 76.828125 82.898438 76.53125 82.042969 76.53125 C 81.371094 76.546875 80.707031 76.6875 80.085938 76.945312 C 78.675781 77.558594 77.484375 78.582031 76.667969 79.878906 C 75.855469 81.171875 75.453125 82.683594 75.519531 84.210938 C 75.515625 84.726562 75.617188 85.238281 75.820312 85.710938 C 76.023438 86.1875 76.324219 86.613281 76.703125 86.96875 C 77.398438 87.539062 78.28125 87.839844 79.1875 87.808594 C 79.480469 87.816406 79.78125 87.816406 80.109375 87.820312 L 80.390625 87.808594 C 80.402344 87.800781 81.1875 84.515625 81.1875 84.515625 C 80.980469 84.5625 80.789062 84.613281 80.597656 84.652344 C 80.332031 84.71875 80.058594 84.726562 79.789062 84.679688 C 79.523438 84.628906 79.269531 84.527344 79.046875 84.371094 C 78.871094 84.238281 78.726562 84.070312 78.621094 83.878906 C 78.519531 83.6875 78.460938 83.472656 78.445312 83.253906 C 78.378906 82.679688 78.460938 82.097656 78.6875 81.5625 C 78.914062 81.027344 79.273438 80.5625 79.738281 80.210938 C 80.101562 79.945312 80.53125 79.777344 80.976562 79.722656 C 81.210938 79.679688 81.449219 79.6875 81.679688 79.742188 C 81.90625 79.800781 82.121094 79.90625 82.308594 80.050781 C 82.484375 80.214844 82.621094 80.414062 82.710938 80.636719 C 82.800781 80.859375 82.84375 81.101562 82.832031 81.339844 C 82.832031 81.5625 82.816406 81.789062 82.78125 82.007812 C 82.757812 82.15625 82.730469 82.304688 82.691406 82.460938 C 82.507812 83.25 82.316406 84.042969 82.125 84.832031 C 82.050781 85.15625 81.972656 85.476562 81.894531 85.800781 L 81.511719 87.546875 C 81.492188 87.625 81.476562 87.707031 81.460938 87.789062 L 84.136719 87.789062 L 85.265625 82.9375 C 85.28125 82.878906 85.296875 82.816406 85.3125 82.753906 C 85.535156 81.957031 85.660156 81.136719 85.679688 80.308594 C 85.679688 80.183594 85.671875 80.054688 85.660156 79.929688 " fill-opacity="1" fill-rule="nonzero"/><path fill="#09565f" d="M 117.398438 79.929688 C 117.378906 79.46875 117.269531 79.015625 117.074219 78.59375 C 116.878906 78.175781 116.601562 77.796875 116.257812 77.484375 C 116.214844 77.445312 116.167969 77.40625 116.121094 77.367188 C 115.460938 76.828125 114.632812 76.53125 113.777344 76.53125 C 113.105469 76.546875 112.441406 76.6875 111.820312 76.945312 C 110.410156 77.558594 109.21875 78.582031 108.402344 79.878906 C 107.589844 81.171875 107.1875 82.683594 107.257812 84.210938 C 107.25 84.726562 107.351562 85.238281 107.554688 85.710938 C 107.757812 86.1875 108.058594 86.613281 108.433594 86.96875 C 109.132812 87.539062 110.015625 87.839844 110.921875 87.808594 C 111.214844 87.816406 111.515625 87.816406 111.84375 87.820312 L 112.125 87.808594 C 112.140625 87.800781 112.921875 84.515625 112.921875 84.515625 C 112.714844 84.5625 112.523438 84.613281 112.332031 84.652344 C 112.070312 84.71875 111.792969 84.726562 111.527344 84.679688 C 111.257812 84.628906 111.003906 84.527344 110.78125 84.371094 C 110.605469 84.238281 110.460938 84.070312 110.355469 83.878906 C 110.253906 83.6875 110.195312 83.472656 110.183594 83.253906 C 110.113281 82.679688 110.195312 82.097656 110.421875 81.5625 C 110.644531 81.027344 111.007812 80.5625 111.472656 80.210938 C 111.839844 79.945312 112.265625 79.777344 112.714844 79.722656 C 112.945312 79.679688 113.183594 79.6875 113.414062 79.742188 C 113.644531 79.800781 113.855469 79.90625 114.042969 80.050781 C 114.21875 80.214844 114.355469 80.414062 114.445312 80.636719 C 114.535156 80.859375 114.578125 81.101562 114.566406 81.339844 C 114.566406 81.5625 114.550781 81.789062 114.515625 82.007812 C 114.492188 82.15625 114.464844 82.304688 114.425781 82.460938 C 114.242188 83.25 114.054688 84.042969 113.863281 84.832031 L 113.628906 85.800781 L 113.246094 87.546875 C 113.226562 87.625 113.210938 87.707031 113.199219 87.789062 L 115.871094 87.789062 L 117.003906 82.9375 L 117.046875 82.753906 C 117.269531 81.957031 117.394531 81.136719 117.414062 80.308594 C 117.414062 80.183594 117.40625 80.054688 117.394531 79.929688 " fill-opacity="1" fill-rule="nonzero"/><path fill="#09565f" d="M 107.070312 76.644531 C 106.414062 76.644531 105.773438 76.660156 105.136719 76.648438 L 105.128906 76.648438 C 104.929688 76.648438 104.921875 76.636719 104.910156 76.671875 C 104.902344 76.707031 104.914062 76.664062 104.867188 76.859375 C 104.375 78.917969 103.871094 81.15625 103.425781 82.96875 C 103.351562 83.367188 103.179688 83.738281 102.921875 84.050781 C 102.667969 84.363281 102.339844 84.609375 101.964844 84.761719 C 101.714844 84.878906 101.441406 84.925781 101.167969 84.898438 C 100.894531 84.871094 100.632812 84.769531 100.414062 84.605469 C 100.21875 84.433594 100.074219 84.210938 99.996094 83.960938 C 99.921875 83.714844 99.914062 83.449219 99.980469 83.199219 C 100.191406 82.121094 101.46875 76.660156 101.46875 76.660156 L 98.78125 76.660156 C 98.78125 76.660156 97.867188 80.640625 97.570312 81.84375 C 97.28125 82.789062 97.148438 83.773438 97.171875 84.761719 C 97.203125 85.59375 97.558594 86.382812 98.160156 86.960938 C 98.707031 87.460938 99.394531 87.78125 100.132812 87.878906 C 100.867188 87.972656 101.617188 87.839844 102.273438 87.492188 C 102.9375 87.230469 103.546875 86.851562 104.074219 86.371094 C 104.132812 86.320312 104.1875 86.265625 104.242188 86.210938 C 104.273438 86.183594 104.300781 86.15625 104.332031 86.128906 C 105.023438 85.398438 105.550781 84.53125 105.875 83.585938 C 105.921875 83.457031 105.964844 83.328125 106.003906 83.195312 C 106.359375 82.066406 106.632812 80.894531 106.902344 79.761719 C 107.019531 79.273438 107.507812 77.222656 107.601562 76.816406 L 107.648438 76.648438 Z M 107.070312 76.644531 " fill-opacity="1" fill-rule="nonzero"/><g clip-path="url(#44525f2ce1)"><path fill="#09565f" d="M 57.464844 71.742188 C 58.695312 70.683594 59.863281 69.5625 60.972656 68.386719 C 60.691406 69.351562 60.367188 70.546875 59.960938 72.226562 C 59.664062 73.429688 59.371094 74.636719 59.082031 75.84375 C 57.789062 81.195312 56.671875 86.726562 54.574219 91.652344 C 51.199219 99.585938 41.277344 99.832031 41.277344 99.832031 C 47.640625 97.355469 51.628906 92.6875 52.988281 88.125 C 54.589844 82.742188 55.992188 77.253906 57.453125 71.804688 Z M 57.464844 71.742188 " fill-opacity="1" fill-rule="nonzero"/></g><g clip-path="url(#2bee2de7f4)"><path fill="#09565f" d="M 55.535156 73.128906 C 55.292969 73.910156 55.019531 75.164062 54.65625 76.523438 C 54.390625 77.5 54.191406 78.226562 53.933594 79.203125 C 52.777344 83.539062 51.726562 88.027344 50.054688 92.023438 C 49.261719 93.90625 48.046875 95.585938 46.507812 96.9375 C 44.964844 98.292969 43.136719 99.285156 41.15625 99.839844 C 45.585938 97.464844 47.855469 93.058594 49.011719 89.359375 C 50.378906 84.996094 51.527344 80.15625 52.804688 75.738281 L 52.816406 75.6875 C 53.769531 74.882812 54.675781 74.03125 55.535156 73.128906 " fill-opacity="1" fill-rule="nonzero"/></g></svg>