<svg id="Layer_1" data-name="Layer 1" xmlns="http://www.w3.org/2000/svg" viewBox="0 0 65 65"><defs><style>.cls-1{fill:#f3f945;}.cls-2{fill:blue;}</style></defs><path class="cls-1" d="M32.34,15.37A17.11,17.11,0,1,1,15.25,32.49,17.12,17.12,0,0,1,32.34,15.37ZM20.57,41.91a12.47,12.47,0,0,1,7.74-8.2,6.78,6.78,0,0,1-.71-10.06,6.68,6.68,0,0,1,9.2-.27A6.45,6.45,0,0,1,39,27.76a6.71,6.71,0,0,1-2.62,5.94,12.44,12.44,0,0,1,7.76,8.18,15.1,15.1,0,1,0-23.56,0ZM32.36,47.6a15.32,15.32,0,0,0,9.37-3.22,1.38,1.38,0,0,0,.56-1.74,10.29,10.29,0,0,0-20,.42.94.94,0,0,0,.38,1.08A15.09,15.09,0,0,0,32.36,47.6Zm4.69-19.28a4.7,4.7,0,1,0-4.69,4.73A4.68,4.68,0,0,0,37.05,28.32Z"/><path class="cls-2" d="M33.37,4V9.57c.31-.26.56-.48.82-.68a1,1,0,1,1,1.26,1.51c-.77.66-1.55,1.32-2.34,2a1,1,0,0,1-1.53,0c-.77-.63-1.54-1.28-2.3-1.93a1,1,0,1,1,1.27-1.5l.78.65c0-.25,0-.41,0-.58V3.34c0-1.08.31-1.38,1.38-1.37A30.54,30.54,0,0,1,61.88,24.79c.13.5.24,1,.35,1.49.16.77-.09,1.29-.67,1.42s-1.09-.21-1.26-1a26.72,26.72,0,0,0-3.08-8.21A28.2,28.2,0,0,0,35.7,4.14C35,4.05,34.36,4,33.69,4Z"/><path class="cls-2" d="M31.34,61V55.39c-.31.25-.55.46-.81.66a1,1,0,0,1-1.47,0,1,1,0,0,1,.2-1.45q1.15-1,2.34-2a1,1,0,0,1,1.48,0c.81.66,1.6,1.33,2.39,2a1,1,0,1,1-1.26,1.51l-.83-.69c0,.24,0,.41,0,.57V61.6C33.34,62.69,33,63,32,63A30.55,30.55,0,0,1,2.84,40.19c-.14-.53-.27-1.07-.37-1.61-.14-.72.13-1.22.71-1.34s1.07.22,1.22,1a27,27,0,0,0,3.8,9.42,28.13,28.13,0,0,0,19.89,13c1,.16,2,.22,3,.32Z"/><path class="cls-2" d="M3.76,31.47h5.7c-.27-.33-.49-.58-.69-.84a1,1,0,1,1,1.48-1.29c.69.8,1.37,1.62,2.05,2.44a1,1,0,0,1,0,1.39C11.62,34,11,34.8,10.25,35.6a1,1,0,0,1-1.41.18,1,1,0,0,1-.08-1.46c.2-.26.42-.5.69-.82-.25,0-.42,0-.59,0H3.17c-1,0-1.32-.32-1.32-1.31a30.54,30.54,0,0,1,23-29.22c.48-.11,1-.24,1.43-.34.73-.14,1.23.13,1.35.7s-.21,1.08-1,1.23a26.36,26.36,0,0,0-6.37,2.12,28.24,28.24,0,0,0-16,20.71C4,28.67,4,30,3.76,31.47Z"/><path class="cls-2" d="M60.88,33.48H55.26l.68.82a1,1,0,1,1-1.51,1.27c-.67-.77-1.32-1.55-2-2.34a1,1,0,0,1,0-1.48c.66-.81,1.33-1.61,2-2.39A1,1,0,1,1,56,30.62c-.2.26-.42.5-.7.83.25,0,.41,0,.58,0h5.75c.93,0,1.27.35,1.27,1.25A30.58,30.58,0,0,1,38.55,62.35c-.87.18-1.45-.19-1.45-.91,0-.55.31-.87,1-1a26.07,26.07,0,0,0,6.25-2.07,28.27,28.27,0,0,0,16-20.78c.16-.78.25-1.57.34-2.36C60.82,34.66,60.84,34.11,60.88,33.48Z"/></svg>