<svg id="Layer_1" data-name="Layer 1" xmlns="http://www.w3.org/2000/svg" viewBox="0 0 65 65"><defs><style>.cls-1{fill:#4dc0b3;}</style></defs><path class="cls-1" d="M.67,43.36c.21-1.37.32-2.75.64-4.09C1.8,37.17,2.41,35.09,3,33A4,4,0,0,1,5,30.6C6.68,29.73,8.33,28.89,10,28a2.44,2.44,0,0,0,.77-.66c.44-.6.83-1.23,1.22-1.86a.66.66,0,0,1,.93-.34,11.56,11.56,0,0,0,8.87,0,.64.64,0,0,1,.93.32A6.84,6.84,0,0,0,26.79,29a25.08,25.08,0,0,1,2.83,1.54,4.64,4.64,0,0,1,2,2.36,34.19,34.19,0,0,1,2.05,8.15c.16,1.16.22,2.34.3,3.51a5.78,5.78,0,0,1-1.14,3.78,19.25,19.25,0,0,1-4.33,4.31,3.26,3.26,0,0,0-1.27,1.82c-.29,1-.63,1.24-1.7,1.24H9.1c-1,0-1.38-.22-1.66-1.21a3.16,3.16,0,0,0-1.3-1.86A20,20,0,0,1,4,50.82a10.08,10.08,0,0,1-3.31-5.1Zm16.68,1H5.94c-.78,0-.82.06-.57.82,1,3,2,5.95,3,8.93a.77.77,0,0,0,.87.63q8.13,0,16.25,0a.8.8,0,0,0,.9-.68c1-3,2-5.91,2.94-8.86.27-.8.25-.84-.6-.84Zm10.9,7.12.2.14c1.09-1.14,2.22-2.26,3.27-3.45a5.33,5.33,0,0,0,1.28-4,41.11,41.11,0,0,0-2-10.06A4.9,4.9,0,0,0,28.47,31c-1.36-.66-2.69-1.36-4-2-.12-.06-.25-.09-.38-.14l-.4.61L20.89,33.8c-.45.72-.71.72-1.23,0-.22-.28-.42-.57-.63-.85l-1.17-1.57v12h9l-.57-6,.26,0q.57,2.57,1.13,5.13c.2.9.19.9,1.09.9,1.54,0,2,.65,1.5,2.13ZM16.8,31.42l-1.6,2.15c-.78,1.06-.91,1.06-1.62-.07l-3-4.74L5.79,31.28a4.06,4.06,0,0,0-2,2.36A36.63,36.63,0,0,0,1.66,44.79a4.55,4.55,0,0,0,.72,2.59A16.39,16.39,0,0,0,6.27,51.5s.06,0,.12,0c-.07-.22-.13-.43-.2-.64C5.57,49,4.94,47.1,4.34,45.24A1.27,1.27,0,0,1,5.63,43.4H6.8l1.37-6,.26,0-.59,6h9Zm-.14-1.49-4-3.62a5.41,5.41,0,0,1-.49.73,1.59,1.59,0,0,0,0,2.36c.83,1.1,1.51,2.32,2.3,3.56ZM22,26.31l-4,3.62,2.25,3c1-1.57,1.95-3.07,2.89-4.57a.42.42,0,0,0,0-.38C22.8,27.45,22.43,26.91,22,26.31Zm-2.15.59H14.78l2.56,2.29Z"/><path class="cls-1" d="M18.07,4.89C25,4.85,28,12.32,26,16.55a10.49,10.49,0,0,1-2.52,3.34,3.67,3.67,0,0,0-.71.91,7.15,7.15,0,0,1-4.13,3.8A4.53,4.53,0,0,1,14,23.49a23.41,23.41,0,0,1-2.18-2.74c-.15-.19-.28-.42-.48-.51A5.83,5.83,0,0,1,8,15.35a8.59,8.59,0,0,1,.15-3,3.89,3.89,0,0,1,2.29-2.62c.16-.08.38-.24.4-.39.28-1.89,1.6-2.86,3.17-3.6A9.48,9.48,0,0,1,18.07,4.89Zm5.19,13.79a6.77,6.77,0,0,0,2.34-4.77c0-3.11-1.19-5.65-4-7.13a7.79,7.79,0,0,0-8.34.56,4.76,4.76,0,0,0-1.23,1.43,1.23,1.23,0,0,0,.21,1.6c1.56,1.47,3.21,2.77,5.58,2.33.46-.08.93-.18,1.39-.29a2.41,2.41,0,0,1,3,1.32,5.09,5.09,0,0,1,.52,1.39C23,16.29,23.09,17.48,23.26,18.68Zm-8.43-5.26a6.08,6.08,0,0,1-2,2.61,1.65,1.65,0,0,0-.56,1,4.14,4.14,0,0,0,0,1.53,6.3,6.3,0,0,0,3.73,5c2.34,1,6-1.34,6.18-3.92a11.49,11.49,0,0,0-.58-5,1.64,1.64,0,0,0-2.28-1.18A7.39,7.39,0,0,1,14.83,13.42ZM13.9,13,11,10.62A3.06,3.06,0,0,0,9,13a6.12,6.12,0,0,0,1,4.89A9.57,9.57,0,0,0,11.17,19a2.24,2.24,0,0,0,.05-.28,2.22,2.22,0,0,0,0-.37,3.32,3.32,0,0,1,1.41-3.52A3.32,3.32,0,0,0,13.9,13Z"/><path class="cls-1" d="M57.87,56.89H48.74c0,.27-.07.66-.16,1a3,3,0,0,1-3.06,2.31,3.06,3.06,0,0,1-2.89-2.54,20.41,20.41,0,0,1,0-6.48,2.59,2.59,0,0,1,2.46-2.43A3.11,3.11,0,0,1,48.56,51a11.94,11.94,0,0,1,.2,1.24,24.64,24.64,0,0,1,9.06,0c.06-.42.08-.81.17-1.18a3.22,3.22,0,0,1,4.64-2,2.6,2.6,0,0,1,1.3,2,20.86,20.86,0,0,1,0,6.36,3,3,0,0,1-3.19,2.73,3.06,3.06,0,0,1-2.9-2.93C57.88,57.07,57.88,57,57.87,56.89Zm5.4-2.46c-.11-1.09-.2-2.2-.33-3.3a1.47,1.47,0,0,0-.93-1.3,2.16,2.16,0,0,0-3.1,1.79c-.1,1.86,0,3.72,0,5.58a2,2,0,0,0,4.07.15C63.11,56.4,63.17,55.43,63.27,54.43Zm-15.57.1c0-.91,0-1.81,0-2.72a2,2,0,0,0-2.06-2c-1.29-.05-1.84.45-2,1.79a19.44,19.44,0,0,0,0,5.8,2.06,2.06,0,0,0,4.11-.29C47.71,56.23,47.7,55.38,47.7,54.53Zm1,1.2a34.56,34.56,0,0,0,9.2,0c0-.76,0-1.46,0-2.16a.54.54,0,0,0-.34-.38,22.81,22.81,0,0,0-8.48,0,.56.56,0,0,0-.34.38C48.68,54.26,48.69,55,48.69,55.73Z"/><path class="cls-1" d="M52.47,31.24,51,28.77c.87.2,1.68,1,2.51,2.63A22.2,22.2,0,0,1,56.09,31a8.35,8.35,0,0,1,2.39.2,4.46,4.46,0,0,1,3.46,4.07,17.41,17.41,0,0,1-1.09,8.57,4.2,4.2,0,0,1-4.8,2.87,10.67,10.67,0,0,1-1.95-.29,6.66,6.66,0,0,0-2.44.17,18.46,18.46,0,0,1-2.22.12A3.77,3.77,0,0,1,46,44.34,13.36,13.36,0,0,1,45,41a26.27,26.27,0,0,1-.33-5.23c.2-3.16,2.37-4.92,5.56-4.76C50.87,31,51.56,31.15,52.47,31.24Zm.38,2.8c0-.4-.05-.73,0-1s-.19-.67-.64-.72A22.27,22.27,0,0,0,49.9,32c-2.6,0-4.11,1.27-4.3,3.86a18.92,18.92,0,0,0,.22,4.25,18.63,18.63,0,0,0,1,3.74,2.84,2.84,0,0,0,2.85,1.92c.86,0,1.72-.19,2.58-.24a15.89,15.89,0,0,1,2.07,0c.66,0,1.31.19,2,.25a3.15,3.15,0,0,0,3.55-2.1A16.77,16.77,0,0,0,61,35.36,3.48,3.48,0,0,0,59,32.49c-1.73-.83-3.49-.52-5.25,0a11.21,11.21,0,0,0,.09,1.36.76.76,0,0,0,.38.48c.42.22.9.32,1.3.56.18.11.23.45.34.69-.25.06-.56.25-.74.16a7.44,7.44,0,0,0-3.8-.67c-.35,0-.68-.09-.63-.48a.78.78,0,0,1,.56-.48A10.1,10.1,0,0,1,52.85,34Z"/><path class="cls-1" d="M52,10.2a9.69,9.69,0,0,1,3.74-2.08c3.67-1,8.68,1.86,7.1,7.38a9.67,9.67,0,0,1-1.36,2.82,24.54,24.54,0,0,1-8.19,7.24A1,1,0,0,1,52,25.4,48.7,48.7,0,0,1,45.78,19a10.59,10.59,0,0,1-2.37-5.37,5,5,0,0,1,3.8-5.36,5.17,5.17,0,0,1,4.13,1.28C51.57,9.77,51.78,10,52,10.2Zm-.74.69a4.5,4.5,0,0,0-3.81-1.6,4,4,0,0,0-3.08,4.38,9.65,9.65,0,0,0,2.18,4.79,43.92,43.92,0,0,0,5.75,5.9.68.68,0,0,0,1,.08,25.19,25.19,0,0,0,6.91-6A9.12,9.12,0,0,0,62,14.92a4.67,4.67,0,0,0-5-6,7.23,7.23,0,0,0-4.85,2.47c-.49.5-.9,1.07-1.39,1.66A2.63,2.63,0,0,1,51.3,10.89Z"/><path class="cls-1" d="M35.06,38.51h7.7c.4,0,1-.17,1,.51s-.56.48-1,.48H35c.18.26.29.44.42.62q3.3,4.68,6.62,9.35c.11.16.27.31.29.47s0,.49-.15.58a.79.79,0,0,1-.6,0c-.13-.06-.21-.25-.3-.38-2.48-3.49-4.94-7-7.43-10.46a1,1,0,0,1,0-1.32c3.48-4.87,6.93-9.77,10.4-14.66.06-.08.1-.21.18-.24.25-.12.58-.34.76-.26.39.19.25.54,0,.84l-3.87,5.46-6,8.5Z"/><path class="cls-1" d="M17.41,47.78a9.48,9.48,0,0,1,1.88.86,1.58,1.58,0,0,1-.05,2.6,3.29,3.29,0,0,1-3.77,0,1.63,1.63,0,0,1,.08-2.8A10.8,10.8,0,0,1,17.41,47.78Zm-.05,1.06a6.72,6.72,0,0,0-1.26.48.64.64,0,0,0,0,1.16,2.34,2.34,0,0,0,2.52,0,.67.67,0,0,0,0-1.21A7.07,7.07,0,0,0,17.36,48.84Z"/><path class="cls-1" d="M59,17.64c-.75.1-1.49.22-2.24.28a1.25,1.25,0,0,0-1,.56,11.37,11.37,0,0,1-1,1.22c-.19.21-.55.53-.7.47a1.2,1.2,0,0,1-.53-.73c-.38-1.19-.72-2.4-1.12-3.77-.25.68-.47,1.21-.64,1.76A.69.69,0,0,1,51,18c-.9-.13-1.82-.23-2.72-.34v-.27c.72-.1,1.43-.24,2.16-.31a.63.63,0,0,0,.65-.5c.27-.85.56-1.69.9-2.51.08-.2.35-.46.53-.46s.44.29.5.5c.41,1.25.76,2.52,1.13,3.79l.25.76a10.89,10.89,0,0,1,1-1.21,1.24,1.24,0,0,1,.82-.37c1,.05,1.91.19,2.87.3Z"/></svg>