<svg id="Layer_1" data-name="Layer 1" xmlns="http://www.w3.org/2000/svg" viewBox="0 0 65 65"><defs><style>.cls-1{fill:#4dc0b3;}</style></defs><path class="cls-1" d="M54.18,50h-11V48.1h.6c3.55,0,7.09,0,10.64,0a1.36,1.36,0,0,1,1.44.93c1.83,4.33,3.69,8.64,5.54,13,.48,1.14.1,1.71-1.13,1.71H4.63c-1.26,0-1.64-.57-1.14-1.74C5.33,57.63,7.18,53.34,9,49a1.37,1.37,0,0,1,1.43-1c3.55,0,7.1,0,10.64,0h.63V50H11.23c-.32,0-.54,0-.7.38C9,54.08,7.41,57.72,5.85,61.37a2.49,2.49,0,0,0-.1.32H59.16Z"/><path class="cls-1" d="M19.78,51V53h-.65c-1.94,0-3.89,0-5.83,0a.75.75,0,0,0-.85.61c-.55,1.54-1.14,3.07-1.72,4.61-.07.18-.13.37-.2.6h43.8a5.07,5.07,0,0,0-.14-.5c-.6-1.62-1.22-3.22-1.81-4.84a.61.61,0,0,0-.69-.48c-2.17,0-4.34,0-6.55,0V51.05c.16,0,.33,0,.5,0,2.31,0,4.63,0,6.94,0a1.22,1.22,0,0,1,1.31.91c.88,2.41,1.8,4.81,2.7,7.22.39,1,0,1.61-1.12,1.61H9.39c-1.08,0-1.49-.58-1.12-1.57.91-2.42,1.83-4.84,2.73-7.27a1.18,1.18,0,0,1,1.26-.9c2.35,0,4.7,0,7,0Z"/><path class="cls-1" d="M26.88,16.48l1,.79c.25.2.4.6.85.33s1-.22,1-1c-.09-1.33.2-1.55,1.53-1.55H34c.84,0,1.18.33,1.2,1.17a1.93,1.93,0,0,1,0,.24,1.27,1.27,0,0,0,1.23,1.27.68.68,0,0,0,.35-.19c.21-.19.4-.41.61-.6a.91.91,0,0,1,1.36,0c.85.81,1.68,1.65,2.5,2.49a.94.94,0,0,1,0,1.41,3.19,3.19,0,0,1-.26.26,1.22,1.22,0,0,0-.07,1.77.58.58,0,0,0,.37.14c.26,0,.53,0,.79,0a1,1,0,0,1,1.08,1.11c0,1.09,0,2.19,0,3.28a1,1,0,0,1-1,1.09h-.24c-.88,0-1.26.32-1.39,1.16a.64.64,0,0,0,.13.37c.14.17.32.32.47.48.64.65.64,1.1,0,1.76L39,34.34c-.65.65-1.1.64-1.76,0s-1-.73-1.79-.2a.59.59,0,0,0-.2.39,5.93,5.93,0,0,0,0,.73c0,.8-.37,1.15-1.16,1.15-1.05,0-2.1,0-3.16,0-.8,0-1.13-.34-1.17-1.14V35a1.21,1.21,0,0,0-1.21-1.29.53.53,0,0,0-.35.17c-.22.19-.4.41-.61.59a.94.94,0,0,1-1.41,0c-.83-.8-1.65-1.62-2.45-2.45a1,1,0,0,1,0-1.45l.17-.18a1.17,1.17,0,0,0,.15-1.8.69.69,0,0,0-.41-.17c-.26,0-.53,0-.79,0a1,1,0,0,1-1.05-1.08c0-1.09,0-2.19,0-3.28A1,1,0,0,1,22.81,23h.3a1.21,1.21,0,0,0,1.3-1.2.54.54,0,0,0-.16-.36c-.16-.2-.37-.37-.55-.57a1,1,0,0,1,0-1.54c.76-.78,1.53-1.56,2.32-2.31A4.75,4.75,0,0,1,26.88,16.48Zm5,.5a6,6,0,0,1-.8,1.61,3.35,3.35,0,0,1-4.21.47l-1.06,1.05a6.32,6.32,0,0,1,.49.74c.52,1.09-.49,3.54-1.63,3.94a7.52,7.52,0,0,1-.92.19v1.31c.6.29,1.3.41,1.58.82a7.2,7.2,0,0,1,1.1,2.58c.11.52-.32,1.14-.5,1.68l1,1a4.64,4.64,0,0,1,.6-.44c1.12-.62,3.7.42,4.07,1.64a6.64,6.64,0,0,1,.16.87h1.53a1.92,1.92,0,0,1,1-1.91c.3-.16.66-.22.95-.39a2.09,2.09,0,0,1,2.86.25l1.09-1.07a6.09,6.09,0,0,1-.52-.8,3.78,3.78,0,0,1,1.6-3.86,6.61,6.61,0,0,1,1-.22v-1.5a2,2,0,0,1-1.9-1c-.16-.3-.23-.65-.4-.95a2.09,2.09,0,0,1,.26-2.86l-1.07-1.09a7,7,0,0,1-.81.52A3.76,3.76,0,0,1,33.39,18a6.33,6.33,0,0,1-.22-1Z"/><path class="cls-1" d="M54.82,10.14h4.57c.92,0,1.26.33,1.26,1.23,0,2.43,0,4.87,0,7.3,0,.86-.35,1.2-1.22,1.2H54.82c0,.63,0,1.22,0,1.8a1,1,0,0,1-1.12,1.12q-2.28,0-4.56,0A1,1,0,0,1,48,21.67q0-2.28,0-4.56A1,1,0,0,1,49.13,16h1.75V14H48.3c-.94,0-1.26-.32-1.27-1.28V7.46c0-.87.35-1.21,1.22-1.21H53.6c.87,0,1.21.34,1.22,1.21Zm3.85,7.75V12.13H52.92v5.76ZM52.84,8.23H49v3.86h1.74c.18-.64.18-1.32.52-1.64s1-.3,1.56-.44ZM50,18v2.86h2.85V20c-.59-.17-1.27-.18-1.59-.51s-.31-1-.44-1.57Z"/><path class="cls-1" d="M12,28.63v2.65c0,.91-.34,1.24-1.26,1.24H5.47c-.91,0-1.24-.33-1.25-1.24,0-1.79,0-3.57,0-5.35,0-.84.34-1.18,1.17-1.19H8.12c0-1.51,0-3,0-4.42,0-1.15.27-1.42,1.43-1.42H16.6c.91,0,1.24.33,1.24,1.24q0,3.62,0,7.23c0,.92-.33,1.26-1.23,1.26Zm3.85-2V20.89H10.09v5.77Zm-9.65.05v3.82H10V28.78c-.57-.16-1.25-.15-1.58-.49s-.33-1-.48-1.58Z"/><path class="cls-1" d="M32.45,3.33c.89,0,1.79,0,2.68,0s1.2.34,1.2,1.17c0,1.82,0,3.64,0,5.47,0,.79-.37,1.14-1.17,1.14H29.69c-.79,0-1.14-.37-1.14-1.17,0-1.82,0-3.65,0-5.47,0-.79.36-1.13,1.17-1.14S31.54,3.33,32.45,3.33Zm-1.91,2V9.12h3.81V5.3Z"/><path class="cls-1" d="M16.87,12.57c0,.77,0,1.54,0,2.31A1,1,0,0,1,15.78,16c-1.54,0-3.08,0-4.63,0a1,1,0,0,1-1.08-1.09q0-2.31,0-4.62a1,1,0,0,1,1.09-1.09h4.62a1,1,0,0,1,1.09,1.09C16.88,11,16.87,11.8,16.87,12.57ZM12,14h2.85V11.16H12Z"/><path class="cls-1" d="M48.94,38.36H47.12a1,1,0,0,1-1.06-1.07c0-1.24,0-2.47,0-3.71a1,1,0,0,1,1.06-1c1.24,0,2.47,0,3.71,0a1,1,0,0,1,1,1.07c0,1.23,0,2.47,0,3.71a1,1,0,0,1-1.06,1Zm-.91-2h1.89V34.51H48Z"/><path class="cls-1" d="M25.67,40.33h1.87V50H25.67Z"/><path class="cls-1" d="M37.33,41.31h1.88V50H37.33Z"/><path class="cls-1" d="M33.45,48.12h1.88v7.71H33.45Z"/><path class="cls-1" d="M35.33,39.38v6.74H33.46V39.38Z"/><path class="cls-1" d="M31.42,45.15H29.55V39.39h1.87Z"/><path class="cls-1" d="M31.42,55.85H29.55V51.06h1.87Z"/><path class="cls-1" d="M31.43,49H29.57V47.16h1.86Z"/><path class="cls-1" d="M25.66,52h1.87V53.9H25.66Z"/><path class="cls-1" d="M39.22,52v1.87H37.34V52Z"/><path class="cls-1" d="M32.43,31.55a5.84,5.84,0,1,1,5.84-5.77A5.85,5.85,0,0,1,32.43,31.55Zm0-9.73a3.89,3.89,0,1,0,3.88,3.92A3.89,3.89,0,0,0,32.45,21.82Z"/></svg>