<svg id="Layer_1" data-name="Layer 1" xmlns="http://www.w3.org/2000/svg" viewBox="0 0 65 65"><defs><style>.cls-1{fill:blue;}.cls-2{fill:#f3f945;}</style></defs><path class="cls-1" d="M48.68,25.86a18.6,18.6,0,0,1-7,15.77c-1,.85-2.07,1.67-3.08,2.54a1.45,1.45,0,0,0-.34.74,3.34,3.34,0,0,0,0,.71,1.87,1.87,0,0,0,.84,2,2.74,2.74,0,0,1-.47,4.65l-.52.25c0,.24.11.49.14.73a2.91,2.91,0,0,1-1.56,2.86,1,1,0,0,0-.44.6,6.68,6.68,0,0,1-13.12,0,.9.9,0,0,0-.29-.53c-1.57-1-1.91-1.77-1.6-3.57a9.84,9.84,0,0,1-1.36-1.06,2.78,2.78,0,0,1,.8-4.28.83.83,0,0,0,.45-.72,3.24,3.24,0,0,0-1.59-3.41A23.94,23.94,0,0,1,14,37.86,18.46,18.46,0,0,1,22,10.1a21,21,0,0,1,9.49-1.35V17.3H30.06c-1.48,0-2.36.72-2.35,1.92s.89,1.89,2.38,1.89H31.5v4.72h3.81A3.88,3.88,0,0,1,37,22.74a3.75,3.75,0,0,1,2.48-.66c1.91.15,3.25,1.58,3.52,3.78ZM29.59,39.27c-2.36-.38-3.74-1.76-3.78-3.75s1.26-3.48,3.77-4V27.76H23.9V26a1.92,1.92,0,1,0-3.82,0V27.8H12.49c0,.15,0,.24,0,.34a15.46,15.46,0,0,0,4.3,10.07c1.77,1.81,3.82,3.35,5.75,5A.94.94,0,0,1,23,44c0,.93,0,1.85,0,2.76h6.65Zm6.7,7.58c0-1,0-1.88,0-2.79a.94.94,0,0,1,.4-.85c1.35-1.08,2.68-2.18,4-3.28a16.16,16.16,0,0,0,5.53-8.61c.29-1.14.41-2.31.63-3.55h-5.8c0-.64,0-1.23,0-1.82a1.91,1.91,0,1,0-3.81,0c0,.59,0,1.18,0,1.83H31.5v5.72H29.77a1.92,1.92,0,0,0-2.06,1.91,1.94,1.94,0,0,0,2.08,1.9h1.76v9.53h4.74Zm-10.46-21h3.76V23.07c-2.44-.44-3.78-1.82-3.79-3.86s1.35-3.44,3.78-3.87V10.67c-9.18-.48-16.69,7.09-17,15.18h5.57c.3-2.34,1.8-3.79,3.87-3.78S25.55,23.54,25.83,25.88Zm3.78,22.88H22.05c-.47,0-.87.21-.93.66a1.36,1.36,0,0,0,.3,1,1.32,1.32,0,0,0,.87.24H35c.72,0,1.43,0,2.15,0a1,1,0,0,0,1-1.07,1,1,0,0,0-1.12-.83Zm4.62,7.66H25a4.71,4.71,0,0,0,9.23,0Zm-4.55-3.85H24.14c-.75,0-1.19.36-1.19,1s.43,1,1.18,1h11c.75,0,1.19-.36,1.19-.95s-.44-1-1.19-1Z"/><path class="cls-2" d="M39.17,15.43c-2.35-.29-3.82-1.78-3.83-3.83S36.78,8,39.15,7.73c0-.58,0-1.17,0-1.76a2.85,2.85,0,0,1,3-3H55.26a2.85,2.85,0,0,1,3,2.93q0,5.65,0,11.31a2.82,2.82,0,0,1-2.89,2.91c-1.54,0-3.09,0-4.73,0,0-.59,0-1.16,0-1.72a1.91,1.91,0,1,0-3.81,0v1.71h-7.6Zm13.35,2.82h2.53c.93,0,1.25-.32,1.25-1.24V6.16c0-.93-.31-1.25-1.24-1.25H42.13A1,1,0,0,0,41.05,6v3.7H39.31a1.91,1.91,0,1,0,0,3.81h1.76v4.73h3.74c.38-2.41,1.84-3.81,3.93-3.78S52.25,15.94,52.52,18.25Z"/></svg>