<svg id="Layer_1" data-name="Layer 1" xmlns="http://www.w3.org/2000/svg" viewBox="0 0 65 65"><defs><style>.cls-1{fill:#f3f945;}.cls-2{fill:blue;}</style></defs><path class="cls-1" d="M16.44,17.39c-.33-.46-.72-1-1.14-1.54a.74.74,0,0,1,.06-1.14c1-1,2.06-2,3.07-3.07a.72.72,0,0,1,1.1-.09c.51.4,1,1,1.58,1.1s1.16-.54,1.77-.65c1.23-.23,1.62-.93,1.69-2.11s.17-1.16,1.37-1.16h3.81c.54,0,.82.2.88.73s.16,1.06.22,1.59a.61.61,0,0,0,.48.58c.8.28,1.57.66,2.36,1a.86.86,0,0,0,.67-.05c.48-.3.93-.67,1.39-1a.68.68,0,0,1,1,.07l3.2,3.2a.64.64,0,0,1,.07,1,17.23,17.23,0,0,0-1,1.4.85.85,0,0,0-.08.66c.3.82.63,1.62,1,2.41a.81.81,0,0,0,.52.42,12.08,12.08,0,0,0,1.58.25c.49.06.76.28.76.8q0,2.24,0,4.47a.68.68,0,0,1-.66.76c-.59.08-1.18.15-1.76.27a.72.72,0,0,0-.43.37c-.36.82-.71,1.64-1,2.47a.79.79,0,0,0,.06.62c.31.49.67.94,1,1.39a.65.65,0,0,1-.06,1l-3.2,3.2a.65.65,0,0,1-1,0,17.23,17.23,0,0,0-1.4-1,.78.78,0,0,0-.62,0c-.81.31-1.61.64-2.4,1a.88.88,0,0,0-.44.51c-.13.56-.19,1.13-.27,1.7a.67.67,0,0,1-.76.65H25.38a.69.69,0,0,1-.77-.71,4.22,4.22,0,0,0-.35-1.9c-.31-.43-1.1-.51-1.68-.75a1.2,1.2,0,0,1-.32-.16c-.8-.64-1.44-.35-2.15.24-1.19,1-1.11,1-2.2-.15-.82-.83-1.64-1.67-2.49-2.48a.78.78,0,0,1-.1-1.23c.39-.5,1-1,1.06-1.54s-.41-1.1-.66-1.66a.45.45,0,0,1,0-.11c-.14-1.32-1-1.62-2.16-1.68s-1.07-.16-1.07-1.21c0-1.33,0-2.66,0-4a.74.74,0,0,1,.75-.86,14.91,14.91,0,0,0,1.65-.25.69.69,0,0,0,.45-.35C15.69,19.35,16.05,18.41,16.44,17.39Zm13,20.49c.1-.61.2-1.17.26-1.74a1,1,0,0,1,.83-1,23.83,23.83,0,0,0,3-1.23,1,1,0,0,1,1.19.09c.47.38,1,.73,1.34,1l2.68-2.68c-.32-.43-.68-.93-1.06-1.41a.89.89,0,0,1-.07-1c.47-1,.86-2.12,1.33-3.16a1.26,1.26,0,0,1,.67-.62,7.87,7.87,0,0,1,1.53-.24c.33,0,.47-.18.46-.54q0-1.42,0-2.85c0-.36-.13-.49-.47-.52-.5-.05-1-.16-1.48-.21s-.59-.28-.73-.65q-.61-1.61-1.32-3.18a.87.87,0,0,1,.09-1c.39-.49.75-1,1.06-1.43l-2.67-2.68c-.44.33-.94.69-1.42,1.07a.9.9,0,0,1-1.08.07c-1-.47-2-.89-3.07-1.27a1,1,0,0,1-.75-.87c-.07-.6-.17-1.2-.26-1.85-1.18,0-2.3,0-3.43,0-.13,0-.32.2-.36.33a10.43,10.43,0,0,0-.22,1.47c0,.52-.3.73-.77.91-1,.37-2.06.81-3.06,1.27a.89.89,0,0,1-1-.06c-.49-.4-1-.76-1.48-1.1l-2.66,2.66c.35.46.71,1,1.11,1.48a.87.87,0,0,1,.06,1c-.47,1-.91,2.06-1.3,3.12a.89.89,0,0,1-.82.7c-.62.07-1.24.19-1.85.29v3.74c.57.08,1.11.18,1.66.23a1.11,1.11,0,0,1,1.07.9,21.06,21.06,0,0,0,1.2,2.9A.94.94,0,0,1,17.51,31c-.38.47-.73,1-1,1.4l2.66,2.67c.47-.35,1-.72,1.48-1.11a.89.89,0,0,1,1-.06c1.05.46,2.11.89,3.17,1.31a.82.82,0,0,1,.64.75,13,13,0,0,0,.24,1.52c0,.16.24.39.37.39C27.19,37.9,28.32,37.88,29.48,37.88Z"/><path class="cls-1" d="M34.43,50.72c-1.29.13-1.35.09-1.59-1-.21-1-.41-1.94-.64-2.91-.12-.48,0-.81.5-.9,1.13-.22,1.54-.86,1.69-2A1.67,1.67,0,0,0,33.71,42c-.82-.6-.79-.7-.25-1.55s1.11-1.7,1.63-2.56c.28-.46.65-.61,1.09-.32a1.91,1.91,0,0,0,2.5-.2,1.74,1.74,0,0,0,.89-2c-.15-.79,0-.94.76-1.11,1.06-.24,2.13-.46,3.19-.71.48-.11.82,0,.92.49a2,2,0,0,0,2,1.69A1.71,1.71,0,0,0,48.35,35c.56-.76.68-.74,1.46-.24s1.73,1.12,2.61,1.66c.46.28.63.64.33,1.08a1.89,1.89,0,0,0,.2,2.51c.56.74,1,1.09,1.95.89s1,0,1.15.8c.22,1,.43,2.06.67,3.08.13.52,0,.9-.51,1-1.1.21-1.49.83-1.65,2a1.73,1.73,0,0,0,.73,2c.73.53.71.67.23,1.42s-1.15,1.77-1.7,2.66c-.27.44-.63.58-1,.3a1.9,1.9,0,0,0-2.55.22c-.7.54-1,.95-.88,1.84s0,1-.94,1.26l-3,.67c-.45.1-.8,0-.88-.46A1.84,1.84,0,0,0,42.42,56a1.54,1.54,0,0,1-.58-.14.59.59,0,0,0-.76.26,4.17,4.17,0,0,1-.79.88,1,1,0,0,1-.83.11c-1-.61-2.05-1.28-3.07-1.93a.61.61,0,0,1-.24-.92,1.79,1.79,0,0,0-.29-2.67.17.17,0,0,1-.06-.1C35.53,50.74,35,50.48,34.43,50.72Zm13.75,5.55c0-.47,0-.88-.1-1.29a1,1,0,0,1,.59-1,20.72,20.72,0,0,0,2-1.43.84.84,0,0,1,1-.15c.4.2.82.37,1.25.57l1.49-2.33c-.36-.31-.69-.63-1-.91a.87.87,0,0,1-.29-1c.19-.85.33-1.71.45-2.57a.84.84,0,0,1,.59-.79c.43-.15.85-.32,1.31-.49l-.28-1.37c-.29-1.3-.29-1.31-1.62-1.25a.93.93,0,0,1-1-.43c-.48-.77-1-1.51-1.56-2.24a.8.8,0,0,1-.11-.93c.2-.42.39-.85.59-1.3l-2.33-1.48c-.3.33-.59.63-.84,1a1,1,0,0,1-1.14.35c-.83-.19-1.68-.27-2.51-.46a1.3,1.3,0,0,1-.74-.53,7.45,7.45,0,0,1-.54-1.35L42,35.12c-1.26.29-1.28.29-1.19,1.61a1,1,0,0,1-.55,1,21.7,21.7,0,0,0-2.09,1.46.83.83,0,0,1-1,.15c-.42-.21-.85-.39-1.29-.58l-1.49,2.32c.33.29.61.57.93.8a1,1,0,0,1,.37,1.24c-.2.81-.26,1.64-.45,2.45a1.26,1.26,0,0,1-.53.75,9.5,9.5,0,0,1-1.35.54L34,49.55c.47,0,.89,0,1.3-.09a1,1,0,0,1,1,.59A14.6,14.6,0,0,0,37.73,52a1,1,0,0,1,.17,1.23,12.09,12.09,0,0,0-.51,1.15l2.32,1.48c.28-.33.57-.6.8-.92a1,1,0,0,1,1.24-.38,14.21,14.21,0,0,0,2.33.41.91.91,0,0,1,.93.66c.13.43.32.84.49,1.26Z"/><path class="cls-2" d="M44.3,11.9c1.36-.76,1.53-.67,1.65.86,0,.59.16,1.18.17,1.77,0,.31,0,.75-.23.89s-.63,0-.9-.1c-.7-.34-1.36-.75-2-1.14s-.79-.84-.05-1.35l.48-.34c-1-1.08-2-2.23-3.08-3.17A19.34,19.34,0,1,0,24,42.91l.35.06c.36.1.59.35.45.69a1,1,0,0,1-.64.45,2.66,2.66,0,0,1-.87-.13,20.53,20.53,0,0,1,.3-40.18c8.07-1.55,14.82,1,20.13,7.32C43.89,11.36,44.08,11.62,44.3,11.9Z"/><path class="cls-2" d="M58,40.22c-.26.09-.51.19-.77.26-.52.15-.87-.09-.83-.6.1-1,.23-2,.39-3a.56.56,0,0,1,1-.33c.75.65,1.48,1.32,2.19,2a.58.58,0,0,1-.2,1c-.16.08-.33.13-.54.22,0,.17.1.33.16.49a15.91,15.91,0,1,1-30.61,8.06,16.27,16.27,0,0,1,.46-7c.13-.41.28-.79.8-.65s.47.54.35,1a14.71,14.71,0,1,0,28.56,6.87,15,15,0,0,0-.61-7.63c-.06-.16-.13-.33-.2-.49A1,1,0,0,0,58,40.22Z"/><path class="cls-2" d="M60.2,18.81a2.88,2.88,0,0,1-.13.53c-.24.47-.1.78.24,1.19a1.13,1.13,0,0,0,1.36.44.63.63,0,0,1,.86.49c.22.65.44,1.31.69,2a.75.75,0,0,1-.44,1.1,1.24,1.24,0,0,0-.11,2.19.78.78,0,0,1,.3,1.16c-.3.58-.58,1.17-.85,1.77a.77.77,0,0,1-1.1.46,1.24,1.24,0,0,0-1.63,1.43c.11.55,0,.91-.61,1.08s-1.28.42-1.91.66a.67.67,0,0,1-1-.38c-.12-.24-.24-.6-.44-.66a3.13,3.13,0,0,0-1.29-.11c-.19,0-.37.33-.5.54a.77.77,0,0,1-1.19.33c-.56-.3-1.13-.57-1.71-.82a.8.8,0,0,1-.5-1.14,1.23,1.23,0,0,0-1.45-1.61.79.79,0,0,1-1.07-.63c-.18-.6-.39-1.21-.62-1.79a.78.78,0,0,1,.46-1.15c.22-.1.53-.25.58-.44a3.72,3.72,0,0,0,.06-1.29c0-.15-.31-.28-.48-.41-.61-.42-.66-.57-.36-1.22s.57-1.14.82-1.72a.77.77,0,0,1,1.14-.47c.23.08.56.2.72.1a3.61,3.61,0,0,0,1-.88c.1-.12,0-.41-.06-.62-.12-.72,0-.88.63-1.12s1.21-.4,1.79-.63a.77.77,0,0,1,1.12.42,1.22,1.22,0,0,0,2.19.13.76.76,0,0,1,1.15-.31c.61.33,1.26.59,1.87.92A2.31,2.31,0,0,1,60.2,18.81ZM48.84,28.28c1-.61,1.49,0,1.94.67a.7.7,0,0,0,.2.22,1.37,1.37,0,0,1,.56,1.92s0,.07,0,.14l1.26.59c.33-1,1-1.09,1.87-.86a.87.87,0,0,0,.36,0,1.33,1.33,0,0,1,1.7,1s.07,0,.13.07l1.31-.49c-.48-.94-.05-1.5.71-1.93a.75.75,0,0,0,.26-.24,1.32,1.32,0,0,1,1.88-.51s.08,0,.14,0l.6-1.26c-1-.34-1.1-1.06-.86-1.92a.41.41,0,0,0,0-.11c-.1-.89,0-1.7,1.07-1.9-.1-.3-.17-.53-.25-.75s-.18-.44-.26-.64c-1.35.2-1.17.27-1.87-.68-.22-.3-.57-.51-.78-.82a1,1,0,0,1-.19-.78c.25-.61,0-.91-.53-1.09a6,6,0,0,1-.64-.27,1.28,1.28,0,0,1-1.8.87.82.82,0,0,0-.41,0,1.34,1.34,0,0,1-1.7-1s-.06,0-.12-.08l-1.33.48c.55,1,0,1.53-.78,2a.7.7,0,0,0-.22.2,1.28,1.28,0,0,1-1.83.5s-.07,0-.16,0l-.61,1.27c1,.34,1.09,1.09.86,2a.24.24,0,0,0,0,.12c.11.87,0,1.64-1.07,1.85Z"/><path class="cls-2" d="M20.25,58.1a1.35,1.35,0,0,1-.37-.06c-.83-.53-1.3.12-1.79.59-.12.12-.1.43-.07.64.15.86.09,1-.72,1.28-.58.2-1.17.38-1.74.61a.71.71,0,0,1-1-.4c-.12-.24-.25-.59-.45-.65A3.1,3.1,0,0,0,12.8,60c-.17,0-.32.31-.45.5-.43.6-.59.65-1.23.35S10,60.3,9.4,60.05s-.7-.59-.47-1.09a1,1,0,0,0-.27-1.24c-.36-.38-.65-.62-1.21-.42s-.86,0-1-.58-.4-1.25-.64-1.85a.76.76,0,0,1,.44-1.11,1.24,1.24,0,0,0,.11-2.19A.78.78,0,0,1,6,50.41c.3-.58.59-1.17.85-1.77A.73.73,0,0,1,8,48.19,1,1,0,0,0,9.2,47.9c.35-.33.61-.58.44-1.14s-.05-.86.63-1.1,1.17-.38,1.74-.61a.79.79,0,0,1,1.16.44,1.23,1.23,0,0,0,2.16.13.79.79,0,0,1,1.19-.33,18.14,18.14,0,0,0,1.72.83.79.79,0,0,1,.49,1.14,1.24,1.24,0,0,0,1.44,1.61c.57-.11.91,0,1.08.61s.4,1.25.64,1.86a.73.73,0,0,1-.42,1.06c-.24.11-.58.26-.63.46a3,3,0,0,0-.07,1.29c0,.19.36.34.58.47a.74.74,0,0,1,.29,1.11c-.31.62-.58,1.26-.91,1.87A2.31,2.31,0,0,1,20.25,58.1Zm.42-6.65-.48-1.33c-.57,0-1.1.39-1.54-.21s-.79-.84-1.13-1.3a1,1,0,0,1-.2-.78c.26-.61.06-.91-.52-1.08a6.29,6.29,0,0,1-.64-.28,1.27,1.27,0,0,1-1.79.87.94.94,0,0,0-.47,0,1.28,1.28,0,0,1-1.64-1s-.06,0-.12-.09l-1.28.46a1.91,1.91,0,0,0,.06.43,1,1,0,0,1-.51,1.29c-.38.24-.65.65-1,.91a1.1,1.1,0,0,1-.82.23c-.62-.25-.91,0-1.08.54-.07.2-.17.39-.27.64a1.25,1.25,0,0,1,.85,1.79.85.85,0,0,0,0,.42,1.32,1.32,0,0,1-1,1.69s0,.07-.07.12a6.49,6.49,0,0,0,.34.93c.07.14.34.32.45.28a1.11,1.11,0,0,1,1.47.64,1.52,1.52,0,0,0,.42.49A1.28,1.28,0,0,1,10.2,59s0,.07,0,.16l1.27.6c.32-1.07,1.09-1.07,1.95-.86a1.4,1.4,0,0,0,.54,0,1,1,0,0,1,1.32.78,1.57,1.57,0,0,0,.18.27l1.31-.48a3,3,0,0,0-.05-.42,1,1,0,0,1,.5-1.29,2.86,2.86,0,0,0,.8-.71,1,1,0,0,1,1.39-.36c.11,0,.22.06.37.1l.32-.65c.11-.21.2-.42.29-.62-.92-.75-.91-.75-.83-1.92a4.61,4.61,0,0,0,0-.83.85.85,0,0,1,.59-1A5.26,5.26,0,0,0,20.67,51.45Z"/><path class="cls-2" d="M27.59,31.14A7.24,7.24,0,1,1,34.86,24,7.25,7.25,0,0,1,27.59,31.14Zm0-13.28a6,6,0,1,0,6.07,6A6.06,6.06,0,0,0,27.6,17.86Z"/><path class="cls-2" d="M50.35,45.81A5.89,5.89,0,1,1,44.45,40,5.92,5.92,0,0,1,50.35,45.81Zm-1.19,0a4.7,4.7,0,1,0-4.72,4.68A4.71,4.71,0,0,0,49.16,45.86Z"/><path class="cls-2" d="M55.15,29.24a4.06,4.06,0,0,1,0-8.11,4.06,4.06,0,1,1,0,8.11Zm0-1.19a2.86,2.86,0,1,0-2.86-2.88A2.86,2.86,0,0,0,55.16,28.05Z"/><path class="cls-2" d="M13.8,57.14a4.06,4.06,0,1,1,4.09-4A4.07,4.07,0,0,1,13.8,57.14Zm0-1.2A2.86,2.86,0,1,0,11,53.07,2.86,2.86,0,0,0,13.83,55.94Z"/></svg>