<svg id="Layer_1" data-name="Layer 1" xmlns="http://www.w3.org/2000/svg" viewBox="0 0 65 65"><defs><style>.cls-1{fill:#190f2d;}</style></defs><path class="cls-1" d="M42.7,43.23l.57.31c1.61.84,3.2,1.68,4.81,2.49a1.26,1.26,0,0,1,.78,1.27c0,1.07.09,2.14.12,3.21a.85.85,0,0,0,.51.83,2.8,2.8,0,0,1,1.45,3.22,2.91,2.91,0,0,1-2.74,2.16,2.87,2.87,0,0,1-2.77-2.12,2.79,2.79,0,0,1,1.38-3.24.69.69,0,0,0,.43-.73c-.06-.9-.07-1.79-.15-2.68a.81.81,0,0,0-.38-.58Q44.19,46,41.64,44.74a.81.81,0,0,0-.65.1c-.33.22-.56.58-.9.77a1.83,1.83,0,0,0-.87,1.9,33.19,33.19,0,0,0,2.17,10.74c.37,1,.7,2.1,1,3.17s-.16,1.4-1.13,1.4l-21.8,0c-1,0-1.41-.31-1.27-1.31a40.2,40.2,0,0,1,.89-4.17c.24-1,.64-1.87.89-2.83s-.2-1.39-1.09-1.29c-1.14.13-2.26.43-3.39.62s-2.42.42-3.63.53A3.46,3.46,0,0,1,10.36,54a1.55,1.55,0,0,1-.94-1.15,10.71,10.71,0,0,0-1.67-4,3,3,0,0,1-.38-1.06,1.2,1.2,0,0,1,.54-1.39c.25-.18.47-.4.69-.58,0-.08,0-.11,0-.11-1.27-.23-1.5-1.1-1.36-2.21a6.59,6.59,0,0,0,0-.77c0-1.29.15-1-1.06-1.22-1.79-.28-1.93-.65-1.45-2.34A11.12,11.12,0,0,1,6.6,35.52c.54-.71,1.09-1.41,1.6-2.15a3.87,3.87,0,0,0,.61-2.54c-.3-5,.46-9.83,3.59-14a15.9,15.9,0,0,1,9.71-6A22.06,22.06,0,0,1,37,12.3l1,.52c.1-.16.22-.31.31-.48.38-.65.71-1.33,1.15-1.94a1.38,1.38,0,0,0,0-1.86A1,1,0,0,0,38.61,8a2.78,2.78,0,0,1-2.87-2.78,2.84,2.84,0,0,1,5.68-.2A4,4,0,0,1,41,6.74a.71.71,0,0,0,0,.8c.25.4.46.83.72,1.23a1.19,1.19,0,0,1,0,1.38c-.6,1-1.18,2-1.76,3-.12.2-.22.42-.34.64.12.11.22.21.32.29a18.51,18.51,0,0,1,5.71,7.64.75.75,0,0,0,.82.58c1.94,0,3.89,0,5.83,0,.46,0,.67-.13.63-.6a2.44,2.44,0,0,1,0-.54,1.54,1.54,0,0,0-.82-1.74,2.65,2.65,0,0,1-1-3.22,2.85,2.85,0,0,1,5.43.24,2.76,2.76,0,0,1-1.24,3.14,1.08,1.08,0,0,0-.63,1.17c0,.74,0,1.47,0,2.21s-.3,1.09-1.07,1.09H46.55l.78,5.5c.11,0,.29,0,.46,0h6.79a.71.71,0,0,0,.74-.43,2.85,2.85,0,1,1,0,2.73.79.79,0,0,0-.84-.48q-3.42,0-6.84,0c-.31,0-.5,0-.58.41-.29,1.6-.63,3.18-1,4.77a3.12,3.12,0,0,0,0,.37H53.5c.91,0,1.18.27,1.18,1.16,0,1.37,0,2.74,0,4.11a.74.74,0,0,0,.45.78,2.82,2.82,0,0,1,1.34,3.46,2.89,2.89,0,0,1-3.18,1.86,2.86,2.86,0,0,1-2.35-2.93,2.68,2.68,0,0,1,1.46-2.37.84.84,0,0,0,.5-.89c0-1,0-1.91,0-2.86,0-.43-.15-.58-.59-.58-2.16,0-4.33,0-6.49,0a.83.83,0,0,0-.61.24C44.36,40.38,43.55,41.78,42.7,43.23ZM40.35,60.92c-.28-.84-.54-1.63-.82-2.41A32,32,0,0,1,37.43,46,1.42,1.42,0,0,1,38,44.88a14.51,14.51,0,0,0,1.64-1.37c5.35-5.47,6.89-12,4.85-19.25A15.73,15.73,0,0,0,33.73,13a20.76,20.76,0,0,0-12.48,0,13.87,13.87,0,0,0-9.53,9,21.63,21.63,0,0,0-1.07,8.92,5.6,5.6,0,0,1-1.06,3.75C9,35.43,8.36,36.18,7.82,37s-1,1.7-1.49,2.65L8,40c.79.15,1,.39,1,1.18A17.85,17.85,0,0,1,9,43a1.1,1.1,0,0,0,.78,1.29c1.24.53,1.39,1.58.46,2.57-.31.33-.66.63-1,.95a2.69,2.69,0,0,0,.2.38,10,10,0,0,1,1.59,3.69c.13.55.42.75.91.67,1.12-.16,2.23-.35,3.34-.54a32.61,32.61,0,0,1,3.62-.62,2.68,2.68,0,0,1,2.9,3.11,6.09,6.09,0,0,1-.3,1.38c-.34,1.06-.74,2.1-1.07,3.16-.19.61-.29,1.24-.45,1.93ZM57.79,29.48a1.06,1.06,0,1,0,1.09,1A1.11,1.11,0,0,0,57.79,29.48ZM38.57,6.26a1,1,0,0,0,1-1.06,1,1,0,0,0-1-1,1,1,0,0,0-1.09,1A1.07,1.07,0,0,0,38.57,6.26Zm8.55,47.58a1,1,0,0,0,1.06,1,1.06,1.06,0,0,0,1.06-1,1.1,1.1,0,0,0-1-1.09A1.07,1.07,0,0,0,47.12,53.84Zm7.73-36.59a1.05,1.05,0,0,0-1.06-1.05,1,1,0,0,0-1,1,1.05,1.05,0,0,0,1,1.1A1.1,1.1,0,0,0,54.85,17.25Zm0,28.3a1.12,1.12,0,0,0-1.07-1.07,1.07,1.07,0,0,0-1,1.09,1,1,0,0,0,1,1A1.09,1.09,0,0,0,54.85,45.55Z"/><path class="cls-1" d="M16,23.5a10.48,10.48,0,0,1-.81-.72,1.38,1.38,0,0,1,0-2.07c.88-.91,1.78-1.81,2.69-2.7A1.41,1.41,0,0,1,20,18c.81.75.81.74,1.85.29.63-.28,1.28-.52,1.94-.74.29-.1.49-.21.45-.57-.21-1.81.59-2.35,2.3-2.26.91,0,1.83,0,2.74,0,1.2,0,1.71.52,1.72,1.7,0,.93,0,.91.9,1.24a13.53,13.53,0,0,1,2,.85.69.69,0,0,0,1-.18,2.85,2.85,0,0,1,.43-.42,1.35,1.35,0,0,1,1.93,0c1,.93,1.93,1.89,2.86,2.86a1.37,1.37,0,0,1-.07,2c-.78.85-.76.85-.3,1.9a18.9,18.9,0,0,1,.74,1.94.52.52,0,0,0,.59.43c2,.06,2.19.3,2.19,2.28v2.92a1.39,1.39,0,0,1-1.48,1.55c-1.12.06-1.11.06-1.52,1.12a19,19,0,0,1-.88,2,.46.46,0,0,0,.11.66c1.24,1,1.46,1.88,0,3.22-.73.64-1.38,1.37-2.07,2a1.41,1.41,0,0,1-2.2,0c-.77-.72-.76-.71-1.71-.28a17.78,17.78,0,0,1-2,.77c-.4.12-.56.3-.51.71a4.68,4.68,0,0,1,0,.65,1.34,1.34,0,0,1-1.36,1.43c-1.35,0-2.7,0-4.05,0a1.35,1.35,0,0,1-1.35-1.49c0-1.1,0-1.08-1.07-1.48q-1-.39-2-.87c-.3-.15-.5-.16-.72.11a7,7,0,0,1-.55.54,1.39,1.39,0,0,1-2,0c-.92-.9-1.83-1.81-2.73-2.74a1.38,1.38,0,0,1,0-2.07c.77-.83.76-.83.28-1.89a18.84,18.84,0,0,1-.73-1.94.54.54,0,0,0-.59-.44c-2-.06-2.2-.29-2.2-2.27V28.61c0-1,.51-1.61,1.48-1.54s1.34-.3,1.56-1.19A17.52,17.52,0,0,1,16,23.5ZM26.1,17.77,29,16.91l.26,1.94L29,21.32l.68.18A9.15,9.15,0,0,1,35,35.81a8.87,8.87,0,0,1-7.7,3.75c-.52,0-.71.13-.73.64s-.13,1-.19,1.54c-.1.81-.2,1.63-.3,2.47h3.05v-1.4a1,1,0,0,1,.8-1A12.1,12.1,0,0,0,34,40.11a.93.93,0,0,1,1.29.15c.32.35.6.73.82,1L38.42,39c-.29-.27-.64-.56-1-.88a.92.92,0,0,1-.15-1.28,12.07,12.07,0,0,0,1.66-4,1,1,0,0,1,1.1-.84c.43,0,.86,0,1.36,0V30.23c0-1.34,0-1.34-1.32-1.36-.74,0-1-.2-1.16-.92a12,12,0,0,0-1.59-3.82,1,1,0,0,1,.16-1.43l.89-.92-2.24-2.24c-.24.29-.48.63-.77.93a1,1,0,0,1-1.52.19,15.33,15.33,0,0,0-4.6-1.81l.39-2.2H26.12v1.13c-1,.36-1,.36-1,1.3a12.35,12.35,0,0,0-3.87,1.63,1,1,0,0,1-1.35-.14c-.31-.33-.59-.69-.8-.94l-2.3,2.26.92.84a1,1,0,0,1,.17,1.34,11.73,11.73,0,0,0-1.66,4,1,1,0,0,1-1,.83c-.45,0-.9,0-1.35,0V32c.48,0,.91,0,1.34,0a.94.94,0,0,1,1.06.82,11.73,11.73,0,0,0,1.66,4,1,1,0,0,1-.17,1.34l-1,.89L19,41.17l.05,0,.81-.79c.53-.52.86-.51,1.53-.18,1.06.52,2.16,1,3.25,1.44.44.18.91.29,1.36.43,0-.65,0-1.34,0-2,0-.43-.15-.6-.59-.71A9.14,9.14,0,0,1,18.9,27.64a9,9,0,0,1,5.83-5.92c.22-.08.54-.31.55-.47,0-.73-.09-1.46-.14-2.18C25.89,19.06,26.19,18.66,26.1,17.77Zm-.25,19.72A1.75,1.75,0,0,0,24.8,35.3,5.4,5.4,0,0,1,22,29.42a1.62,1.62,0,0,1,.68-.94c.4-.23.78.07,1.09.39.47.48.95,1,1.43,1.43a4.19,4.19,0,0,0,.42.31l-.27-7.1c-2.76.38-5.2,3.87-5.12,7.24C20.33,33.89,23.11,37.26,25.85,37.49Zm2.71-12.72a5.76,5.76,0,0,1,4.58,7,.62.62,0,0,0,0,.45c.34.39.72.74,1.16,1.19a7.37,7.37,0,0,0-5.59-10.26Zm4.77,10.15c-.53-.52-1.08-1.09-1.67-1.61a1.28,1.28,0,0,1-.39-1.59,3.41,3.41,0,0,0,.11-2.27,3.81,3.81,0,0,0-2.28-2.62l-.22.21.86.69a1.17,1.17,0,0,1,.38,1.34c-.2.78-.43,1.56-.63,2.34a1.15,1.15,0,0,1-.92.9c-1.07.28-1.06.29-1.15,1.4,0,.17,0,.34,0,.59.38,0,.77.06,1-.09,1.18-.64,1.94-.06,2.64.8a4.11,4.11,0,0,0,.29.3c1,1,1.08,1,1.91-.18A1.3,1.3,0,0,0,33.33,34.92Zm-6.42,2.81a6.7,6.7,0,0,0,3.65-.59c-.64-.78-1.17-1.56-2.32-1.07-.24.1-.55,0-.82,0a.52.52,0,0,0-.34.29C27,36.81,27,37.22,26.91,37.73Zm-2.76-5.85a3.14,3.14,0,0,0,1.69,2c-.1-.38-.08-.67-.22-.8C25.16,32.63,24.65,32.26,24.15,31.88Z"/></svg>