<svg id="Layer_1" data-name="Layer 1" xmlns="http://www.w3.org/2000/svg" viewBox="0 0 65 65"><defs><style>.cls-1{fill:blue;}.cls-2{fill:#f3f945;}</style></defs><path class="cls-1" d="M2.49,47a1.07,1.07,0,0,1,1.06-.5c.91,0,1.82,0,2.82,0v-.85q0-15.66,0-31.32A3.33,3.33,0,0,1,8.21,11a4.74,4.74,0,0,1,2-.42q15.12,0,30.25,0H55.65a3.42,3.42,0,0,1,3.59,2.68,5.81,5.81,0,0,1,.08,1.18V46.48h3.4a.67.67,0,0,1,.74.69,29.29,29.29,0,0,1,0,3.63,4.21,4.21,0,0,1-4.11,3.75c-.26,0-.52,0-.78,0-16.93,0-33.86,0-50.79,0-2.84,0-4.72-1.24-5.25-3.7Zm8.83-31.63v28H54.39v-28ZM4,48c0,.67,0,1.29,0,1.9a3,3,0,0,0,3.19,3.2Q33,53,58.76,53.06h.48a2.62,2.62,0,0,0,2.59-2A23.72,23.72,0,0,0,62.05,48H40.37v.47a2.89,2.89,0,0,1-3.07,3.05H28.55a2.89,2.89,0,0,1-2.94-2.89c0-.21,0-.42,0-.65Z"/><path class="cls-2" d="M38.91,27.46c.51,0,.93,0,1.34,0a1.52,1.52,0,0,1,1.65,1.63c0,3.45,0,6.91,0,10.36,0,1.09-.62,1.63-1.82,1.63-3.35,0-6.7,0-10.06,0-1.39,0-2.77,0-4.16,0-1.23,0-1.79-.57-1.79-1.78q0-5,0-10.06c0-1.21.57-1.77,1.79-1.78h1.19c0-1.3,0-2.55,0-3.79a5.79,5.79,0,0,1,1.6-4.17,5.67,5.67,0,0,1,6.15-1.58,5.54,5.54,0,0,1,4,4.9,37,37,0,0,1,.09,3.8Zm-1.5,0c0-1.4,0-2.75,0-4.09a4.42,4.42,0,0,0-8.71-.89,1.53,1.53,0,0,0-.07.29v4.69Z"/></svg>