<svg id="Layer_1" data-name="Layer 1" xmlns="http://www.w3.org/2000/svg" viewBox="0 0 65 65"><defs><style>.cls-1{fill:#4dc0b3;}</style></defs><path class="cls-1" d="M19.1,62.59H16c-.52-.08-1.05-.15-1.57-.24A13.4,13.4,0,0,1,4.51,56a16,16,0,0,1-2.15-8.1,29.78,29.78,0,0,1,2-10.73.68.68,0,0,0-.19-.86A5.57,5.57,0,0,1,3.36,29c.35-.48,1-.91,1-1.41S4,26.39,3.83,25.79c-1.25-4.11-2-8.28-1.11-12.57C3.82,7.8,6.94,4.13,12.31,2.53A20.8,20.8,0,0,1,22,2.22,37.9,37.9,0,0,1,32.2,5.64a1.11,1.11,0,0,0,1.09,0C34.64,5,36,4.4,37.38,3.9c4.43-1.62,9-2.62,13.72-1.85,5.64.92,9.52,4,11.29,9.54a20.81,20.81,0,0,1,.45,9.05,35,35,0,0,1-3.56,11.07,1.05,1.05,0,0,0,0,1c.75,1.72,1.52,3.43,2.15,5.2A25.32,25.32,0,0,1,62.78,51a13,13,0,0,1-9.57,10.84c-1.2.36-2.47.49-3.71.73H46.29l-2.1-.3A37.29,37.29,0,0,1,33.41,58.8a1.39,1.39,0,0,0-1.37,0,37.08,37.08,0,0,1-9.38,3.23C21.48,62.28,20.29,62.41,19.1,62.59ZM11.52,30.43c-1.69-2.07-3.4-2.61-5.25-1.68a3.85,3.85,0,0,0,1.84,7.3,3.8,3.8,0,0,0,2.44-.95,4,4,0,0,0,1.33-3.25l1.75-.15a5.77,5.77,0,0,1-2.39,5.16,61.72,61.72,0,0,0,11.13,12.5,54.27,54.27,0,0,0,9.88,6.85c.19.11.5.25.64.17,1.21-.65,2.4-1.34,3.57-2-.79-2.26-.68-4.1.28-5.4l1.44.86c-.87,2.28-.44,4.09,1.23,5.2a3.86,3.86,0,0,0,5.41-5.26,3.71,3.71,0,0,0-2-1.59,4,4,0,0,0-3.66.56L38.1,47.37a5.18,5.18,0,0,1,2.72-1.15,5.64,5.64,0,0,1,4.34,1.25l.15-.08A59.24,59.24,0,0,0,56.83,32.61a.77.77,0,0,0,0-.87c-1.23-1.93-2.4-3.9-3.68-5.81-.82-1.23-1.78-2.36-2.67-3.53-2.52,1.36-4.91,1.35-7-.58-2.27-2.1-2.35-4.63-1-7.28a52,52,0,0,0-9.45-6.45,1,1,0,0,0-.8.09A60.49,60.49,0,0,0,12.49,25.73c-.43.59-.83,1.19-1.19,1.71l1.86,2.17ZM58,30.24c.41-1,.81-1.85,1.15-2.75A28,28,0,0,0,61.26,15,12,12,0,0,0,49.92,3.68,26.51,26.51,0,0,0,39.07,5.2c-1.45.48-2.86,1.09-4.23,1.61l9.07,6.31a5.65,5.65,0,0,1,6.23-.3l-.88,1.5c-2.35-.87-4.15-.42-5.24,1.28a3.85,3.85,0,0,0,5.34,5.32,3.78,3.78,0,0,0,1.57-2,4,4,0,0,0-.59-3.59l1.35-1.05.19.19a2.56,2.56,0,0,1,.22.35A5.5,5.5,0,0,1,52,20.74a.62.62,0,0,0,.06.86c1.51,2,3,4.11,4.49,6.19C57.07,28.54,57.5,29.36,58,30.24ZM5.94,26.7a26.36,26.36,0,0,1,3.05,0,.88.88,0,0,0,1-.44,62.75,62.75,0,0,1,15.3-15.75C27,9.22,28.86,8.09,30.73,6.85c-1.32-.52-2.62-1.09-4-1.55A25.39,25.39,0,0,0,14.65,3.81a11.68,11.68,0,0,0-10.06,9.1A19.9,19.9,0,0,0,4.67,22C5,23.61,5.55,25.23,5.94,26.7ZM30.83,57.51l-.48-.3a61,61,0,0,1-13.2-10.3,62.75,62.75,0,0,1-7.26-8.84c-.11-.17-.37-.41-.51-.38a6.39,6.39,0,0,1-3.3-.16c-.16.46-.32.88-.45,1.31A24.08,24.08,0,0,0,4.38,50.46a11.54,11.54,0,0,0,5.83,8.63,14.56,14.56,0,0,0,6.9,1.7,26.7,26.7,0,0,0,9.37-1.61C27.91,58.69,29.31,58.1,30.83,57.51Zm3.88,0c.85.35,1.62.7,2.4,1A27.5,27.5,0,0,0,50,60.69a12.07,12.07,0,0,0,8.65-4.48A13.43,13.43,0,0,0,61.35,48a30.63,30.63,0,0,0-3.25-13.6s-.08-.06,0,0c-1.8,2.55-3.49,5.16-5.41,7.58S48.58,46.62,46.46,49a5.48,5.48,0,0,1,.59,4,5.63,5.63,0,0,1-9.17,3.05c-.19-.15-.33-.37-.65-.16C36.44,56.45,35.62,56.93,34.71,57.48Z"/><path class="cls-1" d="M24.94,39h1.79v2.4h2.18v1.76H18.17V41.43H20V37.49c0-2.76,1.12-4.26,3.77-5,1.67-.47,3.34-.95,5-1.4a.6.6,0,0,0,.51-.64A3,3,0,0,0,28.2,27.6a4.65,4.65,0,0,1-1.63-3.52,22.41,22.41,0,0,1,.17-4.78,6.07,6.07,0,0,1,6.42-4.75,6.15,6.15,0,0,1,5.78,5.8,24.82,24.82,0,0,1-.12,4.31,5.36,5.36,0,0,1-2.15,3.57.93.93,0,0,0-.42.9,2.17,2.17,0,0,1,0,.36c0,1.44,0,1.44,1.41,1.84l2,.58a1,1,0,0,1,.16.09l-.46,1.66c-1.11-.31-2.17-.58-3.22-.9a.79.79,0,0,0-.85.18,3.94,3.94,0,0,1-5.21,0,.78.78,0,0,0-.84-.18c-1.82.53-3.65,1-5.47,1.55a2.7,2.7,0,0,0-2.09,2.75c0,1.42,0,2.84,0,4.31h3.21Zm3.41-17.94a29.58,29.58,0,0,0,0,3,4.36,4.36,0,0,0,3.78,3.76,4.42,4.42,0,0,0,4.77-2.89.93.93,0,0,0-.1-.69c-.56-.79-1.2-1.52-1.73-2.33A1.7,1.7,0,0,0,33.4,21C31.72,21.11,30.05,21.06,28.35,21.06Zm.27-1.78h6.15a.93.93,0,0,1,.89.42c.44.65.93,1.25,1.43,1.91a4.42,4.42,0,0,0-3.24-5.15A4.35,4.35,0,0,0,28.62,19.28Zm2.44,10.27c-.19,1.53-.1,1.89.59,2.29a2.19,2.19,0,0,0,2.44-.17c.75-.62.23-1.45.36-2.12Z"/><path class="cls-1" d="M30.76,43.17V41.43h8V39h1.79v2.42c1,0,2,0,2.91,0a.5.5,0,0,0,.3-.37c0-1.4,0-2.81,0-4.21a2.62,2.62,0,0,0-2-2.49l-.56-.18c.08-.3.15-.58.22-.86s.15-.52.23-.78a4.45,4.45,0,0,1,3.93,4.54c0,1.42,0,2.84,0,4.33h1.78v1.79Z"/><path class="cls-1" d="M35.43,34.4l2.5.71-.47,1.71L35,36.11Z"/><path class="cls-1" d="M8.85,33.05H7.14V31.34H8.85Z"/><path class="cls-1" d="M40.89,37.79l-1.71-.49.48-1.7,1.71.47Z"/><path class="cls-1" d="M42.41,51v1.7h-1.7V51Z"/><path class="cls-1" d="M46.42,16.82h1.7v1.72h-1.7Z"/></svg>