<svg id="Layer_1" data-name="Layer 1" xmlns="http://www.w3.org/2000/svg" viewBox="0 0 65 65"><defs><style>.cls-1{fill:#4dc0b3;}</style></defs><path class="cls-1" d="M49.85,1.83H51a3.84,3.84,0,0,1,2.78,2.45,3.58,3.58,0,0,1,3-.16,3.63,3.63,0,0,1,2,2.15l.18,0a3.55,3.55,0,0,1,5,2.48,1.21,1.21,0,0,0,.1.14V25.22c-.35.68-.67,1.38-1.05,2.05-.53.93-1.13,1.82-1.63,2.76a3.16,3.16,0,0,0-.37,1.34c0,3,0,6,0,8.93a.94.94,0,0,0,.47.91,3.23,3.23,0,0,1,1.53,3.26,11.21,11.21,0,0,1-.53,1.79,3.84,3.84,0,0,1,1.6,2.34v1.2a3.86,3.86,0,0,1-2.43,2.77,3.65,3.65,0,0,1-2,5.08.88.88,0,0,0,0,.17A3.67,3.67,0,0,1,56.11,63c-4.83-.09-9.67,0-14.5,0a3.86,3.86,0,0,1-2.09-.58c-1.19-.72-2.37-1.45-3.59-2.13a2.63,2.63,0,0,0-1.22-.34c-3,0-6.05,0-9.07,0a.86.86,0,0,0-.82.43,3.25,3.25,0,0,1-3.3,1.58,11.37,11.37,0,0,1-1.77-.52,3.44,3.44,0,0,1-3.39,1.55,3.58,3.58,0,0,1-3-2.41,3.54,3.54,0,0,1-3,.15,3.65,3.65,0,0,1-2.05-2.15l-.18,0a3.67,3.67,0,0,1-5.14-3.62c.09-4.81,0-9.62,0-14.44a4.18,4.18,0,0,1,.62-2.26C4.41,37,5.13,35.81,5.82,34.6a2.2,2.2,0,0,0,.3-1.06c0-3.06,0-6.12,0-9.19a.79.79,0,0,0-.41-.76,3.32,3.32,0,0,1-1.57-3.48,9.57,9.57,0,0,1,.51-1.57,3.62,3.62,0,0,1,.83-6.42,3.55,3.55,0,0,1-.14-2.94A3.72,3.72,0,0,1,7.53,7.11a2.56,2.56,0,0,0-.07-.27,3.55,3.55,0,0,1,2.45-4.9,1,1,0,0,0,.2-.11H26.46c.67.34,1.35.65,2,1,1,.56,1.93,1.17,2.92,1.72a2.36,2.36,0,0,0,1.06.31c3.08,0,6.16,0,9.23,0a.79.79,0,0,0,.75-.44,3.28,3.28,0,0,1,3.3-1.57,12.35,12.35,0,0,1,1.79.53A3.8,3.8,0,0,1,49.85,1.83Zm-8.13,5.1H41c-2.76,0-5.53,0-8.29,0a4.68,4.68,0,0,1-2.65-.74c-1.11-.71-2.24-1.38-3.38-2a2.44,2.44,0,0,0-1.12-.31c-4.81,0-9.62,0-14.43,0-1.19,0-2,.6-2,1.52s.73,1.55,2,1.55,2.74,0,4.11,0a1,1,0,0,1,1,.95A1,1,0,0,1,15.37,9a4.64,4.64,0,0,1-.53,0h-6a1.59,1.59,0,0,0-1.73,1.51A1.55,1.55,0,0,0,8.85,12h3.94c1,0,1.5.37,1.48,1.06s-.49,1-1.48,1c-1.93,0-3.86,0-5.79,0a2.81,2.81,0,0,0-1,.18,1.45,1.45,0,0,0-.83,1.57,1.63,1.63,0,0,0,1.64,1.3H13c.75,0,1.22.39,1.23,1s-.47,1-1.26,1H7.88a1.53,1.53,0,0,0-1.73,1.47A1.59,1.59,0,0,0,7.87,22.2c.15,0,.31,0,.47,0h10a10.7,10.7,0,0,1,1.13,0,1,1,0,0,1,.78,1.53c-.13.2-.29.38-.44.57-.8,1-1.6,1.93-2.38,2.91a1.19,1.19,0,0,0-.1,1.49,1.12,1.12,0,0,0,1.34.53,2.28,2.28,0,0,0,.87-.59c3.14-3.09,6.29-6.19,9.4-9.32a3.77,3.77,0,0,1,3-1.23c1,.05,1.9,0,2.77,0a10.3,10.3,0,0,1,.12-1.89A3.3,3.3,0,0,1,40,14.53c.57.43,1.1.89,1.72,1.39ZM25.51,57.82h9.24a4,4,0,0,1,2.15.59c1.17.72,2.34,1.44,3.54,2.1a2.91,2.91,0,0,0,1.28.37c4.77,0,9.54,0,14.31,0a4.87,4.87,0,0,0,.54,0,1.62,1.62,0,0,0,1.49-1.52,1.54,1.54,0,0,0-1.46-1.52c-.22,0-.44,0-.66,0-1.33,0-2.66,0-4,0a1,1,0,0,1-1-1,1,1,0,0,1,1-1.05,4.64,4.64,0,0,1,.53,0h6a1.59,1.59,0,0,0,1.72-1.52,1.56,1.56,0,0,0-1.72-1.51H54.45c-1,0-1.46-.34-1.48-1s.48-1,1.49-1h5.73a3.1,3.1,0,0,0,1-.14A1.5,1.5,0,0,0,62.12,49a1.59,1.59,0,0,0-1.6-1.34c-2,0-4,0-6,0-1,0-1.52-.33-1.53-1s.49-1,1.5-1c1.69,0,3.38,0,5.07,0a1.49,1.49,0,0,0,1.55-1.42,1.54,1.54,0,0,0-1.36-1.61,5.78,5.78,0,0,0-.72,0H48.39a5.86,5.86,0,0,1-.59,0A1,1,0,0,1,47,41c.13-.2.29-.37.44-.56.8-1,1.6-1.93,2.38-2.91a1.21,1.21,0,0,0,.09-1.5,1.14,1.14,0,0,0-1.34-.52,2.08,2.08,0,0,0-.83.55c-3.11,3.07-6.24,6.13-9.31,9.25a4.07,4.07,0,0,1-3.29,1.34c-.89-.06-1.78,0-2.59,0a10.36,10.36,0,0,1-.12,1.9,3.3,3.3,0,0,1-5.23,1.68c-.56-.43-1.1-.89-1.72-1.39ZM59.07,40.49V31.24a4,4,0,0,1,.58-2.15c.73-1.18,1.46-2.37,2.14-3.58a2.66,2.66,0,0,0,.33-1.23c0-4.77,0-9.54,0-14.31,0-.18,0-.36,0-.54a1.62,1.62,0,0,0-1.52-1.49,1.54,1.54,0,0,0-1.53,1.45c0,.22,0,.44,0,.66,0,1.33,0,2.66,0,4a1,1,0,0,1-1,1,1,1,0,0,1-1.05-.94,3.13,3.13,0,0,1,0-.53c0-2,0-4.06,0-6.09a1.56,1.56,0,0,0-1.51-1.6A1.52,1.52,0,0,0,54,7.49c0,1.37,0,2.74,0,4.11a2.81,2.81,0,0,1-.05.65,1,1,0,0,1-1,.77,1,1,0,0,1-1-.89,3.84,3.84,0,0,1,0-.59V5.93c0-.16,0-.32,0-.48a1.54,1.54,0,0,0-1.52-1.58A1.59,1.59,0,0,0,48.9,5.53c0,2,0,4,0,6,0,.16,0,.32,0,.48a1,1,0,1,1-2,0c0-.18,0-.36,0-.54,0-1.67,0-3.34,0-5A1.5,1.5,0,0,0,45.45,4.9a1.55,1.55,0,0,0-1.62,1.36,3.82,3.82,0,0,0,0,.59c0,.66,0,1.32,0,2v8.71a1.34,1.34,0,0,1,0,.53c-.16.34-.31.79-.59.92a1.21,1.21,0,0,1-1.07-.14c-1.13-.84-2.2-1.77-3.3-2.65a1.27,1.27,0,0,0-1.55-.13,1.11,1.11,0,0,0-.53,1.34,2.15,2.15,0,0,0,.56.82c3,3.06,6,6.14,9.07,9.14a4.4,4.4,0,0,1,1.52,3.7c-.07.82,0,1.65,0,2.43a9.63,9.63,0,0,1,1.62,0,3.24,3.24,0,0,1,2,5.18c-.44.59-.93,1.16-1.45,1.81ZM8.17,24.27v.67c0,2.78,0,5.57,0,8.35a4.58,4.58,0,0,1-.72,2.6c-.69,1.07-1.35,2.16-2,3.27a3,3,0,0,0-.37,1.34c0,4.77,0,9.54,0,14.32a4.7,4.7,0,0,0,0,.53,1.62,1.62,0,0,0,1.54,1.47,1.54,1.54,0,0,0,1.49-1.44,3.84,3.84,0,0,0,0-.59c0-1.32,0-2.63,0-3.94a1.43,1.43,0,0,1,.45-1,1,1,0,0,1,1-.06,1.47,1.47,0,0,1,.57,1c.06,1.57,0,3.14,0,4.72,0,.61,0,1.23,0,1.84a1.56,1.56,0,0,0,1.54,1.45,1.51,1.51,0,0,0,1.46-1.45,5.81,5.81,0,0,0,0-.59c0-1.28,0-2.55,0-3.82,0-.79.41-1.28,1-1.27s1,.47,1,1.24c0,.15,0,.31,0,.47,0,1.85,0,3.7,0,5.55a3,3,0,0,0,.15,1,1.46,1.46,0,0,0,1.59.9,1.63,1.63,0,0,0,1.31-1.63c0-1.71,0-3.42,0-5.13,0-.46,0-.92,0-1.37a1,1,0,1,1,2,0,3.85,3.85,0,0,1,0,.48c0,1.67,0,3.34,0,5a1.52,1.52,0,0,0,1.46,1.63,1.58,1.58,0,0,0,1.59-1.53c0-.2,0-.4,0-.6V47.1a5.76,5.76,0,0,1,0-.59A1,1,0,0,1,25,45.76a5.12,5.12,0,0,1,.52.4c1,.82,2,1.65,3,2.45a1.19,1.19,0,0,0,1.49.07,1.14,1.14,0,0,0,.49-1.36,2.07,2.07,0,0,0-.56-.82Q25.24,41.75,20.51,37a3.61,3.61,0,0,1-1.15-2.82c0-1,0-1.94,0-2.94a8.37,8.37,0,0,1-1.88,0,3.24,3.24,0,0,1-1.8-5.12c.45-.61,1-1.19,1.47-1.84Zm26-4.11c-1.07,0-1.81,0-2.54,0a1.84,1.84,0,0,0-1,.44c-3,2.89-5.89,5.81-8.81,8.73a1.14,1.14,0,0,0-.32.72c0,1.45,0,2.9,0,4.35a1.77,1.77,0,0,0,.44,1q4.35,4.42,8.74,8.81a1.12,1.12,0,0,0,.72.3c1.43,0,2.86,0,4.29,0a1.82,1.82,0,0,0,1.09-.46q4.42-4.32,8.77-8.69a1.34,1.34,0,0,0,.34-.83c0-1.33,0-2.66,0-4a1.89,1.89,0,0,0-.6-1.48c-2.38-2.37-4.8-4.71-7.08-7.17C36.93,20.63,35.71,19.66,34.13,20.16Z"/></svg>