<svg id="Layer_1" data-name="Layer 1" xmlns="http://www.w3.org/2000/svg" viewBox="0 0 65 65"><defs><style>.cls-1{fill:#4dc0b3;}</style></defs><path class="cls-1" d="M50.92,2.61a8.48,8.48,0,0,1,1.4.74A3,3,0,0,1,53.45,5.9c0,2.65,0,5.3,0,8V27c0,.2,0,.4,0,.59a.83.83,0,0,1-.86.82.82.82,0,0,1-.87-.73,3.35,3.35,0,0,1,0-.71V6.23c0-1.44-.4-1.84-1.82-1.84H6.69c-1.41,0-1.82.4-1.82,1.79V12.4a2.88,2.88,0,0,1,0,.59.83.83,0,0,1-.91.75.81.81,0,0,1-.83-.84c0-.83,0-1.66,0-2.49v-4c0-2.24.48-3,2.52-3.83Z"/><path class="cls-1" d="M12.21,61.56H28a2.91,2.91,0,0,1,.59,0,.88.88,0,0,1,0,1.74,2.43,2.43,0,0,1-.47,0H8.36a5.15,5.15,0,0,1-5.18-4.18,6.94,6.94,0,0,1-.08-1.29q0-20.23,0-40.45a4.61,4.61,0,0,1,0-.53.82.82,0,0,1,.79-.75.79.79,0,0,1,.9.61,3.21,3.21,0,0,1,.07.82q0,20.12,0,40.21a3.57,3.57,0,0,0,1,2.76,3.18,3.18,0,0,0,3.38.86,3.19,3.19,0,0,0,2.32-2.67,16.82,16.82,0,0,0,.09-2.36A3.12,3.12,0,0,1,15,53H42.4c.18-.52,0-.78-.45-1a9.29,9.29,0,0,1-1.58-.92.63.63,0,0,0-.78,0A5.62,5.62,0,0,1,38,51.7a2.29,2.29,0,0,1-2.34-1.2c-.37-.61-.72-1.22-1.06-1.85a2.4,2.4,0,0,1,.92-3.42c.7-.37,1.09-.77.86-1.58a.33.33,0,0,1,0-.17A2,2,0,0,0,35.16,41a2.25,2.25,0,0,1-.69-3c.37-.72.78-1.42,1.22-2.1A2.38,2.38,0,0,1,39,35.09a1.33,1.33,0,0,0,1.9-.09,1.84,1.84,0,0,1,.77-.43c.71-.2.83-.65.81-1.33a2.43,2.43,0,0,1,2.65-2.65c.66,0,1.31,0,2,0a2.43,2.43,0,0,1,2.49,2.53c0,.8.17,1.29,1,1.53a6,6,0,0,1,1.12.63V32.45a6.57,6.57,0,0,1,0-.77.86.86,0,0,1,.94-.86.82.82,0,0,1,.82.9c0,.89,0,1.78,0,2.67a4,4,0,0,0,0,.44,2.72,2.72,0,0,1,3.31,1.74c.21.42.48.82.71,1.23a2.5,2.5,0,0,1-.91,3.46,1.78,1.78,0,0,1-.3.17c-.56.2-.69.57-.6,1.15a5.23,5.23,0,0,1,0,1.53.71.71,0,0,0,.45.84,2.66,2.66,0,0,1,1.71,2.16c.13,1.19-1.41,4-2.52,4.38a10,10,0,0,1-1.83.31V53h.64c1.56,0,3.12,0,4.68,0A3.06,3.06,0,0,1,62,56.1a15.34,15.34,0,0,1-.15,3.25,5,5,0,0,1-4.82,4q-12.14,0-24.26,0c-.64,0-1-.36-1-.89s.41-.89,1.15-.89H56.64a3.27,3.27,0,0,0,3.46-2.63,15,15,0,0,0,.06-3.07,1.23,1.23,0,0,0-1.14-1c-.21,0-.43,0-.65,0H15.26c-1.44,0-1.85.4-1.85,1.82C13.41,59.28,13.41,59.28,12.21,61.56ZM47.83,53c0-.38,0-.73,0-1.08a1.13,1.13,0,0,1,.82-1.2,20.33,20.33,0,0,0,2.59-1.51,1.09,1.09,0,0,1,1.35-.11c.4.25.82.48,1.23.71A.73.73,0,0,0,55,49.5c.33-.54.65-1.09,1-1.64s.19-.86-.34-1.19l-1.28-.74a.92.92,0,0,1-.5-1.09,7.86,7.86,0,0,0,0-3.24.9.9,0,0,1,.47-1.05c.45-.25.9-.5,1.34-.77a.74.74,0,0,0,.32-1.14c-.31-.58-.64-1.14-1-1.7a.73.73,0,0,0-1.11-.28l-1.33.77a1,1,0,0,1-1.2-.1c-.91-.58-1.85-1.12-2.8-1.62a1,1,0,0,1-.68-1c0-.5,0-1,0-1.48s-.25-.85-.82-.86h-2a.72.72,0,0,0-.8.81c0,.51,0,1,0,1.54a1.06,1.06,0,0,1-.7,1c-.95.5-1.88,1-2.8,1.62a1,1,0,0,1-1.2.09l-1.33-.77a.74.74,0,0,0-1.11.3l-1,1.69a.73.73,0,0,0,.29,1.11c.44.26.88.52,1.33.77a1.06,1.06,0,0,1,.53,1.09,31.64,31.64,0,0,0,0,3.23A1.09,1.09,0,0,1,37.72,46l-1.29.74a.73.73,0,0,0-.31,1.1c.32.57.64,1.14,1,1.69a.73.73,0,0,0,1.15.3c.42-.23.83-.46,1.23-.71a1.09,1.09,0,0,1,1.35.11,24.94,24.94,0,0,0,2.65,1.53,1.12,1.12,0,0,1,.77,1.12V53Zm3.82-1.77a14.34,14.34,0,0,1-1.52.81.66.66,0,0,0-.47.95h2Z"/><path class="cls-1" d="M18,22.06h7.17a3.39,3.39,0,0,1,3.62,3.59q0,3.78,0,7.58a3.4,3.4,0,0,1-3.64,3.63H10.76a3.39,3.39,0,0,1-3.61-3.6c0-2.55,0-5.09,0-7.64a3.38,3.38,0,0,1,3.57-3.56Zm0,1.78c-2.41,0-4.82,0-7.23,0a1.63,1.63,0,0,0-1.83,1.83q0,3.76,0,7.53a1.66,1.66,0,0,0,1.9,1.88h14.3A1.67,1.67,0,0,0,27,33.18q0-3.73,0-7.47c0-1.28-.62-1.87-1.91-1.87C22.74,23.83,20.36,23.84,18,23.84Z"/><path class="cls-1" d="M28.21,19.81h-18a3.53,3.53,0,0,1-.65,0,.88.88,0,0,1,0-1.73,2.32,2.32,0,0,1,.59,0H46.86a.89.89,0,0,1,0,1.77c-.19,0-.39,0-.59,0Z"/><path class="cls-1" d="M20.8,44.31H8.53a4.72,4.72,0,0,1-.65,0,.87.87,0,0,1,0-1.72,4.79,4.79,0,0,1,.65,0H33a4.61,4.61,0,0,1,.53,0,.83.83,0,0,1,.84.88.85.85,0,0,1-.86.87,5.76,5.76,0,0,1-.59,0Z"/><path class="cls-1" d="M20,39.1H31.43a4.64,4.64,0,0,1,.65,0,.87.87,0,0,1,.09,1.69,2.35,2.35,0,0,1-.65.06h-23a2.81,2.81,0,0,1-.65-.05.87.87,0,0,1,.09-1.7,4.64,4.64,0,0,1,.65,0Z"/><path class="cls-1" d="M20,47.73c-3.81,0-7.62,0-11.43,0a3.5,3.5,0,0,1-.65,0,.79.79,0,0,1-.72-.81A.8.8,0,0,1,7.85,46a2.37,2.37,0,0,1,.53,0H31.56a2.28,2.28,0,0,1,.58,0,.87.87,0,0,1,0,1.69,4.18,4.18,0,0,1-.71,0C27.59,47.74,23.78,47.73,20,47.73Z"/><path class="cls-1" d="M23.12,16.25a4.14,4.14,0,0,1,0-8.28,4.14,4.14,0,1,1,0,8.28Zm0-1.78a2.36,2.36,0,1,0-2.34-2.39A2.34,2.34,0,0,0,23.14,14.47Z"/><path class="cls-1" d="M16.7,13c.5.57,1,1.09,1.42,1.63a.9.9,0,1,1-1.34,1.17A22.83,22.83,0,0,0,15,13.91c0,.45,0,.91,0,1.35,0,.69-.55,1.13-1.12,1a.86.86,0,0,1-.65-.89c0-2.15,0-4.3,0-6.45A.82.82,0,0,1,14,8a13.23,13.23,0,0,1,2.18,0A2.53,2.53,0,0,1,17,12.82ZM15,11.36c.63,0,1.25.15,1.58-.48a.87.87,0,0,0-.07-.75c-.38-.53-.95-.38-1.51-.35Z"/><path class="cls-1" d="M40.27,25.49h8c.66,0,1,.27,1.1.75a.89.89,0,0,1-.77,1,4.64,4.64,0,0,1-.53,0H32.37c-.13,0-.27,0-.41,0a.9.9,0,0,1-.91-.9A.87.87,0,0,1,32,25.5c1,0,2,0,3,0Z"/><path class="cls-1" d="M37.73,12A4.15,4.15,0,0,1,44,8.57c.42.24.7.61.5,1.07a1.25,1.25,0,0,1-.74.63c-.22.07-.55-.12-.81-.25A2.36,2.36,0,0,0,39.67,13a2.21,2.21,0,0,0,3.58.92.82.82,0,0,1,1.3,0,.93.93,0,0,1-.09,1.33,3.81,3.81,0,0,1-4.79.44A4.1,4.1,0,0,1,37.73,12Z"/><path class="cls-1" d="M8.58,13.41c0,.67,0,1.26,0,1.85a.89.89,0,1,1-1.77,0q0-3.16,0-6.33a.85.85,0,0,1,.84-1A13.3,13.3,0,0,1,10,8.05a2.65,2.65,0,0,1,2.24,2.88,2.73,2.73,0,0,1-2.64,2.48Zm0-1.79c.64,0,1.32.22,1.69-.44a1.13,1.13,0,0,0,0-1c-.38-.63-1-.46-1.67-.43Z"/><path class="cls-1" d="M34.64,9.82v1.44h1.48c.6,0,1,.35,1,.86s-.39.9-1,.92c-.47,0-.94,0-1.45,0v1.43H36.2c.71,0,1.1.32,1.11.88s-.38.89-1.08.9H33.92c-.74,0-1.08-.3-1.08-1,0-2.06,0-4.11,0-6.17,0-.71.32-1,1-1s1.66,0,2.49,0a.85.85,0,0,1,1,.84.88.88,0,0,1-.93.93C35.81,9.84,35.24,9.82,34.64,9.82Z"/><path class="cls-1" d="M13.76,51.26c-1.87,0-3.75,0-5.63,0a.88.88,0,0,1-1-.88.9.9,0,0,1,1-.89H19.38c.63,0,1,.39,1,.91a.9.9,0,0,1-1,.86C17.51,51.27,15.64,51.26,13.76,51.26Z"/><path class="cls-1" d="M37,28.93h4.86c.71,0,1.09.31,1.1.87s-.39.9-1.08.9q-4.89,0-9.78,0c-.68,0-1.09-.36-1.08-.91s.4-.86,1.06-.86Z"/><path class="cls-1" d="M48.89,9.75V13c0,.77,0,1.54,0,2.3a.89.89,0,1,1-1.77,0c0-1.59,0-3.19,0-4.79V9.74c-.33,0-.61,0-.9,0A.88.88,0,0,1,46.15,8c1.22,0,2.45,0,3.67,0a.88.88,0,1,1-.07,1.76C49.5,9.76,49.25,9.75,48.89,9.75Z"/><path class="cls-1" d="M31.49,11.6c0,.83,0,1.66,0,2.49a2.09,2.09,0,0,1-1.34,2,2.13,2.13,0,0,1-2.31-.45.85.85,0,0,1-.19-1.25.87.87,0,0,1,1.21-.18c.7.4.85.32.85-.48,0-1.56,0-3.12,0-4.68,0-.65.35-1.05.87-1.07a.89.89,0,0,1,.9,1C31.5,9.82,31.49,10.71,31.49,11.6Z"/><path class="cls-1" d="M46,38.63a4.61,4.61,0,1,1-4.61,4.58A4.63,4.63,0,0,1,46,38.63Zm0,1.78A2.83,2.83,0,0,0,46,46.06a2.83,2.83,0,1,0,.08-5.65Z"/><path class="cls-1" d="M18.43,29.71c0-1.07,0-2.14,0-3.2,0-.77.32-1.1,1.07-1.11h5.16c.76,0,1.1.34,1.1,1.08,0,2.16,0,4.31,0,6.47A.93.93,0,0,1,24.71,34H19.49c-.75,0-1.06-.34-1.06-1.11C18.42,31.84,18.43,30.77,18.43,29.71Zm1.81-2.5v5H24v-5Z"/><path class="cls-1" d="M13.87,28.69c.87,0,1.74,0,2.61,0,.7,0,1,.31,1,1,0,1.1,0,2.21,0,3.31,0,.69-.33,1-1,1H11.26c-.74,0-1-.32-1.06-1.05,0-1.08,0-2.17,0-3.25,0-.73.32-1,1.07-1S13,28.69,13.87,28.69ZM12,32.17h3.68V30.51H12Z"/></svg>