<svg id="Layer_1" data-name="Layer 1" xmlns="http://www.w3.org/2000/svg" viewBox="0 0 65 65"><defs><style>.cls-1{fill:blue;}.cls-2{fill:#f3f945;}</style></defs><path class="cls-1" d="M64.09,42.8a4.21,4.21,0,0,1-3.32,2.92,29.88,29.88,0,0,0-3,1,1.72,1.72,0,0,0-.83.65,20,20,0,0,1-7.64,7.13,1.07,1.07,0,0,0-.61.82c-.36,2.06-.76,4.11-1.16,6.16a2.25,2.25,0,0,1-2.4,2H41.15a2.24,2.24,0,0,1-2.43-2c-.23-1.1-.43-2.2-.62-3.18H28.4c-.2,1-.4,2-.59,3a2.29,2.29,0,0,1-2.49,2.11H21.51A2.33,2.33,0,0,1,19,61.31c-.35-1.87-.73-3.73-1.07-5.61a1.11,1.11,0,0,0-.59-.84,17.28,17.28,0,0,1-8.83-12.1A43.63,43.63,0,0,1,8,37.14c-.25-.27-.41-.06-.6.23a6.59,6.59,0,0,1-4.06,3.15,5,5,0,0,1-1.16.12,1,1,0,1,1,0-1.9,4.7,4.7,0,0,0,3.54-2c-.23-.07-.4-.11-.56-.17a13.21,13.21,0,0,1-1.66-.63c-1.6-.82-2-2.19-1.11-3.61a2.57,2.57,0,0,1,3.91-.8A4.44,4.44,0,0,1,8,34.72a.78.78,0,0,0,.2.48,4.51,4.51,0,0,0,.17-.52,17.31,17.31,0,0,1,8.54-12.36c.62-.37,1.16-.29,1.45.2s.12,1-.51,1.37a15.44,15.44,0,0,0-7.56,10.49,19.16,19.16,0,0,0,.35,9.6,15.48,15.48,0,0,0,7.57,9.28,2.72,2.72,0,0,1,1.5,2.13c.3,1.86.72,3.7,1.05,5.55.09.5.29.7.8.69q1.85,0,3.69,0A.67.67,0,0,0,26,61c.16-1,.37-2,.55-3,.23-1.27.7-1.68,2-1.56a40.24,40.24,0,0,0,9.56-.22,1.46,1.46,0,0,1,1.74,1.33c.22,1.13.44,2.25.62,3.39.08.51.32.68.82.67,1.21,0,2.42,0,3.63,0,.56,0,.75-.22.84-.72.39-2.14.82-4.27,1.2-6.4a1.85,1.85,0,0,1,1-1.42,18.18,18.18,0,0,0,7.44-6.87,2.92,2.92,0,0,1,1.79-1.31c1.21-.37,2.42-.76,3.62-1.15a1.72,1.72,0,0,0,1.41-1.95V38A1.62,1.62,0,0,0,61,36.26l-2.22-.72A3.06,3.06,0,0,1,56.6,33.4a14.52,14.52,0,0,0-2.42-4.52c-.1-.13-.2-.26-.31-.38s-.07,0-.15-.07c-.08.18-.17.36-.24.54a4.67,4.67,0,0,1-4.82,3.09,7.05,7.05,0,0,1-7.31-7.16c0-1.1.12-2.2.19-3.4-.41-.09-.9-.22-1.39-.31a.45.45,0,0,0-.35.15c-.56.63-1,1.31-1.64,1.9s-1.25,1.06-1.92,1.62c.48.15.95.29,1.4.45.66.22.91.65.75,1.19s-.65.76-1.31.54a24.61,24.61,0,0,0-8-1.19A24.87,24.87,0,0,0,22.09,27a1.28,1.28,0,0,1-.82.11,1.42,1.42,0,0,1-.69-.74.77.77,0,0,1,.56-1c.51-.2,1-.34,1.63-.53a3.94,3.94,0,0,0-.41-.32A12.51,12.51,0,1,1,40.55,8.41c.33.64.23,1.16-.28,1.43s-1,.07-1.32-.52a.83.83,0,0,0-.09-.16,10.46,10.46,0,0,0-9.77-5.57A10.66,10.66,0,0,0,25.41,24.1a2.18,2.18,0,0,0,.95.1,26.22,26.22,0,0,1,6.26,0A2.17,2.17,0,0,0,33.74,24a10.49,10.49,0,0,0,6.39-9,1.33,1.33,0,0,1,.28-.83,1.21,1.21,0,0,1,1-.23,1.08,1.08,0,0,1,.55.83c-.21,1.33-.51,2.64-.79,3.95a7.12,7.12,0,0,1-.26.7c.9.13,1.65.57,2.64.07a31.13,31.13,0,0,1,7.36-2.71l.54-.09c2.11-.27,3,.4,3.31,2.53a20.52,20.52,0,0,1-.28,6.54,1.07,1.07,0,0,0,.2.8,17,17,0,0,1,3.66,6.2,1.43,1.43,0,0,0,1,1c.47.13.93.32,1.41.43a4.14,4.14,0,0,1,3.32,2.91Zm-11-21.59c0-.37-.07-1.1-.18-1.83-.14-.93-.29-1-1.21-.85A32.57,32.57,0,0,0,44,21.3a1.27,1.27,0,0,0-.6.85A17.16,17.16,0,0,0,43.19,25a5.26,5.26,0,0,0,5.63,5.23,3,3,0,0,0,3-2.06A20.35,20.35,0,0,0,53.07,21.21ZM6.18,35a2.59,2.59,0,0,0-1.25-2.14c-.44-.23-.83,0-1.13.5s0,.72.35.88C4.77,34.49,5.42,34.71,6.18,35Z"/><path class="cls-2" d="M30.39,9.85c0,1.13,0,2.11,0,3.09,0,.12.14.26.24.35a1.17,1.17,0,0,0,.34.15c1.73.75,2.47,1.85,2.34,3.48s-1,2.58-2.73,3.16l-.71.78-.61-.65.12-.16a5.68,5.68,0,0,1-1.24-.25,9.92,9.92,0,0,1-1.69-.93.94.94,0,0,1-.35-.74,1.37,1.37,0,0,1,.47-.84c.13-.1.55,0,.75.18a3.55,3.55,0,0,0,2.09.94c0-1.19,0-2.37,0-3.55,0-.12-.2-.27-.34-.34-.36-.19-.76-.32-1.12-.5a2.73,2.73,0,0,1-1.58-2.81,2.73,2.73,0,0,1,2-2.51,2.61,2.61,0,0,0,.85-.34l.7-.72.72.76c.45.12,1.12.26,1.77.48a.77.77,0,0,1,.55,1,.69.69,0,0,1-1,.51Zm-.08,8.45A1.35,1.35,0,0,0,31.69,17a1.74,1.74,0,0,0-1.38-2ZM29.5,10c-1,.07-1.54.57-1.52,1.34a1.51,1.51,0,0,0,1.52,1.41Z"/><path class="cls-2" d="M51,38.29a3,3,0,0,1-3-2.8.94.94,0,0,1,.78-1.07.91.91,0,0,1,1,.87c.13.76.54,1.17,1.17,1.17s1-.4,1.16-1.18a.92.92,0,0,1,1.06-.86A.93.93,0,0,1,54,35.5,3,3,0,0,1,51,38.29Z"/></svg>