<svg id="Layer_1" data-name="Layer 1" xmlns="http://www.w3.org/2000/svg" viewBox="0 0 500.94 493.28"><defs><style>.cls-1{fill:#99d9ee;}</style></defs><path class="cls-1" d="M16.21,76c2.4-3,5.17-4.73,9.36-4.72q90,.16,180,.08H209v3.45H20.68L20.17,348l468.26,2.3-1-275.75-26.29.51c.24,1.93.55,4.84.67,8.4.13,3.94-.08,6.87-.08,8.05.05,23.65,0,37.69,0,59.39,0,15.38-9.1,24.39-24.6,24.4q-58.23,0-116.46-.05a9.19,9.19,0,0,0-7.3,2.93c-10.06,10.29-20.31,20.37-30.46,30.57a11.58,11.58,0,0,1-6.14,3.64,4,4,0,0,1-2.26-.09c-1.88-.78-2.84-3.72-2.47-7.45l-.09-29.7a75.57,75.57,0,0,1-23.31.15c-7.44-1.12-13.52-2-18-6.49-4.18-4.2-6.44-10.31-6.44-18q0-57.3,0-114.61c0-15.1,9.16-24.22,24.3-24.22q94.43,0,188.85,0c15.42,0,24.41,9.06,24.44,24.56,0,11.42,0,22.84,0,34.84,6.9,0,13.49,0,20.09,0,7,0,9.6,2.53,9.6,9.41q0,161.25,0,322.49c0,7.18-2.52,9.63-9.85,9.63q-65,0-129.93,0h-5.78c3.28,9.89,6.35,19.36,9.67,28.75.32.93,2.11,1.56,3.34,1.91,15.83,4.5,25.2,14.81,28.24,31,1,5.09.27,9.45-4.27,12.6h-258c-4.55-3.13-5.24-7.5-4.3-12.57,3-16.16,12.41-26.42,28.15-31,1.33-.38,3.2-1.18,3.58-2.23,3.29-9.26,6.3-18.62,9.55-28.43h-5.61C113.1,412.9,70,412.84,27,413c-4.53,0-8.12-1-10.74-4.72ZM275.74,210.21,308,178.89a37.25,37.25,0,0,1,5.47-4.38,12.47,12.47,0,0,1,4.21-2,10.33,10.33,0,0,1,4.21-.07c60.51,1.2,105.11,1,116.92.11,4-.31,10.36-1.11,14.55-5.87a17.53,17.53,0,0,0,4.09-8.94l.93-128.85A18.58,18.58,0,0,0,442,15.66c-102.18.14-175.33-.13-188.76-1.53-2-.21-9-1.1-15.58,2.72-5.33,3.09-8.36,8.08-10.13,12.17q.09,56.34.17,112.68c-.48,2.71-3.06,18.42,5.79,25.79,4.23,3.51,9.83,3.87,21,4.6a125,125,0,0,0,19.24-.26q.7,7.48,1.19,15.4C275.45,195.19,275.69,202.86,275.74,210.21ZM19.66,409.7,487.91,409V352.34l-149.1-.68c-1.05,5.59-4.05,16.87-13.73,24.3-5.86,4.49-12,6-24.16,7.24-21,2.09-27.65.42-52.83.8-14.1.21-28.19-.84-42.29-.94a41,41,0,0,1-16.17-3.19,35.22,35.22,0,0,1-9.82-6.12c-8.49-7.66-10.25-18.17-10.7-22.09l-148.43-.85ZM352.6,444.13q-4.92-15.64-9.83-31.28l-177.83-.25Q159.77,427.78,154.6,443Zm30.51,40.59a33.69,33.69,0,0,0-3.32-21.19A31.46,31.46,0,0,0,366.26,450a30.6,30.6,0,0,0-12-3.19l-75.71-.38L155,445.32a35.12,35.12,0,0,0-21,9.4c-11.84,11.39-10.54,27-10.34,29.11ZM174,351.83a26.82,26.82,0,0,0,4.17,13.4c3,4.65,7.6,8.28,14.56,10.86,16.54,6.11,36.81,3.53,59.87,3.54,20.8,0,37.39,2.12,56.42-2.28,5.05-1.16,12.72-3.45,18.43-10.29a29.82,29.82,0,0,0,6.38-14.72Z"/><path class="cls-1" d="M118.79,262.28q6,14.78,12.12,29.55L135.13,302l-16.73,7-21.19,8.49-4.08-9.44q-6.41-14.83-12.7-29.62c-1.4.12-3.41.27-5.84.36a37.2,37.2,0,0,1-5,.08c-8.47-1-14.71-5.49-18.1-13.38-4-9.23-7.76-18.52-11.34-27.89-3-7.69-2.24-12.15-.16-16.77,3.85-8.56,13.85-11.26,16.41-11.87l39.48-16.85,3.37-3.69L151.4,140.3c2.41-2.23,3.1-3,5.75-5.49,9.51-9,17.54-15.82,22.91-20.3q14.2,32,28.2,65.58Q224,217.8,238,254.3c-4.32.35-10.93.84-19,1.27-11.68.63-20.38.82-23.81.9-12.84.29-33.58.92-67.47,2.1Zm55.7-7.71L137.62,156l-37.28,34.47,2.62,5.81q6.67,14.7,13.34,29.42Q123.14,240.85,130,256Zm-45.87,2L99.19,192.7,51,214c-2.53,1.48-7.41,4.87-9.13,10.72-1.52,5.21.22,9.81,1.85,13.92,3.09,7.74,7.53,18.1,13.72,30.45a8.74,8.74,0,0,0,1.22,2.48c4.15,5.82,14.88,4.61,19.53,4,8.79-1.1,14.31-3.86,22.79-7.66C107.27,265.08,116.67,261,128.62,256.53Zm106.21-4.15L178.91,117.06l-14,13.73,50.75,122.93Zm-95.94-97.53L178.13,254l35.23-.17q-25-60.93-50-121.85Zm-6.83,146q-7.68-18.79-15.38-37.59L83.3,277.72Q90.86,296,98.43,314.23Z"/><path class="cls-1" d="M392.79,305.13h13.56q.43-50.82.88-101.64H410V303.94a3.06,3.06,0,0,1-.38,2.55,3.1,3.1,0,0,1-2.43,1.28q-30.63.09-61.27.12-31.11,0-62.23,0v-2.32h13.45v-6.24c0-17.23,0-34.45,0-51.67,0-7.36,2.43-10.4,8.25-10.44,8-.06,15.93,0,23.9,0,6.44,0,8.79,2.9,8.8,10.84q0,25.56,0,51.13v6h13.66V223.33c0-9.06,2.12-11.69,9.4-11.7,7.68,0,15.36,0,23,0,6.12,0,8.52,3,8.53,10.65q0,38.36,0,76.71ZM355,214.83l-.63,90.61,36-.1q-.12-45.25-.25-90.51ZM335.49,305,335,240.11l-34.34.25-1,64.73Z"/><path class="cls-1" d="M231.74,320.3V317H401.92v3.35Z"/><path class="cls-1" d="M425.4,190.49h3q0,59.54.08,119.08h-3.1Z"/><path class="cls-1" d="M82.91,106.22H53.43l1,34.47-3.39-.06L50.66,107a3.91,3.91,0,0,1,.6-1.29c1.69-2.39,5.76-2.18,7.46-2.1,4.9.2,13.17.16,24.13.12Z"/><path class="cls-1" d="M51.13,142.34l3.32.19V153l-3.25-.17Z"/><path class="cls-1" d="M419.82,320.33H406.65V317h13.17Z"/><path class="cls-1" d="M429.1,320.49l-3.68-.09V317h3.51Z"/><path class="cls-1" d="M283.4,115.88A22.25,22.25,0,1,1,305.76,94,22.35,22.35,0,0,1,283.4,115.88Zm.1-29.64a7.39,7.39,0,1,0,7.39,7.29A7.45,7.45,0,0,0,283.5,86.24Z"/><path class="cls-1" d="M365.16,93.83a22.25,22.25,0,1,1-22.3-22.44A22.32,22.32,0,0,1,365.16,93.83ZM343.09,101a7.4,7.4,0,1,0-7.59-7.09A7.46,7.46,0,0,0,343.09,101Z"/><path class="cls-1" d="M402.4,71.39A22.25,22.25,0,1,1,380.05,93.3,22.33,22.33,0,0,1,402.4,71.39Zm7.29,22.4a7.4,7.4,0,1,0-7.44,7.23A7.48,7.48,0,0,0,409.69,93.79Z"/></svg>