<svg id="Layer_1" data-name="Layer 1" xmlns="http://www.w3.org/2000/svg" viewBox="0 0 65 65"><defs><style>.cls-1{fill:#99d9ee;}</style></defs><path class="cls-1" d="M60.93,60l-.81,1.88c-2.45-1.05-4.86-2.09-7.27-3.1a2.17,2.17,0,0,0-1-.15l-15.88,2L21,62.48,6.53,64.29a1.08,1.08,0,0,1-1.36-1.18c0-1,0-1.91,0-3l-3.68,1.6L.67,59.89c1.34-.59,2.63-1.18,4-1.73a.76.76,0,0,0,.56-.84c0-3.33,0-6.66,0-10.1L1.53,49l-.9-1.81,1.19-.61c1-.46,1.91-.94,2.88-1.38a.71.71,0,0,0,.48-.77c0-3.33,0-6.66,0-10V9.49c0-1.22.16-1.42,1.33-1.6L23.72,5.37,40,3,55.06.79c.91-.14,1.37.3,1.37,1.29V18.54q0,13,0,26a.82.82,0,0,0,.56.91c1.32.58,2.62,1.22,4,1.85l-.86,1.85-7.75-3.6a9.46,9.46,0,0,1-5.1,8.57ZM37,30.49V11.34c0-1,.34-1.36,1.33-1.36h5.64c.81,0,1.15.33,1.24,1.14.18,1.65.35,3.31.53,5Q46.83,26.81,48,37.53a1.31,1.31,0,0,0,.46.82,9.57,9.57,0,0,1,3.27,4.27.93.93,0,0,0,.33.51c.73.38,1.49.71,2.27,1.07V3L7.26,9.84V62.13L48.36,57a31.26,31.26,0,0,0-2.93-1.41A5.39,5.39,0,0,0,43,55.06a9.1,9.1,0,0,1-9.13-8.66c-.12-4.93,0-9.86,0-14.79A1,1,0,0,1,35,30.49C35.61,30.47,36.23,30.49,37,30.49ZM50.27,45.86A7.17,7.17,0,1,0,43.05,53,7.18,7.18,0,0,0,50.27,45.86ZM39,30.48H41a1,1,0,0,1,1.12,1.11c0,.9,0,1.79,0,2.69v2.26l3.78.38L45,28.48H39Zm0-4.14h5.71l-.66-6.06H39Zm4.83-8.19-.66-6.08H39.05v6.08ZM40,32.58H36V40a9.76,9.76,0,0,1,3.72-2.71.65.65,0,0,0,.31-.46C40,35.43,40,34,40,32.58Z"/><path class="cls-1" d="M9.71,45l-.87-1.77a5,5,0,0,1,.49-.28C11.61,42,12.62,40.3,13,38c1.32-8.26,2.73-16.5,4.1-24.74a3.8,3.8,0,0,1,7.55.6c0,5.38,0,10.76,0,16.14a.79.79,0,0,0,.56.89,3.78,3.78,0,0,1,2.5,3.63c.05,4.54.06,9.09,0,13.64a7,7,0,0,1-5.54,6.55,36.16,36.16,0,0,1-4.56.54,8.18,8.18,0,0,0-2.09.43c-1.94.78-3.83,1.66-5.81,2.53l-.83-1.85c.2-.1.38-.2.57-.28,1.69-.75,3.41-1.47,5.09-2.25a6.74,6.74,0,0,1,3.28-.64,10.13,10.13,0,0,0,4.52-.69,5,5,0,0,0,3.34-5c0-4.25,0-8.5,0-12.75a2.05,2.05,0,1,0-4.1,0c0,2.78,0,5.56,0,8.33v.73H19.52v-9a4,4,0,0,1,2.68-4,.54.54,0,0,0,.4-.61q0-8.13,0-16.27A1.76,1.76,0,0,0,21,12a1.74,1.74,0,0,0-1.88,1.54c-.73,4.29-1.44,8.58-2.16,12.87S15.58,34.83,14.87,39A7.36,7.36,0,0,1,9.71,45Z"/><path class="cls-1" d="M29.81,24.35h2v7.11h-2Z"/><path class="cls-1" d="M29.81,37.67h2v7.12h-2Z"/><path class="cls-1" d="M31.8,33.61v2h-2v-2Z"/><path class="cls-1" d="M46.69,45.91a3.59,3.59,0,1,1-3.54-3.64A3.62,3.62,0,0,1,46.69,45.91Zm-3.61,1.48a1.53,1.53,0,1,0-1.51-1.57A1.54,1.54,0,0,0,43.08,47.39Z"/></svg>