<svg id="Layer_1" data-name="Layer 1" xmlns="http://www.w3.org/2000/svg" viewBox="0 0 65 65"><defs><style>.cls-1{fill:none;stroke:#1450e2;stroke-miterlimit:10;}.cls-2{fill:#1450e2;}</style></defs><circle class="cls-1" cx="32.62" cy="32.02" r="31.2"/><path class="cls-2" d="M13.93,57.26l-.3-.3.54,0c0-1.18,0-2.33,0-3.49,0-.11-.14-.22-.18-.34s-.18-.49-.11-.54c.53-.42.33-1,.35-1.52.09-3,.17-6,.22-9.06,0-.26-.19-.51-.26-.77s-.12-.56,0-.6c.5-.26.35-.7.37-1.08,0-.85.06-1.7.07-2.54,0-.39.16-.82-.3-1.11-.08-.05,0-.38,0-.56s.32-.58.33-.87q.11-3.23.15-6.46c0-.69-.39-1.3,0-2.08s-.48-1.22-1.06-1.56a1.08,1.08,0,0,1-.5-1.45c.44,0,.89,0,1.35,0s.56-.14.56-.55c0-.94,0-1.87,0-2.85l.76-.14V16.68h2.86c.13-2.16.26-4.22.38-6.36h6.15l.09-.89c.07,0,.13-.1.18-.09,1.81.43,3.05-1,4.6-1.39.07,0,.16-.07.17-.12.2-.94,1.05-.92,1.67-.94a14.71,14.71,0,0,1,2.62.35c.55,1.19,2,1,2.81,1.82a1.38,1.38,0,0,0,.82.25c.52,0,1,0,1.59,0l.15,1h6.12a3.09,3.09,0,0,1,.07.4l.27,5.62a1.56,1.56,0,0,0,.07.34h2.8v2.7c.75,0,.88.34.84.94,0,.82,0,1.65,0,2.54l1.88.09a1.11,1.11,0,0,1-.53,1.46c-.53.33-1.36.6-1,1.46a4.54,4.54,0,0,1,0,1.94,50.67,50.67,0,0,0,.19,6.86,7.78,7.78,0,0,1,0,2,15.52,15.52,0,0,0,0,2.81c0,.41-.13.87.38,1.15a.66.66,0,0,1,0,.55c-.45.24-.3.62-.29,1,.07,3.16.14,6.32.23,9.48a4.22,4.22,0,0,0,.28.85,1.56,1.56,0,0,1,.06.51c.05,1-.1,2.27,0,3.57,0,.17,0,.43.06.75ZM26.75,57H37.63c.89,0,.89,0,.89-.9q0-9.78,0-19.58c0-.67-.64-1.24-.28-2,0-.06,0-.17-.09-.26-.18-.39-.34-.8-.55-1.18a5.53,5.53,0,0,0-8.9-1.34c-.93,1-1.95,2-1.56,3.61,0,.07,0,.17-.07.26a2.46,2.46,0,0,0-.31.81q0,9.65,0,19.3ZM49.93,22.83c0-.83,0-1.61,0-2.38s-.2-.84-.85-.84q-16.28,0-32.55,0c-.36,0-.72,0-1.12,0v3.2Zm-.8-3.46V17.8c0-.95,0-.95-.92-.95H16.81c-.26,0-.65-.14-.66.35,0,.71,0,1.41,0,2.16Zm-8.82,8.07H25c0,2.39,0,4.72,0,7.05a.48.48,0,0,0,.13.36,1.4,1.4,0,0,0,1.74-.55,6.69,6.69,0,0,1,2.06-3.1A5.85,5.85,0,0,1,38.24,34a1.2,1.2,0,0,0,1.42,1c.55,0,.64-.22.64-.69,0-2.09,0-4.17,0-6.25C40.35,27.82,40.32,27.65,40.31,27.44ZM46,12.74V11.42c0-.89,0-.89-.9-.9H20.71c-1.44,0-1.4,0-1.44,1.4,0,.67.19.84.85.84q10.47,0,20.93,0Zm3,37.11c0-2.77,0-5.43,0-8.08,0-.14-.34-.4-.53-.4-1.94,0-3.89,0-5.84,0-.33,0-.5.09-.5.46,0,2.52,0,5,0,7.56,0,.35.13.49.49.48H49Zm-25.93,0a1.17,1.17,0,0,0,.08-.29c0-2.58,0-5.16,0-7.75,0-.37-.16-.47-.5-.47-2,0-3.93,0-5.9,0a.66.66,0,0,0-.48.45q0,3.8,0,7.61a.56.56,0,0,0,.39.4C18.78,49.86,20.9,49.85,23.06,49.85ZM46.17,13h-27V16.6h27ZM16.69,32.17h6.36c.09.88.19,1.7.25,2.51s.54.54.95.56.52-.27.52-.66c0-2.26-.06-4.53-.09-6.79a3.48,3.48,0,0,0-.07-.54H15v8l.38,0c1,0,1,0,1.11-1C16.52,33.57,16.6,32.87,16.69,32.17Zm25.53,0a2.73,2.73,0,0,1,.31-.06c1.87,0,3.75,0,5.63,0,.16,0,.44.29.47.47a17.59,17.59,0,0,1,.22,2c0,.85.68.53,1.12.58s.49-.31.47-.67c0-1.12-.07-2.24-.08-3.36,0-1.3,0-2.6,0-4H40.57v7.92c1.28.21,1.3.19,1.44-1Zm-23-6-.71.05c-.61.08-.89-.13-.82-.78a14,14,0,0,0,0-1.45h-1v2.18c-.27,0-.48,0-.68.06-.6.08-.9-.12-.82-.78a11.61,11.61,0,0,0,0-1.18h-.18V26.4c.23,0,.46.05.68.05l10,.08H36.14l11-.08c.82,0,1.65,0,2.47,0,.19,0,.53-.19.54-.32.06-.6,0-1.21,0-1.81H50c0,.46,0,.91,0,1.37,0,.71-.5.49-.87.52s-.74,0-.7-.54,0-1.12,0-1.65c-.7-.25-1-.05-.91.59,0,.37,0,.74,0,1.1,0,.61-.4.51-.74.5s-.85.19-.83-.49,0-1.13,0-1.68c-.92-.25-1-.19-1,.63v1.45c-1.5.25-1.53.23-1.53-1.1a5,5,0,0,1,0-.55c0-.35-.06-.56-.48-.56s-.61.11-.58.55c0,.25,0,.5,0,.75,0,1.06,0,1.07-1.08,1a3.58,3.58,0,0,1-.37-.06c0-.08-.07-.12-.07-.16,0-.42,0-.83,0-1.24,0-.92-.08-1-1.08-.69v2.11h-1.5V24c-1-.21-1-.17-1,.71v1.42H35.66V23.9l-1,.06v2.21H33.12V24.69c0-.85-.08-.9-1-.64v2.12H30.57V24c-1-.17-1-.15-1,.71v1.47H28V24c-1-.16-1.05-.14-1.05.73,0,.48,0,1,0,1.44H25.45V24.69c0-.85-.11-.92-1.05-.65a15.94,15.94,0,0,1,0,1.69.64.64,0,0,1-.41.45,6,6,0,0,1-1.14,0V24h-1V25c0,1.31,0,1.33-1.35,1.15a1.16,1.16,0,0,1-.25-.14V24h-1Zm7.24,30.78V35.8c-1.21-.22-1.48,0-1.47,1.12,0,.87,0,1.74,0,2.61,0,.39-.12.82.34,1.1.09,0,0,.37,0,.56a4.43,4.43,0,0,0-.3,1q0,4.43.1,8.86a12.09,12.09,0,0,0,.26,1.56,1.5,1.5,0,0,1,0,.47,6.3,6.3,0,0,0-.18.84c0,.8,0,1.61,0,2.41,0,.53.15.77.71.68C26.07,56.94,26.25,57,26.48,56.93ZM38.79,35.81c0,.21,0,.39,0,.57V56.29c0,.12,0,.3,0,.34a1.51,1.51,0,0,0,.68.32c.2,0,.58-.22.57-.33-.08-1.23.32-2.5-.21-3.71-.05-.12,0-.3.07-.45a3.72,3.72,0,0,0,.2-.76c.05-3.15.08-6.31.11-9.47,0-.39.12-.81-.31-1.11-.09-.06,0-.37,0-.55a3.92,3.92,0,0,0,.31-.82c0-.94,0-1.88.06-2.81C40.28,35.82,40,35.58,38.79,35.81Zm3.34-.73h6.54c-.08-.83-.14-1.58-.25-2.32,0-.15-.27-.39-.41-.39-1.73,0-3.47,0-5.2,0a.58.58,0,0,0-.43.37C42.27,33.5,42.21,34.27,42.13,35.08Zm-19,0-.28-2.75H17.2a.43.43,0,0,0-.33.26c-.11.82-.18,1.65-.27,2.48Zm17.28,6.24V52.29c1.31.25,1.41.19,1.42-1.06,0-3,0-6.08.09-9.12,0-.68-.24-.92-.88-.83Zm-25.74,0c-.08,3.52-.17,7.06-.24,10.59a.49.49,0,0,0,.2.37A.89.89,0,0,0,16,51.48c0-3,.05-6.08.06-9.11C16.06,41.16,16,41.13,14.68,41.37Zm18-17.71H49.42c.68,0,1.37,0,2.06,0,.13,0,.27-.16.41-.24-.15-.1-.28-.21-.43-.29s-.14,0-.21,0H15.55c-.57,0-1.15,0-1.72,0-.16,0-.31.16-.47.25.17.09.33.2.5.28a.82.82,0,0,0,.27,0ZM24.85,41.33l-.54,0c-.92,0-.94,0-.94.88,0,2.56,0,5.13,0,7.69,0,.67.05,1.33.07,2,0,.37.17.55.55.53h.86Zm26,11a3.55,3.55,0,0,0,0-.44c-.08-3.3-.17-6.59-.23-9.89,0-.54-.18-.69-.71-.7s-.7.2-.7.72c0,3.05,0,6.09.06,9.14C49.27,52.48,49.34,52.52,50.82,52.29Zm-9-12.37c0-1.16,0-2.23,0-3.3,0-.59-.3-.61-.73-.61s-.69,0-.67.58c0,1.1,0,2.2,0,3.3,0,.49.17.6.64.6,2.63-.05,5.26-.05,7.9-.07.49,0,1,0,1.47,0V36.08L49.94,36c-1,0-1,0-1,.94v3Zm-18.45,0h-7a1.18,1.18,0,0,1-.06-.18c0-.83,0-1.65,0-2.47,0-1.32,0-1.32-1.32-1.2,0,0-.08,0-.2.1v4.34c.54,0,1.08-.08,1.61-.08,2.61,0,5.22.05,7.83.05.19,0,.54-.18.54-.29,0-1.36,0-2.72,0-4.06-1.36-.23-1.38-.22-1.38,1ZM42.1,52.26H49v-2.2H43.92c-1.92,0-1.92,0-1.86,1.92C42.06,52.05,42.08,52.11,42.1,52.26Zm-18.94,0c0-.68,0-1.29,0-1.9,0-.11-.26-.29-.41-.29q-3,0-6,0c-.16,0-.44.21-.45.34,0,.6,0,1.21,0,1.85Zm17.18.92v3.74H50.86V53.23c-1.34-.25-1.45-.14-1.38,1.14,0,.76.06,1.53.09,2.34H41.73a5.73,5.73,0,0,1-.28-1.14,6.47,6.47,0,0,1,.18-1.13C41.8,53.16,41.66,53,40.34,53.2ZM14.39,57h2.45c2.49,0,5,0,7.48,0,.21,0,.6-.19.61-.31,0-1.15,0-2.31,0-3.46-1.36-.14-1.37-.12-1.32,1.19,0,.77,0,1.54,0,2.32H15.89a5.42,5.42,0,0,1-.31-1.14,7.54,7.54,0,0,1,.2-1.12c.16-1.27,0-1.45-1.39-1.22Zm9-2.28c0-.16.05-.27.06-.38,0-1.1,0-1.1-1-1.1H16.88l-.82,0v1.44Zm18.57,0H49.2V53.27H41.91ZM27.81,10.26h9.66c.13-.46.11-.73-.45-.84a22.45,22.45,0,0,0-8.72,0C27.72,9.52,27.64,9.76,27.81,10.26ZM48.74,39.72c0-1.14,0-2.14,0-3.15,0-.36-.15-.48-.49-.48H42.56c-.4,0-.51.19-.5.56,0,.82,0,1.65,0,2.47,0,.5.18.62.63.61,1.4,0,2.79,0,4.19,0Zm-32.23,0c2.16,0,4.21,0,6.26,0,.14,0,.38-.21.38-.33,0-1.06,0-2.13,0-3.27-2.15,0-4.21,0-6.26,0a.56.56,0,0,0-.38.41C16.49,37.55,16.51,38.58,16.51,39.72Zm8.25-12.9c.69.47,15.18.44,15.65,0ZM37,9.25c-1.8-1.8-6.95-1.8-8.78,0A20.16,20.16,0,0,1,37,9.25ZM41.68,55.7c2.52,0,5,0,7.44,0,.13,0,.26-.23.38-.36-.14-.11-.27-.3-.41-.31-.86,0-1.73,0-2.6,0H41.68Zm-22,.85h0c1.07,0,2.14,0,3.22,0,.17,0,.33-.19.49-.3-.16-.1-.32-.3-.49-.3-2.12,0-4.25,0-6.37,0-.17,0-.33.19-.5.3.17.1.33.29.49.3C17.57,56.57,18.63,56.55,19.68,56.55Zm25.84,0c1,0,2.1,0,3.15,0,.2,0,.38-.19.58-.29-.19-.11-.37-.31-.56-.31q-3.13,0-6.29,0c-.18,0-.36.21-.54.32.17.1.34.28.52.28C43.43,56.57,44.48,56.56,45.52,56.56Zm-29.69-.92h7.78L23.56,55H15.83Zm3.85-3.14h0c-1.14,0-2.28,0-3.42,0-.16,0-.32.15-.47.24.14.09.29.26.43.26,2.31,0,4.61,0,6.91,0,.15,0,.3-.17.45-.26-.16-.08-.31-.23-.47-.24C22,52.49,20.83,52.5,19.68,52.5ZM45.53,53c1.12,0,2.25,0,3.37,0,.19,0,.38-.18.57-.27a1.66,1.66,0,0,0-.56-.23q-3.36,0-6.72,0c-.17,0-.34.18-.51.27.16.08.33.23.49.23C43.29,53,44.41,53,45.53,53ZM24.62,26.91v-.19h-10v.19ZM19.76,41.12h0c1,0,2.1,0,3.15,0,.16,0,.32-.14.49-.22-.16-.08-.31-.25-.47-.25q-3.15,0-6.3,0c-.17,0-.35.17-.52.26a1.88,1.88,0,0,0,.57.21C17.71,41.13,18.73,41.12,19.76,41.12Zm25.73,0h0c1,0,2.1,0,3.14,0,.18,0,.35-.17.52-.26-.17-.07-.33-.21-.5-.21q-3.15,0-6.3,0c-.16,0-.32.15-.47.23.15.08.3.23.46.24C43.39,41.13,44.44,41.12,45.49,41.12Zm0-5.74h0c-1,0-2,0-3,0-.17,0-.33.14-.5.22.17.08.33.24.49.24q3,0,6,0c.16,0,.32-.16.48-.24-.16-.08-.31-.23-.47-.24C47.43,35.37,46.44,35.38,45.46,35.38Zm-25.58.5h0c1,0,2,0,2.94,0,.17,0,.33-.14.49-.22-.16-.08-.31-.24-.47-.24-2,0-4,0-6,0-.17,0-.33.15-.49.22.16.09.31.25.47.25C17.87,35.89,18.87,35.88,19.88,35.88Zm30.69-9v-.16H40.64v.16ZM26.74,23.81c-.42.12-1,.16-1,.3a4.9,4.9,0,0,0,0,1.75c0,.12.62.12,1,.18Zm2.56.11c-.38.12-.91-.35-1,.35a9.61,9.61,0,0,0,0,1.7H29.3ZM16.55,26c0-.51,0-1,0-1.45s-.09-.62-.56-.63-.6.19-.57.62,0,.94,0,1.46Zm33.26,0a16.21,16.21,0,0,0,0-1.72c0-.13-.34-.32-.53-.32s-.5.19-.51.31a16.69,16.69,0,0,0,0,1.73ZM37,26c0-.62,0-1.16,0-1.7,0-.14-.33-.33-.5-.34s-.52.18-.53.31a16.6,16.6,0,0,0,0,1.73Zm-2.61,0V23.78c-.42.17-1,.25-1,.44a8.45,8.45,0,0,0,0,1.75ZM24.18,26a15.77,15.77,0,0,0,0-1.7.62.62,0,0,0-.5-.34c-.2,0-.54.2-.56.35a13.55,13.55,0,0,0,0,1.69Zm23.14-2c-1.07-.2-1.1-.17-1.1.78v1.15h1.1Zm-6.25-.06V25.1c0,1,.08,1,1,.8v-2Zm-1.54,2c0-.07.07-.11.07-.15,0-.34,0-.68,0-1,0-1-.12-1-1.09-.75V26ZM21.62,25h0a2.62,2.62,0,0,0,0-.28c0-.37.11-.77-.53-.78s-.6.38-.59.8a8.61,8.61,0,0,1,0,.88c0,.47.31.41.61.42s.54,0,.51-.43C21.61,25.36,21.62,25.15,21.62,25ZM19,26V23.77c-.42.17-1,.25-1,.44a8.41,8.41,0,0,0,0,1.74Zm25.79,0c0-.51,0-1,0-1.46s-.14-.56-.55-.56-.61.11-.58.54c0,.23,0,.46,0,.68C43.63,26.07,43.66,26.1,44.76,25.91ZM30.85,24v1.94h1.08V24.79C31.92,23.83,31.9,23.81,30.85,24ZM34.69,7.71c-1-.94-3.49-.89-4,0Zm3.1,2.59c.56,0,1.06,0,1.55,0,.13,0,.35-.23.35-.36a.51.51,0,0,0-.34-.36,13.46,13.46,0,0,0-1.42,0s-.07.05-.14.1ZM26.6,9.55a1.62,1.62,0,0,0-.54,0,2.22,2.22,0,0,0-.49.38c.16.12.32.32.5.35a3.9,3.9,0,0,0,1.08,0c.14,0,.34-.24.33-.36s-.19-.29-.34-.35A1.61,1.61,0,0,0,26.6,9.55ZM16.09,35.73v-.17H14.44v.17Zm34.73,0,0-.17H49.16v.17Zm-10.68-.21v.18h1.49v-.18ZM50.47,24.81l1.05-.76-.07-.16-1,.05ZM25.38,35.23v.18h1.54v-.18Zm-1.74.32v.18h1.48v-.18ZM14.79,24.79c.09-.93-.11-1.05-1-.73ZM38.37,35.22v.19h1.5v-.19ZM25.22,41v-.15H23.7V41Zm24.26-.17V41h1.47v-.17Zm-7.9.2v-.17H40.05V41Z"/><path class="cls-2" d="M26.16,15.7c0-.68,0-1.36,0-2,0-.37.17-.47.51-.47H38.6c.4,0,.53.16.52.53,0,.55,0,1.1,0,1.64a.61.61,0,0,1-.35.46c-1.46.14-2.93.29-4.4.35a41.63,41.63,0,0,1-4.18,0C28.85,16.09,27.55,15.87,26.16,15.7Zm.22-.1c2.16.13,4.22.32,6.29.34,1.61,0,3.22-.24,4.83-.3,1.43-.05,1.41,0,1.44-1.47,0-.58-.13-.79-.76-.78-3.7,0-7.41,0-11.12,0-.21,0-.43,0-.68,0Z"/><path class="cls-2" d="M42.09,14.56a1.31,1.31,0,0,1-1.33,1.35,1.34,1.34,0,0,1-1.39-1.36,1.36,1.36,0,0,1,1.33-1.37A1.37,1.37,0,0,1,42.09,14.56Zm-.21,0a1.15,1.15,0,1,0-2.3.07,1.19,1.19,0,0,0,1.15,1.13A1.22,1.22,0,0,0,41.88,14.52Z"/><path class="cls-2" d="M24.45,15.91a1.34,1.34,0,0,1-1.29-1.4,1.37,1.37,0,0,1,1.45-1.32,1.33,1.33,0,0,1,1.27,1.48A1.31,1.31,0,0,1,24.45,15.91Zm1.24-1.35a1.16,1.16,0,1,0-1.2,1.15A1.18,1.18,0,0,0,25.69,14.56Z"/><path class="cls-2" d="M17.75,29.52a2.06,2.06,0,0,1,2.13-2.12A2.09,2.09,0,0,1,22,29.48a2.18,2.18,0,0,1-2.11,2.18A2.15,2.15,0,0,1,17.75,29.52Zm4,0a1.91,1.91,0,1,0-3.82,0,2,2,0,0,0,1.9,1.89A2,2,0,0,0,21.77,29.51Z"/><path class="cls-2" d="M45.45,27.41a2.07,2.07,0,0,1,2.08,2.17,2.17,2.17,0,0,1-2.14,2.08,2.12,2.12,0,0,1-2.1-2.17A2,2,0,0,1,45.45,27.41Zm1.88,2.11a2,2,0,0,0-1.94-1.94,1.93,1.93,0,0,0,0,3.86A2,2,0,0,0,47.33,29.52Z"/><path class="cls-2" d="M42.64,39.13V36.46h5.72v2.67Zm.22-2.53v2.31a1.23,1.23,0,0,0,.25.06h3.36c1.82,0,1.82,0,1.73-1.83,0,0,0-.11,0-.14s-.26-.39-.4-.39C46.17,36.59,44.55,36.6,42.86,36.6Z"/><path class="cls-2" d="M16.89,39.18V36.44h5.77c0,.83,0,1.62,0,2.41,0,.12-.27.32-.41.32C20.47,39.19,18.71,39.18,16.89,39.18Zm.17-2.56c0,.69,0,1.3,0,1.91a.61.61,0,0,0,.41.43c1.51,0,3,0,4.52,0,.15,0,.4-.19.41-.31,0-.67,0-1.35,0-2Z"/><path class="cls-2" d="M19.87,28a1.55,1.55,0,1,1,0,3.1,1.49,1.49,0,0,1-1.55-1.55A1.52,1.52,0,0,1,19.87,28Zm0,.18a1.49,1.49,0,0,0-1.4,1.33,1.46,1.46,0,0,0,1.33,1.4,1.4,1.4,0,0,0,1.39-1.33A1.42,1.42,0,0,0,19.89,28.14Z"/><path class="cls-2" d="M45.41,31.06A1.55,1.55,0,1,1,47,29.51,1.52,1.52,0,0,1,45.41,31.06Zm1.35-1.54a1.42,1.42,0,0,0-1.35-1.37,1.39,1.39,0,0,0-1.35,1.36,1.37,1.37,0,0,0,1.34,1.36A1.41,1.41,0,0,0,46.76,29.52Z"/></svg>