<svg xmlns="http://www.w3.org/2000/svg" width="523" height="477" viewBox="0 0 523 477">
<g>
<path d="M 295.00 432.64 C286.89,434.11 248.50,435.37 241.50,434.40 C214.18,430.63 200.96,427.30 182.50,419.54 C170.57,414.53 154.55,405.82 147.76,400.66 C145.42,398.88 141.48,396.01 139.00,394.28 C128.08,386.68 109.85,368.35 99.77,354.84 C56.98,297.48 49.91,220.98 81.56,157.73 C85.89,149.07 93.81,136.09 98.27,130.33 C100.05,128.04 103.35,123.76 105.60,120.83 C107.86,117.90 114.97,110.44 121.40,104.26 C159.87,67.30 206.26,49.00 261.50,49.00 C302.37,49.00 337.34,58.64 369.36,78.72 C403.14,99.91 429.94,131.35 444.88,167.33 C464.70,215.03 464.68,270.66 444.81,317.00 C434.61,340.79 421.77,359.65 403.51,377.64 C379.65,401.14 356.01,415.35 322.50,426.35 C314.55,428.96 311.31,429.70 295.00,432.64 ZM 239.00 428.54 C258.04,431.05 286.48,429.36 307.43,424.47 C363.24,411.47 409.76,375.08 435.25,324.50 C443.75,307.64 450.61,284.20 453.01,263.89 C454.98,247.19 453.90,221.45 450.58,205.69 C445.11,179.72 433.17,151.48 420.59,134.71 C383.40,85.15 335.02,58.61 275.27,54.99 C222.71,51.81 176.73,65.97 137.71,97.36 C103.66,124.75 80.52,162.35 70.86,206.00 C68.77,215.46 68.54,218.98 68.55,241.50 C68.57,263.75 68.82,267.66 70.85,277.00 C75.99,300.67 87.60,327.70 100.45,345.93 C133.34,392.60 180.76,420.87 239.00,428.54 ZM 364.53 393.55 C361.58,394.78 346.22,395.00 261.78,395.00 C163.84,394.99 162.46,394.97 159.18,392.97 C153.51,389.51 155.75,388.06 165.00,389.19 C167.23,389.47 167.53,389.10 167.81,385.79 C167.98,383.75 167.60,381.12 166.97,379.93 C166.13,378.38 166.12,377.48 166.91,376.69 C167.67,375.93 168.00,360.22 168.00,324.85 C168.00,272.06 167.87,270.23 163.77,267.19 C162.28,266.10 162.00,264.29 162.00,255.95 C162.00,247.10 162.22,245.88 164.00,244.77 C165.72,243.69 166.00,242.44 166.00,235.78 C166.00,228.63 166.19,227.92 168.50,226.41 C170.97,224.79 171.00,224.59 170.97,211.13 C170.94,200.73 170.59,197.04 169.47,195.56 C167.29,192.68 167.38,173.76 169.58,171.93 C170.91,170.83 171.09,168.85 170.66,159.56 C169.66,137.47 169.92,131.71 172.06,129.44 C173.72,127.67 174.00,125.90 174.00,117.27 C174.00,106.43 174.29,105.78 181.44,100.64 C182.72,99.72 183.57,97.59 183.94,94.37 C184.40,90.35 184.85,89.50 186.50,89.50 C188.12,89.50 188.60,90.33 189.00,93.86 C189.40,97.37 190.37,99.07 194.00,102.62 L 198.50 107.02 L 198.83 118.26 C199.01,124.44 199.57,129.93 200.08,130.45 C200.59,130.97 201.00,132.66 201.00,134.20 C201.00,135.74 201.45,137.00 202.00,137.00 C202.55,137.00 203.00,135.26 203.00,133.12 C203.00,128.69 205.49,125.58 207.06,128.06 C207.56,128.85 207.98,130.98 207.98,132.78 C208.00,135.40 209.02,137.05 213.00,140.91 L 218.00 145.75 L 218.00 155.15 C218.00,163.32 218.26,164.78 220.00,166.27 C221.73,167.75 222.00,169.22 222.00,177.16 C222.00,183.61 221.58,186.81 220.60,187.92 C219.78,188.85 219.06,192.39 218.85,196.50 L 218.50 203.50 L 305.89 204.02 L 305.29 196.76 C304.96,192.77 304.10,188.58 303.37,187.46 C301.46,184.52 302.31,167.98 304.45,166.41 C305.67,165.52 306.00,163.18 306.00,155.49 L 306.00 145.70 L 310.72 141.25 C314.69,137.49 315.51,136.06 315.97,132.15 C316.40,128.34 316.86,127.50 318.50,127.50 C320.16,127.50 320.58,128.33 321.00,132.42 C321.59,138.25 324.00,140.04 324.00,134.64 C324.00,132.70 324.45,130.84 325.00,130.50 C325.56,130.15 326.00,125.30 326.00,119.38 C326.00,107.90 326.53,106.23 331.60,101.78 C334.18,99.51 335.00,98.00 335.00,95.48 C335.00,90.93 335.89,89.00 338.00,89.00 C340.08,89.00 341.00,90.92 341.00,95.28 C341.00,97.74 341.99,99.27 345.75,102.57 L 350.50 106.75 L 350.84 117.47 C351.14,126.68 351.48,128.48 353.24,130.24 C355.20,132.20 355.26,132.94 354.50,146.40 C354.06,154.15 353.58,162.62 353.45,165.21 C353.28,168.29 353.68,170.32 354.60,171.08 C356.28,172.48 356.64,194.48 355.00,195.50 C354.41,195.87 354.00,201.97 354.00,210.44 C354.00,224.62 354.03,224.79 356.50,226.41 C358.82,227.93 359.00,228.62 359.00,236.05 C359.00,242.25 359.34,244.19 360.50,244.64 C362.59,245.44 362.71,266.48 360.64,267.70 C359.88,268.14 358.54,269.94 357.64,271.70 C356.19,274.54 356.00,280.58 356.00,324.78 C356.00,352.22 356.34,375.01 356.75,375.43 C357.16,375.85 357.50,379.19 357.50,382.85 C357.50,389.32 357.57,389.50 360.00,389.32 C361.38,389.22 363.74,388.83 365.25,388.46 C367.62,387.86 368.00,388.07 368.00,389.93 C368.00,391.46 366.98,392.53 364.53,393.55 ZM 235.68 389.35 C236.06,389.72 248.32,389.91 262.93,389.77 L 289.50 389.50 L 289.77 361.67 C290.05,331.46 289.63,327.92 285.07,322.74 C282.72,320.07 264.97,310.00 262.62,310.00 C262.25,310.00 258.47,311.65 254.22,313.66 C246.42,317.35 241.79,319.44 239.03,322.99 C234.99,328.19 235.00,336.52 235.00,357.66 C235.00,358.31 235.00,358.97 235.00,359.65 C235.00,375.61 235.31,388.97 235.68,389.35 ZM 220.70 389.37 C221.09,389.75 222.10,389.94 222.95,389.77 C224.31,389.51 224.56,384.83 225.00,352.49 C225.54,312.51 225.38,313.65 231.23,306.87 C233.30,304.48 254.44,292.31 260.60,289.96 C262.83,289.12 264.93,289.94 276.34,296.10 C286.12,301.40 291.76,304.10 295.05,308.55 C299.86,315.07 299.62,325.33 300.00,352.99 C300.46,386.71 300.63,389.50 302.25,389.81 C303.90,390.13 304.00,386.80 304.00,331.07 L 304.00 272.00 L 220.00 272.00 L 220.00 330.33 C220.00,362.42 220.32,388.98 220.70,389.37 ZM 173.67 375.33 C174.03,375.70 178.93,376.00 184.55,376.00 C194.35,376.00 194.78,375.91 195.19,373.75 C195.83,370.28 195.92,295.75 195.29,284.75 L 194.73 275.00 L 173.00 275.00 L 173.00 324.83 C173.00,352.24 173.30,374.97 173.67,375.33 ZM 329.67 375.33 C330.03,375.70 334.98,376.00 340.67,376.00 L 351.00 376.00 L 351.00 275.00 L 329.00 275.00 L 329.00 324.83 C329.00,352.24 329.30,374.97 329.67,375.33 ZM 205.68 257.35 C206.96,258.63 207.88,256.51 208.19,251.53 C208.45,247.41 208.94,246.32 211.06,245.14 C213.26,243.90 214.02,243.90 216.56,245.11 C219.09,246.32 219.57,247.20 220.00,251.43 C220.67,258.04 222.56,258.40 223.40,252.07 C224.40,244.48 229.09,241.92 234.37,246.07 C236.50,247.75 237.00,248.98 237.00,252.57 C237.00,255.84 237.39,257.00 238.50,257.00 C239.63,257.00 240.00,255.78 240.00,251.98 C240.00,247.23 240.19,246.88 243.51,245.29 C246.87,243.69 247.13,243.71 249.76,245.66 C251.87,247.23 252.61,248.77 253.00,252.37 C253.68,258.75 255.43,258.68 255.80,252.27 C256.03,248.25 256.60,246.69 258.27,245.52 C263.56,241.82 269.00,245.37 269.00,252.54 C269.00,255.84 269.39,257.00 270.50,257.00 C271.60,257.00 272.00,255.85 272.02,252.75 C272.03,247.93 272.59,246.78 275.68,245.15 C277.26,244.32 278.64,244.29 280.66,245.06 C284.31,246.45 284.97,247.62 284.98,252.75 C285.00,255.85 285.40,257.00 286.50,257.00 C287.63,257.00 288.00,255.78 288.00,252.03 C288.00,247.49 288.27,246.91 291.05,245.47 C296.61,242.60 301.00,245.73 301.00,252.57 C301.00,255.84 301.39,257.00 302.50,257.00 C303.60,257.00 304.00,255.85 304.02,252.75 C304.03,247.59 304.69,246.45 308.47,245.01 C313.01,243.29 316.41,246.28 316.80,252.35 C317.02,255.60 317.55,257.00 318.55,257.00 C319.64,257.00 320.00,255.64 320.00,251.56 C320.00,248.57 320.45,245.84 321.00,245.50 C322.76,244.41 322.18,239.17 320.25,238.75 C319.29,238.54 292.40,238.39 260.50,238.43 L 202.50 238.50 L 202.20 241.09 C202.03,242.52 202.59,244.24 203.45,244.96 C204.49,245.82 205.00,247.97 205.00,251.46 C205.00,254.32 205.31,256.97 205.68,257.35 ZM 199.00 219.00 L 199.00 225.00 L 326.00 225.00 L 326.00 219.00 ZM 293.80 357.17 C294.00,377.69 294.46,389.00 295.11,389.00 C295.78,389.00 296.01,377.27 295.81,354.68 L 295.50 320.35 L 292.50 314.49 C289.56,308.75 289.25,308.49 277.00,301.88 C270.12,298.17 263.94,295.10 263.25,295.06 C261.57,294.98 238.00,306.72 235.61,308.83 C232.53,311.55 230.04,318.13 230.07,323.50 L 230.09 328.50 L 232.52 323.84 C235.37,318.36 236.93,317.19 251.50,309.53 L 262.50 303.74 L 275.38 310.59 C285.71,316.08 288.78,318.22 290.88,321.40 L 293.50 325.35 ZM 309.71 389.37 C310.10,389.76 313.36,389.95 316.96,389.79 L 323.50 389.50 L 323.79 366.25 L 324.08 343.00 L 309.00 343.00 L 309.00 365.83 C309.00,378.39 309.32,388.99 309.71,389.37 ZM 201.34 388.44 C201.80,389.63 203.46,390.00 208.35,390.00 C215.57,390.00 215.77,389.78 215.50,382.00 C215.42,379.52 215.27,369.72 215.17,360.21 L 215.00 342.91 L 207.75 343.21 L 200.50 343.50 L 200.22 359.42 C200.06,368.70 200.35,375.75 200.91,376.31 C201.44,376.84 201.62,379.43 201.31,382.07 C200.99,384.71 201.01,387.58 201.34,388.44 ZM 199.00 209.00 L 199.00 214.00 L 326.00 214.00 L 326.00 209.00 ZM 176.67 224.33 C177.03,224.70 181.08,225.00 185.67,225.00 L 194.00 225.00 L 194.00 195.26 L 189.08 194.60 C186.37,194.25 182.32,194.25 180.08,194.60 L 176.00 195.26 L 176.00 209.46 C176.00,217.27 176.30,223.97 176.67,224.33 ZM 331.00 195.14 L 331.00 225.08 L 339.75 224.79 L 348.50 224.50 L 348.50 195.58 L 345.00 194.79 C343.08,194.35 339.14,194.25 336.25,194.57 ZM 205.18 264.76 L 204.86 267.02 L 262.18 266.76 L 319.50 266.50 L 319.82 264.24 L 320.14 261.98 L 262.82 262.24 L 205.50 262.50 ZM 167.62 262.28 C167.96,262.62 169.65,262.59 171.37,262.20 C174.96,261.40 193.27,261.25 197.00,262.00 C199.44,262.49 199.51,262.35 199.79,255.86 L 200.09 249.23 L 196.89 248.11 C192.87,246.71 175.73,246.67 170.75,248.05 L 167.00 249.09 L 167.00 255.38 C167.00,258.84 167.28,261.94 167.62,262.28 ZM 325.20 255.92 C324.93,262.64 325.06,263.19 326.70,262.52 C329.79,261.27 345.24,260.78 351.18,261.75 C356.52,262.62 356.89,262.55 357.26,260.59 C357.61,258.80 357.55,254.53 357.12,250.35 C356.90,248.21 350.75,247.00 340.60,247.10 C325.36,247.25 325.56,247.14 325.20,255.92 ZM 202.67 233.34 C203.05,233.71 229.93,233.90 262.41,233.76 C317.75,233.52 321.49,233.39 321.81,231.75 C322.13,230.10 318.75,230.00 262.07,230.00 C212.68,230.00 202.00,230.24 202.00,231.33 C202.00,232.07 202.30,232.97 202.67,233.34 ZM 176.42 169.08 C176.65,169.31 180.58,169.44 185.17,169.36 L 193.50 169.23 L 193.79 159.95 C194.00,153.20 193.73,150.44 192.79,149.85 C191.29,148.90 181.54,148.75 178.25,149.63 C176.12,150.20 176.00,150.74 176.00,159.45 C176.00,164.52 176.19,168.85 176.42,169.08 ZM 173.00 182.87 L 173.00 189.63 L 196.00 189.53 L 196.00 175.12 L 191.39 174.43 C186.55,173.70 175.88,174.34 174.07,175.46 C173.48,175.82 173.00,179.16 173.00,182.87 ZM 331.00 159.93 L 331.00 169.65 L 348.00 169.50 L 348.00 159.86 L 348.00 159.49 C348.00,153.82 348.00,151.21 346.70,150.02 C345.60,149.00 343.56,149.00 339.79,149.00 L 339.50 149.00 L 339.20 149.00 C335.44,149.00 333.41,149.00 332.30,150.01 C331.00,151.21 331.00,153.83 331.00,159.54 ZM 347.00 189.78 L 350.50 190.59 L 350.79 183.17 C350.96,179.09 350.81,175.47 350.46,175.13 C349.59,174.26 331.90,174.34 329.75,175.22 C328.32,175.81 328.00,177.22 328.00,183.04 L 328.00 190.14 L 335.75 189.55 C340.01,189.23 345.08,189.33 347.00,189.78 ZM 327.42 242.08 C327.64,242.31 333.61,242.41 340.67,242.29 L 353.50 242.09 L 353.50 230.50 L 344.50 230.19 C339.55,230.02 333.59,230.16 331.25,230.50 L 327.00 231.12 L 327.00 236.39 C327.00,239.29 327.19,241.85 327.42,242.08 ZM 171.50 230.50 L 170.92 242.50 L 197.00 242.50 L 197.00 236.77 C197.00,229.81 196.97,229.79 182.00,230.21 ZM 200.63 312.75 C201.18,314.81 201.82,315.00 208.12,315.00 L 215.00 315.00 L 215.00 295.00 L 208.11 295.00 C202.74,295.00 201.08,295.35 200.61,296.58 C199.83,298.61 199.84,309.81 200.63,312.75 ZM 309.71 314.37 C310.10,314.76 313.36,314.95 316.96,314.79 L 323.50 314.50 L 323.79 304.75 L 324.07 295.00 L 309.00 295.00 L 309.00 304.33 C309.00,309.47 309.32,313.99 309.71,314.37 ZM 310.01 338.17 C310.57,338.35 313.83,338.47 317.26,338.44 L 323.50 338.38 L 323.79 328.69 L 324.07 319.00 L 309.00 319.00 L 309.00 328.42 C309.00,333.88 309.42,337.97 310.01,338.17 ZM 202.75 338.31 C205.46,339.02 211.66,339.07 213.42,338.39 C214.71,337.90 215.00,336.03 215.00,328.35 L 215.00 318.91 L 207.75 319.21 L 200.50 319.50 L 200.20 326.48 C199.84,334.91 200.44,337.71 202.75,338.31 ZM 309.71 289.37 C310.10,289.76 313.36,289.95 316.96,289.79 L 323.50 289.50 L 324.08 272.00 L 309.00 272.00 L 309.00 280.33 C309.00,284.92 309.32,288.99 309.71,289.37 ZM 200.61 282.65 L 201.28 290.00 L 215.00 290.00 L 215.00 272.00 L 208.11 272.00 C199.85,272.00 199.67,272.26 200.61,282.65 ZM 328.42 144.08 C328.65,144.31 333.60,144.51 339.42,144.51 L 350.00 144.52 L 350.00 139.32 C350.00,136.46 349.50,133.81 348.90,133.44 C346.70,132.08 335.26,131.76 331.64,132.95 C328.13,134.11 328.00,134.33 328.00,138.91 C328.00,141.53 328.19,143.85 328.42,144.08 ZM 175.00 139.31 L 175.00 144.50 L 196.00 144.50 L 196.00 139.23 C196.00,134.40 195.77,133.86 193.25,132.88 C190.42,131.78 178.16,132.16 176.14,133.42 C175.51,133.80 175.00,136.45 175.00,139.31 ZM 173.70 389.37 C174.08,389.75 179.15,389.94 184.95,389.78 L 195.50 389.50 L 196.11 380.00 L 173.00 380.00 L 173.00 384.33 C173.00,386.72 173.31,388.98 173.70,389.37 ZM 307.52 181.20 C307.94,182.30 309.44,182.38 315.27,181.61 C319.25,181.08 322.68,180.51 322.90,180.34 C323.12,180.17 323.41,178.44 323.54,176.50 C323.67,174.56 324.32,172.32 324.97,171.53 C325.63,170.74 325.85,169.56 325.45,168.92 C324.50,167.37 310.63,168.23 308.54,169.97 C307.03,171.22 306.40,178.26 307.52,181.20 ZM 329.41 388.63 C329.85,389.78 332.10,390.01 340.73,389.78 L 351.50 389.50 L 351.81 384.72 L 352.11 379.93 L 340.81 380.22 L 329.50 380.50 L 329.18 383.85 C329.00,385.69 329.11,387.84 329.41,388.63 ZM 213.50 181.95 C216.54,183.17 217.00,182.38 217.00,176.04 C217.00,170.38 216.90,170.16 213.85,169.10 C209.05,167.42 199.00,167.65 199.00,169.44 C199.00,170.23 199.45,171.16 200.00,171.50 C200.55,171.84 201.00,174.12 201.00,176.56 L 201.00 181.00 L 206.25 181.07 C209.14,181.11 212.40,181.50 213.50,181.95 ZM 331.41 127.08 C331.64,127.31 335.03,127.35 338.96,127.17 L 346.09 126.83 L 345.80 120.67 L 345.50 114.50 L 340.57 114.19 C331.77,113.63 331.00,114.17 331.00,120.85 C331.00,124.05 331.19,126.85 331.41,127.08 ZM 179.50 114.50 L 178.90 127.00 L 194.00 127.00 L 194.00 121.02 C194.00,114.15 193.27,113.63 184.43,114.19 ZM 311.61 161.42 C312.08,162.65 313.74,163.00 319.11,163.00 L 326.00 163.00 L 326.00 157.58 C326.00,152.34 325.90,152.14 322.92,151.48 C319.21,150.67 312.79,151.74 311.77,153.34 C310.87,154.75 310.78,159.26 311.61,161.42 ZM 199.00 152.18 L 199.00 163.00 L 213.10 163.00 L 212.80 157.82 C212.52,153.01 212.28,152.57 209.50,151.80 C207.85,151.35 204.81,151.24 202.75,151.57 ZM 313.75 196.27 C323.86,197.33 324.00,197.29 323.99,193.75 C323.96,186.94 323.23,186.00 317.97,186.00 C310.80,186.00 310.00,186.56 310.00,191.55 C310.00,195.82 310.05,195.88 313.75,196.27 ZM 202.50 196.26 C203.60,196.44 206.52,196.54 209.00,196.47 L 213.50 196.36 L 213.81 192.03 C214.20,186.79 213.26,186.04 206.35,186.02 L 201.19 186.00 L 200.85 190.96 C200.54,195.29 200.76,195.97 202.50,196.26 ZM 293.44 287.78 C291.51,290.54 288.62,290.62 286.00,288.00 C282.36,284.36 284.45,279.00 289.50,279.00 C294.32,279.00 296.38,283.58 293.44,287.78 ZM 171.43 268.89 C171.87,269.60 176.36,270.00 184.00,270.00 C191.64,270.00 196.13,269.60 196.57,268.89 C197.86,266.80 194.50,266.03 184.00,266.03 C173.50,266.03 170.14,266.80 171.43,268.89 ZM 238.43 288.43 C235.16,291.69 230.00,288.90 230.00,283.87 C230.00,280.69 231.73,279.00 235.00,279.00 C236.43,279.00 238.14,279.54 238.80,280.20 C240.50,281.90 240.29,286.57 238.43,288.43 ZM 328.43 268.89 C329.53,270.66 352.64,270.39 353.32,268.60 C354.09,266.61 351.05,266.03 340.00,266.03 C330.43,266.03 327.16,266.84 328.43,268.89 ZM 332.00 108.62 C332.00,109.64 333.55,110.00 337.94,110.00 C341.21,110.00 344.14,109.59 344.45,109.08 C345.13,107.98 340.33,104.00 338.33,104.00 C336.19,104.00 332.00,107.06 332.00,108.62 ZM 180.00 109.07 C180.00,110.13 191.31,110.36 192.34,109.32 C193.33,108.34 188.94,104.00 186.96,104.00 C185.04,104.00 180.00,107.67 180.00,109.07 ZM 311.71 203.37 C312.94,204.60 325.30,203.61 325.75,202.25 C326.06,201.32 324.20,201.00 318.58,201.00 C311.56,201.00 309.91,201.57 311.71,203.37 ZM 199.71 203.37 C200.94,204.60 213.30,203.61 213.75,202.25 C214.06,201.32 212.20,201.00 206.58,201.00 C199.56,201.00 197.91,201.57 199.71,203.37 ZM 260.39 256.58 C260.69,257.36 261.29,257.99 261.72,257.98 C265.54,257.91 266.32,249.50 262.50,249.50 C261.05,249.50 260.41,250.27 260.18,252.33 C260.00,253.89 260.10,255.81 260.39,256.58 ZM 313.00 146.17 C313.00,147.57 322.28,146.71 322.75,145.26 C322.97,144.58 322.05,143.53 320.70,142.91 C318.73,142.01 317.73,142.13 315.62,143.51 C314.18,144.46 313.00,145.65 313.00,146.17 ZM 202.00 145.62 C202.00,146.59 203.36,147.00 206.58,147.00 C211.65,147.00 212.04,145.81 207.80,143.24 C205.60,141.90 204.88,141.85 203.58,142.94 C202.71,143.66 202.00,144.86 202.00,145.62 ZM 264.96 282.55 C262.79,285.16 259.66,283.43 260.16,279.89 C260.41,278.10 261.13,277.50 262.99,277.50 C265.81,277.50 266.88,280.23 264.96,282.55 ZM 228.69 257.35 C230.21,258.87 231.52,257.12 231.81,253.17 C232.08,249.53 231.85,249.00 230.06,249.00 C228.34,249.00 228.00,249.63 228.00,252.83 C228.00,254.94 228.31,256.98 228.69,257.35 ZM 292.43 256.67 C293.50,259.47 295.50,257.36 295.81,253.09 C296.08,249.43 295.87,248.88 294.31,249.17 C292.43,249.53 291.34,253.85 292.43,256.67 ZM 244.19 253.26 C243.92,256.47 244.17,257.00 245.94,257.00 C247.68,257.00 248.00,256.37 248.00,252.93 C248.00,249.59 247.68,248.91 246.25,249.18 C245.03,249.42 244.41,250.64 244.19,253.26 ZM 308.00 254.20 C308.00,256.33 308.48,257.00 310.00,257.00 C311.67,257.00 312.00,256.33 312.00,253.00 C312.00,250.80 311.64,249.00 311.20,249.00 C309.54,249.00 308.00,251.50 308.00,254.20 ZM 213.17 257.10 C215.14,258.32 216.18,256.66 215.82,252.88 C215.61,250.69 214.97,249.50 214.00,249.50 C212.03,249.50 211.33,255.97 213.17,257.10 ZM 277.19 253.25 C276.92,256.50 277.16,257.00 279.00,257.00 C280.84,257.00 281.08,256.50 280.81,253.25 C280.60,250.72 280.01,249.50 279.00,249.50 C277.99,249.50 277.40,250.72 277.19,253.25 ZM 233.69 285.35 C234.61,286.28 236.28,285.65 236.77,284.19 C236.99,283.52 236.25,283.00 235.08,283.00 C233.01,283.00 232.38,284.05 233.69,285.35 ZM 288.46 284.93 C289.29,286.28 290.69,286.30 291.50,284.99 C291.85,284.44 291.40,283.71 290.52,283.37 C288.61,282.63 287.54,283.44 288.46,284.93 Z" fill="rgb(46,88,200)"/>
<path d="M 293.80 357.17 L 293.53 328.15 C293.54,328.21 293.55,328.27 293.56,328.32 C294.05,331.06 294.56,331.84 295.33,331.07 C295.43,330.97 295.52,330.82 295.59,330.65 L 295.81 354.68 C296.01,377.27 295.78,389.00 295.11,389.00 C294.46,389.00 294.00,377.69 293.80,357.17 ZM 295.54 324.91 C295.06,321.86 294.12,318.25 292.95,315.38 L 295.50 320.35 ZM 290.35 310.73 C288.37,308.22 285.36,306.37 276.52,301.69 C270.17,298.32 264.52,295.52 263.20,295.06 C263.22,295.06 263.23,295.06 263.25,295.06 C263.94,295.10 270.12,298.17 277.00,301.88 C285.85,306.66 288.47,308.12 290.35,310.73 ZM 249.23 301.35 C242.93,304.55 236.63,307.93 235.61,308.83 C236.78,307.80 242.98,304.48 249.23,301.35 ZM 291.52 322.36 L 290.88 321.40 C290.87,321.38 290.86,321.37 290.86,321.36 C291.10,321.69 291.32,322.02 291.52,322.36 Z" fill="rgb(172,192,242)"/>
<path d="M 0.00 238.50 L 0.00 0.00 L 261.50 0.00 L 523.00 0.00 L 523.00 238.50 L 523.00 477.00 L 261.50 477.00 L 0.00 477.00 L 0.00 238.50 ZM 295.00 432.64 C311.31,429.70 314.55,428.96 322.50,426.35 C356.01,415.35 379.65,401.14 403.51,377.64 C421.77,359.65 434.61,340.79 444.81,317.00 C464.68,270.66 464.70,215.03 444.88,167.33 C429.94,131.35 403.14,99.91 369.36,78.72 C337.34,58.64 302.37,49.00 261.50,49.00 C206.26,49.00 159.87,67.30 121.40,104.26 C114.97,110.44 107.86,117.90 105.60,120.83 C103.35,123.76 100.05,128.04 98.27,130.33 C93.81,136.09 85.89,149.07 81.56,157.73 C49.91,220.98 56.98,297.48 99.77,354.84 C109.85,368.35 128.08,386.68 139.00,394.28 C141.48,396.01 145.42,398.88 147.76,400.66 C154.55,405.82 170.57,414.53 182.50,419.54 C200.96,427.30 214.18,430.63 241.50,434.40 C248.50,435.37 286.89,434.11 295.00,432.64 ZM 239.00 428.54 C180.76,420.87 133.34,392.60 100.45,345.93 C87.60,327.70 75.99,300.67 70.85,277.00 C68.82,267.66 68.57,263.75 68.55,241.50 C68.54,218.98 68.77,215.46 70.86,206.00 C80.52,162.35 103.66,124.75 137.71,97.36 C176.73,65.97 222.71,51.81 275.27,54.99 C335.02,58.61 383.40,85.15 420.59,134.71 C433.17,151.48 445.11,179.72 450.58,205.69 C453.90,221.45 454.98,247.19 453.01,263.89 C450.61,284.20 443.75,307.64 435.25,324.50 C409.76,375.08 363.24,411.47 307.43,424.47 C286.48,429.36 258.04,431.05 239.00,428.54 ZM 364.53 393.55 C366.98,392.53 368.00,391.46 368.00,389.93 C368.00,388.07 367.62,387.86 365.25,388.46 C363.74,388.83 361.38,389.22 360.00,389.32 C357.57,389.50 357.50,389.32 357.50,382.85 C357.50,379.19 357.16,375.85 356.75,375.43 C356.34,375.01 356.00,352.22 356.00,324.78 C356.00,280.58 356.19,274.54 357.64,271.70 C358.54,269.94 359.88,268.14 360.64,267.70 C362.71,266.48 362.59,245.44 360.50,244.64 C359.34,244.19 359.00,242.25 359.00,236.05 C359.00,228.62 358.82,227.93 356.50,226.41 C354.03,224.79 354.00,224.62 354.00,210.44 C354.00,201.97 354.41,195.87 355.00,195.50 C356.64,194.48 356.28,172.48 354.60,171.08 C353.68,170.32 353.28,168.29 353.45,165.21 C353.58,162.62 354.06,154.15 354.50,146.40 C355.26,132.94 355.20,132.20 353.24,130.24 C351.48,128.48 351.14,126.68 350.84,117.47 L 350.50 106.75 L 345.75 102.57 C341.99,99.27 341.00,97.74 341.00,95.28 C341.00,90.92 340.08,89.00 338.00,89.00 C335.89,89.00 335.00,90.93 335.00,95.48 C335.00,98.00 334.18,99.51 331.60,101.78 C326.53,106.23 326.00,107.90 326.00,119.38 C326.00,125.30 325.56,130.15 325.00,130.50 C324.45,130.84 324.00,132.70 324.00,134.64 C324.00,140.04 321.59,138.25 321.00,132.42 C320.58,128.33 320.16,127.50 318.50,127.50 C316.86,127.50 316.40,128.34 315.97,132.15 C315.51,136.06 314.69,137.49 310.72,141.25 L 306.00 145.70 L 306.00 155.49 C306.00,163.18 305.67,165.52 304.45,166.41 C302.31,167.98 301.46,184.52 303.37,187.46 C304.10,188.58 304.96,192.77 305.29,196.76 L 305.89 204.02 L 262.19 203.76 L 218.50 203.50 L 218.85 196.50 C219.06,192.39 219.78,188.85 220.60,187.92 C221.58,186.81 222.00,183.61 222.00,177.16 C222.00,169.22 221.73,167.75 220.00,166.27 C218.26,164.78 218.00,163.32 218.00,155.15 L 218.00 145.75 L 213.00 140.91 C209.02,137.05 208.00,135.40 207.98,132.78 C207.98,130.98 207.56,128.85 207.06,128.06 C205.49,125.58 203.00,128.69 203.00,133.12 C203.00,135.26 202.55,137.00 202.00,137.00 C201.45,137.00 201.00,135.74 201.00,134.20 C201.00,132.66 200.59,130.97 200.08,130.45 C199.57,129.93 199.01,124.44 198.83,118.26 L 198.50 107.02 L 194.00 102.62 C190.37,99.07 189.40,97.37 189.00,93.86 C188.60,90.33 188.12,89.50 186.50,89.50 C184.85,89.50 184.40,90.35 183.94,94.37 C183.57,97.59 182.72,99.72 181.44,100.64 C174.29,105.78 174.00,106.43 174.00,117.27 C174.00,125.90 173.72,127.67 172.06,129.44 C169.92,131.71 169.66,137.47 170.66,159.56 C171.09,168.85 170.91,170.83 169.58,171.93 C167.38,173.76 167.29,192.68 169.47,195.56 C170.59,197.04 170.94,200.73 170.97,211.13 C171.00,224.59 170.97,224.79 168.50,226.41 C166.19,227.92 166.00,228.63 166.00,235.78 C166.00,242.44 165.72,243.69 164.00,244.77 C162.22,245.88 162.00,247.10 162.00,255.95 C162.00,264.29 162.28,266.10 163.77,267.19 C167.87,270.23 168.00,272.06 168.00,324.85 C168.00,360.22 167.67,375.93 166.91,376.69 C166.12,377.48 166.13,378.38 166.97,379.93 C167.60,381.12 167.98,383.75 167.81,385.79 C167.53,389.10 167.23,389.47 165.00,389.19 C155.75,388.06 153.51,389.51 159.18,392.97 C162.46,394.97 163.84,394.99 261.78,395.00 C346.22,395.00 361.58,394.78 364.53,393.55 ZM 173.70 389.37 C173.31,388.98 173.00,386.72 173.00,384.33 L 173.00 380.00 L 184.55 380.00 L 196.11 380.00 L 195.80 384.75 L 195.50 389.50 L 184.95 389.78 C179.15,389.94 174.08,389.75 173.70,389.37 ZM 201.34 388.44 C201.01,387.58 200.99,384.71 201.31,382.07 C201.62,379.43 201.44,376.84 200.91,376.31 C200.35,375.75 200.06,368.70 200.22,359.42 L 200.50 343.50 L 207.75 343.21 L 215.00 342.91 L 215.17 360.21 C215.27,369.72 215.42,379.52 215.50,382.00 C215.77,389.78 215.57,390.00 208.35,390.00 C203.46,390.00 201.80,389.63 201.34,388.44 ZM 220.70 389.37 C220.32,388.98 220.00,362.42 220.00,330.33 L 220.00 272.00 L 262.00 272.00 L 304.00 272.00 L 304.00 331.07 C304.00,386.80 303.90,390.13 302.25,389.81 C300.63,389.50 300.46,386.71 300.00,352.99 C299.36,306.47 300.48,309.17 276.34,296.10 C264.93,289.94 262.83,289.12 260.60,289.96 C254.44,292.31 233.30,304.48 231.23,306.87 C225.38,313.65 225.54,312.51 225.00,352.49 C224.56,384.83 224.31,389.51 222.95,389.77 C222.10,389.94 221.09,389.75 220.70,389.37 ZM 238.43 288.43 C240.29,286.57 240.50,281.90 238.80,280.20 C238.14,279.54 236.43,279.00 235.00,279.00 C231.73,279.00 230.00,280.69 230.00,283.87 C230.00,288.90 235.16,291.69 238.43,288.43 ZM 293.44 287.78 C296.38,283.58 294.32,279.00 289.50,279.00 C284.45,279.00 282.36,284.36 286.00,288.00 C288.62,290.62 291.51,290.54 293.44,287.78 ZM 264.96 282.55 C266.88,280.23 265.81,277.50 262.99,277.50 C261.13,277.50 260.41,278.10 260.16,279.89 C259.66,283.43 262.79,285.16 264.96,282.55 ZM 235.68 389.35 C235.31,388.97 235.00,375.61 235.00,359.65 C235.00,322.08 234.64,322.93 254.22,313.66 C258.47,311.65 262.25,310.00 262.62,310.00 C264.97,310.00 282.72,320.07 285.07,322.74 C289.63,327.92 290.05,331.46 289.77,361.67 L 289.50 389.50 L 262.93 389.77 C248.32,389.91 236.06,389.72 235.68,389.35 ZM 309.71 389.37 C309.32,388.99 309.00,378.39 309.00,365.83 L 309.00 343.00 L 316.54 343.00 L 324.08 343.00 L 323.79 366.25 L 323.50 389.50 L 316.96 389.79 C313.36,389.95 310.10,389.76 309.71,389.37 ZM 329.41 388.63 C329.11,387.84 329.00,385.69 329.18,383.85 L 329.50 380.50 L 340.81 380.22 L 352.11 379.93 L 351.81 384.72 L 351.50 389.50 L 340.73 389.78 C332.10,390.01 329.85,389.78 329.41,388.63 ZM 173.67 375.33 C173.30,374.97 173.00,352.24 173.00,324.83 L 173.00 275.00 L 183.86 275.00 L 194.73 275.00 L 195.29 284.75 C195.92,295.75 195.83,370.28 195.19,373.75 C194.78,375.91 194.35,376.00 184.55,376.00 C178.93,376.00 174.03,375.70 173.67,375.33 ZM 329.67 375.33 C329.30,374.97 329.00,352.24 329.00,324.83 L 329.00 275.00 L 340.00 275.00 L 351.00 275.00 L 351.00 325.50 L 351.00 376.00 L 340.67 376.00 C334.98,376.00 330.03,375.70 329.67,375.33 ZM 202.75 338.31 C200.44,337.71 199.84,334.91 200.20,326.48 L 200.50 319.50 L 207.75 319.21 L 215.00 318.91 L 215.00 328.35 C215.00,336.03 214.71,337.90 213.42,338.39 C211.66,339.07 205.46,339.02 202.75,338.31 ZM 310.01 338.17 C309.42,337.97 309.00,333.88 309.00,328.42 L 309.00 319.00 L 316.54 319.00 L 324.07 319.00 L 323.79 328.69 L 323.50 338.38 L 317.26 338.44 C313.83,338.47 310.57,338.35 310.01,338.17 ZM 293.56 328.32 C292.20,320.85 289.25,317.96 275.38,310.59 L 262.50 303.74 L 251.50 309.53 C236.93,317.19 235.37,318.36 232.52,323.84 L 230.09 328.50 L 230.07 323.50 C230.04,318.13 232.53,311.55 235.61,308.83 C237.68,307.00 261.40,295.00 262.95,295.00 C263.47,295.00 269.58,298.01 276.52,301.69 C287.47,307.49 289.47,308.94 291.65,312.67 C294.65,317.78 296.97,329.43 295.33,331.07 C294.56,331.84 294.05,331.06 293.56,328.32 ZM 200.63 312.75 C199.84,309.81 199.83,298.61 200.61,296.58 C201.08,295.35 202.74,295.00 208.11,295.00 L 215.00 295.00 L 215.00 305.00 L 215.00 315.00 L 208.12 315.00 C201.82,315.00 201.18,314.81 200.63,312.75 ZM 309.71 314.37 C309.32,313.99 309.00,309.47 309.00,304.33 L 309.00 295.00 L 316.54 295.00 L 324.07 295.00 L 323.79 304.75 L 323.50 314.50 L 316.96 314.79 C313.36,314.95 310.10,314.76 309.71,314.37 ZM 200.61 282.65 C199.67,272.26 199.85,272.00 208.11,272.00 L 215.00 272.00 L 215.00 281.00 L 215.00 290.00 L 208.14 290.00 L 201.28 290.00 L 200.61 282.65 ZM 309.71 289.37 C309.32,288.99 309.00,284.92 309.00,280.33 L 309.00 272.00 L 316.54 272.00 L 324.08 272.00 L 323.79 280.75 L 323.50 289.50 L 316.96 289.79 C313.36,289.95 310.10,289.76 309.71,289.37 ZM 171.43 268.89 C170.14,266.80 173.50,266.03 184.00,266.03 C194.50,266.03 197.86,266.80 196.57,268.89 C196.13,269.60 191.64,270.00 184.00,270.00 C176.36,270.00 171.87,269.60 171.43,268.89 ZM 328.43 268.89 C327.16,266.84 330.43,266.03 340.00,266.03 C351.05,266.03 354.09,266.61 353.32,268.60 C352.64,270.39 329.53,270.66 328.43,268.89 ZM 205.18 264.76 L 205.50 262.50 L 262.82 262.24 L 320.14 261.98 L 319.82 264.24 L 319.50 266.50 L 262.18 266.76 L 204.86 267.02 L 205.18 264.76 ZM 167.62 262.28 C167.28,261.94 167.00,258.84 167.00,255.38 L 167.00 249.09 L 170.75 248.05 C175.73,246.67 192.87,246.71 196.89,248.11 L 200.09 249.23 L 199.79 255.86 C199.51,262.35 199.44,262.49 197.00,262.00 C193.27,261.25 174.96,261.40 171.37,262.20 C169.65,262.59 167.96,262.62 167.62,262.28 ZM 325.20 255.92 C325.56,247.14 325.36,247.25 340.60,247.10 C350.75,247.00 356.90,248.21 357.12,250.35 C357.55,254.53 357.61,258.80 357.26,260.59 C356.89,262.55 356.52,262.62 351.18,261.75 C345.24,260.78 329.79,261.27 326.70,262.52 C325.06,263.19 324.93,262.64 325.20,255.92 ZM 205.68 257.35 C205.31,256.97 205.00,254.32 205.00,251.46 C205.00,247.97 204.49,245.82 203.45,244.96 C202.59,244.24 202.03,242.52 202.20,241.09 L 202.50 238.50 L 260.50 238.43 C292.40,238.39 319.29,238.54 320.25,238.75 C322.18,239.17 322.76,244.41 321.00,245.50 C320.45,245.84 320.00,248.57 320.00,251.56 C320.00,255.64 319.64,257.00 318.55,257.00 C317.55,257.00 317.02,255.60 316.80,252.35 C316.41,246.28 313.01,243.29 308.47,245.01 C304.69,246.45 304.03,247.59 304.02,252.75 C304.00,255.85 303.60,257.00 302.50,257.00 C301.39,257.00 301.00,255.84 301.00,252.57 C301.00,245.73 296.61,242.60 291.05,245.47 C288.27,246.91 288.00,247.49 288.00,252.03 C288.00,255.78 287.63,257.00 286.50,257.00 C285.40,257.00 285.00,255.85 284.98,252.75 C284.97,247.62 284.31,246.45 280.66,245.06 C278.64,244.29 277.26,244.32 275.68,245.15 C272.59,246.78 272.03,247.93 272.02,252.75 C272.00,255.85 271.60,257.00 270.50,257.00 C269.39,257.00 269.00,255.84 269.00,252.54 C269.00,245.37 263.56,241.82 258.27,245.52 C256.60,246.69 256.03,248.25 255.80,252.27 C255.43,258.68 253.68,258.75 253.00,252.37 C252.61,248.77 251.87,247.23 249.76,245.66 C247.13,243.71 246.87,243.69 243.51,245.29 C240.19,246.88 240.00,247.23 240.00,251.98 C240.00,255.78 239.63,257.00 238.50,257.00 C237.39,257.00 237.00,255.84 237.00,252.57 C237.00,248.98 236.50,247.75 234.37,246.07 C229.09,241.92 224.40,244.48 223.40,252.07 C222.56,258.40 220.67,258.04 220.00,251.43 C219.57,247.20 219.09,246.32 216.56,245.11 C214.02,243.90 213.26,243.90 211.06,245.14 C208.94,246.32 208.45,247.41 208.19,251.53 C207.88,256.51 206.96,258.63 205.68,257.35 ZM 213.17 257.10 C211.33,255.97 212.03,249.50 214.00,249.50 C214.97,249.50 215.61,250.69 215.82,252.88 C216.18,256.66 215.14,258.32 213.17,257.10 ZM 228.69 257.35 C228.31,256.98 228.00,254.94 228.00,252.83 C228.00,249.63 228.34,249.00 230.06,249.00 C231.85,249.00 232.08,249.53 231.81,253.17 C231.52,257.12 230.21,258.87 228.69,257.35 ZM 260.39 256.58 C260.10,255.81 260.00,253.89 260.18,252.33 C260.41,250.27 261.05,249.50 262.50,249.50 C266.32,249.50 265.54,257.91 261.72,257.98 C261.29,257.99 260.69,257.36 260.39,256.58 ZM 292.43 256.67 C291.34,253.85 292.43,249.53 294.31,249.17 C295.87,248.88 296.08,249.43 295.81,253.09 C295.50,257.36 293.50,259.47 292.43,256.67 ZM 244.19 253.26 C244.41,250.64 245.03,249.42 246.25,249.18 C247.68,248.91 248.00,249.59 248.00,252.93 C248.00,256.37 247.68,257.00 245.94,257.00 C244.17,257.00 243.92,256.47 244.19,253.26 ZM 277.19 253.25 C277.40,250.72 277.99,249.50 279.00,249.50 C280.01,249.50 280.60,250.72 280.81,253.25 C281.08,256.50 280.84,257.00 279.00,257.00 C277.16,257.00 276.92,256.50 277.19,253.25 ZM 308.00 254.20 C308.00,251.50 309.54,249.00 311.20,249.00 C311.64,249.00 312.00,250.80 312.00,253.00 C312.00,256.33 311.67,257.00 310.00,257.00 C308.48,257.00 308.00,256.33 308.00,254.20 ZM 171.21 236.50 L 171.50 230.50 L 182.00 230.21 C196.97,229.79 197.00,229.81 197.00,236.77 L 197.00 242.50 L 183.96 242.50 L 170.92 242.50 L 171.21 236.50 ZM 327.42 242.08 C327.19,241.85 327.00,239.29 327.00,236.39 L 327.00 231.12 L 331.25 230.50 C333.59,230.16 339.55,230.02 344.50,230.19 L 353.50 230.50 L 353.50 236.29 L 353.50 242.09 L 340.67 242.29 C333.61,242.41 327.64,242.31 327.42,242.08 ZM 202.67 233.34 C202.30,232.97 202.00,232.07 202.00,231.33 C202.00,230.24 212.68,230.00 262.07,230.00 C318.75,230.00 322.13,230.10 321.81,231.75 C321.49,233.39 317.75,233.52 262.41,233.76 C229.93,233.90 203.05,233.71 202.67,233.34 ZM 176.67 224.33 C176.30,223.97 176.00,217.27 176.00,209.46 L 176.00 195.26 L 180.08 194.60 C182.32,194.25 186.37,194.25 189.08,194.60 L 194.00 195.26 L 194.00 210.13 L 194.00 225.00 L 185.67 225.00 C181.08,225.00 177.03,224.70 176.67,224.33 ZM 199.00 222.00 L 199.00 219.00 L 262.50 219.00 L 326.00 219.00 L 326.00 222.00 L 326.00 225.00 L 262.50 225.00 L 199.00 225.00 L 199.00 222.00 ZM 331.00 210.11 L 331.00 195.14 L 336.25 194.57 C339.14,194.25 343.08,194.35 345.00,194.79 L 348.50 195.58 L 348.50 210.04 L 348.50 224.50 L 339.75 224.79 L 331.00 225.08 L 331.00 210.11 ZM 199.00 211.50 L 199.00 209.00 L 262.50 209.00 L 326.00 209.00 L 326.00 211.50 L 326.00 214.00 L 262.50 214.00 L 199.00 214.00 L 199.00 211.50 ZM 199.71 203.37 C197.91,201.57 199.56,201.00 206.58,201.00 C212.20,201.00 214.06,201.32 213.75,202.25 C213.30,203.61 200.94,204.60 199.71,203.37 ZM 311.71 203.37 C309.91,201.57 311.56,201.00 318.58,201.00 C324.20,201.00 326.06,201.32 325.75,202.25 C325.30,203.61 312.94,204.60 311.71,203.37 ZM 202.50 196.26 C200.76,195.97 200.54,195.29 200.85,190.96 L 201.19 186.00 L 206.35 186.02 C213.26,186.04 214.20,186.79 213.81,192.03 L 213.50 196.36 L 209.00 196.47 C206.52,196.54 203.60,196.44 202.50,196.26 ZM 313.75 196.27 C310.05,195.88 310.00,195.82 310.00,191.55 C310.00,186.56 310.80,186.00 317.97,186.00 C323.23,186.00 323.96,186.94 323.99,193.75 C324.00,197.29 323.86,197.33 313.75,196.27 ZM 347.00 189.78 C345.08,189.33 340.01,189.23 335.75,189.55 L 328.00 190.14 L 328.00 183.04 C328.00,177.22 328.32,175.81 329.75,175.22 C331.90,174.34 349.59,174.26 350.46,175.13 C350.81,175.47 350.96,179.09 350.79,183.17 L 350.50 190.59 L 347.00 189.78 ZM 173.00 182.87 C173.00,179.16 173.48,175.82 174.07,175.46 C175.88,174.34 186.55,173.70 191.39,174.43 L 196.00 175.12 L 196.00 182.33 L 196.00 189.53 L 184.50 189.58 L 173.00 189.63 L 173.00 182.87 ZM 213.50 181.95 C212.40,181.50 209.14,181.11 206.25,181.07 L 201.00 181.00 L 201.00 176.56 C201.00,174.12 200.55,171.84 200.00,171.50 C199.45,171.16 199.00,170.23 199.00,169.44 C199.00,167.65 209.05,167.42 213.85,169.10 C216.90,170.16 217.00,170.38 217.00,176.04 C217.00,182.38 216.54,183.17 213.50,181.95 ZM 307.52 181.20 C306.40,178.26 307.03,171.22 308.54,169.97 C310.63,168.23 324.50,167.37 325.45,168.92 C325.85,169.56 325.63,170.74 324.97,171.53 C324.32,172.32 323.67,174.56 323.54,176.50 C323.41,178.44 323.12,180.17 322.90,180.34 C322.68,180.51 319.25,181.08 315.27,181.61 C309.44,182.38 307.94,182.30 307.52,181.20 ZM 176.42 169.08 C176.19,168.85 176.00,164.52 176.00,159.45 C176.00,150.74 176.12,150.20 178.25,149.63 C181.54,148.75 191.29,148.90 192.79,149.85 C193.73,150.44 194.00,153.20 193.79,159.95 L 193.50 169.23 L 185.17 169.36 C180.58,169.44 176.65,169.31 176.42,169.08 ZM 331.00 159.93 C331.00,148.87 330.90,149.00 339.50,149.00 C348.10,149.00 348.00,148.88 348.00,159.86 L 348.00 169.50 L 339.50 169.57 L 331.00 169.65 L 331.00 159.93 ZM 199.00 157.59 L 199.00 152.18 L 202.75 151.57 C204.81,151.24 207.85,151.35 209.50,151.80 C212.28,152.57 212.52,153.01 212.80,157.82 L 213.10 163.00 L 206.05 163.00 L 199.00 163.00 L 199.00 157.59 ZM 311.61 161.42 C310.78,159.26 310.87,154.75 311.77,153.34 C312.79,151.74 319.21,150.67 322.92,151.48 C325.90,152.14 326.00,152.34 326.00,157.58 L 326.00 163.00 L 319.11 163.00 C313.74,163.00 312.08,162.65 311.61,161.42 ZM 202.00 145.62 C202.00,144.86 202.71,143.66 203.58,142.94 C204.88,141.85 205.60,141.90 207.80,143.24 C212.04,145.81 211.65,147.00 206.58,147.00 C203.36,147.00 202.00,146.59 202.00,145.62 ZM 313.00 146.17 C313.00,145.65 314.18,144.46 315.62,143.51 C317.73,142.13 318.73,142.01 320.70,142.91 C322.05,143.53 322.97,144.58 322.75,145.26 C322.28,146.71 313.00,147.57 313.00,146.17 ZM 175.00 139.31 C175.00,136.45 175.51,133.80 176.14,133.42 C178.16,132.16 190.42,131.78 193.25,132.88 C195.77,133.86 196.00,134.40 196.00,139.23 L 196.00 144.50 L 185.50 144.50 L 175.00 144.50 L 175.00 139.31 ZM 328.42 144.08 C328.19,143.85 328.00,141.53 328.00,138.91 C328.00,134.33 328.13,134.11 331.64,132.95 C335.26,131.76 346.70,132.08 348.90,133.44 C349.50,133.81 350.00,136.46 350.00,139.32 L 350.00 144.52 L 339.42 144.51 C333.60,144.51 328.65,144.31 328.42,144.08 ZM 331.41 127.08 C331.19,126.85 331.00,124.05 331.00,120.85 C331.00,114.17 331.77,113.63 340.57,114.19 L 345.50 114.50 L 345.80 120.67 L 346.09 126.83 L 338.96 127.17 C335.03,127.35 331.64,127.31 331.41,127.08 ZM 179.20 120.75 L 179.50 114.50 L 184.43 114.19 C193.27,113.63 194.00,114.15 194.00,121.02 L 194.00 127.00 L 186.45 127.00 L 178.90 127.00 L 179.20 120.75 ZM 180.00 109.07 C180.00,107.67 185.04,104.00 186.96,104.00 C188.94,104.00 193.33,108.34 192.34,109.32 C191.31,110.36 180.00,110.13 180.00,109.07 ZM 332.00 108.62 C332.00,107.06 336.19,104.00 338.33,104.00 C340.33,104.00 345.13,107.98 344.45,109.08 C344.14,109.59 341.21,110.00 337.94,110.00 C333.55,110.00 332.00,109.64 332.00,108.62 ZM 233.69 285.35 C232.38,284.05 233.01,283.00 235.08,283.00 C236.25,283.00 236.99,283.52 236.77,284.19 C236.28,285.65 234.61,286.28 233.69,285.35 ZM 288.46 284.93 C287.54,283.44 288.61,282.63 290.52,283.37 C291.40,283.71 291.85,284.44 291.50,284.99 C290.69,286.30 289.29,286.28 288.46,284.93 Z" fill="rgb(253,254,254)"/>
</g>
</svg>