<svg id="Layer_1" data-name="Layer 1" xmlns="http://www.w3.org/2000/svg" viewBox="0 0 65 65"><defs><style>.cls-1{fill:blue;}.cls-2{fill:#f3f945;}</style></defs><path class="cls-1" d="M54.25,1a10.49,10.49,0,0,1,1.47.59,4.12,4.12,0,0,1,2,4.57,4.21,4.21,0,0,1-3.57,3.2,4.13,4.13,0,0,1-4.35-2.52.79.79,0,0,0-.88-.6c-2,0-4.1,0-6.15,0h-.68V8.44c0,1.17,0,2.34,0,3.5a.91.91,0,0,0,.61,1,21,21,0,0,1,5.51,4c.6.59.67,1.19.2,1.66s-1.08.41-1.67-.17a19.89,19.89,0,0,0-5.88-4.06A1.27,1.27,0,0,1,40,13c0-2.21,0-4.42,0-6.64a2,2,0,0,1,2.2-2.18H49c.29,0,.54,0,.68-.35A4.05,4.05,0,0,1,52.75,1.1,1.3,1.3,0,0,0,52.9,1Zm-.66,6.28a2.1,2.1,0,0,0,2.11-2.1A2.12,2.12,0,0,0,53.57,3.1a2.08,2.08,0,0,0-2.06,2.08A2.06,2.06,0,0,0,53.59,7.28Z"/><path class="cls-1" d="M12.32,1a9.48,9.48,0,0,1,1.93,1,5.07,5.07,0,0,1,1.22,1.66.77.77,0,0,0,.81.52q3.3,0,6.58,0a2.1,2.1,0,0,1,2.39,2.37c0,1.69,0,3.39,0,5.12,1-.25,1.87-.5,2.78-.71a1,1,0,0,1,1.39.73c.13.63-.2,1.08-.91,1.29-1.23.38-2.46.75-3.68,1.17-1,.35-1.66-.06-1.67-1.14,0-2,0-3.89,0-5.84V6.3c-.21,0-.39,0-.56,0-2.13,0-4.27,0-6.4,0a.62.62,0,0,0-.7.48,4.18,4.18,0,0,1-4.65,2.6,4.2,4.2,0,0,1-.23-8.21c.12,0,.23-.08.35-.12Zm-.69,6.28A2.05,2.05,0,0,0,13.7,5.17,2.08,2.08,0,0,0,11.64,3.1,2.11,2.11,0,0,0,9.52,5.19,2.09,2.09,0,0,0,11.63,7.28Z"/><path class="cls-1" d="M1.13,21.29c0-.13.1-.26.14-.4a4.16,4.16,0,0,1,3.79-3.07,4.15,4.15,0,0,1,4.16,2.64l.18.47c1.41,0,2.83,0,4.26,0,.17,0,.38-.26.5-.45A21.83,21.83,0,0,1,19,15.14l.29-.23a1,1,0,0,1,1.52.15,1.05,1.05,0,0,1-.26,1.52c-.32.28-.67.54-1,.81a18.55,18.55,0,0,0-4,4.77A1.61,1.61,0,0,1,14,23c-1.51,0-3,0-4.55,0l-.19.46a4.24,4.24,0,0,1-4,2.7,4.24,4.24,0,0,1-3.91-3c-.05-.17-.11-.34-.16-.52Zm4.2-1.39A2.08,2.08,0,0,0,3.23,22a2.09,2.09,0,1,0,4.18,0A2.07,2.07,0,0,0,5.33,19.9Z"/><path class="cls-1" d="M1.13,42.2c.05-.14.1-.26.14-.4a4.25,4.25,0,0,1,3.91-3,4.23,4.23,0,0,1,4,2.68l.18.46h3.2c-.41-1.17-.82-2.29-1.19-3.44A11.54,11.54,0,0,1,11,36.93a1,1,0,0,1,.72-1.25,1,1,0,0,1,1.29.73,22.54,22.54,0,0,0,2.29,6.06c.44.8-.1,1.54-1.07,1.56H9.39a4.32,4.32,0,0,1-2.32,2.75,4.2,4.2,0,0,1-5.7-2.37l-.24-.62ZM7.41,43a2.09,2.09,0,0,0-4.18,0,2.09,2.09,0,1,0,4.18,0Z"/><path class="cls-1" d="M1.13,32.11a1.53,1.53,0,0,1,1.45-.69c2.44,0,4.87,0,7.31,0h.59c.29-1.6.56-3.13.85-4.65a7.7,7.7,0,0,1,.26-.94c.24-.75.75-1.11,1.34-.94s.88.75.68,1.54c-.26,1-.53,2.1-.71,3.16a23.11,23.11,0,0,0-.21,2.63c0,.92-.39,1.3-1.33,1.3H2.46a1.45,1.45,0,0,1-1.33-.69Z"/><path class="cls-1" d="M33,1a1.6,1.6,0,0,1,.69,1.52c0,2.41,0,4.82,0,7.24v.68c1.09.14,2.12.25,3.15.41a1.06,1.06,0,0,1,1,1.44,1,1,0,0,1-1.13.65l-4.09-.4a1.06,1.06,0,0,1-1-1.19c0-.94,0-1.88,0-2.82,0-2,0-4,0-6.08A1.51,1.51,0,0,1,32.24,1Z"/><path class="cls-1" d="M50.44,32.5A17.84,17.84,0,1,1,32.65,14.65,17.83,17.83,0,0,1,50.44,32.5ZM32.63,16.74A15.74,15.74,0,1,0,48.35,32.47,15.76,15.76,0,0,0,32.63,16.74Z"/><path class="cls-1" d="M23.15,58.64c0-2,0-4,0-5.93,0-.2-.28-.47-.49-.58A22.66,22.66,0,0,1,16,47c-.53-.61-.56-1.25-.07-1.68s1.08-.35,1.61.26a20.25,20.25,0,0,0,6.91,5.11,1.22,1.22,0,0,1,.78,1.2c0,2.26,0,4.51,0,6.76a2,2,0,0,1-2.17,2.16c-2.27,0-4.55,0-6.82,0a.68.68,0,0,0-.77.49,4.11,4.11,0,0,1-4.63,2.59,4.19,4.19,0,0,1-.06-8.23,4.23,4.23,0,0,1,4.72,2.58c.08.19.33.45.5.45,2.3,0,4.59,0,6.89,0A1.6,1.6,0,0,0,23.15,58.64Zm-11.47-1a2.09,2.09,0,0,0-2.16,2,2.12,2.12,0,0,0,2.07,2.14,2.09,2.09,0,0,0,.09-4.18Z"/><path class="cls-1" d="M52.62,23c.47,1.41,1,2.75,1.34,4.13s.5,2.77.76,4.27h7.76c.2,0,.41,0,.61,0a1,1,0,0,1,0,2.08,3.09,3.09,0,0,1-.43,0H54c-1.17,0-1.47-.31-1.5-1.49a20,20,0,0,0-2.44-9.16,2.2,2.2,0,0,1-.33-1c0-.6.5-1,1.25-1h4.8c.09-.23.18-.44.27-.64a4.19,4.19,0,1,1,4.76,5.79,4.12,4.12,0,0,1-4.74-2.39A.91.91,0,0,0,55,23C54.23,23.06,53.43,23,52.62,23ZM57.81,22a2.09,2.09,0,0,0,2.07,2.13A2.12,2.12,0,0,0,62,22a2.09,2.09,0,0,0-2.05-2.09A2.05,2.05,0,0,0,57.81,22Z"/><path class="cls-1" d="M42.06,58.7c2.46,0,4.84,0,7.21,0,.16,0,.36-.31.45-.52a4.2,4.2,0,0,1,4.1-2.57,4.15,4.15,0,0,1,3.74,2.81,4.2,4.2,0,0,1-2.48,5.28,4.15,4.15,0,0,1-5.33-2.33.73.73,0,0,0-.85-.55c-2.19,0-4.39,0-6.58,0A2.08,2.08,0,0,1,40,58.47c0-2.16,0-4.31,0-6.46a1.33,1.33,0,0,1,.89-1.38,20.13,20.13,0,0,0,5.84-4,1.53,1.53,0,0,1,1-.45,1.16,1.16,0,0,1,.85.62,1.36,1.36,0,0,1-.27,1.15C47,49,45.69,50.09,44.35,51.09a21.06,21.06,0,0,1-1.91,1.1c-.16.1-.36.31-.36.47C42.05,54.65,42.06,56.63,42.06,58.7Zm9.45,1a2.1,2.1,0,0,0,2.08,2.13,2.13,2.13,0,0,0,2.11-2.11,2.1,2.1,0,0,0-2.07-2.08A2.05,2.05,0,0,0,51.51,59.74Z"/><path class="cls-1" d="M55.79,44H50.84a1,1,0,0,1-.93-1.61,22.66,22.66,0,0,0,2.25-6,1,1,0,1,1,2,.52c-.43,1.45-.91,2.88-1.37,4.32-.06.19-.14.37-.23.6H55.8c1.16-2.5,2.82-3.5,5-3a4.19,4.19,0,0,1-.09,8.19C58.66,47.52,56.94,46.47,55.79,44Zm4.1,1A2.08,2.08,0,0,0,62,43a2.12,2.12,0,0,0-2.07-2.09A2.09,2.09,0,0,0,57.81,43,2.05,2.05,0,0,0,59.89,45.06Z"/><path class="cls-1" d="M33.66,54.52v7.94a2.92,2.92,0,0,1-.06.73,1,1,0,0,1-2,0,3,3,0,0,1-.06-.73c0-2.42,0-4.84,0-7.25v-.69c-1.07-.13-2.08-.25-3.09-.4-.77-.11-1.2-.59-1.12-1.19s.62-1,1.42-.88a20.61,20.61,0,0,0,7.63,0c.78-.14,1.3.2,1.4.83s-.28,1.13-1,1.24C35.75,54.27,34.76,54.38,33.66,54.52Z"/><path class="cls-2" d="M27.42,27.17a24.93,24.93,0,0,1,0-2.74,5.22,5.22,0,0,1,10.34,0c.09.91,0,1.84,0,2.75.39.08.65.11.91.18A3.07,3.07,0,0,1,41,30.23c0,3.25,0,6.51,0,9.77a3,3,0,0,1-2.9,2.94c-3.65,0-7.29,0-10.94,0A3,3,0,0,1,24.24,40c0-3.26,0-6.51,0-9.77a3.05,3.05,0,0,1,2.51-2.93Zm5.16,13.7h5c.92,0,1.27-.35,1.27-1.26q0-4.49,0-9c0-.94-.36-1.3-1.31-1.3h-10c-.94,0-1.3.36-1.3,1.31v8.91c0,1,.34,1.31,1.34,1.31ZM35.77,27.2c0-.62,0-1.17,0-1.72a7.16,7.16,0,0,0,0-.8A3.08,3.08,0,0,0,32.92,22a3,3,0,0,0-3.28,2.19,19.35,19.35,0,0,0-.25,3Z"/><path class="cls-2" d="M35.76,34.62a3.09,3.09,0,0,1-1.6,2.67,1,1,0,0,0-.57.71.91.91,0,0,1-1,.76.9.9,0,0,1-1-.75,1,1,0,0,0-.61-.74,3.13,3.13,0,0,1,2.16-5.79A3.17,3.17,0,0,1,35.76,34.62Zm-2.12,0a1,1,0,0,0-2.07,0,1,1,0,1,0,2.07,0Z"/></svg>