<svg id="Layer_1" data-name="Layer 1" xmlns="http://www.w3.org/2000/svg" viewBox="0 0 65 65"><defs><style>.cls-1{fill:#4dc0b3;}</style></defs><path class="cls-1" d="M60.16,18.79h-46c-1.26,0-1.51-.25-1.51-1.52,0-1.75,0-3.5,0-5.25a3,3,0,0,1,3.1-3.12h43.3A3,3,0,0,1,62.14,12q0,19.7,0,39.39a2.94,2.94,0,0,1-3,3.06H15.68a3,3,0,0,1-3-3c0-.62,0-1.24,0-1.85a1,1,0,1,1,2,0c0,.59,0,1.19,0,1.79a1,1,0,0,0,1.08,1.08H58.64c1.27,0,1.52-.26,1.52-1.52V18.79Zm-45.53-2H60.16V12.4c0-1.27-.25-1.52-1.5-1.52H16.11c-.16,0-.33,0-.49,0a1,1,0,0,0-1,1C14.62,13.49,14.63,15.11,14.63,16.77Z"/><path class="cls-1" d="M9.88,39.37c-1.61,0-3.11,0-4.62,0a2.2,2.2,0,0,1-2.51-2.49c0-2.19,0-4.37,0-6.56a2.18,2.18,0,0,1,2.41-2.41c1.4,0,2.8,0,4.2,0,.41,0,.54-.14.53-.54,0-1.4,0-2.8,0-4.2a2.17,2.17,0,0,1,2.42-2.4c2.22,0,4.45,0,6.67,0a2.17,2.17,0,0,1,2.37,2.33c0,1.57,0,3.13,0,4.77l.69,0c1.36,0,2.72,0,4.08,0a2.17,2.17,0,0,1,2.36,2.4c0,2.23,0,4.45,0,6.68a2.17,2.17,0,0,1-2.38,2.38c-1.4,0-2.8,0-4.2,0-.44,0-.56.13-.56.56,0,1.4,0,2.8,0,4.21A2.18,2.18,0,0,1,19,46.51H12.28a2.17,2.17,0,0,1-2.39-2.37c0-1.34,0-2.68,0-4Zm2-11.46H15.3c.84,0,1.3.35,1.3,1s-.47,1-1.29,1h-.44c-3.17,0-6.35,0-9.52,0-.48,0-.64.13-.63.63,0,2.1,0,4.2,0,6.31,0,.35,0,.59.48.58,1.41,0,2.81,0,4.21,0,.34,0,.48-.13.48-.47,0-.62,0-1.24,0-1.86a2.2,2.2,0,0,1,2.41-2.42c2.15,0,4.29,0,6.44,0,.53,0,.66-.17.65-.67,0-1.33,0-2.66,0-4v-4.7c0-.33,0-.55-.46-.54-2.2,0-4.41,0-6.61,0a.57.57,0,0,0-.42.36C11.86,24.69,11.87,26.26,11.87,27.91Zm7.5,11.46h-.76c-1,0-2,0-3,0a1,1,0,0,1-1-1,1,1,0,0,1,1-1c.2,0,.41,0,.62,0h9.65c.33,0,.65.06.64-.47,0-2.19,0-4.37,0-6.56,0-.34-.11-.48-.46-.47-1.4,0-2.81,0-4.21,0-.38,0-.5.16-.49.52q0,.93,0,1.86A2.18,2.18,0,0,1,19,34.63c-2.15,0-4.29,0-6.44,0-.5,0-.68.13-.67.65,0,1.44,0,2.88,0,4.31V44c0,.26,0,.55.38.55,2.25,0,4.49,0,6.74,0,.13,0,.37-.22.37-.34C19.38,42.61,19.37,41,19.37,39.37Z"/><path class="cls-1" d="M45.76,43.54H37.41a1,1,0,0,1-1-1,1,1,0,0,1,1-1c.13,0,.25,0,.37,0H53.84a2.68,2.68,0,0,1,.49,0,.94.94,0,0,1,.87,1,.93.93,0,0,1-.84,1,2.6,2.6,0,0,1-.56,0Z"/><path class="cls-1" d="M39.77,26.7l2.89,2.89a4.24,4.24,0,0,1,.46.49,1,1,0,0,1-1.38,1.36c-.38-.32-.71-.69-1.06-1-1-.94-1.9-1.89-2.84-2.84a1,1,0,0,1,0-1.7q1.83-1.84,3.67-3.67a1,1,0,1,1,1.41,1.39Z"/><path class="cls-1" d="M52.84,26.72c-1-1-2-2-3-2.94a4.75,4.75,0,0,1-.38-.4,1,1,0,0,1,0-1.3A.91.91,0,0,1,50.88,22Q53,24,55,26.11a.87.87,0,0,1-.07,1.29c-1.31,1.34-2.63,2.67-4,4a.94.94,0,0,1-1.38,0,1,1,0,0,1,.06-1.43C50.66,28.87,51.72,27.83,52.84,26.72Z"/><path class="cls-1" d="M42.41,35.62h4.64c.78,0,1.23.37,1.23,1s-.45,1-1.23,1H37.64c-.78,0-1.23-.37-1.23-1s.45-1,1.23-1Z"/><path class="cls-1" d="M49.21,49.48H44.57c-.78,0-1.23-.37-1.23-1s.45-1,1.23-1H54c.78,0,1.23.37,1.23,1s-.45,1-1.23,1Z"/><path class="cls-1" d="M48.29,24.84c-.06.14-.13.36-.23.56-.58,1.18-1.16,2.35-1.76,3.52-.35.7-.88.93-1.43.64s-.67-.82-.32-1.53c.61-1.23,1.22-2.47,1.84-3.69a1,1,0,0,1,1.18-.55A1,1,0,0,1,48.29,24.84Z"/><path class="cls-1" d="M52.72,37.6H51.29a1,1,0,0,1-1-1,1,1,0,0,1,1-1q1.45,0,2.91,0a1,1,0,1,1,0,2C53.71,37.62,53.21,37.6,52.72,37.6Z"/><path class="cls-1" d="M38.84,49.48c-.48,0-1,0-1.43,0a1,1,0,0,1-1-1,1,1,0,0,1,1-1q1.45,0,2.91,0a1,1,0,0,1,1,1,1,1,0,0,1-1,1C39.83,49.49,39.33,49.48,38.84,49.48Z"/><path class="cls-1" d="M17.6,14.83a1,1,0,1,1,1-1A1,1,0,0,1,17.6,14.83Z"/><path class="cls-1" d="M21.56,14.83a1,1,0,1,1,1-1A1,1,0,0,1,21.56,14.83Z"/><path class="cls-1" d="M25.53,14.83a1,1,0,1,1,1-1A1,1,0,0,1,25.53,14.83Z"/></svg>