<svg id="Layer_1" data-name="Layer 1" xmlns="http://www.w3.org/2000/svg" viewBox="0 0 65 65"><defs><style>.cls-1{fill:#4dc0b3;}</style></defs><path class="cls-1" d="M21.88,61.32V59.41c1-.13,2.06-.23,3.12-.38a38.47,38.47,0,0,0,16.15-6.44,58.08,58.08,0,0,0,14.32-14.3c.71-1,1.39-2,2.08-3,.53-.77.79-.86,1.66-.58l1,.33-1.31-5.91L53.33,32.2l1.2.32c1.11.3,1.36.94.69,1.86a45.92,45.92,0,0,1-6.3,7,44.57,44.57,0,0,1-22.13,11l-1,.17-.86.11-.28-1.93c.75-.13,1.46-.29,2.17-.38.41-.06.53-.25.58-.64.72-5,1.48-10,2.16-15a17.72,17.72,0,0,0-.1-3.08c0-.52-.09-1-.16-1.68-.2.24-.33.38-.44.53-1.34,1.76-2.7,3.51-4,5.29a2.54,2.54,0,0,1-2.13,1.16c-.62,0-1.24.1-1.85.15a1.92,1.92,0,0,1-2-1,1.87,1.87,0,0,1,.14-2.16l8-10.85a5,5,0,0,1,2.59-1.71c-1.69-2.82-1.62-5.05.2-6.88a5,5,0,0,1,6-.77c2.16,1.28,2.88,3.49,2,6.42.23-.17.4-.28.56-.41l6.84-5.35a2,2,0,0,1,3.31.54l.84,1.23a2,2,0,0,1-.49,3q-4.19,3.21-8.39,6.39a1,1,0,0,0-.46,1.07c.21,1.28.34,2.58.53,3.86A.85.85,0,0,0,41,31c1.16.64,2.33,1.25,3.51,1.85a2.3,2.3,0,0,1,1.25,1.52c.54,1.86,1.1,3.71,1.69,5.66a42.67,42.67,0,0,0,5.42-5.82c-.79-.21-1.51-.42-2.25-.58-.51-.12-.9-.34-1-.88a1.06,1.06,0,0,1,.69-1.13l8.51-4.72c.91-.5,1.5-.24,1.73.78q1,4.26,1.9,8.52c.21,1-.45,1.56-1.42,1.25a16,16,0,0,1-1.52-.51c-.43-.18-.64-.06-.9.3-1.85,2.46-3.62,5-5.62,7.33A49.29,49.29,0,0,1,34.79,58.32a38.73,38.73,0,0,1-12.35,3ZM44,42.85c.52-.4,1-.77,1.43-1.09a.62.62,0,0,0,.27-.83c-.6-1.93-1.15-3.87-1.76-5.8a1.31,1.31,0,0,0-.59-.7c-1.25-.69-2.52-1.34-3.79-2a1.41,1.41,0,0,1-.86-1.19c-.2-1.74-.44-3.48-.7-5.22a1.57,1.57,0,0,1,.7-1.64c2.91-2.18,5.8-4.4,8.69-6.6.16-.12.31-.26.49-.41l-1.12-1.65-.53.4c-2.57,2-5.14,4-7.73,6a2.37,2.37,0,0,1-1.17.45c-2.1.21-4.2.38-6.3.53a3.51,3.51,0,0,0-2.75,1.55c-2.38,3.31-4.81,6.58-7.21,9.87l-.39.55c.67-.06,1.21-.14,1.74-.14a1.24,1.24,0,0,0,1.05-.61c1.89-2.51,3.8-5,5.69-7.51.32-.43.68-.75,1.25-.57s.71.63.75,1.16c.11,1.41.25,2.8.34,4.21a14.58,14.58,0,0,1,.12,3c-.4,3.24-.92,6.46-1.4,9.69-.25,1.76-.5,3.51-.77,5.37.78-.23,1.45-.48,2.15-.62s.73-.43.82-1q1.13-6.66,2.3-13.31c.19-1.07.76-1.35,1.72-.89,1.45.71,2.89,1.43,4.34,2.13a2.45,2.45,0,0,1,1.35,1.52C42.7,39.33,43.33,41,44,42.85Zm-7.5-6.65L34.43,48a1.1,1.1,0,0,0,.24,0A40.58,40.58,0,0,0,42,44.22a.65.65,0,0,0,.18-.6c-.61-1.79-1.26-3.57-1.91-5.36a.66.66,0,0,0-.28-.37C38.82,37.33,37.69,36.78,36.48,36.2ZM33.3,15a3,3,0,1,0,3,2.92A3,3,0,0,0,33.3,15Z"/><path class="cls-1" d="M21.49,46.89c-.41.47-.75.92-1.16,1.31a.66.66,0,0,0-.18.84c.16.45.46.4.78.4,1.8,0,1.9.11,1.9,1.88v2.73c0,1-.31,1.35-1.38,1.35H20.9a.63.63,0,0,0-.77.42c-.17.41,0,.59.23.84,1.33,1.32,1.32,1.43,0,2.76-.67.67-1.34,1.35-2,2a1,1,0,0,1-1.61,0,5.11,5.11,0,0,1-.57-.57.64.64,0,0,0-.84-.22c-.42.17-.42.43-.42.77,0,1.83-.1,1.93-1.92,1.93H10.12C9.3,63.33,9,63,8.93,62.16a6.12,6.12,0,0,1,0-.74.7.7,0,0,0-.47-.8c-.44-.2-.6.06-.83.29-1.25,1.24-1.43,1.24-2.68,0-.69-.69-1.38-1.37-2.06-2.07a1,1,0,0,1,0-1.62,7.53,7.53,0,0,1,.57-.56.62.62,0,0,0,.22-.84c-.17-.4-.4-.43-.76-.43C1.08,55.39,1,55.3,1,53.48V50.69c0-.9.34-1.24,1.23-1.25a6.09,6.09,0,0,1,.74,0c.39.05.57-.1.74-.46s0-.56-.22-.79c-1.35-1.35-1.35-1.44,0-2.8l1.93-1.93c.64-.63,1.1-.63,1.75,0,.16.15.33.31.48.48s.42.44.83.25a.69.69,0,0,0,.45-.76c0-1.87.08-1.94,2-1.94h2.85a1,1,0,0,1,1.15,1.14q0,.38,0,.75c0,.36,0,.64.44.81s.6,0,.84-.25c1.29-1.28,1.44-1.28,2.72,0,.67.67,1.36,1.33,2,2A8.34,8.34,0,0,1,21.49,46.89Zm-4-1.55c-.25.29-.43.55-.65.76a1.07,1.07,0,0,1-1.54.25,14.64,14.64,0,0,0-1.54-.63,1,1,0,0,1-.81-1.1v-1.1h-2v1c0,.76-.2,1-.93,1.26-.54.2-1.07.43-1.59.68a1,1,0,0,1-1.24-.19c-.27-.29-.48-.62-.68-.87L4.86,46.92c.25.2.51.38.73.59a1.07,1.07,0,0,1,.26,1.54,12,12,0,0,0-.62,1.49A1.11,1.11,0,0,1,4,51.43c-.32,0-.65,0-1,0v2H4c.77,0,1,.2,1.26.92a10.79,10.79,0,0,0,.63,1.48,1.07,1.07,0,0,1-.22,1.45c-.26.23-.55.42-.76.58l1.56,1.6a6.86,6.86,0,0,1,.56-.7,1.07,1.07,0,0,1,1.54-.26,11.23,11.23,0,0,0,1.48.61,1.11,1.11,0,0,1,.89,1.23c0,.33,0,.65,0,1h2c0-.34,0-.65,0-1,0-.78.19-1,.91-1.27a10.12,10.12,0,0,0,1.48-.63,1.07,1.07,0,0,1,1.49.25c.22.25.4.52.58.74L19,57.92a7.83,7.83,0,0,1-.75-.59c-.59-.57-.61-.85-.26-1.58a11.89,11.89,0,0,0,.6-1.49,1.08,1.08,0,0,1,1.14-.85c.36,0,.73,0,1.09,0v-2h-.94c-.82,0-1.05-.18-1.31-.94a10.42,10.42,0,0,0-.6-1.42,1.07,1.07,0,0,1,.21-1.5c.27-.22.57-.41.86-.61Z"/><path class="cls-1" d="M62.56,7.44a4.1,4.1,0,0,1-.45.72c-.69.74-1.39,1.47-2.12,2.17a.94.94,0,0,0-.28.94c.18,1,.39,2.07.49,3.12a1.39,1.39,0,0,1-.38,1.06,1.34,1.34,0,0,1-1.13,0,20,20,0,0,1-2.44-1.34,1.1,1.1,0,0,0-1.34,0c-.77.48-1.58.88-2.37,1.32-.42.24-.88.35-1.2,0A1.66,1.66,0,0,1,51,14.37c.09-1,.27-2,.46-2.94a1.15,1.15,0,0,0-.36-1.2,23.43,23.43,0,0,1-2-2.09,1.39,1.39,0,0,1-.33-1.09,1.33,1.33,0,0,1,.89-.69c1-.23,2-.31,3-.5a1,1,0,0,0,.63-.47c.48-.93.91-1.89,1.35-2.85a1,1,0,0,1,2,0c.41.9.85,1.79,1.25,2.7a.94.94,0,0,0,.86.64c1,.11,2,.3,2.94.45C62.18,6.44,62.47,6.76,62.56,7.44ZM58,12.82c-.11-.72-.18-1.34-.31-1.94a1.35,1.35,0,0,1,.42-1.4C58.53,9,59,8.55,59.47,8c-.66-.11-1.21-.23-1.76-.27a1.46,1.46,0,0,1-1.36-1c-.2-.52-.47-1-.76-1.63-.31.65-.57,1.14-.77,1.66a1.43,1.43,0,0,1-1.31,1c-.57,0-1.13.17-1.8.28.54.55,1,1,1.48,1.52a1.27,1.27,0,0,1,.37,1.24c-.13.64-.22,1.29-.34,2,.6-.32,1.11-.57,1.6-.87a1.35,1.35,0,0,1,1.57,0C56.86,12.25,57.36,12.49,58,12.82Z"/><path class="cls-1" d="M4,4.77V2.82H6V4.77H4Z"/><path class="cls-1" d="M4,6.74H2v-2H4v2Z"/><path class="cls-1" d="M6,4.77h2v2H6v-2Z"/><path class="cls-1" d="M11.92,7.75V5.8h2v2h-2Z"/><path class="cls-1" d="M6,6.74V8.69H4V6.74l0,0H6Z"/><path class="cls-1" d="M11.92,9.72H10v-2H11.9v2Z"/><path class="cls-1" d="M13.89,7.75h1.95v2H13.89l0,0v-2Z"/><path class="cls-1" d="M13.89,9.72v1.95h-2V9.72l0,0h2Z"/><path class="cls-1" d="M57.59,58.38v-2h2v2l0,0h-2Z"/><path class="cls-1" d="M57.59,60.35h-2v-2h2l0,0v2Z"/><path class="cls-1" d="M59.55,58.38h2v2h-2l0,0v-2Z"/><path class="cls-1" d="M59.55,60.35V62.3h-2V60.35l0,0h2Z"/><path class="cls-1" d="M7,52.38a5,5,0,1,1,5,5A5,5,0,0,1,7,52.38Zm7.94,0a3,3,0,1,0-3,3A3,3,0,0,0,14.89,52.39Z"/></svg>