<svg id="Layer_1" data-name="Layer 1" xmlns="http://www.w3.org/2000/svg" viewBox="0 0 65 65"><defs><style>.cls-1{fill:blue;}.cls-2{fill:#f3f945;}</style></defs><path class="cls-1" d="M30.35,43.49a15.25,15.25,0,0,1-2.78.42,3.82,3.82,0,0,1-3.43-2.65,8.39,8.39,0,0,1-.06-6,21.1,21.1,0,0,1,1.25-2.84c.41-.8.63-.86,1.47-.59,1.48.46,3,.91,4.42,1.4a.57.57,0,0,0,.77-.26c.57-.77,1.2-1.5,1.85-2.29-.16-.06-.35-.14-.54-.2l-4.76-1.51c-.68-.22-.9-.59-.65-1.19a12.25,12.25,0,0,0-.06-9.4,9.71,9.71,0,0,1-.63-4.49A8.5,8.5,0,0,1,36.09,6.3a7.25,7.25,0,0,1,5.62,3.63,14.54,14.54,0,0,1,2,5.84,16.87,16.87,0,0,1-.09,7.35,35.53,35.53,0,0,1-1.56,3.79c-.08.18-.19.33-.3.54,5,.06,8.84,2.08,11.26,6.4s2.1,8.68-.52,13.09a2.4,2.4,0,0,1,.51.31c2.43,2.42,4.85,4.86,7.29,7.28a2.51,2.51,0,0,1,.85,2.22,2.45,2.45,0,0,1-4.14,1.41c-1.12-1.1-2.22-2.22-3.33-3.33-1.42-1.42-2.84-2.83-4.24-4.25a.51.51,0,0,0-.75-.11,12.39,12.39,0,0,1-18.31-6.75Zm-.68-15.87c1.92.6,3.78,1.19,5.65,1.76.15.05.36-.06.53-.13,1.14-.47,2.28-.93,3.41-1.41a1.26,1.26,0,0,0,.52-.33,13.45,13.45,0,0,0,2.41-5,17.37,17.37,0,0,0-.08-6.89,11.89,11.89,0,0,0-2.19-5.45,5.58,5.58,0,0,0-3.6-2.25c-4.76-.74-8.91,4.46-7.2,9.15C30.37,20.53,30.92,24,29.67,27.62Zm23.4,12.32a10.81,10.81,0,1,0-11,10.76A10.81,10.81,0,0,0,53.07,39.94ZM30.75,34.72l-2-.64-2.24-.69c-.36,1-.75,1.86-1,2.78a6.78,6.78,0,0,0,.1,4.38,2.54,2.54,0,0,0,3.88,1.38.76.76,0,0,0,.46-.83,9.85,9.85,0,0,1,0-2.17C30.12,37.55,30.45,36.19,30.75,34.72ZM50.48,49.28l.18.21,7.4,7.4a2.09,2.09,0,0,0,.22.2A.83.83,0,0,0,59.46,56a2,2,0,0,0-.31-.35l-7.24-7.23-.25-.23Z"/><path class="cls-1" d="M15.44,38.43H11.21a1,1,0,0,1-1-.55,21.26,21.26,0,0,1-1.92-6.45A12.71,12.71,0,0,1,9.44,25,17.93,17.93,0,0,1,13,19.33a7.63,7.63,0,0,1,4.59-2.44,6.63,6.63,0,0,1,6.74,3.5,7.77,7.77,0,0,1,0,8.32A16.79,16.79,0,0,1,23,30.42a11,11,0,0,0-2.43,7.32c0,.68-.26,1-1,1H15.44Zm3.43-1.35c.05-.59.08-1.1.15-1.6a13.28,13.28,0,0,1,3.31-6.84,6.44,6.44,0,0,0,1.53-3.73A6.28,6.28,0,0,0,20.76,19a5,5,0,0,0-6.37,1.22c-4.89,5.37-5.66,10.51-3,16.23a.59.59,0,0,0,.4.33C14.14,36.92,16.47,37,18.87,37.08Z"/><path class="cls-1" d="M16.09,41.5h4.23a.84.84,0,0,1,.94.71,10.32,10.32,0,0,1-.55,6.62,6.76,6.76,0,0,1-1.05,1.61,3.77,3.77,0,0,1-6-.09A8.55,8.55,0,0,1,12,47c-.4-1.53-.73-3.09-1.06-4.64-.16-.77.19-1.13,1-1.13h4.12Zm-3.41,1.35c.24,1,.39,2,.71,3A14.06,14.06,0,0,0,14.74,49a2.21,2.21,0,0,0,3.89.14c1.38-1.82,1.45-3.9,1.17-6.09Z"/><path class="cls-1" d="M42.23,31a8.93,8.93,0,1,1-8.91,9A9,9,0,0,1,42.23,31Zm-.12,16.26a7.33,7.33,0,1,0-7.17-7.54A7.34,7.34,0,0,0,42.11,47.22Z"/><path class="cls-2" d="M40.32,41.37c1.76-1.55,3.47-3.07,5.21-4.57a1.39,1.39,0,0,1,.88-.33A.82.82,0,0,1,47,37a1.18,1.18,0,0,1-.29.87C45.55,38.93,44.36,40,43.18,41c-.73.65-1.46,1.3-2.21,1.94s-1,.51-1.49-.08c-.71-.79-1.41-1.59-2.1-2.38-.49-.56-.54-1-.14-1.38s.85-.22,1.36.34Z"/></svg>