<svg id="Layer_1" data-name="Layer 1" xmlns="http://www.w3.org/2000/svg" viewBox="0 0 65 65"><defs><style>.cls-1{fill:blue;}.cls-2{fill:#f3f945;}</style></defs><path class="cls-1" d="M62.61,35.92c-.07.24-.15.48-.22.72a4.36,4.36,0,0,1-4.07,3c-4.75,0-9.5,0-14.26,0a4.38,4.38,0,0,1-4.3-4.47c0-4.46,0-8.92,0-13.37v-.69c-4.18-.68-6.55,2.21-6.5,5.2.07,3.44,0,6.88,0,10.31a6.78,6.78,0,0,1-7.06,7h-.84V57a4.45,4.45,0,0,1-3.67,4.83.33.33,0,0,0-.1.06H11.11s0,0,0-.05a.93.93,0,0,1-.43-1.16c.2-.5.64-.56,1.12-.56q4.55,0,9.07,0A2.57,2.57,0,0,0,23.52,58a11.76,11.76,0,0,0,0-2H4.05c0,.59,0,1.14,0,1.69A2.39,2.39,0,0,0,5.5,59.77a6.44,6.44,0,0,0,1.77.31c.7.07,1.13.6.88,1.19a2.5,2.5,0,0,1-.46.58H6c-.13,0-.25-.09-.38-.12a4.4,4.4,0,0,1-3.38-4.24q0-14.61,0-29.23A4.37,4.37,0,0,1,6.65,23.9q7.15,0,14.31,0a4.38,4.38,0,0,1,4.4,4.44c0,4.27,0,8.53,0,12.79v.71A5.05,5.05,0,0,0,31.5,37c0-3.62,0-7.24,0-10.85a6.71,6.71,0,0,1,5.29-6.64,22.48,22.48,0,0,1,3-.26v-13A4.43,4.43,0,0,1,44.48,1.5c.47,0,.94,0,1.41,0,.7,0,1.09.32,1.1.87s-.39.89-1.07.89-1.22,0-1.83,0a2.65,2.65,0,0,0-2.56,2.46c0,.8,0,1.6,0,2.45H60.81a21.77,21.77,0,0,0,0-2.68,2.57,2.57,0,0,0-2.63-2.23q-3.84,0-7.66,0a1,1,0,0,1-1-.51A.88.88,0,0,1,50.3,1.5c1,0,2,0,3,0,1.53,0,3.06,0,4.59,0a4.41,4.41,0,0,1,4.63,3.62s.06.1.08.15V26a2.74,2.74,0,0,1-.58.45c-.65.27-1.18-.22-1.18-1.06,0-4.89,0-9.79,0-14.68v-.68H41.56v9.2h7.49c-.64-.6-1.17-1.07-1.66-1.57a.87.87,0,1,1,1.24-1.23c1,1,2.07,2,3.09,3.08a.83.83,0,0,1,0,1.26q-1.55,1.59-3.13,3.13a.87.87,0,1,1-1.18-1.29L49,21.11H41.56V32H60.85c0-.75,0-1.45,0-2.16A.86.86,0,0,1,62,29a2.5,2.5,0,0,1,.58.46Zm-39,7.78c-1.46,0-2.86,0-4.25,0a.66.66,0,0,0-.46.36,2.78,2.78,0,0,1-2.73,1.86q-2.42,0-4.83,0A2.56,2.56,0,0,1,9,44.73a3.52,3.52,0,0,1-.11-3.65,2.78,2.78,0,0,1,2.95-1.39.88.88,0,0,1,.05,1.75c-.21,0-.43,0-.65,0a1,1,0,0,0-1,.93,3.75,3.75,0,0,0,0,.82,1,1,0,0,0,1,1c1.65,0,3.3,0,4.95,0a1.24,1.24,0,0,0,.85-.5A1.4,1.4,0,0,0,16,41.45a.88.88,0,0,1-.89-.9.86.86,0,0,1,.91-.86,2.73,2.73,0,0,1,2.85,1.84.51.51,0,0,0,.58.41c1.26,0,2.51,0,3.77,0a1.84,1.84,0,0,0,.36,0V32.4H4.07V54.16H23.58Zm0-13.12a25.31,25.31,0,0,0,0-2.62A2.56,2.56,0,0,0,21,25.67q-7.21,0-14.43,0a2.42,2.42,0,0,0-2.39,1.77A23.08,23.08,0,0,0,4,30.58ZM41.52,33.8V35a2.67,2.67,0,0,0,2.89,2.9H58a3.25,3.25,0,0,0,.76-.06c1.81-.45,2.42-2,2-4.06Z"/><path class="cls-2" d="M51.12,6.45H48.3c-.62,0-1-.33-1-.84a.88.88,0,0,1,1-.92c1.9,0,3.81,0,5.71,0a.88.88,0,0,1,1,.87c0,.55-.37.88-1,.89Z"/><path class="cls-2" d="M13.73,28.84c-.92,0-1.84,0-2.76,0-.68,0-1.07-.34-1.07-.89s.38-.87,1.08-.87h5.59c.68,0,1.08.33,1.07.88s-.4.88-1.09.88C15.61,28.85,14.67,28.84,13.73,28.84Z"/></svg>