<svg id="Layer_1" data-name="Layer 1" xmlns="http://www.w3.org/2000/svg" viewBox="0 0 65 65"><defs><style>.cls-1{fill:blue;}</style></defs><path class="cls-1" d="M33.26,50.5l3.93,3.92a1.62,1.62,0,0,1-.88,2.81l-.6.1L15.33,60a1.65,1.65,0,0,1-2-1.85q1.37-10.5,2.76-21a1.64,1.64,0,0,1,2.93-1c1.22,1.24,2.45,2.47,3.88,3.9a5.65,5.65,0,0,1,.52-.81q8.76-8.78,17.55-17.54c1.15-1.16,1.9-1.16,3.06,0,.73.73,1.44,1.47,2.32,2.37l2.1-15.92L32.49,10.3l2.4,2.35c1.11,1.12,1.11,1.89,0,3L23,27.52,25.49,30c.34.34.69.67,1,1a1.61,1.61,0,1,1-2.29,2.26c-1.08-1-2.11-2.09-3.17-3.15l-1.23-1.22a1.69,1.69,0,0,1,0-2.75L31.18,14.79a7.08,7.08,0,0,1,.75-.54l-3.88-3.86c-.71-.72-.87-1.61-.27-2.22a2.75,2.75,0,0,1,1.44-.7c2.79-.41,5.59-.75,8.39-1.12,4-.53,8.09-1,12.14-1.6,1.45-.19,2.29.6,2.1,2L49.12,27.55A1.64,1.64,0,0,1,48,29.08a1.66,1.66,0,0,1-1.83-.58c-1.2-1.22-2.41-2.43-3.85-3.88a4.23,4.23,0,0,1-.49.82q-8.75,8.76-17.5,17.49c-1.23,1.24-1.95,1.25-3.17,0l-2.28-2.34c-.71,5.41-1.4,10.61-2.09,15.93l15.9-2.09L30.3,52.11c-1.15-1.15-1.14-1.89,0-3.06L41.51,37.87c.19-.19.42-.35.7-.58l-3-3a6.5,6.5,0,0,1-.57-.6,1.57,1.57,0,0,1,.07-2.19,1.51,1.51,0,0,1,2.12-.12c1.66,1.59,3.29,3.21,4.87,4.87a1.5,1.5,0,0,1-.18,2.23c-1.18,1.21-2.38,2.4-3.58,3.59C39.26,44.69,36.63,47.33,34,50A5.86,5.86,0,0,1,33.26,50.5Z"/></svg>