<svg id="Layer_1" data-name="Layer 1" xmlns="http://www.w3.org/2000/svg" viewBox="0 0 65 65"><defs><style>.cls-1{fill:#190f2d;}</style></defs><path class="cls-1" d="M40.28,6.27H17.48a3.86,3.86,0,0,0-4.21,4.19v43a3.86,3.86,0,0,0,4.21,4.19c5.26,0,10.53,0,15.79,0a5.91,5.91,0,0,1,.6,0A1.26,1.26,0,0,1,35.11,59a1.27,1.27,0,0,1-1.25,1.28h-.31c-5.42,0-10.85,0-16.27,0a6.41,6.41,0,0,1-6.48-5.35,7.63,7.63,0,0,1-.09-1.26q0-21.68,0-43.35a6.36,6.36,0,0,1,5-6.47,9.14,9.14,0,0,1,1.73-.17H39.14A6.86,6.86,0,0,1,44.27,5.8C47,8.54,49.67,11.25,52.38,14a6.61,6.61,0,0,1,2,4.86q0,8.38,0,16.76a2.38,2.38,0,0,1-.08.71,1.27,1.27,0,0,1-1.28.83A1.3,1.3,0,0,1,51.87,36a4.85,4.85,0,0,1,0-.66V19.14c0-.24,0-.48,0-.72,0-.42-.16-.59-.61-.59-2.23,0-4.46,0-6.69,0a3.9,3.9,0,0,1-4.26-4.27V6.27Zm9.48,9L42.84,8.41c0,1.72,0,3.6,0,5.49A1.19,1.19,0,0,0,44,15.22C45.93,15.26,47.89,15.23,49.76,15.23Z"/><path class="cls-1" d="M41.58,34.48a11.62,11.62,0,0,1,10.69,16,.89.89,0,0,0,.23,1.17C54,53.07,55.44,54.55,56.9,56a3.85,3.85,0,1,1-5.42,5.45c-1.53-1.51-3.06-3-4.57-4.56a.63.63,0,0,0-.82-.15A11.59,11.59,0,1,1,40,34.62C40.54,34.56,41.06,34.53,41.58,34.48Zm9,11.67a9,9,0,1,0-9,9A9,9,0,0,0,50.55,46.15ZM48.92,55.2c1.49,1.51,3,3.07,4.56,4.62a1.2,1.2,0,0,0,.53.26,1.26,1.26,0,0,0,1.16-2.14c-1-1-2-2-3-3-.51-.51-1-1-1.45-1.49Z"/><path class="cls-1" d="M32.59,29.42h12.6c.93,0,1.46.44,1.5,1.2A1.28,1.28,0,0,1,45.58,32a4,4,0,0,1-.49,0H20c-1,0-1.58-.45-1.6-1.24a1.22,1.22,0,0,1,1.15-1.3,9,9,0,0,1,.9,0Z"/><path class="cls-1" d="M34.43,25.56H24.12c-.2,0-.4,0-.6,0a1.29,1.29,0,0,1,0-2.57,5,5,0,0,1,.55,0H44.88a5,5,0,0,1,.67,0,1.26,1.26,0,0,1,1.14,1.26,1.24,1.24,0,0,1-1.12,1.28,3.61,3.61,0,0,1-.66,0Z"/><path class="cls-1" d="M26.78,17.84c-2.27,0-4.54,0-6.81,0-.87,0-1.42-.39-1.52-1.06a1.25,1.25,0,0,1,1-1.48,2.47,2.47,0,0,1,.54-.05H33.55c.91,0,1.46.4,1.55,1.1.12.87-.46,1.48-1.46,1.49H26.78Z"/><path class="cls-1" d="M23.57,38.4H19.9c-.94,0-1.48-.49-1.47-1.29s.58-1.27,1.51-1.27h7.28a1.31,1.31,0,0,1,1.48,1.3,1.3,1.3,0,0,1-1.46,1.26Z"/><path class="cls-1" d="M22.91,48.71c1,0,2.05,0,3.07,0s1.43.5,1.42,1.28A1.28,1.28,0,0,1,26,51.27H19.88A1.29,1.29,0,0,1,18.43,50c0-.78.52-1.27,1.41-1.28S21.89,48.71,22.91,48.71Z"/><path class="cls-1" d="M22.26,42.26h2.35c.92,0,1.51.51,1.52,1.28a1.33,1.33,0,0,1-1.49,1.31H19.88a1.3,1.3,0,0,1-1.45-1.28c0-.79.55-1.29,1.47-1.31Z"/><path class="cls-1" d="M35.14,46.38a1.29,1.29,0,0,1,1.19-1.51,1.23,1.23,0,0,1,1.37,1.32A3.93,3.93,0,0,0,41.53,50a1.24,1.24,0,0,1,1.3,1.4,1.3,1.3,0,0,1-1.55,1.16A6.44,6.44,0,0,1,35.14,46.38Z"/></svg>