<svg id="Layer_1" data-name="Layer 1" xmlns="http://www.w3.org/2000/svg" viewBox="0 0 65 65"><defs><style>.cls-1{fill:#190f2d;}</style></defs><path class="cls-1" d="M48.72,45l-2.3,1.11a7.24,7.24,0,0,1-5.33,7.61,17.72,17.72,0,0,1,0,1.93,5.77,5.77,0,0,1-5,5.12,7.48,7.48,0,0,1-7.71-2.61c-.15.15-.28.29-.41.44-3,3.44-8.2,2.63-10.4.77a5.54,5.54,0,0,1-2-5c0-.17,0-.33.06-.5a.24.24,0,0,0,0-.13A7.28,7.28,0,0,1,10.24,46,7.17,7.17,0,0,1,5.5,36.54c-3-1.81-4.38-4.42-3.65-7.88.65-3.08,2.74-4.84,5.86-5.54A7,7,0,0,1,7,15.26a7,7,0,0,1,6.87-3.8c.18-4,2-6.8,5.89-7.87,3.53-1,6.4.31,8.61,3.17,2.32-3,5.33-4.23,9-3.07s5.36,3.93,5.52,7.76a7,7,0,0,1,6.88,3.82c1.44,2.7,1,5.34-.75,7.83A7.3,7.3,0,0,1,55,29.88,8.93,8.93,0,0,1,61.5,32.5,8.76,8.76,0,0,1,64,37.18,8.93,8.93,0,0,1,48.72,45ZM14.46,26c.21-.54.36-1,.56-1.47a6,6,0,0,1,4.09-3.72c.44-.11.89-.11,1,.43s-.28.64-.69.78a5,5,0,0,0-1.46.66,6.51,6.51,0,0,0-2.39,4.24c0,.14.1.34.18.49a11.2,11.2,0,0,1,1,1.85,22.73,22.73,0,0,1,.64,3c.07.38-.16.71-.55.65-.24,0-.46-.33-.62-.55s0-.32-.07-.48a7.06,7.06,0,0,0-2-4.36,11.37,11.37,0,0,0-4.51-2.93,3.1,3.1,0,0,0-1.21-.19A5.86,5.86,0,0,0,6.19,35.46c.85.42.89.52.52,1.38a5.9,5.9,0,0,0,4,8c.82.2.89.28.8,1.1a5.84,5.84,0,0,0,1.26,4.5,5.73,5.73,0,0,0,3.34,2.05c.86.18,1,.34.78,1.19,0,.18-.08.36-.11.55a4.38,4.38,0,0,0,2.63,4.83,7.39,7.39,0,0,0,3.34.62,5.73,5.73,0,0,0,4.74-2.6,1.39,1.39,0,0,0,.24-.74c0-8.08-.05-16.16,0-24.24a6,6,0,0,0-3.54-5.74l-.39-.21c-.4-.19-.68-.47-.43-.93s.62-.4,1-.15c1,.7,2,1.43,3,2.15.12.09.22.19.36.31a.92.92,0,0,0,0-.2q0-9.36,0-18.74a1.91,1.91,0,0,0-.23-.76,6.63,6.63,0,0,0-12.38,3.36.63.63,0,0,0,.46.68,7.6,7.6,0,0,1,2.91,2,5.35,5.35,0,0,1,1.44,3.5c0,.39-.15.66-.55.7s-.6-.21-.65-.6a2.91,2.91,0,0,1,0-.31,4.38,4.38,0,0,0-1-2.38,5.85,5.85,0,0,0-9.31,7.06,3.73,3.73,0,0,0,1.35,1.33A16.77,16.77,0,0,1,14.46,26ZM29,30.15c.92,0,1.79,0,2.66,0a1.38,1.38,0,0,0,.84-.37c.91-.92,1.76-1.9,2.67-2.81a1.72,1.72,0,0,1,1-.43,13.64,13.64,0,0,1,2.12,0,.8.8,0,0,0,1-.66,2.61,2.61,0,0,1,2.69-1.72,2.71,2.71,0,0,1,1,5.14,2.41,2.41,0,0,1-3.14-.64c-.58-1-1.32-.95-2.18-.91a7.45,7.45,0,0,0-1.06,0,1.38,1.38,0,0,0-.74.32c-.84.85-1.66,1.71-2.43,2.61a1.81,1.81,0,0,1-1.62.7c-.9-.05-1.81,0-2.71,0v4.1c1.33,0,2.59,0,3.86,0a1.42,1.42,0,0,1,.89.41,12.58,12.58,0,0,1,1.56,1.87,2.75,2.75,0,0,0,3,1.42c.46-.07.75-.1,1-.61a2.63,2.63,0,0,1,3-1.46,2.72,2.72,0,0,1,.35,5.21,2.44,2.44,0,0,1-3.06-1c-.46-1-1.12-1-2-1a4.2,4.2,0,0,1-1.12,0,1.68,1.68,0,0,1-.89-.42C34.75,39,34,38,33.17,37.07c-.13-.15-.31-.35-.48-.35-1.22,0-2.44,0-3.67,0v7.36c1.2,0,2.36,0,3.52,0a1.33,1.33,0,0,1,1.17.56c.7.9,1.44,1.78,2.18,2.65a1,1,0,0,0,.55.32c.7,0,1.41,0,2.1,0,.75-1.57,1.83-2.24,3.12-2a2.62,2.62,0,0,1,.06,5.12c-1.32.32-2.39-.31-3.18-1.93-.77,0-1.57.05-2.35,0a1.53,1.53,0,0,1-.95-.44c-.79-.88-1.52-1.82-2.29-2.72-.12-.15-.31-.35-.47-.35-1.14,0-2.29,0-3.46,0,0,.22,0,.39,0,.55,0,3.54,0,7.08,0,10.62a1.55,1.55,0,0,0,.29.85,6,6,0,0,0,6.4,2.22c3.29-.65,4.67-2.77,4-6-.12-.61.15-.83.68-1a5.82,5.82,0,0,0,4.74-6.66.82.82,0,0,1,.71-1c.72-.22,1.41-.54,2.14-.83-.13-.21-.17-.29-.21-.36a8.86,8.86,0,0,1,5.59-13.53c.46-.11.44-.35.39-.67a5.9,5.9,0,0,0-1.94-3.67,5.73,5.73,0,0,0-4.07-1.46c-.63,0-1-.26-.89-.67a1.62,1.62,0,0,1,.5-.67,5.89,5.89,0,0,0-4.41-10.27c-1.43.11-1.43.11-1.38-1.33A6.64,6.64,0,0,0,29.88,6.81a3.07,3.07,0,0,0-.95,2.53,9.53,9.53,0,0,1,0,1.31v2l.16.15c.72-1.55,2-1.26,3.28-1.26.23,0,.46,0,.68,0,.47.06.71-.09.91-.57a2.76,2.76,0,0,1,3.87-1.36,2.8,2.8,0,0,1,1,4,2.69,2.69,0,0,1-2.47,1.31A2.61,2.61,0,0,1,34,13.32c-.19-.45-.43-.61-.88-.54a1.62,1.62,0,0,1-.44,0,3.1,3.1,0,0,0-3.36,1.42,1.87,1.87,0,0,0-.37.93c0,1.89,0,3.79,0,5.68,0,.2,0,.4.05.64.55,0,1.06,0,1.55,0a1.36,1.36,0,0,0,1.5-.72,3,3,0,0,1,3.47-1.61c.41.07.65-.07.85-.5a2.62,2.62,0,0,1,3.74-1.2,2.68,2.68,0,0,1-1.06,5,2.59,2.59,0,0,1-2.68-1.53c-.2-.45-.45-.5-.88-.55A2.24,2.24,0,0,0,33,21.51a2,2,0,0,1-.56.66,2.16,2.16,0,0,1-1,.48c-.8.07-1.61,0-2.46,0Zm33.9,8.67a7.69,7.69,0,1,0-7.73,7.66A7.71,7.71,0,0,0,62.89,38.82Z"/><path class="cls-1" d="M20.42,42.17c1,.49,2,.89,2.92,1.45a5.59,5.59,0,0,1,2.6,3.52c0,.14.06.28.08.43,0,.39-.15.71-.53.68a.86.86,0,0,1-.65-.5C24.17,44.92,22,44,19.48,43.38a1,1,0,0,0-.65.24,8.89,8.89,0,0,1-5,1.75c-.43,0-.78-.09-.81-.57s.33-.63.74-.66c3.87-.23,6.15-2.57,7.75-5.82a19.85,19.85,0,0,0,.79-2c.14-.4.31-.78.82-.63s.48.6.34,1A15.27,15.27,0,0,1,20.42,42.17Z"/><path class="cls-1" d="M53.89,39.45H51.51v2.71c0,.44-.07.83-.6.83s-.63-.38-.63-.82c0-1.71,0-3.41,0-5.12a2.42,2.42,0,1,1,4.83,0c0,1.69,0,3.38,0,5.06,0,.44-.07.84-.61.84s-.63-.42-.63-.87Zm0-1.27c-.07-.82.27-1.68-.6-2.2a1.06,1.06,0,0,0-1.33.11c-.69.59-.39,1.35-.44,2.09Z"/><path class="cls-1" d="M57.57,35.84a6.28,6.28,0,0,1-.64,0c-.38,0-.68-.27-.57-.65a.87.87,0,0,1,.61-.54c.82-.06,1.66,0,2.49,0,.4,0,.7.21.63.59,0,.23-.33.46-.57.61s-.4,0-.64.06v5.92l.62,0c.39,0,.68.25.59.62a.83.83,0,0,1-.6.55,16.7,16.7,0,0,1-2.55,0,.81.81,0,0,1-.57-.56c0-.19.31-.45.54-.59s.41,0,.66-.06Z"/></svg>