<svg id="Layer_1" data-name="Layer 1" xmlns="http://www.w3.org/2000/svg" viewBox="0 0 65 65"><defs><style>.cls-1{fill:#190f2d;}</style></defs><path class="cls-1" d="M57.16,62.55a1.48,1.48,0,0,1-.62-1.39q0-13.24,0-26.5c0-1.13.28-1.4,1.43-1.4,1.33,0,2.65,0,4,0a1.62,1.62,0,0,1,1.47.6v28.7Zm4.29-2V35.23H58.51V60.59Z"/><path class="cls-1" d="M38.83,62.55a1.33,1.33,0,0,1-.66-1.3q0-10.39,0-20.79c0-1,.29-1.31,1.34-1.31h4.21c1,0,1.33.29,1.33,1.32q0,7.8,0,15.6c0,1.71,0,3.42,0,5.13a1.33,1.33,0,0,1-.68,1.35Zm4.25-2V41.11H40.14V60.59Z"/><path class="cls-1" d="M48,62.55a1.39,1.39,0,0,1-.63-1.32c0-5.64,0-11.29,0-16.93,0-1,.27-1.32,1.31-1.33H53c.9,0,1.23.33,1.23,1.25,0,5.68,0,11.36,0,17.05a1.26,1.26,0,0,1-.71,1.27Zm4.29-2V45h-3V60.59Z"/><path class="cls-1" d="M29.66,62.55a1.33,1.33,0,0,1-.7-1.34c0-3.5,0-7,0-10.48,0-1,.3-1.33,1.33-1.33h4.39c.81,0,1.15.32,1.16,1.12,0,3.63,0,7.27,0,10.9a1.28,1.28,0,0,1-.65,1.13Zm1.27-2h3V51.38h-3Z"/><path class="cls-1" d="M1.69,14.48c0-3,0-5.91,0-8.86A3,3,0,0,1,3.15,2.91,11.33,11.33,0,0,1,7.36,1.36a28.74,28.74,0,0,1,13.76.54,10.79,10.79,0,0,1,2.6,1.32,2.5,2.5,0,0,1,1.09,2.23q0,9,0,18A2.91,2.91,0,0,1,23.49,26a9.62,9.62,0,0,1-3.85,1.46A31.85,31.85,0,0,1,5.73,27.2a10.78,10.78,0,0,1-2.64-1.13,2.77,2.77,0,0,1-1.41-2.61C1.71,20.46,1.69,17.47,1.69,14.48Zm1.93-.29c0,1,0,2,0,3a1.16,1.16,0,0,0,.68,1.22,12,12,0,0,0,2.23.87,29.68,29.68,0,0,0,12,.3A19.1,19.1,0,0,0,22,18.48c.35-.13.82-.54.84-.85.1-1.16,0-2.33,0-3.43A30.62,30.62,0,0,1,3.62,14.19Zm0,6.19c0,1,0,2,0,3a1.12,1.12,0,0,0,.65,1.18,16.42,16.42,0,0,0,2.58,1A30.25,30.25,0,0,0,18,25.82a22.57,22.57,0,0,0,3.91-1.11,1.51,1.51,0,0,0,.93-.92c.11-1.14,0-2.3,0-3.38A30.72,30.72,0,0,1,3.62,20.38ZM3.62,8c0,1,0,2,0,3a1.11,1.11,0,0,0,.66,1.17,14.46,14.46,0,0,0,2.46.94,29.75,29.75,0,0,0,11.55.29,22.15,22.15,0,0,0,3.63-1.06c.37-.13.87-.54.9-.87.11-1.16,0-2.34,0-3.45A29.41,29.41,0,0,1,3.62,8Zm10.59-.37c1-.11,2.9-.23,4.79-.57a12,12,0,0,0,3.15-1.13c.94-.46.91-.9,0-1.44a7.67,7.67,0,0,0-1.36-.64,19.44,19.44,0,0,0-5.6-1,24.35,24.35,0,0,0-9.52,1A8.61,8.61,0,0,0,4,4.75c-.44.27-.4.64,0,.9a8.35,8.35,0,0,0,1.53.82C8,7.44,10.62,7.53,14.21,7.61Z"/><path class="cls-1" d="M52.21,27l3-3.81c.19-.24.37-.48.56-.71.46-.55,1-.65,1.47-.26a1,1,0,0,1,0,1.45c-1.21,1.55-2.44,3.09-3.66,4.63-.54.7-1.09,1.4-1.64,2.08a1,1,0,0,1-1.75,0L45,23.63A1,1,0,0,1,45,22.14c.47-.36,1-.25,1.46.32l3.32,4.21c.08.1.17.2.35.39,0-2.19.05-4.25,0-6.31a8.66,8.66,0,0,0-.48-2.58A7.12,7.12,0,0,0,43,13.47c-3.88,0-7.76,0-11.63,0a2.21,2.21,0,0,1-.77-.1.86.86,0,0,1-.59-1,.9.9,0,0,1,.77-.81,2.44,2.44,0,0,1,.54,0H42.79a9.18,9.18,0,0,1,9.3,9.28c0,2,0,4.05,0,6.08Z"/><path class="cls-1" d="M12.16,33.91l-2,2.58c-.4.51-.78,1-1.2,1.51a1,1,0,0,1-1.38.25,1,1,0,0,1-.12-1.43c1.66-2.13,3.32-4.24,5-6.35a1,1,0,0,1,1.66,0c1.67,2.09,3.32,4.19,5,6.3A1,1,0,0,1,19,38.23,1,1,0,0,1,17.55,38c-.91-1.13-1.8-2.27-2.69-3.4l-.6-.75c0,.29,0,.45,0,.62,0,4.64,0,9.29,0,13.93a6.68,6.68,0,0,0,6.92,6.91h4.34c.78,0,1.19.35,1.19,1s-.43,1-1.2,1c-1.87,0-3.75.07-5.6-.1a8.47,8.47,0,0,1-7.57-8.25c0-4.83,0-9.65,0-14.47V34Z"/></svg>