<svg id="Layer_1" data-name="Layer 1" xmlns="http://www.w3.org/2000/svg" viewBox="0 0 65 65"><defs><style>.cls-1{fill:blue;}.cls-2{fill:#f3f945;}</style></defs><path class="cls-1" d="M11.82,40c1.62-.78,3.22-1.52,4.78-2.32a15,15,0,0,1,9.1-1.39c2.85.39,5.71.74,8.58,1a12.1,12.1,0,0,0,2.84-.37c1.15-.18,2.29-.37,3.43-.57a5.06,5.06,0,0,1,3.37.57.66.66,0,0,0,.8-.06c1.1-.73,2.21-1.44,3.32-2.16a5.13,5.13,0,0,1,6.34.3l.21.14a5.22,5.22,0,0,1,4-.47A5.05,5.05,0,0,1,61,36.08a2.33,2.33,0,0,1-.38,3.8L48.69,48.31a12.81,12.81,0,0,1-5,2.26c-1.39.26-2.81.39-4.22.52-4.66.42-9.33.74-14,1.25a42.32,42.32,0,0,0-5.12,1.23l-.83.22a8.1,8.1,0,0,1,.15,1.44,2.33,2.33,0,0,1-1.26,2c-1.13.64-2.26,1.28-3.41,1.88a2.49,2.49,0,0,1-3.47-1q-4-7.16-7.89-14.35a2.48,2.48,0,0,1,1-3.42c1-.59,2.1-1.16,3.16-1.73a2.55,2.55,0,0,1,3.81,1.06Zm.74,1.27a2.21,2.21,0,0,0,.08.26q2.92,5.31,5.84,10.63c.16.3.33.28.63.22,2.61-.54,5.14-1.48,7.84-1.67,4.39-.33,8.77-.79,13.16-1.12a14.18,14.18,0,0,0,7.31-2.19Q53.61,43,59.77,38.62c.63-.45.67-.87.18-1.45a3.7,3.7,0,0,0-4.75-.69c-2.1,1.35-4.21,2.7-6.29,4.09A10.27,10.27,0,0,1,45.78,42a10.83,10.83,0,0,0-2.51.95,14.34,14.34,0,0,1-8.91,2c-.69-.07-1.4,0-2.1,0s-1-.6-.7-1.05a1.24,1.24,0,0,1,.9-.42c1.82,0,3.64,0,5.46,0a4,4,0,0,0,1.5-.32c1.67-.74,3.3-1.53,4.95-2.3.64-.3.72-.58.37-1.18a3.91,3.91,0,0,0-4.18-1.82c-1.05.18-2.09.38-3.14.55a13.12,13.12,0,0,1-3,.4c-2.75-.21-5.48-.59-8.22-.92a16,16,0,0,0-5.73,0C17.62,38.5,15.23,40.13,12.56,41.24Zm5.77,13.89c-.16-.38-.24-.63-.36-.86q-3.81-6.93-7.63-13.87a1.12,1.12,0,0,0-1.78-.53L5.67,41.46c-.93.52-1.06,1-.54,1.9Q7,46.84,9,50.3l3.78,6.88a1.09,1.09,0,0,0,1.74.52c1-.55,2-1.08,3-1.69A4.09,4.09,0,0,0,18.33,55.13ZM53.23,36a3.29,3.29,0,0,0-3.51-.51c-1.46.76-2.82,1.7-4.15,2.52l1.07,2.26Z"/><path class="cls-2" d="M42.71,21v6.19c0,1.24-.13,1.38-1.37,1.38H36.13c.15.53.3,1,.4,1.45A3.63,3.63,0,0,1,35,33.88a3.68,3.68,0,0,1-4.13,0A3.63,3.63,0,0,1,29.42,30c.1-.45.25-.88.4-1.4l-.67,0H22.48c-.93,0-1.13-.21-1.13-1.12V20.33c0-1,.36-1.23,1.28-.94.57.18,1.14.38,1.71.55a2.17,2.17,0,1,0,0-4.08c-.63.19-1.26.41-1.89.6s-1.1-.09-1.11-.82c0-2.52,0-5,0-7.56,0-.6.24-.85.84-.85q4.26,0,8.52,0c.73,0,1,.4.8,1.11s-.4,1.25-.59,1.88a2.18,2.18,0,0,0,3.31,2.51A2.19,2.19,0,0,0,35,10.22c-.19-.63-.41-1.26-.6-1.89s.08-1.1.81-1.1c2.16,0,4.32,0,6.48,0,.78,0,1,.21,1,1v6.5l1.15-.32a3.65,3.65,0,1,1,0,7C43.51,21.29,43.16,21.17,42.71,21Zm-19.85,6,.41,0h7.38c.8,0,1.09.4.86,1.16-.19.61-.39,1.22-.58,1.83a2.18,2.18,0,1,0,4.09,0c-.18-.59-.37-1.18-.56-1.77-.27-.88,0-1.24.93-1.25h5.82v-.75q0-3.06,0-6.13c0-.79.4-1.08,1.16-.85s1.29.43,1.94.61a2.17,2.17,0,0,0,2.44-.84,2.24,2.24,0,0,0,0-2.49,2.16,2.16,0,0,0-2.45-.8c-.61.18-1.22.38-1.83.57-.87.27-1.24,0-1.25-.93V9.35c0-.21,0-.42,0-.63h-5a12.78,12.78,0,0,1,.45,1.93,3.44,3.44,0,0,1-1.86,3.5,3.43,3.43,0,0,1-4-.3,3.46,3.46,0,0,1-1.33-3.72c.11-.47.26-.92.39-1.39H22.86v6c.52-.15,1-.31,1.48-.41a3.63,3.63,0,0,1,3.81,1.56A3.7,3.7,0,0,1,28.08,20a3.63,3.63,0,0,1-3.87,1.43c-.44-.11-.87-.25-1.35-.39Z"/></svg>