<svg id="Layer_1" data-name="Layer 1" xmlns="http://www.w3.org/2000/svg" viewBox="0 0 65 65"><defs><style>.cls-1{fill:#190f2d;}</style></defs><path class="cls-1" d="M57.1,60.5c0-1.25,0-2.42,0-3.6a.9.9,0,0,1,.57-.95.87.87,0,0,1,1.21.84c0,1.29,0,2.59,0,3.89a1.66,1.66,0,0,1-1.74,1.61H9.89a7.38,7.38,0,0,1-7.63-7.63q0-15.6,0-31.2A7.4,7.4,0,0,1,8.46,16a11.9,11.9,0,0,1,2.39-.07,1.29,1.29,0,0,1,1.25,1.35c0,.36,0,.72,0,1.08s0,.71,0,1.13l.67,0h7.67c.7,0,1.14.42,1.06,1s-.46.8-1.14.8H12.1a15.54,15.54,0,0,1,0,2.56c-.17,1,.76,2.29-.85,2.81-1.65-.52-.81-1.88-.88-2.85-.14-1.8,0-3.63,0-5.44v-.63a5.56,5.56,0,0,0-6.13,4.4,5.93,5.93,0,0,0-.12,1.19q0,13.14,0,26.29c0,.09,0,.19,0,.42a7.86,7.86,0,0,1,6.24-2.57V30.13a2.88,2.88,0,0,1,0-.72.82.82,0,0,1,.91-.68.81.81,0,0,1,.82.8,4.82,4.82,0,0,1,0,.54c0,5.78,0,11.57,0,17.36,0,1.41-.45,1.9-1.86,1.85a5.86,5.86,0,0,0-6,4.18,5.62,5.62,0,0,0,5.16,7H57.1Z"/><path class="cls-1" d="M32.09,25.34H34.6c0-.06.07-.09.07-.12a5.11,5.11,0,0,1,1-3.35c.86-1.44,1.65-2.92,2.5-4.36a9.45,9.45,0,0,0,1.28-3.83c.08-.75.46-1.09,1.05-1s.78.52.72,1.24a10.48,10.48,0,0,1-1.39,4.28c-1.05,1.84-2.12,3.66-3.11,5.53a2,2,0,0,0,.14,2.36c.57.68.61,3.37,0,4a8.46,8.46,0,0,1-1.61,1A4.1,4.1,0,0,1,31,34.72c-2,0-3.49-1.43-4-3.8l-.5-.1A1.81,1.81,0,0,1,25,29.11a11.9,11.9,0,0,1,0-2,2.52,2.52,0,0,1,.42-1.08,2.31,2.31,0,0,0,.17-2.22C24.55,21.88,23.43,20,22.35,18a10.13,10.13,0,1,1,18.2-8.79.94.94,0,0,1-.4,1.33c-.51.23-1,0-1.26-.65a8.34,8.34,0,0,0-16.07,3.24A8.44,8.44,0,0,0,24,17.23c1,1.8,2,3.61,3.08,5.4a3.64,3.64,0,0,1,.59,2.21,2.23,2.23,0,0,0,0,.5h2.54a2.27,2.27,0,0,0,.05-.35c0-2.09,0-4.19,0-6.29a1.12,1.12,0,0,0-.33-.7c-1.33-1.35-2.69-2.67-4-4a1.44,1.44,0,0,1,0-2.33c.33-.34.67-.67,1-1,1.09-1.09,1.53-1.12,2.76-.15a1.83,1.83,0,0,1,3,0l.41-.35a1.34,1.34,0,0,1,1.9,0c.53.48,1,1,1.53,1.52a1.39,1.39,0,0,1,0,2.2q-2,2-4,3.95a1.24,1.24,0,0,0-.42,1c0,2,0,3.91,0,5.87C32.06,24.92,32.08,25.12,32.09,25.34ZM27.42,12.75l3.69,3.86,3.77-3.8-.94-1c-1,1.14-1.9.45-2.8-.25-.91.75-1.82,1.37-2.8.22ZM26.86,29h8.57V27.21H26.86Zm6.52,1.88H28.89a2.28,2.28,0,0,0,2.38,2A2.2,2.2,0,0,0,33.38,30.92Z"/><path class="cls-1" d="M57.1,21.31H42.17a2.9,2.9,0,0,1-.66,0,.89.89,0,0,1,.08-1.75,2.57,2.57,0,0,1,.48,0H56.8c1.48,0,2.1.62,2.1,2.11q0,10,0,19.94a2.46,2.46,0,0,1-.08.77.8.8,0,0,1-.94.55.81.81,0,0,1-.75-.73,4.85,4.85,0,0,1,0-.66V21.31Z"/><path class="cls-1" d="M63.59,51.38a1.51,1.51,0,0,0-.11.22,3.21,3.21,0,0,1-3.32,2.48q-14.07,0-28.14,0c-.17,0-.42,0-.52-.07s-.58-.57-.57-.85.35-.61.62-.81.51-.06.76-.06H50.89V46.53H23.6v5.76h3.23c.38,0,.76,0,1.14,0a.89.89,0,0,1,0,1.77,6.74,6.74,0,0,1-.78,0c-1.37,0-2.75,0-4.13,0a2.62,2.62,0,0,1-1.13-.28c-1.92-1-3.81-2.08-5.72-3.12a1.35,1.35,0,0,1,0-2.54C18.13,47.08,20,46,22,45a2.41,2.41,0,0,1,1-.26H60.12c1.76,0,2.67.72,3.47,2.71Zm-7,.89c1.31,0,2.57,0,3.82,0a1.36,1.36,0,0,0,1.33-1.42c0-.95,0-1.91,0-2.87a1.29,1.29,0,0,0-1.1-1.36c-1.34-.08-2.69,0-4,0Zm-1.87,0v-5.7h-2v5.7Zm-33-.6v-4.5L17.62,49.4Z"/><path class="cls-1" d="M34.15,38.2c4.63,0,9.26,0,13.9,0a3,3,0,1,0,0-6.08H39.88c-.2,0-.46.06-.59,0s-.66-.49-.69-.77.28-.63.51-.89.38-.11.57-.11c2.8,0,5.59,0,8.39,0A4.83,4.83,0,0,1,48.26,40c-1,0-2,0-3,0C37.12,40,29,40,20.83,40a3.49,3.49,0,0,0-3.74,3.75c.07,1-.29,1.41-.91,1.4s-.87-.45-.87-1.43a5.1,5.1,0,0,1,4.3-5.42,6.73,6.73,0,0,1,1.19-.07C25.25,38.19,29.7,38.2,34.15,38.2Z"/><path class="cls-1" d="M45.78,14.54c0,.77-.51,1.24-1.06,1.07A8.17,8.17,0,0,1,43.19,15a.79.79,0,0,1-.34-1.12.82.82,0,0,1,1.09-.46,7.91,7.91,0,0,1,1.36.6A1.91,1.91,0,0,1,45.78,14.54Z"/><path class="cls-1" d="M19.66,14.31c-.07.82-.92.82-1.49,1.14a1,1,0,0,1-1.27-.06A.85.85,0,0,1,17.06,14a7.9,7.9,0,0,1,1.52-.67A.88.88,0,0,1,19.66,14.31Z"/><path class="cls-1" d="M44.78,5.64c0,.77-1.72,1.74-2.39,1.36a.86.86,0,0,1-.15-1.41,5.84,5.84,0,0,1,1.39-.8A.86.86,0,0,1,44.78,5.64Z"/><path class="cls-1" d="M18.54,4.56A14,14,0,0,1,20.33,5.8c.16.14.11.75-.06,1a1.17,1.17,0,0,1-1,.27A2.94,2.94,0,0,1,18,6.29a1.26,1.26,0,0,1-.24-1C17.82,5,18.2,4.86,18.54,4.56Z"/></svg>