<svg id="Layer_1" data-name="Layer 1" xmlns="http://www.w3.org/2000/svg" viewBox="0 0 65 65"><defs><style>.cls-1{fill:blue;}.cls-2{fill:#f3f945;}</style></defs><path class="cls-1" d="M35.53,12.55a.92.92,0,0,0,0-1.32c-.41-.53-.74-1.11-1.13-1.64a.77.77,0,0,1,.13-1.15c1.12-1.1,2.24-2.21,3.33-3.34A.83.83,0,0,1,39.12,5c.59.42,1.19.83,1.81,1.2a1,1,0,0,0,.72.07,15.59,15.59,0,0,0,1.94-.81,1.08,1.08,0,0,0,.49-.6c.18-.7.31-1.41.43-2.13A.77.77,0,0,1,45.37,2C47,2,48.6,2,50.22,2a.77.77,0,0,1,.85.71c.13.71.24,1.43.43,2.13a1.07,1.07,0,0,0,.51.65,5.12,5.12,0,0,0,2.28.87c.71-.06,1.36-.79,2-1.23s.86-.51,1.53.15c1,1.06,2.09,2.12,3.16,3.16a.8.8,0,0,1,.11,1.24.86.86,0,0,0-.1.16c-.44.67-1.18,1.32-1.23,2a5.29,5.29,0,0,0,.87,2.28,1,1,0,0,0,.6.5c.7.18,1.42.3,2.13.42a.81.81,0,0,1,.77.93c0,1.57,0,3.15,0,4.72a.81.81,0,0,1-.77.93,21.67,21.67,0,0,0-2.13.42,1,1,0,0,0-.6.5,5.24,5.24,0,0,0-.87,2.28c.06.7.79,1.36,1.23,2s.52.86-.14,1.52c-1.06,1.06-2.12,2.1-3.16,3.17a.82.82,0,0,1-1.25.12c-.49-.37-1-.66-1.53-1.05a1.33,1.33,0,0,0-1.35-.13,2.77,2.77,0,0,0-2.42,2.95,1.5,1.5,0,0,1-.17.72c-.12.21-.35.49-.54.49-1.82,0-3.64,0-5.46,0a.53.53,0,0,1-.19,0c-1.82,3.08-3.66,6.1-5.41,9.16a15.56,15.56,0,0,0-1.94,7.49c-.05,1.87,0,3.73,0,5.59,0,.7-.19.89-.88.9H33.92c-.88,3-2.69,4.51-5.32,4.41a5.09,5.09,0,0,1-4.78-4.41h-2.5c-.91,0-1.05-.14-1.06-1,0-2.07,0-4.14-.07-6.21a16.67,16.67,0,0,0-2.6-8.06c-1.22-2-2.57-4-3.69-6.1-2.37-4.42-3.13-9.08-1.49-13.91,1.86-5.48,5.8-8.85,11.32-10.34a19.58,19.58,0,0,1,11.44.35Zm.65,38.64c0-.43.08-.79.11-1.16a16.39,16.39,0,0,1,2-6.85c1.19-2.11,2.54-4.12,3.71-6.24a38.53,38.53,0,0,0,2-4.38,1.38,1.38,0,0,0-.23-1.25c-1.36-.73-2.79-1.58-4.18,0a2.83,2.83,0,0,1-.45.32.87.87,0,0,1-1.35-.11c-1-1.06-2.07-2.09-3.11-3.13-.66-.66-.66-.73-.15-1.52s1.16-1.33,1.22-2a5.28,5.28,0,0,0-.85-2.29,1,1,0,0,0-.6-.5c-.72-.19-1.45-.3-2.19-.44a.74.74,0,0,1-.7-.85c0-1.61,0-3.23,0-4.84a.77.77,0,0,1,.75-.87c.66-.11,1.3-.29,2-.37a.9.9,0,0,0,.9-1c-.32-.1-.61-.21-.9-.29a18.74,18.74,0,0,0-8.42-.49,15,15,0,0,0-9.48,5.18c-3.59,4.34-4.19,9.26-2.59,14.54a28.25,28.25,0,0,0,3.57,6.79,24.79,24.79,0,0,1,3.63,7.43c.34,1.4.51,2.84.76,4.29h6.62v-.67c0-3.89,0-7.79,0-11.68a1.54,1.54,0,0,0-.41-1.11c-1.2-1.31-2.38-2.65-3.56-4-.28-.32-.4-.65-.05-1s.68-.18,1,.14l1.15,1.3L28.85,37l.7-.77,3-3.35c.29-.32.62-.45,1-.12s.23.63,0,.93l-.33.38c-1.1,1.23-2.21,2.46-3.29,3.72a1.56,1.56,0,0,0-.35.92c0,4,0,7.91,0,11.87,0,.2,0,.4,0,.62ZM62.91,20.44c0-1.34,0-2.62,0-3.9a.56.56,0,0,0-.34-.38c-.66-.16-1.33-.28-2-.4a1,1,0,0,1-.86-.68c-.38-1-.82-1.9-1.16-2.88a1.39,1.39,0,0,1,.1-1c.39-.7.88-1.34,1.3-2l-3-3c-.6.4-1.26.82-1.9,1.27a1,1,0,0,1-1.15.13c-.93-.41-1.87-.79-2.81-1.16a1,1,0,0,1-.69-.86c-.11-.66-.23-1.31-.39-1.95,0-.16-.22-.39-.33-.4-1.32,0-2.64,0-4,0-.16.83-.32,1.58-.45,2.34a1.06,1.06,0,0,1-.73.9c-.94.36-1.88.75-2.8,1.16a1,1,0,0,1-1.1-.12C40,7,39.27,6.61,38.73,6.24l-3,3c.39.59.87,1.22,1.25,1.9a1.45,1.45,0,0,1,.12,1,28.5,28.5,0,0,1-1.21,2.92,1.49,1.49,0,0,1-.81.64,12.34,12.34,0,0,1-1.94.39c-.35.05-.43.21-.43.53,0,1.12,0,2.24,0,3.35,0,.34.11.47.45.52a11.7,11.7,0,0,1,1.94.39,1.48,1.48,0,0,1,.8.65c.45.93.8,1.91,1.21,2.85a1,1,0,0,1-.12,1.1c-.46.65-.89,1.33-1.25,1.87l3,3c.57-.38,1.23-.79,1.84-1.24a1.09,1.09,0,0,1,1.21-.12c.87.39,1.74.77,2.64,1.09a1.24,1.24,0,0,1,.85,1.09c.11.73.28,1.45.43,2.19,1.32,0,2.58,0,3.84,0a.6.6,0,0,0,.43-.36c.17-.66.23-1.35.43-2a1.42,1.42,0,0,1,.64-.8c.93-.45,1.91-.79,2.85-1.21a1,1,0,0,1,1.1.11c.66.46,1.33.89,1.91,1.28l3-3c-.4-.59-.82-1.25-1.27-1.89a1,1,0,0,1-.12-1.09c.41-.93.8-1.86,1.16-2.81a1.05,1.05,0,0,1,.91-.72C61.32,20.76,62.07,20.6,62.91,20.44Zm-41.37,36H36.16v-4H21.54Zm3.61,1.32a3.7,3.7,0,0,0,3.94,3.12,3.57,3.57,0,0,0,3.42-3.12Z"/><path class="cls-2" d="M29.47,4.43c0,.79,0,1.57,0,2.36,0,.46-.11.87-.65.86s-.61-.39-.6-.83c0-1.59,0-3.18,0-4.77,0-.44.08-.82.6-.83s.65.4.64.86Z"/><path class="cls-2" d="M5.31,27.42H7.72c.43,0,.75.14.75.62s-.32.61-.71.61c-1.67,0-3.34,0-5,0-.42,0-.74-.19-.71-.67s.34-.57.74-.56Z"/><path class="cls-2" d="M11.3,17.45c0,.55-.5.85-.92.61q-2.3-1.27-4.55-2.65a.84.84,0,0,1-.19-.78c.12-.35.48-.43.83-.23,1.5.86,3,1.72,4.5,2.61C11.14,17.11,11.23,17.35,11.3,17.45Z"/><path class="cls-2" d="M15.91,4.72a2,2,0,0,1,.42.41C17.17,6.55,18,8,18.82,9.41c.21.37.24.74-.17,1s-.7,0-.91-.35c-.82-1.44-1.66-2.86-2.47-4.29A.64.64,0,0,1,15.91,4.72Z"/><path class="cls-2" d="M39,18.33a8.77,8.77,0,1,1,8.77,8.76A8.77,8.77,0,0,1,39,18.33Zm8.75,7.52a7.52,7.52,0,1,0-7.5-7.56A7.56,7.56,0,0,0,47.78,25.85Z"/></svg>