<svg id="Layer_1" data-name="Layer 1" xmlns="http://www.w3.org/2000/svg" viewBox="0 0 65 65"><defs><style>.cls-1{fill:blue;}.cls-2{fill:#f3f945;}</style></defs><path class="cls-1" d="M63.65,58.07c-.56.53-1.09,1.1-1.69,1.59-1.68,1.36-3.39,2.7-5.08,4.05a1.44,1.44,0,0,1-1.62.37,1.5,1.5,0,0,1-.8-1.53c0-.28,0-.57,0-.95h-10c-1.32,0-1.77-.45-1.77-1.76V55.48c0-1.31.42-1.74,1.71-1.74H54.47c0-.46,0-.86,0-1.26a1.31,1.31,0,0,1,.75-1.24,1.26,1.26,0,0,1,1.43.2c2.1,1.67,4.19,3.34,6.27,5a8.42,8.42,0,0,1,.72.74ZM45.35,59h.81c3,0,6,0,9,0,.9,0,1.68.12,2,1.2l3.11-2.49-3.1-2.48c-.3,1-1,1.19-1.93,1.18-3.07,0-6.13,0-9.2,0h-.66Z"/><path class="cls-1" d="M6,48.44v-2.5c-.32-.09-.62-.14-.9-.25a2.52,2.52,0,0,1-1.7-2.46q0-3.9,0-7.8a2.58,2.58,0,0,1,2.71-2.65H37.35a2.61,2.61,0,0,1,2.73,2.75V43a2.64,2.64,0,0,1-2.33,2.9,1.17,1.17,0,0,0-.25.08v2.52A2.66,2.66,0,0,1,40,50.55a3,3,0,0,1,.07.79c0,2.47,0,4.95,0,7.42a2.62,2.62,0,0,1-2.78,2.83H6.18a2.62,2.62,0,0,1-2.77-2.78c0-2.37,0-4.74,0-7.11C3.4,49.69,4.06,48.86,6,48.44Zm.07-13v7.77H37.43V35.42ZM37.43,51.14H6.09v7.78H37.43ZM8.67,48.44H34.78V45.93H8.67Z"/><path class="cls-1" d="M3.4,10.52c-.49,0-.88,0-1.26,0A1.28,1.28,0,0,1,1,9.75a1.27,1.27,0,0,1,.19-1.38C2.87,6.23,4.57,4.08,6.3,2a1.27,1.27,0,0,1,2.07,0c1.69,2.05,3.35,4.13,5,6.21.36.46.75.95.39,1.61a1.62,1.62,0,0,1-1.61.78c-.26,0-.53,0-.89,0v17.8c0,1.43-.39,1.83-1.81,1.83H5.28c-1.46,0-1.88-.41-1.88-1.85V10.52Zm5.25,17v-.75c0-5.62,0-11.24,0-16.87,0-.91.06-1.73,1.19-2L7.34,4.76,4.86,7.86c1,.3,1.19,1,1.19,1.89C6,15.43,6,21.11,6,26.8v.7Z"/><path class="cls-1" d="M11.28,40.63c-.45,0-.9,0-1.35,0a1.31,1.31,0,0,1-1.28-1.31A1.28,1.28,0,0,1,9.94,38q1.35,0,2.7,0a1.29,1.29,0,0,1,1.25,1.26,1.31,1.31,0,0,1-1.26,1.33C12.18,40.65,11.73,40.63,11.28,40.63Z"/><path class="cls-1" d="M33.62,38a1.26,1.26,0,0,1,1.2,1.34,1.3,1.3,0,0,1-1.38,1.25,1.33,1.33,0,0,1-1.21-1.36A1.29,1.29,0,0,1,33.62,38Z"/><path class="cls-1" d="M11.29,53.75c.45,0,.9,0,1.34,0a1.29,1.29,0,0,1,.06,2.58c-1,0-1.92.05-2.88,0a1.29,1.29,0,0,1,.07-2.57C10.34,53.73,10.82,53.75,11.29,53.75Z"/><path class="cls-1" d="M33.54,53.75A1.26,1.26,0,0,1,34.82,55a1.3,1.3,0,0,1-1.31,1.32,1.33,1.33,0,0,1-1.29-1.29A1.3,1.3,0,0,1,33.54,53.75Z"/><path class="cls-2" d="M63.65,20c-.45.79-1,1.1-1.59.95a1.28,1.28,0,0,1-1-1.29c0-.83,0-1.67,0-2.51a1.31,1.31,0,0,1,2.5-.6,1.34,1.34,0,0,0,.11.14Z"/><path class="cls-2" d="M16.88,1.35a1.52,1.52,0,0,1,.93,1.25A1.28,1.28,0,0,1,16.53,4C15.67,4,14.81,4,14,4a1.29,1.29,0,0,1-1.35-1,1.35,1.35,0,0,1,.74-1.47l.21-.12Z"/><path class="cls-2" d="M63.65,35.73c-.45.78-1,1.09-1.59,1a1.28,1.28,0,0,1-1-1.29c0-.84,0-1.68,0-2.51a1.31,1.31,0,0,1,2.5-.61,1.34,1.34,0,0,0,.11.14Z"/><path class="cls-2" d="M24.73,1.35a1.51,1.51,0,0,1,.94,1.25A1.29,1.29,0,0,1,24.38,4c-.85,0-1.71,0-2.57,0a1.28,1.28,0,0,1-1.34-1,1.33,1.33,0,0,1,.74-1.47l.21-.12Z"/><path class="cls-2" d="M63.65,43.58c-.45.79-1,1.1-1.59,1a1.28,1.28,0,0,1-1-1.29c0-.83,0-1.67,0-2.5a1.31,1.31,0,0,1,2.5-.61,1.34,1.34,0,0,0,.11.14Z"/><path class="cls-2" d="M32.59,1.35a1.53,1.53,0,0,1,.94,1.25A1.3,1.3,0,0,1,32.24,4c-.85,0-1.71,0-2.57,0a1.3,1.3,0,0,1-1.35-1,1.34,1.34,0,0,1,.75-1.47l.2-.12Z"/><path class="cls-2" d="M40.45,1.35a1.52,1.52,0,0,1,.93,1.25A1.28,1.28,0,0,1,40.1,4c-.86,0-1.71,0-2.57,0a1.29,1.29,0,0,1-1.35-1,1.35,1.35,0,0,1,.74-1.47l.21-.12Z"/><path class="cls-2" d="M63.65,51.44c-.45.79-1,1.1-1.59,1a1.28,1.28,0,0,1-1-1.29c0-.84,0-1.67,0-2.51a1.3,1.3,0,0,1,2.5-.6.69.69,0,0,0,.11.13Z"/><path class="cls-2" d="M48.3,1.35a1.51,1.51,0,0,1,.94,1.25A1.28,1.28,0,0,1,48,4c-.86,0-1.72,0-2.57,0a1.29,1.29,0,0,1-1.35-1,1.33,1.33,0,0,1,.74-1.47L45,1.35Z"/><path class="cls-2" d="M56.16,1.35A1.53,1.53,0,0,1,57.1,2.6,1.29,1.29,0,0,1,55.81,4C55,4,54.1,4,53.24,4a1.3,1.3,0,0,1-1.35-1,1.34,1.34,0,0,1,.75-1.47l.21-.12Z"/><path class="cls-2" d="M63.65,12.15c-.45.79-1,1.1-1.59,1a1.29,1.29,0,0,1-1-1.29c0-.84,0-1.68,0-2.51A1.29,1.29,0,0,1,62,8a1.27,1.27,0,0,1,1.5.75,1.34,1.34,0,0,0,.11.14Z"/><path class="cls-2" d="M63.65,27.87c-.45.78-1,1.09-1.59.95a1.28,1.28,0,0,1-1-1.29c0-.84,0-1.67,0-2.51a1.31,1.31,0,0,1,2.5-.61.53.53,0,0,0,.11.14Z"/><path class="cls-2" d="M63.65,4.3c-.6,1-1.59,1.35-2.2.58a7.67,7.67,0,0,0-1.33-1.34c-.77-.6-.46-1.6.58-2.19h2l1,1Z"/><path class="cls-2" d="M63.65,2.33l-1-1h1Z"/><path class="cls-2" d="M49.25,24.94c0,.43,0,.86,0,1.28a1.31,1.31,0,0,1-2.61,0c0-.87,0-1.75,0-2.63a1.27,1.27,0,0,1,1.3-1.27,1.29,1.29,0,0,1,1.31,1.27C49.28,24,49.25,24.49,49.25,24.94Z"/><path class="cls-2" d="M46.62,32.78c0-.43,0-.86,0-1.28A1.3,1.3,0,0,1,48,30.18a1.26,1.26,0,0,1,1.29,1.28c0,.87,0,1.76,0,2.63a1.31,1.31,0,0,1-2.61,0C46.6,33.64,46.62,33.21,46.62,32.78Z"/><path class="cls-2" d="M16.5,18.37c-.45,0-.9,0-1.35,0A1.28,1.28,0,0,1,13.91,17a1.24,1.24,0,0,1,1.23-1.27,25.23,25.23,0,0,1,2.75,0,1.25,1.25,0,0,1,1.22,1.29,1.26,1.26,0,0,1-1.2,1.3c-.47,0-.94,0-1.41,0Z"/><path class="cls-2" d="M24.42,18.38c-.45,0-.9,0-1.35,0A1.29,1.29,0,0,1,21.76,17a1.27,1.27,0,0,1,1.29-1.28q1.32-.06,2.64,0a1.31,1.31,0,0,1,0,2.61c-.42,0-.85,0-1.28,0Z"/><path class="cls-2" d="M32.21,18.37c-.45,0-.9,0-1.34,0A1.29,1.29,0,0,1,29.62,17a1.25,1.25,0,0,1,1.23-1.27,25.41,25.41,0,0,1,2.76,0,1.24,1.24,0,0,1,1.21,1.29,1.26,1.26,0,0,1-1.2,1.3c-.46,0-.94,0-1.41,0Z"/><path class="cls-2" d="M40.13,15.75c.43,0,.86,0,1.28,0a1.31,1.31,0,0,1,0,2.61,26.83,26.83,0,0,1-2.69,0A1.25,1.25,0,0,1,37.48,17a1.27,1.27,0,0,1,1.24-1.27c.47,0,.94,0,1.41,0Z"/><path class="cls-2" d="M46.62,40.6c0-.43,0-.86,0-1.29A1.28,1.28,0,0,1,47.93,38a1.25,1.25,0,0,1,1.31,1.26,26.82,26.82,0,0,1,0,2.69,1.26,1.26,0,0,1-1.32,1.25,1.29,1.29,0,0,1-1.28-1.3C46.6,41.5,46.62,41,46.62,40.6Z"/><path class="cls-2" d="M46.62,48.5c0-.43,0-.86,0-1.29A1.3,1.3,0,0,1,48,45.89a1.27,1.27,0,0,1,1.29,1.28q.06,1.32,0,2.64A1.26,1.26,0,0,1,48,51.09a1.28,1.28,0,0,1-1.32-1.31C46.6,49.36,46.62,48.93,46.62,48.5Z"/><path class="cls-2" d="M49.27,17.78a5.83,5.83,0,0,1-.07.84,1.24,1.24,0,0,1-1.13,1,1.36,1.36,0,0,1-1.37-.82,1.23,1.23,0,0,0-.52-.54,1.34,1.34,0,0,1-.84-1.36,1.2,1.2,0,0,1,1.08-1.15,8.05,8.05,0,0,1,1.7,0,1.2,1.2,0,0,1,1.1,1.13,6,6,0,0,1,0,.85Z"/></svg>