<svg id="Layer_1" data-name="Layer 1" xmlns="http://www.w3.org/2000/svg" viewBox="0 0 65 65"><defs><style>.cls-1{fill:#190f2d;}</style></defs><path class="cls-1" d="M3.77,21.31a5.34,5.34,0,0,1,1.95-3.18,4.68,4.68,0,0,1,2.85-1H26.48c.74,0,1.05.32,1.05,1.06q0,3.82,0,7.65c0,.72-.31,1-1,1H24A2.23,2.23,0,0,0,21.52,29a2.19,2.19,0,0,0,2.4,2.12c.85,0,1.7,0,2.55,0s1.06.31,1.06,1.06c0,2.08,0,4.17,0,6.25v.69H33.8v-2a3.9,3.9,0,0,1,3.88-4,4,4,0,0,1,3.88,4c0,.64,0,1.28,0,2h6.83c.89,0,1.17.27,1.17,1.17,0,5.82,0,11.63,0,17.44a4.85,4.85,0,0,1-4,5.06c-.06,0-.1.06-.15.09H7.94l-.37-.13A4.84,4.84,0,0,1,4.16,60c-.16-.38-.26-.8-.39-1.2Zm22,11.59c-.64,0-1.26,0-1.87,0a5.72,5.72,0,0,1-1.37-.18,3.85,3.85,0,0,1-2.72-4.09,3.94,3.94,0,0,1,3.75-3.46c.73,0,1.46,0,2.2,0V18.88H8.93a3.16,3.16,0,0,0-3.42,3.43V39.16h6.92c.78,0,1.08.3,1.09,1.08s0,1.81,0,2.72a2.21,2.21,0,0,0,2.16,2.21A2.17,2.17,0,0,0,17.79,43c0-.87,0-1.74,0-2.61s.28-1.17,1.17-1.17h6.81Zm0,28.29V54.4c0-.95.26-1.21,1.19-1.21h2.55a2.14,2.14,0,1,0,0-4.27H27c-.87,0-1.15-.28-1.15-1.14V40.94H19.53c0,.76,0,1.47,0,2.18a3.87,3.87,0,0,1-4.71,3.69,4,4,0,0,1-3-3.76c0-.71,0-1.41,0-2.12H5.51V57.74A3.17,3.17,0,0,0,9,61.19H25.8Zm1.75,0H44.39a3.16,3.16,0,0,0,3.43-3.42c0-5.41,0-10.82,0-16.23V40.9H40.91c-.79,0-1.09-.3-1.09-1.08s0-1.82,0-2.72a2.19,2.19,0,0,0-2.15-2.21,2.17,2.17,0,0,0-2.12,2.23c0,.87,0,1.74,0,2.61s-.27,1.17-1.17,1.17H27.54v6.27c.79,0,1.52,0,2.25,0a3.87,3.87,0,0,1-.06,7.74c-.72,0-1.45,0-2.18,0Z"/><path class="cls-1" d="M3.77,58.75c.13.4.23.82.39,1.2A4.84,4.84,0,0,0,7.57,62.8l.37.13H3.77Z"/><path class="cls-1" d="M37.24,23.35l-2,.36a4.05,4.05,0,0,1-4.81-3,4,4,0,0,1,2.7-4.8c.7-.21,1.44-.29,2.15-.43.19,0,.37-.08.61-.13-.32-1.81-.63-3.59-1-5.37-.1-.61-.21-1.22-.31-1.83-.13-.79.09-1.12.87-1.25q4-.73,8.09-1.44c3.44-.61,6.87-1.24,10.32-1.8a5,5,0,0,1,6,4.26C61,14.06,62,20.18,63.09,26.3a.9.9,0,0,1-.84,1.19c-2.7.49-5.39,1-8.09,1.43-.61.11-1-.21-1.1-.9-.17-.91-.32-1.83-.48-2.74a2.3,2.3,0,0,0-2.57-2,2.27,2.27,0,0,0-2,2.67c.13,1,.34,2,.5,3a.87.87,0,0,1-.8,1.16c-2.71.49-5.43,1-8.15,1.45-.58.1-.94-.22-1.06-.88-.38-2.16-.77-4.33-1.15-6.49C37.35,23.89,37.3,23.67,37.24,23.35Zm24,2.57a1.8,1.8,0,0,0,0-.24c-1-5.87-2-11.74-3.1-17.61a3.31,3.31,0,0,0-4-2.68L41.89,7.54l-5.44,1c0,.2,0,.37,0,.53.39,2.22.78,4.45,1.18,6.67.14.79-.11,1.15-.91,1.29s-1.82.32-2.74.48a2.25,2.25,0,0,0-1.54.94,2.17,2.17,0,0,0-.13,2.45A2.1,2.1,0,0,0,34.53,22c1-.12,2-.33,3-.5.85-.13,1.17.09,1.32.94.24,1.41.48,2.82.73,4.22.17,1,.35,1.93.53,2.94l6.57-1.16c-.05-.28-.1-.51-.12-.74a13.52,13.52,0,0,1-.18-3,3.88,3.88,0,0,1,4-3.21A4,4,0,0,1,54.3,25c.12.67.25,1.35.37,2.07Z"/></svg>