<svg id="Layer_1" data-name="Layer 1" xmlns="http://www.w3.org/2000/svg" viewBox="0 0 65 65"><defs><style>.cls-1{fill:#190f2d;}</style></defs><path class="cls-1" d="M2.56,12.15l.22-.46A3,3,0,0,1,5.51,9.77H6c10.46,0,20.91,0,31.36,0a3.29,3.29,0,0,1,3.48,3.47c-.06,7.3,0,14.61,0,21.91,0,2.26-1.19,3.45-3.47,3.45H27.62V42h1.8c.45,0,.82.11.82.63s-.36.64-.8.64H14c-.44,0-.79-.15-.78-.66S13.54,42,14,42h1.86V38.57h-.71c-2.91,0-5.83-.06-8.74,0-1.89,0-3.19-.62-3.81-2.45Zm37,18.57V13.2C39.6,11.66,39,11,37.41,11H6c-1.51,0-2.16.65-2.16,2.15V30.72ZM3.83,32.05v3.11c0,1.5.65,2.15,2.16,2.15H37.41a4.64,4.64,0,0,0,.53,0A1.64,1.64,0,0,0,39.52,36c.08-1.29,0-2.58,0-3.9Zm22.45,6.57H17.15V42h9.13Z"/><path class="cls-1" d="M2.56,50a2.47,2.47,0,0,1,2.6-1.39q15.89,0,31.78,0a6.48,6.48,0,0,1,.88,0,1.82,1.82,0,0,1,1.62,1.82q0,4.8,0,9.62A2,2,0,0,1,38,61.89H4a2.6,2.6,0,0,1-1.42-1.42ZM21,60.62H37.12c1,0,1.08-.11,1.08-1.1V50.9c0-.91-.15-1-1.07-1H4.87c-.9,0-1,.13-1,1v8.68c0,1,.09,1.07,1.09,1.07Z"/><path class="cls-1" d="M48.77,61.89c-.11,0-.21-.09-.32-.12a4.39,4.39,0,0,1-3.32-4.22c0-1,0-2,0-3A2.83,2.83,0,0,1,48,51.69c1,0,2.05,0,3.07,0a2.82,2.82,0,0,1,2.81,2.88c0,.93,0,1.85,0,2.77a4.33,4.33,0,0,1-3.46,4.45,2,2,0,0,0-.21.1Zm3.8-5.71h0c0-.55,0-1.1,0-1.65A1.55,1.55,0,0,0,51,52.94c-1,0-2,0-3.07,0a1.57,1.57,0,0,0-1.54,1.62c0,1,0,2,0,3.07a3.09,3.09,0,0,0,6.17.09C52.6,57.21,52.57,56.69,52.57,56.18Z"/><path class="cls-1" d="M63.06,22.31q0,9.39,0,18.77c0,1.55-.68,2.23-2.23,2.23H45.6c-1.51,0-2.22-.7-2.22-2.19V3.62c0-1.55.68-2.22,2.24-2.22H60.86c1.51,0,2.2.69,2.2,2.19Q63.08,13,63.06,22.31Zm-1.27.06V3.65c0-.9-.08-1-1-1H45.64c-.9,0-1,.11-1,1V41.09c0,.82.14.95,1,.95H60.72c1,0,1.07-.06,1.07-1.06Z"/><path class="cls-1" d="M21.67,35.29c-.19,0-.44.07-.57,0s-.55-.4-.55-.61a.86.86,0,0,1,.54-.61,3.83,3.83,0,0,1,1.22,0c.38,0,.67.26.58.64s-.35.46-.58.6-.42,0-.64,0Z"/><path class="cls-1" d="M21,57.54h4.9c.4,0,.68.24.66.67a.6.6,0,0,1-.67.6H16.07a.61.61,0,0,1-.66-.61c0-.43.26-.64.67-.66s1.1,0,1.65,0Z"/><path class="cls-1" d="M27.75,55.86c-.18,0-.41.06-.52,0s-.47-.39-.49-.62.26-.49.46-.56a3,3,0,0,1,1,0,.6.6,0,0,1,.63.64.61.61,0,0,1-.65.61h-.47Z"/><path class="cls-1" d="M11.92,58.82c-.17,0-.4,0-.51,0s-.47-.4-.49-.62.25-.5.45-.57a3.07,3.07,0,0,1,1.05,0,.59.59,0,0,1,.62.64.61.61,0,0,1-.65.62h-.47Z"/><path class="cls-1" d="M9.73,55.87H9.55c-.47,0-.92-.06-.92-.63s.47-.65.93-.63h.53c.41,0,.69.22.69.64a.61.61,0,0,1-.7.62Z"/><path class="cls-1" d="M7.44,58.81H7.08c-.41,0-.7-.19-.71-.61s.3-.65.72-.66H7.8c.42,0,.73.21.71.67s-.32.6-.72.6Z"/><path class="cls-1" d="M30,58.81c-.16,0-.36.06-.46,0s-.55-.41-.55-.62.32-.5.56-.6a2.1,2.1,0,0,1,.87,0c.4,0,.69.22.69.64s-.29.62-.7.63Z"/><path class="cls-1" d="M18.71,55.86c-.17,0-.4.07-.51,0s-.47-.39-.49-.61a.73.73,0,0,1,.44-.56,2.24,2.24,0,0,1,1.15,0c.21.05.51.41.48.58s-.32.45-.55.61-.34,0-.52,0Z"/><path class="cls-1" d="M34.54,58.8c-.16,0-.36.06-.46,0s-.54-.38-.53-.56a.92.92,0,0,1,.49-.65,2.34,2.34,0,0,1,.92,0c.4,0,.69.21.68.65s-.29.61-.69.62h-.41Z"/><path class="cls-1" d="M14.18,55.88c-.18,0-.39,0-.52,0s-.46-.36-.47-.56a.75.75,0,0,1,.4-.6,3,3,0,0,1,1.26,0,.75.75,0,0,1,.43.58c0,.2-.26.45-.47.57s-.42,0-.63,0Z"/><path class="cls-1" d="M23.23,55.86c-.16,0-.36.07-.46,0s-.52-.39-.54-.62.28-.5.5-.58a2.67,2.67,0,0,1,1,0,.58.58,0,0,1,.62.63.59.59,0,0,1-.63.62c-.16,0-.32,0-.47,0Z"/><path class="cls-1" d="M32.32,55.87c-.16,0-.36.06-.46,0s-.53-.35-.59-.58c-.1-.38.2-.61.58-.65a5.59,5.59,0,0,1,.82,0c.42,0,.74.2.72.66s-.31.6-.72.6Z"/><path class="cls-1" d="M21,52.91c-.17,0-.4.07-.52,0s-.46-.39-.48-.62.26-.48.46-.55a3,3,0,0,1,1,0c.39,0,.65.19.65.61s-.27.62-.68.63H21Z"/><path class="cls-1" d="M30,52.92c-.13,0-.31.06-.4,0s-.57-.37-.58-.58.3-.52.53-.61a1.53,1.53,0,0,1,1,0c.24.08.56.39.55.59s-.33.44-.56.6S30.18,52.92,30,52.92Z"/><path class="cls-1" d="M25.49,52.91c-.18,0-.4.07-.53,0s-.49-.38-.48-.56a.88.88,0,0,1,.48-.61,1.88,1.88,0,0,1,1.05,0c.24.07.55.38.55.59s-.32.44-.55.6-.35,0-.52,0Z"/><path class="cls-1" d="M34.57,52.92c-.16,0-.36.06-.46,0s-.56-.39-.56-.6.3-.5.54-.59a2.4,2.4,0,0,1,.93,0,.57.57,0,0,1,.62.64c0,.4-.27.58-.66.6h-.41Z"/><path class="cls-1" d="M16.47,52.94c-.2,0-.44,0-.58,0a1,1,0,0,1-.44-.59.67.67,0,0,1,.39-.55,3.24,3.24,0,0,1,1.28,0,.74.74,0,0,1,.41.59c0,.2-.27.43-.48.56s-.38,0-.58,0Z"/><path class="cls-1" d="M7.48,51.67c.19,0,.43,0,.57.06s.44.4.43.59a.82.82,0,0,1-.46.57,3.33,3.33,0,0,1-1,0,.62.62,0,1,1,0-1.23h.47Z"/><path class="cls-1" d="M11.94,52.91c-.18,0-.41.07-.52,0s-.48-.39-.5-.61.26-.49.47-.56a3,3,0,0,1,1,0,.58.58,0,0,1,.66.6.61.61,0,0,1-.69.64h-.41Z"/><path class="cls-1" d="M50.11,55.18c0,.48.1,1-.6,1.13-.45,0-.64-.31-.64-1.1,0-.17,0-.35,0-.53,0-.39.24-.68.62-.59.23,0,.44.34.59.57S50.11,55,50.11,55.18Z"/><path class="cls-1" d="M53.25,6.45h5.84c.81,0,1,.16,1,1,0,1.12,0,2.25,0,3.37,0,.75-.17.92-.89.92H47.29c-.74,0-.89-.16-.89-.91V7.38c0-.78.15-.92.94-.93Zm5.54,1.28H47.69v2.69h11.1Z"/><path class="cls-1" d="M53.19,38.26H47.28c-.46,0-.87-.09-.87-.64s.43-.64.88-.64H59.16c.46,0,.88.1.87.65s-.41.63-.87.63Z"/><path class="cls-1" d="M53.22,27.86c-.59,0-1.18,0-1.77,0a1.08,1.08,0,0,1-1.18-1.17c0-.45,0-.91,0-1.36a1,1,0,0,1,1.14-1.13c1.22,0,2.43,0,3.65,0a1,1,0,0,1,1.13,1.09c0,.47,0,.94,0,1.41A1.12,1.12,0,0,1,55,27.86H53.22Zm-1.69-1.3h3.36V25.48H51.53Z"/><path class="cls-1" d="M53.23,22.59c-.59,0-1.18,0-1.77,0a1.07,1.07,0,0,1-1.19-1.16c0-.45,0-.91,0-1.36a1.05,1.05,0,0,1,1.09-1.14q1.86,0,3.72,0a1.08,1.08,0,0,1,1.12,1.13,13.43,13.43,0,0,1,0,1.42,1.06,1.06,0,0,1-1.13,1.1C54.45,22.6,53.84,22.59,53.23,22.59Zm1.66-2.36H51.55v1.08h3.34Z"/><path class="cls-1" d="M53.25,33.1c-.61,0-1.22,0-1.83,0A1.06,1.06,0,0,1,50.27,32c0-.47,0-.94,0-1.42a1,1,0,0,1,1.07-1.1q1.89,0,3.78,0a1.06,1.06,0,0,1,1.07,1.11,13.45,13.45,0,0,1,0,1.42,1.09,1.09,0,0,1-1.12,1.13H53.25Zm-1.72-1.28h3.36V30.74H51.53Z"/><path class="cls-1" d="M58.52,13.47a2.88,2.88,0,0,1,.93,0c.24.1.55.4.55.61a.82.82,0,0,1-.54.6,7.79,7.79,0,0,1-1.93,0,.9.9,0,0,1-.57-.6c-.07-.37.23-.6.62-.63s.62,0,.94,0Z"/></svg>