<svg id="Layer_1" data-name="Layer 1" xmlns="http://www.w3.org/2000/svg" viewBox="0 0 65 65"><defs><style>.cls-1{fill:blue;}.cls-2{fill:#f3f945;}</style></defs><path class="cls-1" d="M2.56,59a1.38,1.38,0,0,1,1.27-.56c1.44,0,2.88,0,4.4,0v-11c0-1.4.61-2,2-2h6.08a1.74,1.74,0,0,1,2,2v11h3v-.68q0-8,0-16c0-1.59.58-2.17,2.17-2.17,1.95,0,3.9,0,5.85,0,1.4,0,2,.61,2,2,0,5.37,0,10.75,0,16.13v.73h3V33.68c0-.2,0-.39,0-.59A1.6,1.6,0,0,1,36,31.4c2.23,0,4.45,0,6.68,0A1.61,1.61,0,0,1,44.34,33c0,.23,0,.47,0,.71V58.36h3V28.86c0-1.59.58-2.16,2.18-2.16h5.9a1.73,1.73,0,0,1,2,2V40.48a.9.9,0,0,1-.87.94.89.89,0,0,1-.9-1c0-1.57,0-3.15,0-4.73V28.51H49.16V58.36h6.46V45.06a3.11,3.11,0,0,1,0-.53.88.88,0,0,1,1.75,0,5.76,5.76,0,0,1,0,.59V58.41h4.36c.24,0,.54,0,.69.08a1.67,1.67,0,0,1,.58.85.73.73,0,0,1-.68.81,3.5,3.5,0,0,1-.65,0H3.91a1.57,1.57,0,0,1-1.35-.52Zm40-.59V33.2H36.13V58.37Zm-13.06,0V41.3H23.07V58.37ZM10,47.17V58.36h6.43V47.17Z"/><path class="cls-1" d="M5.35,36.45l1.24,2.64,3.59-1.68L28,29.05c.26-.12.62-.28.83-.19a1.4,1.4,0,0,1,.7.74c.14.41-.15.74-.54.93L25.8,32,7.06,40.83c-1.14.54-1.41.44-1.95-.72S4,37.8,3.48,36.64c-.37-.81-.25-1.18.55-1.55L10,32.3,8.21,30.59C7,29.37,7,28.24,8.16,27a.5.5,0,0,0,.13-.7,13.32,13.32,0,0,1-.73-1.74.5.5,0,0,0-.54-.4c-1.83-.06-2.54-.81-2.54-2.65,0-1.16,0-2.32,0-3.49a2.13,2.13,0,0,1,2.33-2.35.72.72,0,0,0,.82-.61c.22-.65.52-1.28.86-2.1A2,2,0,0,1,8,12.63,2.12,2.12,0,0,1,8,9.48c.94-1,1.89-1.91,2.84-2.84a2.1,2.1,0,0,1,3.19,0c.36.37.65.49,1.09.17a1.38,1.38,0,0,1,.48-.21c.95-.25,1.56-.65,1.55-1.83A1.81,1.81,0,0,1,19,3.16c1.54,0,3.08-.05,4.61,0A2,2,0,0,1,25.5,5.34c0,.53.11.86.68.94a1.43,1.43,0,0,1,.55.21A1.54,1.54,0,0,0,29,6.3a1.85,1.85,0,0,1,2.54.16c1.09,1,2.15,2.08,3.17,3.17a2.05,2.05,0,0,1-.13,3c-.41.4-.5.73-.17,1.19a1.24,1.24,0,0,1,.17.37c.26.94.58,1.67,1.84,1.6.86,0,1.55.93,1.61,1.84,0,.46,0,.93,0,1.53l12.7-5.95c-.46-1-.88-1.89-1.32-2.81-.19-.41-.36-.81-.06-1.23s.72-.39,1.17-.31l11.12,1.82c1,.16,1.26.75.76,1.6L56.67,22c-.22.37-.47.68-1,.65s-.7-.38-.88-.76l-1.35-2.87-3.35,1.57L33.26,28.53a3.3,3.3,0,0,1-.43.19.87.87,0,0,1-1.2-.41.83.83,0,0,1,.45-1.17c1.05-.52,2.1-1,3.15-1.49l17.94-8.42c.94-.43,1.28-.31,1.72.63.3.63.6,1.28,1,2.05,1.52-2.58,3-5.08,4.5-7.67L51.58,10.8c.34.74.64,1.37.94,2,.47,1,.35,1.33-.64,1.8l-28,13.12-18,8.45ZM21.29,10.82a9.09,9.09,0,0,0-3.62,17.45,1,1,0,0,0,.93,0c3.59-1.7,7.19-3.38,10.78-5.09a1.24,1.24,0,0,0,.59-.7A9.05,9.05,0,0,0,21.29,10.82ZM32,22c1.12-.53,2.14-1.1,3.22-1.5a1.43,1.43,0,0,0,1.08-1.69c-.1-1.48.11-1.34-1.34-1.35h-.24c-.75,0-1-.19-1.2-.88a14.91,14.91,0,0,0-.84-2.2c-.81-1.6-.92-1.48.49-2.82.38-.37.35-.63,0-1-.63-.59-1.23-1.22-1.84-1.83-1.15-1.15-1.16-1.16-2.34,0a1,1,0,0,1-1.38.19,18,18,0,0,0-2.14-1c-1.64-.61-1.67-.59-1.7-2.36,0-.5-.19-.66-.67-.65-1,0-2,0-3,0-1.34,0-1.3-.14-1.29,1.27V6.4c0,.86-.14,1-.94,1.27s-1.37.48-2,.77c-1.64.74-1.64.77-3-.49-.35-.32-.59-.28-.89,0-.61.64-1.25,1.25-1.88,1.88C8.93,11,8.92,11,10.06,12.21a1,1,0,0,1,.2,1.38,17.19,17.19,0,0,0-1,2.14c-.62,1.64-.6,1.66-2.37,1.7-.48,0-.67.18-.67.66,0,.92,0,1.85,0,2.78,0,1.68-.17,1.54,1.5,1.54h.3A.92.92,0,0,1,9,23.1c.43,1.09.88,2.18,1.36,3.25a1,1,0,0,1-.19,1.19c-.27.28-.55.57-.83.83a.47.47,0,0,0,0,.8c.7.69,1.38,1.4,2.1,2.07a.59.59,0,0,0,.55.12c1.34-.6,2.67-1.24,4.08-1.91A10.74,10.74,0,0,1,10.85,23a10.62,10.62,0,0,1,.85-8.24A11,11,0,0,1,24,9.37,11.07,11.07,0,0,1,32,22Z"/><path class="cls-2" d="M22.16,19h1.77c.63,0,1,.36,1.05.88s-.4.88-1,.89c-.85,0-1.69,0-2.54,0a.89.89,0,0,1-1-1v-5c0-.65.35-1,.87-1s.9.4.9,1.08C22.17,16.17,22.16,17.54,22.16,19Z"/></svg>