<svg id="Layer_1" data-name="Layer 1" xmlns="http://www.w3.org/2000/svg" viewBox="0 0 65 65"><defs><style>.cls-1{fill:blue;}.cls-2{fill:#f3f945;}</style></defs><path class="cls-1" d="M32.07,63.93C22.77,61.61,12.2,51.77,8.36,41a35,35,0,0,1-2.31-10.7c-.16-5.6-.13-11.2-.17-16.8,0-.82.33-1.21,1.21-1.46a106.09,106.09,0,0,0,12.1-4.18A100.34,100.34,0,0,0,31.46,1.74a1.94,1.94,0,0,1,2.2,0A103,103,0,0,0,57.81,12c1.21.35,1.44.66,1.44,1.9,0,4.77.07,9.54,0,14.31A37.91,37.91,0,0,1,48.79,53.78,38.34,38.34,0,0,1,37.27,62.4c-1.34.64-2.81,1-4.22,1.53ZM56.61,14.42l-.74-.25c-1.74-.56-3.5-1.09-5.23-1.69a104.43,104.43,0,0,1-17.51-8,1,1,0,0,0-1.16,0c-.87.53-1.76,1-2.66,1.49A102.12,102.12,0,0,1,9.12,14.2a.74.74,0,0,0-.64.88c0,3.83,0,7.66,0,11.49a38.6,38.6,0,0,0,2.26,13.29,35.76,35.76,0,0,0,8.64,13.31,36,36,0,0,0,11.09,7.55,4.53,4.53,0,0,0,3.89.11c.57-.27,1.16-.49,1.73-.77A36.53,36.53,0,0,0,46.84,52a35,35,0,0,0,9.69-23.14c.18-4.7.08-9.41.1-14.11C56.63,14.65,56.62,14.55,56.61,14.42Z"/><path class="cls-2" d="M28.33,34.74C29,34.1,29.48,33.54,30,33q5.64-5.64,11.28-11.28a4.27,4.27,0,0,1,6.63,5.39,8,8,0,0,1-.6.69L31.6,43.53a4.26,4.26,0,0,1-5.44.87,5.56,5.56,0,0,1-1.05-.83q-3.7-3.68-7.39-7.39a4.28,4.28,0,0,1,.22-6.59,4.14,4.14,0,0,1,5.2,0c1.46,1.29,2.81,2.72,4.2,4.09ZM28,42.38a2.09,2.09,0,0,0,1.73-.71L45.5,25.9a3.6,3.6,0,0,0,.37-.41A1.61,1.61,0,0,0,45,22.94a1.78,1.78,0,0,0-1.89.67L29.6,37.13c-1,1-1.57,1-2.53,0-1.75-1.75-3.5-3.51-5.27-5.26a1.65,1.65,0,1,0-2.33,2.32q3.78,3.82,7.61,7.6A4.18,4.18,0,0,0,28,42.38Z"/><path class="cls-2" d="M11.07,19.85c0-.78,0-1.55,0-2.32A1.41,1.41,0,0,1,12.13,16c2.3-.81,4.59-1.63,6.89-2.43a1.33,1.33,0,0,1,1.69.42,1.22,1.22,0,0,1-.06,1.57,2.37,2.37,0,0,1-.87.53q-2.75,1-5.51,2c-.4.14-.58.31-.56.76,0,1.12,0,2.24,0,3.36a1.37,1.37,0,0,1-.91,1.43,1.2,1.2,0,0,1-1.65-1c-.09-.92,0-1.86,0-2.79Z"/><path class="cls-2" d="M47.56,43.61a1.27,1.27,0,0,1,1,2.07,31.06,31.06,0,0,1-1.86,2.57,36.15,36.15,0,0,1-6.08,6,1.31,1.31,0,1,1-1.71-2c.76-.68,1.56-1.31,2.31-2a30.93,30.93,0,0,0,5-5.81A1.45,1.45,0,0,1,47.56,43.61Z"/><path class="cls-2" d="M35.11,55.53a1.37,1.37,0,0,1,1.34-1.37,1.33,1.33,0,0,1,1.33,1.24,1.45,1.45,0,0,1-1.39,1.42A1.3,1.3,0,0,1,35.11,55.53Z"/><path class="cls-2" d="M23.35,14.5a1.33,1.33,0,0,1-1.27-1.31,1.37,1.37,0,0,1,1.33-1.32,1.35,1.35,0,0,1,1.31,1.34A1.39,1.39,0,0,1,23.35,14.5Z"/></svg>