<svg id="Layer_1" data-name="Layer 1" xmlns="http://www.w3.org/2000/svg" viewBox="0 0 65 65"><defs><style>.cls-1{fill:blue;}.cls-2{fill:#f3f945;}.cls-3{fill:#190f2d;}</style></defs><path class="cls-1" d="M60.24,22c-.14.69-.25,1.39-.43,2.07a13,13,0,0,1-12.42,9.81c-8.87.07-17.74,0-26.6,0-1.89,0-3.78-.06-5.66.08a8.34,8.34,0,0,0-.86,16.46,10.7,10.7,0,0,0,2.11.2h22a3.79,3.79,0,0,1,1.21.15,2.33,2.33,0,0,1,1.53,2.62,2.36,2.36,0,0,1-2.19,2H38.5c-7.47,0-14.94,0-22.4,0a13.13,13.13,0,0,1-1.87-26.14,17.59,17.59,0,0,1,2.18-.12H46.88a8.37,8.37,0,1,0,0-16.74l-24.48,0a4.09,4.09,0,0,1-1.16-.13A2.37,2.37,0,0,1,22,7.67c4.22,0,8.44,0,12.66,0s8.29,0,12.43,0A13.06,13.06,0,0,1,60,18.07c.11.49.19,1,.28,1.47Z"/><path class="cls-2" d="M60.24,53.94c-.08.32-.15.65-.24,1a7.18,7.18,0,1,1,.14-3.07,2.81,2.81,0,0,0,.1.31Zm-4.79-.88a2.38,2.38,0,1,0-2.39,2.36A2.35,2.35,0,0,0,55.45,53.06Z"/><path class="cls-2" d="M15.31,2.85a6.57,6.57,0,0,1,1.37.92A2.31,2.31,0,0,1,16.45,7c-1,1-1.94,2-2.92,2.94,0,0,0,0,0,.1s.22.25.35.38c.87.87,1.75,1.73,2.61,2.61a2.39,2.39,0,1,1-3.38,3.38c-1-1-2-2-3.06-3.07-.27.31-.5.6-.76.86-.76.77-1.51,1.55-2.3,2.29a2.38,2.38,0,0,1-3.36-3.38c1-1,2-2,3-3a1.11,1.11,0,0,0,0-.13c-.7-.71-1.44-1.44-2.18-2.17-.29-.29-.59-.57-.86-.88A2.38,2.38,0,0,1,4.53,3l.25-.11h1A16.68,16.68,0,0,1,7.51,4.13c.87.78,1.67,1.64,2.54,2.52.87-.88,1.67-1.73,2.53-2.52A19.66,19.66,0,0,1,14.3,2.85Z"/><path class="cls-3" d="M-113.91,112.27,4.67,226.54a65.18,65.18,0,0,0,9.84,3.91c6.68,2.05,35.23,10.81,54-6.21,20.71-18.74,11.29-52.16,10.84-53.65A50.86,50.86,0,0,0,76.9,164l-113-113.5A277.19,277.19,0,0,1-71.75,84.51,276.32,276.32,0,0,1-113.91,112.27Z"/></svg>