<svg id="Layer_1" data-name="Layer 1" xmlns="http://www.w3.org/2000/svg" viewBox="0 0 65 65"><defs><style>.cls-1{fill:#190f2d;}</style></defs><path class="cls-1" d="M39.8,50.33h7.5c1.1,0,1.4.29,1.4,1.39v2.66c.31.14.6.25.88.4a4,4,0,1,1-5.75,4.32A3.84,3.84,0,0,1,46,54.73a1,1,0,0,0,.73-1.18c0-.38,0-.78,0-1.24H39c-.93,0-1.27-.34-1.27-1.27V42.42H33.83v10a4.07,4.07,0,0,1,2.81,4.92A4,4,0,0,1,28.89,57c-.39-2,.64-3.6,2.88-4.59v-10H27.83v8.64c0,.92-.35,1.26-1.29,1.26H18.88c0,.64,0,1.26,0,1.87,0,.14.27.32.44.39a4,4,0,0,1,2.51,4,4,4,0,1,1-5.66-3.93c.22-.11.45-.2.7-.3v-2.8c0-.93.35-1.26,1.29-1.26H25.8V42.41H23.89c0,.15,0,.33,0,.51v4c0,1.15-.29,1.45-1.42,1.45-3.66,0-7.33,0-11,0a.77.77,0,0,0-.85.57A3.91,3.91,0,0,1,6.2,51.24a4,4,0,1,1,4.41-5.44c.08.17.14.35.22.53h11V42.44a8.91,8.91,0,0,1-1.09-.31,2.89,2.89,0,0,1-1.83-2.72c0-1,0-1.94,0-3-.27,0-.5,0-.74,0a43.83,43.83,0,0,1-5.51-.27,11.89,11.89,0,0,1-.05-23.34,16.85,16.85,0,0,1,3-.22.84.84,0,0,0,.82-.47c4-6.52,9.83-9.76,17.45-9.46a18.73,18.73,0,0,1,17,13.47c.05.16.1.32.1.34a31.65,31.65,0,0,1,3.87.34A9.91,9.91,0,0,1,54,36.29a22.52,22.52,0,0,1-2.6.11c-1.55,0-3.1,0-4.72,0V39a3.07,3.07,0,0,1-3,3.43v3.91h11C55.84,44,57.46,43,59.51,43.47a4,4,0,0,1-.06,7.76c-2,.43-3.63-.55-4.71-2.89H43.09c-1,0-1.34-.32-1.35-1.33V42.4H39.8Zm6.23-17c.22,1,.89,1.19,1.73,1.07a5.23,5.23,0,0,1,.56,0,54.57,54.57,0,0,0,5.58-.14,7.86,7.86,0,0,0,6.58-9.34A8,8,0,0,0,51,18.69c-1.15.26-1.46.06-1.75-1.1a16.89,16.89,0,0,0-31.47-3.8c-.43.83-.66.91-1.58.85a15.63,15.63,0,0,0-2.65,0A9.93,9.93,0,0,0,5,24a9.83,9.83,0,0,0,7.74,10.16c1.71.33,3.51.15,5.26.31a1.34,1.34,0,0,0,1.61-1.07c-1-1.49-1-6,0-7.95a3.4,3.4,0,0,1-.72-2.31c0-1.16,0-2.32,0-3.48A3,3,0,0,1,22,16.53q10.85,0,21.68,0a3,3,0,0,1,3.07,3c0,1,0,2,0,3A3.75,3.75,0,0,1,46,25.45C47,27.06,47,31.87,46,33.35ZM32.8,18.51H22.11c-.89,0-1.24.35-1.24,1.24q0,1.77,0,3.54c0,.82.37,1.18,1.18,1.18q10.74,0,21.49,0c.82,0,1.18-.36,1.18-1.18,0-1.13,0-2.27,0-3.41s-.32-1.37-1.37-1.37Zm0,8H22.12c-.9,0-1.25.34-1.25,1.23q0,1.77,0,3.54c0,.82.36,1.19,1.17,1.19h21.5c.81,0,1.18-.37,1.18-1.17,0-1.14,0-2.28,0-3.42s-.31-1.37-1.36-1.37Zm0,13.92H43.48c.89,0,1.24-.35,1.24-1.24q0-1.77,0-3.54c0-.81-.36-1.18-1.18-1.18H22.05c-.81,0-1.17.37-1.18,1.18,0,1.14,0,2.28,0,3.42s.31,1.36,1.37,1.36ZM7,49.33a2,2,0,1,0-2-1.94A2,2,0,0,0,7,49.33Zm53.65-2a2,2,0,1,0-2,2A2,2,0,0,0,60.63,47.36ZM32.8,58.28a2,2,0,1,0-2-2A2,2,0,0,0,32.8,58.28Zm-14.92-2a2,2,0,1,0,0,4,2,2,0,0,0,1.95-2A2,2,0,0,0,17.88,56.29Zm31.81,2a2,2,0,1,0-1.95,2A2,2,0,0,0,49.69,58.27Z"/><path class="cls-1" d="M22.89,22.45V20.53H34.74v1.92Z"/><path class="cls-1" d="M38.74,20.55v1.9H36.81v-1.9Z"/><path class="cls-1" d="M42.71,20.53v1.92H40.78V20.53Z"/><path class="cls-1" d="M34.76,28.5v1.91H22.91V28.5Z"/><path class="cls-1" d="M38.74,28.5v1.91H36.82V28.5Z"/><path class="cls-1" d="M40.79,28.48H42.7v1.91H40.79Z"/><path class="cls-1" d="M22.89,38.35V36.44H34.74v1.91Z"/><path class="cls-1" d="M36.8,38.35V36.44h1.91v1.91Z"/><path class="cls-1" d="M42.73,36.45v1.89H40.8V36.45Z"/></svg>