<svg id="Layer_1" data-name="Layer 1" xmlns="http://www.w3.org/2000/svg" viewBox="0 0 65 65"><defs><style>.cls-1{fill:blue;}.cls-2{fill:#f3f945;}</style></defs><path class="cls-1" d="M64.37,39.52V64.37H.76V18L15.19,25.5V18.14l.38.16q9.54,4.77,19.09,9.53a.69.69,0,0,1,.39.74c0,3.41,0,6.83,0,10.25v.65H44.5V15.66h5c0-.89,0-1.72,0-2.54a7.48,7.48,0,0,1,7.29-7.39A2.51,2.51,0,0,0,59.4,3V.76h5V4.24c-.12.39-.22.78-.34,1.17a7.47,7.47,0,0,1-7,5.29,2.33,2.33,0,0,0-2.48,1.82,25.17,25.17,0,0,0-.17,3.17h5V39.52ZM20.14,33.66,5.76,26.23V59.36H50V49.49h5v9.86h4.42V44.47H30.08v-.75c0-4,0-8,0-12a.76.76,0,0,0-.48-.81c-3-1.47-6-3-8.94-4.45-.15-.08-.32-.13-.53-.22ZM49.5,30.6v8.87h4.89V30.6Zm4.89-5V20.68h-4.9v4.89Z"/><path class="cls-2" d="M21.71,39.22l3.57,3.58-4.1,4.07L25.34,51l-3.53,3.52-4-4-4.19,4.2L10,51.12l4.08-4.07L10,42.89l3.57-3.57,4.08,4.09Z"/><path class="cls-2" d="M35,54.4H30.11V49.51H35Z"/><path class="cls-2" d="M40,54.38V49.49h4.9v4.89Z"/></svg>