<svg id="Layer_1" data-name="Layer 1" xmlns="http://www.w3.org/2000/svg" viewBox="0 0 65 65"><defs><style>.cls-1{fill:#4dc0b3;}</style></defs><path class="cls-1" d="M48.27.73Q52.16,5.94,56,11.15c.17.23.34.45.58.79H52.68v7.22H50.83V10.08h2.08L48.24,3.84,43.6,10.05h1.77v.8q0,7.65,0,15.3a1.35,1.35,0,0,0,.44,1.09c.73.67,1.42,1.38,2.11,2.1a1.14,1.14,0,0,0,1,.4c.61,0,1.23,0,1.91,0V21.12h1.86v.73c0,2.69,0,5.37,0,8.06A3,3,0,0,0,52.87,31q1.11,2.76,2.28,5.48a.71.71,0,0,1-.21,1c-.76.64-1.5,1.3-2.2,2a1.23,1.23,0,0,0-.36.78c0,1.15,0,2.31,0,3.46a1.17,1.17,0,0,0,.33.73c.75.73,1.54,1.44,2.34,2.12a.55.55,0,0,1,.16.74c-.9,2.13-1.79,4.26-2.65,6.4a.66.66,0,0,1-.78.48c-1-.08-2-.13-3-.14a1.13,1.13,0,0,0-.74.29c-.79.79-1.56,1.6-2.3,2.43a1.44,1.44,0,0,0-.32.81c0,1,0,2.07,0,3.1a.63.63,0,0,1-.46.68c-2.14.87-4.27,1.76-6.4,2.65a.58.58,0,0,1-.79-.17c-.65-.77-1.33-1.52-2-2.24a1.37,1.37,0,0,0-.83-.39c-1.16,0-2.32,0-3.47,0a1.17,1.17,0,0,0-.73.33c-.73.76-1.43,1.54-2.12,2.34a.5.5,0,0,1-.68.16q-3.26-1.37-6.52-2.7a.58.58,0,0,1-.41-.65c0-1,0-2.06,0-3.09a1.38,1.38,0,0,0-.32-.81c-.74-.84-1.5-1.65-2.3-2.43a1.28,1.28,0,0,0-.79-.31c-1,0-2,.06-3,.14a.62.62,0,0,1-.72-.47c-.87-2.14-1.75-4.28-2.66-6.4a.59.59,0,0,1,.21-.78c.78-.68,1.55-1.36,2.29-2.08a1.17,1.17,0,0,0,.33-.73c0-1.17,0-2.35,0-3.53a1.09,1.09,0,0,0-.3-.68c-.76-.73-1.54-1.43-2.34-2.12a.58.58,0,0,1-.18-.79c.78-1.82,1.54-3.64,2.28-5.48a3.68,3.68,0,0,0,.26-1.31c0-2.64,0-5.29,0-7.93v-.75h1.86v8.62c.81,0,1.55,0,2.28,0a1,1,0,0,0,.51-.29c.74-.72,1.45-1.47,2.2-2.18A1.35,1.35,0,0,0,21,26.15q0-7.62,0-15.23V10.1h1.81L18.07,3.84l-4.64,6.21h2.06v9.11H13.67V12h-4l.55-.76L18,.73h.12a5.39,5.39,0,0,0,.3.52q3.76,5,7.52,10.07l.47.64h-3.6V22l.61-.25,3.43-1.41c1.35-.56,1.35-.56,2.36.54a1,1,0,0,1,.13.35l.17-.16V15.89h-4L33.16,6l7.61,10h-4v5.29c.16-.22.22-.31.29-.39,1-1.1,1-1.1,2.42-.53l4,1.64v-10H39.9l.35-.5q3.68-4.92,7.34-9.83a9.74,9.74,0,0,0,.56-.86ZM17,31.59a13.61,13.61,0,0,0-1.43,0,.76.76,0,0,0-.53.34c-.61,1.4-1.17,2.82-1.77,4.22a.5.5,0,0,0,.19.68c.66.58,1.33,1.16,2,1.79a1.11,1.11,0,0,1,.32.73c0,1.71,0,3.42,0,5.14a1.29,1.29,0,0,1-.36.77c-.63.63-1.32,1.19-1.95,1.81a.69.69,0,0,0-.15.61c.55,1.4,1.14,2.78,1.7,4.18a.5.5,0,0,0,.6.37c.88-.06,1.77-.12,2.66-.12a1.23,1.23,0,0,1,.79.3q1.74,1.77,3.41,3.6a1.5,1.5,0,0,1,.31.82c0,.84,0,1.69,0,2.54a.62.62,0,0,0,.45.69c1.38.55,2.75,1.12,4.11,1.7a.5.5,0,0,0,.68-.15c.58-.68,1.17-1.34,1.79-2a1.2,1.2,0,0,1,.73-.33c1.73,0,3.47,0,5.2,0a1.21,1.21,0,0,1,.73.34c.62.63,1.21,1.3,1.79,2a.5.5,0,0,0,.68.16q2-.88,4.11-1.71a.6.6,0,0,0,.44-.69c0-.87,0-1.74,0-2.61a1.1,1.1,0,0,1,.26-.7c1.15-1.25,2.31-2.48,3.5-3.69a1.08,1.08,0,0,1,.69-.27c.91,0,1.82.07,2.72.13a.51.51,0,0,0,.6-.38c.55-1.38,1.11-2.75,1.7-4.11A.53.53,0,0,0,52.8,47c-.65-.57-1.31-1.14-1.92-1.75a1.34,1.34,0,0,1-.36-.78c0-1.71,0-3.43,0-5.14a1.2,1.2,0,0,1,.33-.73c.62-.6,1.27-1.18,1.93-1.74A.58.58,0,0,0,53,36.1c-.59-1.34-1.15-2.69-1.69-4.05a.64.64,0,0,0-.73-.47c-.85,0-1.7,0-2.54,0a1.33,1.33,0,0,1-.8-.32C46.08,30.16,45,29,43.85,27.89a1.33,1.33,0,0,1-.33-.8c0-.89,0-1.78,0-2.67a.81.81,0,0,0-.38-.58c-1.36-.59-2.74-1.14-4.11-1.72a.55.55,0,0,0-.74.18c-.57.65-1.14,1.31-1.75,1.92a1.4,1.4,0,0,1-.84.37c-1.67,0-3.34,0-5,0a1.41,1.41,0,0,1-.83-.38c-.61-.61-1.19-1.27-1.75-1.92a.55.55,0,0,0-.75-.16c-1.34.58-2.69,1.14-4,1.67a.63.63,0,0,0-.46.7c0,.86,0,1.73,0,2.6a1.39,1.39,0,0,1-.33.8c-.8.84-1.68,1.6-2.43,2.47A2.79,2.79,0,0,1,17,31.59ZM37,14,33.16,9l-3.84,5h2.17v8.62h3.38V14Z"/><path class="cls-1" d="M38.32,40.42a12.08,12.08,0,0,1,4.56,6.12,12.5,12.5,0,0,1,.64,4.72H22.78A13,13,0,0,1,24,45.17a12.31,12.31,0,0,1,3.89-4.72,10.08,10.08,0,0,1-.75-7.54,6.13,6.13,0,0,1,6.61-4.53,6.27,6.27,0,0,1,5.65,5.91c0,.46,0,.91,0,1.36A7.58,7.58,0,0,1,38.32,40.42Zm-13.72,9h17a2.57,2.57,0,0,0,0-.28A10.18,10.18,0,0,0,37.32,42a.69.69,0,0,0-.62,0,6.34,6.34,0,0,1-7.11,0,.6.6,0,0,0-.85,0,10.16,10.16,0,0,0-3.34,4.45C25.06,47.46,24.87,48.41,24.6,49.41Zm13-13.59H37.5c0-.53,0-1.07,0-1.6a4.29,4.29,0,0,0-4.18-4,4.22,4.22,0,0,0-4.48,3.45A18.61,18.61,0,0,0,28.7,37a4.41,4.41,0,0,0,8.7,1A16.07,16.07,0,0,0,37.58,35.82Z"/><path class="cls-1" d="M23,35.49H21.21V33.72H23Z"/><path class="cls-1" d="M43.33,33.69h1.78v1.78H43.33Z"/><path class="cls-1" d="M21.22,37.42H23v1.79H21.22Z"/><path class="cls-1" d="M43.32,39.22v-1.8h1.79v1.8Z"/></svg>