<svg id="Layer_1" data-name="Layer 1" xmlns="http://www.w3.org/2000/svg" viewBox="0 0 65 65"><defs><style>.cls-1{fill:#4dc0b3;}</style></defs><path class="cls-1" d="M17.27,61.2c-.2-.26-.55-.24-.82-.4a3.19,3.19,0,0,1-1.65-2.57c0-.28,0-.56,0-.84V32.49c0-.78,0-.78-.82-.78-2.55,0-5.11,0-7.66,0a3,3,0,0,1-3.23-2.09S3,29.56,3,29.53v-.22a.72.72,0,0,0,0-.43v-12a.71.71,0,0,0,0-.43v-.22a2.78,2.78,0,0,1,3.11-2.41h7.82c.73,0,.76,0,.76-.76V7.25A3.18,3.18,0,0,1,18,3.85h2.91c.68,0,.87.16,1.07.82-.09.71-.4,1-1.1,1.07-.48,0-1,0-1.44,0s-.82,0-1.23,0a1.46,1.46,0,0,0-1.56,1.58c0,1.84,0,3.69,0,5.53,0,.9,0,.91.9.92,4.21,0,8.43,0,12.64,0h9.51a2.92,2.92,0,0,1,2.68,2.93c0,4.05,0,8.09,0,12.14a3,3,0,0,1-3,2.95c-.71-.05-1.42,0-2.13,0s-.88-.21-1-.87a1,1,0,0,1,1-1.09,10.49,10.49,0,0,1,1.68-.06c1.25,0,1.48-.23,1.48-1.46q0-5.5,0-11c0-1.21-.27-1.48-1.48-1.48H11.48a5.15,5.15,0,0,1-.68,0c-1.52,0-3.05,0-4.58,0-1,0-1.41.37-1.42,1.42V28.37c0,.11,0,.22,0,.33.07.79.38,1.09,1.18,1.1H9.8l1,0c1.1,0,2.2,0,3.3,0H32.22a5.39,5.39,0,0,1,1.06.06,1,1,0,0,1,.92.91.9.9,0,0,1-.77,1c-1.1,0-2.2,0-3.3,0-4.22,0-8.43,0-12.64,0-.79,0-.82,0-.82.82V57.6c0,1.26.47,1.73,1.72,1.74l1.11,0c1,0,1.94,0,2.91,0H56.14c1.88,0,2.25-.39,2.25-2.27,0-.71,0-1.42,0-2.13s.29-.91.94-1.05c.7.12.94.33.95,1a35.44,35.44,0,0,1,0,3.57,2.85,2.85,0,0,1-2.7,2.68l-.1.05Z"/><path class="cls-1" d="M3,16.44c.22.15.1.38.1.56q0,5.94,0,11.86c0,.16.09.34-.11.45Z"/><path class="cls-1" d="M59.36,51.81c-.64-.16-.81-.58-.81-1.21q0-14.3,0-28.58a5.38,5.38,0,0,0-.14-1.39c-.32-1.3-1.43-2-3.09-2-2.21,0-4.43,0-6.65,0a3.09,3.09,0,0,1-3.1-2.92c-.07-1.84,0-3.69,0-5.54a5.06,5.06,0,0,0-.33-2A3.94,3.94,0,0,0,42,5.71a7.47,7.47,0,0,0-1.5-.13H25.26c-.6,0-1-.18-1.17-.79.19-.73.38-.89,1.12-.89,5.46,0,10.93,0,16.39,0a12.2,12.2,0,0,1,8.75,3.63c2.28,2.24,4.52,4.5,6.78,6.76a10.26,10.26,0,0,1,3.1,7.53q0,14.36,0,28.71C60.24,51.39,60.1,51.58,59.36,51.81Z"/><path class="cls-1" d="M35.45,47.65a.86.86,0,0,1-.76-1.24c.45-1.28.92-2.54,1.38-3.82.76-2.07,1.51-4.15,2.27-6.23a2.24,2.24,0,0,1,.22-.5.82.82,0,0,1,1.51.6c-.1.39-.26.77-.4,1.16-1.12,3.07-2.24,6.13-3.35,9.21C36.16,47.26,36,47.6,35.45,47.65Z"/><path class="cls-1" d="M43.21,37a1,1,0,0,1,.72.35l3.16,3.16a.88.88,0,0,1,0,1.45Q45.51,43.55,44,45.09c-.47.46-1,.51-1.33.15s-.34-.84.14-1.32c.74-.76,1.47-1.53,2.26-2.25.4-.36.33-.56,0-.89-.78-.74-1.53-1.51-2.29-2.28a.85.85,0,0,1-.25-1A.78.78,0,0,1,43.21,37Z"/><path class="cls-1" d="M32.62,44.61a.81.81,0,0,1-.46.78.8.8,0,0,1-.94-.14c-.4-.37-.77-.75-1.15-1.14-.72-.71-1.43-1.41-2.14-2.13a.89.89,0,0,1,0-1.49q1.56-1.58,3.13-3.13a.86.86,0,0,1,1.32-.1c.35.36.31.83-.13,1.28-.8.81-1.59,1.62-2.42,2.4-.26.25-.21.37,0,.6.79.76,1.56,1.55,2.34,2.32C32.42,44.09,32.64,44.32,32.62,44.61Z"/><path class="cls-1" d="M18.89,17.78c.73,0,1,.19,1.23.88q1.23,4,2.43,8c.16.51,0,.81-.58,1s-.92,0-1.09-.51c0,0,0-.07,0-.11-.42-1.46-.42-1.46-1.92-1.45-.51,0-1.15-.22-1.51.1s-.34.91-.49,1.39a.74.74,0,0,1-1.08.59.75.75,0,0,1-.59-1.09c.81-2.61,1.61-5.22,2.42-7.84C17.91,18,18.18,17.78,18.89,17.78Z"/><path class="cls-1" d="M35.93,27.65a.52.52,0,0,1-.57-.47.88.88,0,0,0,0-.15c-.15-.48-.16-1.11-.48-1.4s-1-.1-1.51-.1-1.11-.21-1.45.1A2.59,2.59,0,0,0,31.41,27c-.13.66-.44.77-1.11.62s-.76-.49-.58-1.09c.81-2.62,1.61-5.23,2.42-7.84a1,1,0,0,1,1.21-.89,1,1,0,0,1,1.22.89c.8,2.6,1.6,5.19,2.39,7.79C37.18,27.18,36.8,27.66,35.93,27.65Z"/><path class="cls-1" d="M26.18,25.3c.65-2.3,1.31-4.57,1.92-6.85.13-.47.35-.7,1.07-.53a.71.71,0,0,1,.6,1q-1.2,4-2.43,8c-.19.64-.5.84-1.2.84s-1-.21-1.21-.83c-.83-2.67-1.64-5.33-2.46-8-.15-.5.06-.84.61-1s.91,0,1.07.53c.62,2.16,1.23,4.33,1.84,6.49C26,25.07,26,25.21,26.18,25.3Z"/><path class="cls-1" d="M10.66,19a2.62,2.62,0,0,1,0-.79.65.65,0,0,1,.63-.38h2.23c.52,0,.77.24.76.8,0,1.91,0,3.83,0,5.75,0,2.38-1,3.36-3.42,3.33h-.28a8.46,8.46,0,0,1-1.11-.36A2.42,2.42,0,0,1,8,25.08c0-.48.16-.78.68-.82.7-.05,1,.1,1.08.67s.26,1.09.93,1.22c.16-.15.38-.12.58-.15a1,1,0,0,0,1-1A5.2,5.2,0,0,0,12.41,24c0-1.24,0-2.49,0-3.73,0-.68-.05-.73-.72-.74a2.54,2.54,0,0,1-.67-.06C10.81,19.4,10.57,19.33,10.66,19Z"/></svg>