<svg id="Layer_1" data-name="Layer 1" xmlns="http://www.w3.org/2000/svg" viewBox="0 0 65 65"><defs><style>.cls-1{fill:#4dc0b3;}</style></defs><path class="cls-1" d="M41.38,58.44a26.73,26.73,0,0,0,10.46-6c-1.18-1.17-2.32-2.31-3.46-3.46-.69-.69-.72-1-.11-1.8s1.15-1.32,1.7-2a18.67,18.67,0,0,0,3.42-6.64c.06-.21.11-.42.19-.63a1,1,0,0,1,1.32-.74,1,1,0,0,1,.69,1.3c-.24.86-.52,1.71-.84,2.54a22.71,22.71,0,0,1-4.31,6.92l2.91,2.94a26.88,26.88,0,0,0,4-31.07l-3.6,2.11c-1.57.91-1.75.85-2.75-.66-.48-.73-1-1.42-1.53-2.12-.19-.25-.4-.46-.58-.66l-3,2.95a17.35,17.35,0,0,1,3.29,5.69L54,25.81c1.07-.29,1.58-.06,1.75,1,.29,1.78.5,3.58.68,5.37a1,1,0,0,1-1,1.28c-.65,0-1-.46-1.1-1.27-.09-1.36-.23-2.72-.36-4.18l-2.53.66c-.83.22-1.64.46-2.47.67a1.06,1.06,0,0,1-1.44-.83c-1.71-6-5.78-9.36-11.73-10.52A14.58,14.58,0,0,0,18.92,29.65c-1.31,7.13,2.48,13.71,9.51,16.54s15.39-.88,18.39-8c.26-.62.45-1.27.67-1.91a1.06,1.06,0,0,1,1.35-.8,1,1,0,0,1,.65,1.42A16.71,16.71,0,0,1,43.19,46l-.56.41,2.26,3.92c.12.21.25.41.35.62a1,1,0,1,1-1.82,1c-.67-1.12-1.31-2.26-2-3.39-.2-.36-.41-.72-.58-1-1.44.44-2.81.92-4.22,1.26a14.23,14.23,0,0,1-5.92.13c-.53-.1-.78,0-.9.56-.26,1.12-.58,2.22-.91,3.48,1.42.13,2.74.28,4.06.36,1.08.07,1.41.36,1.41,1.42v5.64c0,1-.37,1.34-1.34,1.34a29.4,29.4,0,0,1-28-21.49A1.13,1.13,0,0,1,6,38.67l4.17-1.12.59-.2c-.14-1.15-.31-2.25-.4-3.35a22.65,22.65,0,0,1,2.87-12.84c.4-.72,1-.94,1.55-.61a1.09,1.09,0,0,1,.29,1.6,21.43,21.43,0,0,0-2.33,6,21.27,21.27,0,0,0,.06,8.07,13.41,13.41,0,0,1,.2,1.55c.05,1-.14,1.2-1,1.44L8,40.29l-.67.21a26.64,26.64,0,0,0,6,10.46c1.15-1.16,2.27-2.29,3.4-3.41.79-.79,1.18-.74,2,0,1.18,1,2.44,1.9,3.67,2.84.17.13.38.22.54.36a1,1,0,0,1,.21,1.3.88.88,0,0,1-1.22.43,16.17,16.17,0,0,1-2-1.18c-.76-.54-1.47-1.15-2.15-1.68l-3,2.92a26.93,26.93,0,0,0,17.32,7.15V55.54c-1-.14-2-.28-3.07-.44-.5-.08-1-.19-1.48-.3-1-.24-1.26-.69-1-1.68.37-1.48.78-2.95,1.18-4.42,0-.1.05-.21.09-.37a17.05,17.05,0,0,1-8.61-6.62L15.4,44a5.2,5.2,0,0,1-.69.38A1,1,0,0,1,13.4,44a1,1,0,0,1,.27-1.4c.44-.31.93-.56,1.4-.83l3.24-1.86a16.86,16.86,0,0,1-1.6-9.67,16.68,16.68,0,0,1,4-8.8l-7.43-7.54c-.88,1.15-1.79,2.23-2.57,3.4a26.85,26.85,0,0,0-4.57,14.2c0,.33,0,.66-.05,1-.09.73-.41,1-1,1a1,1,0,0,1-1-1.12,46.54,46.54,0,0,1,.42-4.88A28.88,28.88,0,0,1,12.32,12c.76-.79,1.24-.79,2,0l7.36,7.37a7.37,7.37,0,0,1,.47.58A17.38,17.38,0,0,1,28,16.48c-.38-1.38-.74-2.74-1.11-4.1-.46-1.66-.21-2.13,1.48-2.57a17.24,17.24,0,0,1,5.73-.36A26.47,26.47,0,0,1,44,11.94L46,8.34A26.73,26.73,0,0,0,34.78,5.21,26.33,26.33,0,0,0,20.67,8.37l2.17,3.77c.13.22.27.45.39.68a1,1,0,0,1-.36,1.43,1,1,0,0,1-1.4-.36c-.78-1.26-1.52-2.55-2.27-3.83l-.81-1.42a1.08,1.08,0,0,1,.49-1.73,27.19,27.19,0,0,1,8.93-3.26,30.87,30.87,0,0,1,17,1.68,17.9,17.9,0,0,1,3,1.67c.78.51.83.92.38,1.72q-1.45,2.56-3,5.09c-.41.69-.92.77-1.74.31a20.69,20.69,0,0,0-10.8-2.63c-1.23,0-2.46.23-3.84.36L30,16a16.87,16.87,0,0,1,14.39,3.85l3.44-3.41c.82-.81,1.3-.83,2.07,0,1,1.13,1.94,2.3,2.95,3.51l3.58-2.07c-.8-1.05-1.54-2.06-2.32-3-.38-.48-.81-.91-1.23-1.36-.67-.71-.77-1.34-.26-1.81s1.07-.38,1.79.37a28.89,28.89,0,0,1,5.8,8.65,29.3,29.3,0,0,1-18.94,40c-1,.29-1.45,0-1.73-1-.48-1.75-.94-3.5-1.41-5.24,0-.13-.07-.26-.09-.38a1.08,1.08,0,0,1,.73-1.4,1.07,1.07,0,0,1,1.3.89c.38,1.41.74,2.83,1.1,4.24C41.24,58,41.31,58.18,41.38,58.44Z"/><path class="cls-1" d="M33.34,20.87a7.2,7.2,0,0,1,6.41,3.81,6.75,6.75,0,0,1-.25,7.44,10.79,10.79,0,0,0-2,6.62,4.17,4.17,0,1,1-8.34,0,10.23,10.23,0,0,0-2-6.55,6.65,6.65,0,0,1-.28-7.42A7.13,7.13,0,0,1,33.34,20.87Zm2.1,15.73a11.9,11.9,0,0,1,2.24-5.48,5.16,5.16,0,0,0-1.37-7.18,5.25,5.25,0,0,0-7.22,1.24A5.07,5.07,0,0,0,28.94,31a12.65,12.65,0,0,1,1.95,3.75c.15.6.27,1.22.4,1.84Zm-4.17,2.15a2.09,2.09,0,0,0,2.09,2.06,2.06,2.06,0,0,0,2-2.06Z"/></svg>