<svg id="Layer_1" data-name="Layer 1" xmlns="http://www.w3.org/2000/svg" viewBox="0 0 65 65"><defs><style>.cls-1{fill:#4dc0b3;}</style></defs><path class="cls-1" d="M16.21,60c0,.66,0,1.26,0,1.85A1,1,0,0,1,15,63H10.27a1,1,0,0,1-1.14-1.13q0-9,0-18a1,1,0,0,1,1.12-1.15c1.6,0,3.21,0,4.81,0a1,1,0,0,1,1.14,1.15c0,.86,0,1.73,0,2.59,0,.38.13.51.49.56,1.33.21,2.66.45,4,.64a3,3,0,0,0,1.11-.06L34.44,44.2c2.35-.62,3.71.1,4.52,2.45l3-1.23,9.93-4.1A4,4,0,0,1,57,43.19a4.06,4.06,0,0,1-1.47,5.32L33.86,61.78a5,5,0,0,1-4.61.47c-1.89-.71-3.78-1.43-5.68-2.13a2.17,2.17,0,0,0-.79-.18h-6.2ZM29,50.88l6.93-2.57c.82-.3,1.16-.83,1-1.52s-.79-.92-1.64-.7C31.8,47,28.36,47.85,25,48.86a11.93,11.93,0,0,1-7,.42,15.38,15.38,0,0,0-1.74-.3V57.9h.66c2,0,4,0,6,0a3.51,3.51,0,0,1,1.16.22c1.92.7,3.84,1.42,5.74,2.16A3.36,3.36,0,0,0,32.94,60Q43.61,53.41,54.3,46.89a2,2,0,0,0,.94-2.75,2,2,0,0,0-2.75-.86c-4.29,1.77-8.58,3.52-12.86,5.31a19,19,0,0,0-2,1.13,6.59,6.59,0,0,1-.83.44c-1,.37-2,.72-3,1.08l-4.13,1.53Zm-17.8,10h3V44.76h-3Z"/><path class="cls-1" d="M51.21,39.21l-1.58-1.16a21.07,21.07,0,0,0,3.63-16.91A20.57,20.57,0,0,0,45.65,8.8,21.23,21.23,0,0,0,12.72,33.33c.67-.22,1.35-.45,2-.66.95-.29,1.61.29,1.42,1.26-.31,1.57-.63,3.14-1,4.71-.21,1-.86,1.28-1.73.76-1.58-.93-3.15-1.89-4.72-2.82a1,1,0,0,1,.25-2c.54-.16,1.07-.36,1.67-.56-2.66-7.56-2-14.76,2.38-21.48a22.25,22.25,0,0,1,11.58-9,23.27,23.27,0,0,1,26.56,35.7ZM11.55,35.87,13.48,37l.37-1.94Z"/><path class="cls-1" d="M32.44,33.58H19.64c-1.08,0-1.39-.32-1.39-1.4V14.7c0-1.08.31-1.4,1.39-1.4H45.23c1.08,0,1.4.32,1.4,1.4V32.18c0,1.08-.32,1.4-1.4,1.4ZM20.3,31.5H44.55V15.37H20.3Z"/><path class="cls-1" d="M31.38,17.39h2s.08.08.07.11A1.38,1.38,0,0,0,34.25,19a2.72,2.72,0,0,1,1.23,2.35h-2c0-.13-.1-.27-.16-.4a1,1,0,0,0-1.9.5,1,1,0,0,0,.88.93c.29.06.59.05.87.13A2.9,2.9,0,0,1,35.42,25a2.68,2.68,0,0,1-1.15,2.88c-.65.42-1,.83-.78,1.64h-2s-.06,0-.06-.08a1.38,1.38,0,0,0-.82-1.54A2.68,2.68,0,0,1,29.4,25.5h2a3.33,3.33,0,0,0,.16.4.93.93,0,0,0,1.15.54,1,1,0,0,0,.75-1,1,1,0,0,0-.89-.93c-.29-.06-.59,0-.87-.13A2.91,2.91,0,0,1,29.46,22a2.7,2.7,0,0,1,1.15-2.94C31.25,18.62,31.6,18.22,31.38,17.39Z"/></svg>