<svg id="Layer_1" data-name="Layer 1" xmlns="http://www.w3.org/2000/svg" viewBox="0 0 65 65"><defs><style>.cls-1{fill:#4dc0b3;}</style></defs><path class="cls-1" d="M27.28,27a8.48,8.48,0,1,1,11,0c.8.27,1.6.51,2.38.83a11,11,0,0,1,5.62,4.55.65.65,0,0,0,.58.19c.38-.07.73-.26,1.11-.37.65-.2,1.08.1,1.08.77,0,4.75,0,9.51,0,14.26,0,.57-.34.79-.81,1L37.44,52l-.12,0a11.71,11.71,0,0,1-6.1,1,3,3,0,0,1-.77-.18L17.31,48.21a1,1,0,0,1-.81-1.13c0-4.63,0-9.26,0-13.89,0-.92.39-1.19,1.26-.9.43.14.91.45,1.28.35s.5-.65.75-1a12.25,12.25,0,0,1,6.51-4.29l.94-.28S27.27,27,27.28,27Zm3,24.2c0-.21,0-.31,0-.41,0-4,0-8,0-12a.6.6,0,0,0-.49-.65C26.9,37.11,24,36.06,21,35L18,34c0,.18,0,.28,0,.38,0,4,0,8.06,0,12.09,0,.41.2.52.51.63l6.77,2.38Zm4.94,0,.5-.14c3.79-1.34,7.58-2.69,11.38-4a.6.6,0,0,0,.45-.68q0-6,0-11.91c0-.14,0-.28,0-.45a2.29,2.29,0,0,0-.32.06L35.65,38.15c-.39.14-.43.35-.43.69q0,5.17,0,10.36ZM32.77,13.58a6.95,6.95,0,1,0,6.95,6.93A7,7,0,0,0,32.77,13.58ZM45,33.27A7.18,7.18,0,0,0,43.08,31,13.34,13.34,0,0,0,37,28.34a2.27,2.27,0,0,0-1.13,0,8.43,8.43,0,0,1-6.23,0,1.27,1.27,0,0,0-.65-.12,14,14,0,0,0-6.7,2.86,6.67,6.67,0,0,0-1.73,2.14l.22.11L30.94,37a1.17,1.17,0,0,0,.36.08A11,11,0,0,0,36,36.47c1.2-.55,2.48-.9,3.73-1.34ZM31.86,38.55v13h1.83v-13Z"/><path class="cls-1" d="M30.23,3.65l-1.38-.86c-.44-.27-.71-.6-.43-1.12s.65-.48,1.18-.16c1.12.68,2.25,1.38,3.37,2.08.69.43.74.89.15,1.44-1,.91-1.93,1.81-2.9,2.7-.45.42-.89.45-1.19.09s-.2-.83.18-1.18,1-.89,1.43-1.34l-.07-.2c-1.5.27-3,.43-4.51.85C15.62,9,8.9,15.68,6.05,26.2c-.2.73-.31,1.49-.44,2.25-.1.5-.37.82-.89.72s-.66-.49-.59-1A29,29,0,0,1,26.61,4.28C27.75,4,28.92,3.87,30.23,3.65Z"/><path class="cls-1" d="M3.88,35.09c-.34.54-.62,1-.88,1.4s-.6.71-1.12.42-.48-.64-.16-1.17c.7-1.15,1.4-2.29,2.12-3.43.4-.62.86-.67,1.36-.14.93,1,1.84,2,2.75,2.95.42.45.44.89.07,1.19s-.83.18-1.18-.2L5.4,34.57a22.77,22.77,0,0,0,1.09,5.91c3.29,9.8,9.88,16.11,19.89,18.79.74.2,1.49.32,2.25.45.5.09.81.33.76.86s-.46.7-1,.61a29,29,0,0,1-24-22.87C4.19,37.3,4.06,36.26,3.88,35.09Z"/><path class="cls-1" d="M61.74,29.92c.28-.45.56-.9.85-1.35s.62-.64,1.08-.35.46.69.19,1.13c-.72,1.15-1.43,2.32-2.16,3.47-.39.62-.86.66-1.36.13-.93-1-1.84-2-2.75-3-.41-.45-.43-.89-.06-1.19s.79-.21,1.13.16.92,1,1.49,1.57a22.61,22.61,0,0,0-1.09-5.89c-3.29-9.82-9.9-16.14-19.93-18.81-.72-.19-1.46-.3-2.19-.44-.58-.12-.9-.47-.78-.9a.78.78,0,0,1,1-.57,28.52,28.52,0,0,1,14,6.24,28.73,28.73,0,0,1,10.4,18.91c0,.26,0,.53.08.79Z"/><path class="cls-1" d="M35.33,61.48l1.46.91c.39.25.6.6.34,1a.71.71,0,0,1-1.11.23c-1.18-.72-2.37-1.45-3.53-2.19a.74.74,0,0,1-.12-1.32c1-.94,2-1.87,3-2.8.37-.34.77-.44,1.15-.05s.24.79-.13,1.14L34.9,59.83,35,60c1.14-.17,2.31-.26,3.42-.54,11-2.74,18.1-9.54,21.11-20.51.2-.74.31-1.5.45-2.25.09-.5.36-.82.88-.73s.67.5.59,1A29,29,0,0,1,39,60.84C37.83,61.1,36.64,61.25,35.33,61.48Z"/></svg>