<svg id="Layer_1" data-name="Layer 1" xmlns="http://www.w3.org/2000/svg" viewBox="0 0 65 65"><defs><style>.cls-1{fill:blue;}.cls-2{fill:#f3f945;}</style></defs><path class="cls-1" d="M62,58.66c-.52.5-1,1-1.58,1.49-1.58,1.29-3.19,2.53-4.77,3.81a1.37,1.37,0,0,1-1.53.34,1.43,1.43,0,0,1-.75-1.43c0-.27,0-.54,0-.9H44c-1.24,0-1.66-.41-1.66-1.65V56.23c0-1.23.39-1.63,1.61-1.63h9.45c0-.43,0-.81,0-1.18a1.25,1.25,0,0,1,.71-1.17,1.2,1.2,0,0,1,1.35.19l5.88,4.72a6.35,6.35,0,0,1,.67.7ZM44.8,59.5h.75c2.83,0,5.65,0,8.47,0,.85,0,1.58.11,1.84,1.12l2.92-2.33L55.86,56c-.28,1-1,1.12-1.81,1.11-2.88,0-5.76,0-8.64,0H44.8Z"/><path class="cls-2" d="M62,22.94c-.42.74-.91,1-1.49.89a1.21,1.21,0,0,1-.95-1.21c0-.78,0-1.57,0-2.35a1.22,1.22,0,0,1,2.34-.57,1.47,1.47,0,0,0,.1.13Z"/><path class="cls-2" d="M18.07,5.43A1.42,1.42,0,0,1,19,6.6a1.19,1.19,0,0,1-1.21,1.26c-.8,0-1.6,0-2.41,0a1.21,1.21,0,0,1-1.26-1,1.25,1.25,0,0,1,.69-1.38l.2-.11Z"/><path class="cls-2" d="M62,37.69c-.42.74-.91,1-1.49.89a1.21,1.21,0,0,1-.95-1.21c0-.78,0-1.57,0-2.35a1.22,1.22,0,0,1,2.34-.57,1.47,1.47,0,0,0,.1.13Z"/><path class="cls-2" d="M25.45,5.43a1.42,1.42,0,0,1,.87,1.17,1.19,1.19,0,0,1-1.2,1.26c-.8,0-1.61,0-2.41,0a1.23,1.23,0,0,1-1.27-1,1.26,1.26,0,0,1,.7-1.38l.19-.11Z"/><path class="cls-2" d="M62,45.06c-.42.74-.91,1-1.49.9a1.22,1.22,0,0,1-.95-1.21c0-.79,0-1.57,0-2.36a1.22,1.22,0,0,1,2.34-.57A1.47,1.47,0,0,0,62,42Z"/><path class="cls-2" d="M32.82,5.43A1.42,1.42,0,0,1,33.7,6.6a1.19,1.19,0,0,1-1.21,1.26c-.8,0-1.6,0-2.41,0a1.21,1.21,0,0,1-1.26-1,1.25,1.25,0,0,1,.69-1.38l.2-.11Z"/><path class="cls-2" d="M40.19,5.43a1.42,1.42,0,0,1,.88,1.17,1.19,1.19,0,0,1-1.2,1.26c-.81,0-1.61,0-2.41,0a1.21,1.21,0,0,1-1.27-1,1.26,1.26,0,0,1,.7-1.38l.19-.11Z"/><path class="cls-2" d="M62,52.44c-.42.74-.91,1-1.49.89a1.21,1.21,0,0,1-.95-1.21c0-.78,0-1.57,0-2.35a1.22,1.22,0,0,1,2.34-.57s.07.08.1.13Z"/><path class="cls-2" d="M47.57,5.43a1.43,1.43,0,0,1,.88,1.17,1.2,1.2,0,0,1-1.21,1.26c-.8,0-1.61,0-2.41,0a1.23,1.23,0,0,1-1.27-1,1.26,1.26,0,0,1,.7-1.38l.2-.11Z"/><path class="cls-2" d="M54.94,5.43a1.42,1.42,0,0,1,.88,1.17,1.19,1.19,0,0,1-1.2,1.26c-.81,0-1.61,0-2.42,0a1.21,1.21,0,0,1-1.26-1,1.25,1.25,0,0,1,.7-1.38l.19-.11Z"/><path class="cls-2" d="M62,15.57c-.42.73-.91,1-1.49.89a1.21,1.21,0,0,1-.95-1.21c0-.79,0-1.57,0-2.36a1.22,1.22,0,0,1,2.34-.57l.1.14Z"/><path class="cls-2" d="M62,30.32c-.42.73-.91,1-1.49.89A1.21,1.21,0,0,1,59.53,30c0-.79,0-1.57,0-2.36a1.22,1.22,0,0,1,2.34-.57,1.47,1.47,0,0,0,.1.13Z"/><path class="cls-2" d="M62,8.19c-.56,1-1.49,1.27-2.06.54a7,7,0,0,0-1.25-1.25c-.72-.56-.43-1.51.55-2.05h1.84l.92.92Z"/><path class="cls-1" d="M7.87,49.62V47.28A6.86,6.86,0,0,1,7,47a2.37,2.37,0,0,1-1.6-2.31c0-2.44,0-4.88,0-7.31A2.42,2.42,0,0,1,8,34.93H37.29a2.45,2.45,0,0,1,2.56,2.58v7a2.47,2.47,0,0,1-2.18,2.72l-.24.07v2.37a2.52,2.52,0,0,1,2.35,2,3.09,3.09,0,0,1,.07.74v7A2.47,2.47,0,0,1,37.24,62H8a2.46,2.46,0,0,1-2.6-2.61c0-2.23,0-4.45,0-6.68C5.42,50.8,6,50,7.87,49.62ZM7.94,37.4v7.3H37.36V37.4ZM37.37,52.16H8v7.3H37.37Zm-27-2.53h24.5V47.27H10.37Z"/><path class="cls-1" d="M5.42,14c-.46,0-.82,0-1.18,0a1.23,1.23,0,0,1-.92-2c1.61-2,3.2-4,4.82-6a1.2,1.2,0,0,1,1.95,0q2.37,2.89,4.69,5.83c.34.43.7.89.37,1.51a1.52,1.52,0,0,1-1.51.73H12.8V30.76c0,1.34-.37,1.72-1.7,1.72H7.18c-1.37,0-1.76-.39-1.76-1.74V14ZM10.35,30v-.7c0-5.28,0-10.56,0-15.83,0-.87.06-1.63,1.12-1.9L9.12,8.62,6.79,11.53c1,.29,1.12,1,1.12,1.78,0,5.33,0,10.67,0,16V30Z"/><path class="cls-2" d="M48.46,27.56c0,.41,0,.81,0,1.21A1.21,1.21,0,0,1,47.19,30,1.19,1.19,0,0,1,46,28.77c0-.82,0-1.65,0-2.47a1.18,1.18,0,0,1,1.22-1.19,1.2,1.2,0,0,1,1.23,1.19C48.48,26.72,48.45,27.14,48.46,27.56Z"/><path class="cls-2" d="M46,34.93c0-.41,0-.81,0-1.21a1.22,1.22,0,0,1,1.24-1.24,1.2,1.2,0,0,1,1.22,1.21c0,.82,0,1.64,0,2.47a1.19,1.19,0,0,1-1.21,1.2A1.21,1.21,0,0,1,46,36.13C46,35.73,46,35.33,46,34.93Z"/><path class="cls-2" d="M17.72,21.4c-.42,0-.85,0-1.27,0a1.21,1.21,0,0,1-1.17-1.25A1.17,1.17,0,0,1,16.44,19,24.67,24.67,0,0,1,19,19a1.16,1.16,0,0,1,1.14,1.21A1.18,1.18,0,0,1,19,21.39c-.44,0-.88,0-1.32,0Z"/><path class="cls-2" d="M25.15,21.41c-.42,0-.84,0-1.26,0a1.21,1.21,0,0,1-1.23-1.25A1.19,1.19,0,0,1,23.87,19c.82,0,1.65,0,2.47,0a1.18,1.18,0,0,1,1.2,1.22,1.2,1.2,0,0,1-1.18,1.23c-.4,0-.81,0-1.21,0Z"/><path class="cls-2" d="M32.47,21.4c-.42,0-.85,0-1.27,0A1.2,1.2,0,0,1,30,20.15,1.17,1.17,0,0,1,31.19,19a24.67,24.67,0,0,1,2.58,0,1.16,1.16,0,0,1,1.14,1.21,1.18,1.18,0,0,1-1.12,1.22c-.44,0-.88,0-1.32,0Z"/><path class="cls-2" d="M39.9,18.94c.4,0,.8,0,1.2,0a1.23,1.23,0,0,1,0,2.45,23.54,23.54,0,0,1-2.52,0,1.17,1.17,0,0,1-1.16-1.25A1.19,1.19,0,0,1,38.57,19c.44,0,.89,0,1.33,0Z"/><path class="cls-2" d="M46,42.26c0-.4,0-.81,0-1.21a1.2,1.2,0,0,1,1.22-1.19A1.18,1.18,0,0,1,48.44,41c0,.84,0,1.69,0,2.53a1.17,1.17,0,0,1-1.24,1.17A1.19,1.19,0,0,1,46,43.53C46,43.11,46,42.68,46,42.26Z"/><path class="cls-2" d="M46,49.68c0-.4,0-.81,0-1.21a1.22,1.22,0,0,1,1.24-1.24,1.2,1.2,0,0,1,1.22,1.2c0,.83,0,1.65,0,2.48a1.18,1.18,0,0,1-1.21,1.2A1.21,1.21,0,0,1,46,50.88C46,50.48,46,50.08,46,49.68Z"/><path class="cls-2" d="M48.48,20.84a7,7,0,0,1-.07.8,1.16,1.16,0,0,1-1.06,1,1.25,1.25,0,0,1-1.28-.77,1.15,1.15,0,0,0-.5-.5,1.26,1.26,0,0,1-.78-1.28,1.14,1.14,0,0,1,1-1.08,7.78,7.78,0,0,1,1.6,0,1.13,1.13,0,0,1,1,1.06,5.33,5.33,0,0,1,0,.8Z"/><path class="cls-2" d="M12.82,42.3c-.42,0-.85,0-1.27,0a1.23,1.23,0,0,1-1.2-1.22,1.21,1.21,0,0,1,1.21-1.21c.85,0,1.69,0,2.53,0a1.18,1.18,0,0,1,1.17,1.18,1.21,1.21,0,0,1-1.18,1.24C13.66,42.32,13.24,42.29,12.82,42.3Z"/><path class="cls-2" d="M33.78,39.86a1.18,1.18,0,0,1,1.13,1.26,1.21,1.21,0,0,1-1.29,1.17A1.23,1.23,0,0,1,32.48,41,1.21,1.21,0,0,1,33.78,39.86Z"/><path class="cls-2" d="M12.82,54.61c.43,0,.85,0,1.27,0A1.21,1.21,0,0,1,14.14,57q-1.35.06-2.7,0a1.21,1.21,0,0,1,.06-2.42C11.94,54.59,12.38,54.61,12.82,54.61Z"/><path class="cls-2" d="M33.72,54.61a1.17,1.17,0,0,1,1.19,1.19,1.22,1.22,0,0,1-1.22,1.25,1.25,1.25,0,0,1-1.21-1.22A1.2,1.2,0,0,1,33.72,54.61Z"/></svg>