<svg id="Layer_1" data-name="Layer 1" xmlns="http://www.w3.org/2000/svg" viewBox="0 0 65 65"><defs><style>.cls-1{fill:#f3f945;}.cls-2{fill:blue;}</style></defs><path class="cls-1" d="M55,39.27c1.08,0,2.16,0,3.25,0a2.48,2.48,0,0,1,2.57,2.59,13.63,13.63,0,0,1-.37,2.07,1,1,0,0,0,0,.54,3.84,3.84,0,0,1,0,3.31.86.86,0,0,0,0,.59,3.87,3.87,0,0,1,0,3.31.76.76,0,0,0,0,.59,3.85,3.85,0,0,1,0,3.3.91.91,0,0,0,0,.65,3.88,3.88,0,0,1,.16,2.86,2.45,2.45,0,0,1-2.45,1.68c-2.18,0-4.36,0-6.54,0A2.47,2.47,0,0,1,49.1,58.1a14,14,0,0,1,.37-2,.81.81,0,0,0,0-.49,3.81,3.81,0,0,1,0-3.36.86.86,0,0,0,0-.59,3.82,3.82,0,0,1,0-3.3.8.8,0,0,0,0-.59,3.91,3.91,0,0,1,0-3.31.88.88,0,0,0,0-.64,3.89,3.89,0,0,1-.14-2.92,2.45,2.45,0,0,1,2.36-1.63C52.74,39.26,53.86,39.27,55,39.27Zm0,2H51.9c-.71,0-.86.19-.86,1s.15,1,.84,1h6.17c.67,0,.81-.17.82-.9s-.13-1-.8-1Zm0,5.87h3.12c.65,0,.8-.18.8-.92s-.13-1-.76-1H51.82c-.64,0-.78.21-.78,1s.16.93.8.93Zm.06,2H51.9c-.7,0-.85.18-.86.93s.13,1,.84,1H58c.68,0,.82-.18.83-.9s-.13-1-.8-1ZM55,53H51.9c-.7,0-.85.18-.86.93s.13,1,.83,1H58c.69,0,.83-.17.83-1s-.14-1-.86-1Zm0,5.87h3.12c.63,0,.78-.19.78-.94s-.13-1-.78-1H51.86c-.67,0-.82.19-.82,1s.14,1,.82,1Z"/><path class="cls-1" d="M54,17.76l-1.17,1.53-1.55-1.17c1-1.33,2-2.65,3-3.93a.93.93,0,0,1,1.53,0c1,1.27,1.94,2.56,2.94,3.9l-1.55,1.17-1.19-1.54v.78a26.18,26.18,0,0,1-5.42,16.35A29.72,29.72,0,0,1,37.05,45.07a17.6,17.6,0,0,1-5.69,1c-3.16,0-6.32,0-9.48,0-.46,0-.91-.09-1.06-.55a1.18,1.18,0,0,1,.07-1,1.47,1.47,0,0,1,1-.44c2.52,0,5.05-.09,7.58,0a20.3,20.3,0,0,0,13.19-4.35,27.77,27.77,0,0,0,9.16-10.94A25.55,25.55,0,0,0,54,17.76Z"/><path class="cls-1" d="M41.28,47.1c1.08,0,2.16,0,3.24,0a2.52,2.52,0,0,1,2.6,2.58,3.59,3.59,0,0,1-.41,2.13c-.07.1,0,.34.07.48a3.87,3.87,0,0,1,0,3.31.89.89,0,0,0,0,.64,3.75,3.75,0,0,1,.11,2.92,2.32,2.32,0,0,1-2.31,1.6q-3.36.06-6.73,0a2.52,2.52,0,0,1-2.5-2.56,3.59,3.59,0,0,1,.39-2.13.59.59,0,0,0,0-.48,3.78,3.78,0,0,1,0-3.36.68.68,0,0,0,0-.54,3.79,3.79,0,0,1-.29-2.56,2.46,2.46,0,0,1,2.47-2C39,47.09,40.16,47.1,41.28,47.1Zm0,2H38.19c-.71,0-.85.17-.86.94s.14,1,.85,1c2,0,4.11,0,6.16,0,.67,0,.82-.19.82-1s-.13-1-.81-1ZM41.31,53H38.13c-.64,0-.79.19-.8.93s.14,1,.78,1h6.28c.64,0,.77-.21.77-1S45,53,44.36,53Zm0,3.91H38.16c-.66,0-.82.19-.83.9s.14,1.05.81,1.05h6.23c.67,0,.8-.19.79-1.05s-.16-.89-.83-.9Z"/><path class="cls-2" d="M19.7,50.06a8.81,8.81,0,1,1-8.76-8.83A8.83,8.83,0,0,1,19.7,50.06Zm-2,0a6.85,6.85,0,1,0-6.88,6.83A6.87,6.87,0,0,0,17.74,50.06Z"/><path class="cls-2" d="M14.61,6.37,13.06,7.54,11.87,6V37.76c0,1-.32,1.52-1,1.51s-1-.48-1-1.49V6L8.72,7.54,7.17,6.37c1-1.35,2-2.7,3-4a.91.91,0,0,1,1.48.12C12.66,3.75,13.6,5,14.61,6.37Z"/><path class="cls-1" d="M27.54,60.8c-1.06,0-2.12,0-3.18,0a2.51,2.51,0,0,1-2.67-2.69,12.8,12.8,0,0,1,.38-2,.81.81,0,0,0-.05-.49,3.77,3.77,0,0,1-.25-2.68A2.39,2.39,0,0,1,24.09,51c2.3,0,4.6,0,6.91,0a2.28,2.28,0,0,1,2.23,1.62,3.78,3.78,0,0,1-.14,2.91,1,1,0,0,0,0,.7,3.77,3.77,0,0,1,.1,2.91,2.39,2.39,0,0,1-2.37,1.61c-1.1,0-2.2,0-3.3,0Zm-.07-5.87h3.24c.61,0,.75-.22.74-1s-.15-.9-.76-.9H24.4c-.63,0-.77.2-.78,1s.15,1,.8,1Zm.06,2H24.48c-.71,0-.85.18-.86.94s.14,1,.85,1h6.16c.68,0,.82-.19.82-1s-.13-1-.81-1Z"/><path class="cls-1" d="M11.9,48v1.09c1.6.28,2.79,1,2.57,2.9-.17,1.52-1.34,1.84-2.57,2.12l-.06.82H9.93l0-.7a9.2,9.2,0,0,1-1.77-.39c-.16-.06-.16-.62-.16-1,0-.63,0-.63,1.9-.75V51c-1.62-.26-2.8-1-2.55-3,.2-1.48,1.35-1.79,2.57-2.06l.06-.82h1.9l.05.71c.65.42,1.95-.52,1.93,1a1.42,1.42,0,0,1-.21.84c-.16.16-.52.16-.79.19S12.22,48,11.9,48Zm-2,.11-.19-.14c-.14.21-.39.41-.39.62s.29.34.46.51L9.88,49Zm2,4c.43,0,.73-.17.6-.59-.06-.17-.34-.28-.6-.47Z"/></svg>