<svg id="Layer_1" data-name="Layer 1" xmlns="http://www.w3.org/2000/svg" viewBox="0 0 65 65"><defs><style>.cls-1{fill:blue;}.cls-2{fill:#f3f945;}</style></defs><path class="cls-1" d="M48.69,35c2-.62,3.59-.08,4.47,1.42a3.52,3.52,0,0,1-1,4.62c.09.18.18.38.28.56.82,1.43,1.65,2.84,2.47,4.27a3.12,3.12,0,0,1-5.16,3.52,1,1,0,0,0-.67-.26,27.69,27.69,0,0,0-8.78,1.51c-1,.33-2,.71-3,1.09.17.26.29.44.42.62l4.51,6.06a1.9,1.9,0,0,1-.3,3c-.27.24-.53.49-.81.73a1.8,1.8,0,0,1-2.81-.29l-5-6.63c-.12-.16-.24-.32-.39-.5a5.9,5.9,0,0,1-4.13.66,5.71,5.71,0,0,1-4.4-4.46,5.63,5.63,0,0,1,2.38-5.79c1.33-.86,2.73-1.61,4.09-2.41.09-.05.2-.13.28-.12.88.14,1.35-.53,1.91-1a30,30,0,0,0,7-7.83,1.1,1.1,0,0,0,.11-1.11A3.1,3.1,0,0,1,45.7,29.9c.91,1.49,1.75,3,2.63,4.53C48.44,34.62,48.56,34.8,48.69,35Zm-7.28-.1a34.86,34.86,0,0,1-8.62,9.16l3.6,6.24A34.19,34.19,0,0,1,48.62,47.4ZM52.23,49a1.4,1.4,0,0,0,1.31-2.11c-.45-.86-1-1.69-1.45-2.54q-3.8-6.59-7.62-13.17a2.48,2.48,0,0,0-.8-.87,1.3,1.3,0,0,0-1.57.25,1.41,1.41,0,0,0-.2,1.74c.86,1.52,1.74,3,2.61,4.54,2.16,3.74,4.33,7.48,6.48,11.23A1.53,1.53,0,0,0,52.23,49ZM31.11,44.58c-1.15.67-2.24,1.25-3.28,1.92a4,4,0,0,0-1.32,5.15,3.91,3.91,0,0,0,5,1.84c1.23-.54,2.37-1.29,3.61-2Zm10,15.23L36,52.93l-1.54.91L39.84,61Zm8.41-23.26,1.71,3a1.72,1.72,0,0,0,.43-2.19A1.77,1.77,0,0,0,49.56,36.55Z"/><path class="cls-1" d="M41.54,13.87H30.73V26a1.28,1.28,0,0,1,0,.48c-.15.33-.29.76-.56.9a1.11,1.11,0,0,1-1-.22c-1.22-1-2.4-2.13-3.6-3.2l-.4-.34-3.67,3.29a5.05,5.05,0,0,1-.51.43.84.84,0,0,1-1.3-.52,3,3,0,0,1,0-.67V13.88H8.89V46.52H22.7c.81,0,1.22.29,1.22.86s-.42.85-1.23.85H8.37c-1,0-1.23-.26-1.23-1.23V13.38c0-1,.26-1.25,1.28-1.25q16.78,0,33.57,0c1,0,1.27.24,1.27,1.25q0,6.49,0,13c0,.22,0,.51-.07.65s-.54.56-.81.55-.58-.34-.77-.61-.06-.47-.06-.71V13.87ZM29,24.63V13.9H21.42V24.61l.57-.47,2.45-2.2c.6-.52.92-.52,1.53,0l1.64,1.46Z"/><path class="cls-2" d="M53.19,11.71a.84.84,0,0,1-.76,1c-.49.08-.88-.28-1-.88a9,9,0,0,0-7.86-7.86c-.72-.09-1-.43-1-1s.52-.82,1.25-.72a10.67,10.67,0,0,1,9.25,9C53.16,11.42,53.17,11.58,53.19,11.71Z"/><path class="cls-2" d="M43.07,5.24a8,8,0,0,1,7.12,7.1.83.83,0,0,1-.71,1,.82.82,0,0,1-1-.7,11.88,11.88,0,0,0-.7-2.31A6,6,0,0,0,43,7l-.12,0c-.6-.09-.95-.46-.9-1S42.46,5.21,43.07,5.24Z"/><path class="cls-2" d="M42.5,8.42A5.12,5.12,0,0,1,47,12.89a.79.79,0,0,1-.69.92c-.52.08-.8-.19-1-.68a8.5,8.5,0,0,0-1-2,2.9,2.9,0,0,0-2-1,.82.82,0,0,1-.79-1A.79.79,0,0,1,42.5,8.42Z"/><path class="cls-2" d="M53.9,28.78a6.18,6.18,0,0,1-.27.7c-.5.9-1,1.8-1.55,2.69a.89.89,0,0,1-1.27.43.87.87,0,0,1-.21-1.28c.53-.93,1-1.89,1.64-2.77a1.16,1.16,0,0,1,.95-.41C53.45,28.17,53.67,28.56,53.9,28.78Z"/><path class="cls-2" d="M57.85,41.23c-.54,0-1.09,0-1.64,0a.79.79,0,0,1-.87-.81.82.82,0,0,1,.87-.89c1.11,0,2.23,0,3.34,0a.85.85,0,1,1,0,1.7C59,41.25,58.4,41.24,57.85,41.23Z"/><path class="cls-2" d="M59.24,33.61c-.1.12-.23.43-.46.57-.89.56-1.81,1.08-2.73,1.59a.85.85,0,1,1-.82-1.49c.88-.53,1.78-1.05,2.69-1.55A.88.88,0,0,1,59.24,33.61Z"/></svg>