<svg id="Layer_1" data-name="Layer 1" xmlns="http://www.w3.org/2000/svg" viewBox="0 0 65 65"><defs><style>.cls-1{fill:#190f2d;}</style></defs><path class="cls-1" d="M12.54,42.13l8.67-4.21c3.48-1.68,6.67-1,9.68,1.21a5.15,5.15,0,0,0,1.49.77q3.18.91,6.37,1.73A4.81,4.81,0,0,1,42,43.93l4.72-1.25c3.19-.85,6.36-1.75,9.57-2.52a4.5,4.5,0,0,1,5.42,5.68,5.69,5.69,0,0,1-3.57,4L38.55,57.32a9.27,9.27,0,0,1-6.34.13c-2.5-.81-5-1.59-7.51-2.41a3.75,3.75,0,0,0-3.07.22L18.8,56.68c.14.35.27.66.39,1a2.7,2.7,0,0,1-1.45,3.61c-1.28.57-2.57,1.13-3.88,1.66a2.64,2.64,0,0,1-3.6-1.45Q6.71,53.24,3.18,45a2.64,2.64,0,0,1,1.43-3.56c1.27-.56,2.54-1.1,3.82-1.63a2.7,2.7,0,0,1,3.73,1.5C12.27,41.54,12.39,41.8,12.54,42.13Zm5.66,13.2c.91-.46,1.8-.87,2.66-1.33a5.34,5.34,0,0,1,4.37-.35c2.43.81,4.88,1.57,7.32,2.37a8.22,8.22,0,0,0,5.68-.14c2.71-1.05,5.44-2.08,8.16-3.12l11-4.19a4.42,4.42,0,0,0,3-3.29,3,3,0,0,0-3.75-3.7c-4.57,1.19-9.13,2.42-13.69,3.63a3,3,0,0,0-.36.17,4.53,4.53,0,0,1-6.08,4.84c-1.67-.57-3.41-.95-5.11-1.42l-4.59-1.28a.73.73,0,1,1,.39-1.4l.41.11q4.83,1.34,9.66,2.65a2.93,2.93,0,0,0,3.75-2,2.89,2.89,0,0,0-2.17-3.65c-2.23-.62-4.49-1.18-6.71-1.85A7.39,7.39,0,0,1,30,40.26c-2.56-1.84-5.24-2.44-8.19-1-2.73,1.34-5.46,2.65-8.18,4-.16.08-.31.18-.47.28ZM9.49,41a4.42,4.42,0,0,0-.57.17L5.39,42.68a1.27,1.27,0,0,0-.76,2q3.43,8.05,6.9,16.1a1.27,1.27,0,0,0,1.92.77q1.74-.73,3.48-1.5a1.31,1.31,0,0,0,.8-2q-1-2.38-2.05-4.77L10.9,42A1.4,1.4,0,0,0,9.49,41Z"/><path class="cls-1" d="M56.84,11.34A11.65,11.65,0,0,1,56,12.86a1.25,1.25,0,0,0-.07,1.61,26.32,26.32,0,0,1,1.39,3.44.83.83,0,0,0,.76.69c.42.06.84.16,1.26.26a1.3,1.3,0,0,1,1.08,1.3q0,1.53,0,3.06a1.28,1.28,0,0,1-1,1.27c-.63.17-1.42.13-1.84.51s-.37,1.18-.61,1.76a23.34,23.34,0,0,1-1.19,2.47.73.73,0,0,0,0,.92,12.2,12.2,0,0,1,.74,1.13A1.32,1.32,0,0,1,56.3,33c-.67.71-1.37,1.4-2.07,2.08a1.33,1.33,0,0,1-1.74.18c-.54-.32-1.06-.89-1.61-.92s-1.05.55-1.62.78c-.9.37-1.84.65-2.74,1a.91.91,0,0,0-.48.5c-.15.46-.21,1-.33,1.43a1.33,1.33,0,0,1-1.41,1.11H41.49A1.25,1.25,0,0,1,40.08,38a2.29,2.29,0,0,0-2.14-2.33,11.71,11.71,0,0,1-2.65-1.22.63.63,0,0,0-.81,0c-.35.25-.71.48-1.08.7A1.38,1.38,0,0,1,31.47,35c-.66-.64-1.3-1.28-1.94-1.94a1.33,1.33,0,0,1-.2-1.83c.24-.4.49-.8.77-1.18s.14-.47,0-.77c-.58-1.31-1.11-2.65-1.68-4a.92.92,0,0,0-.49-.48c-.46-.16-1-.22-1.43-.34a1.31,1.31,0,0,1-1.12-1.33c0-1,0-2,0-2.94a1.23,1.23,0,0,1,1.15-1.35,2.29,2.29,0,0,0,2.35-2.12,10.93,10.93,0,0,1,1.21-2.66.69.69,0,0,0,0-.87,12,12,0,0,1-.73-1.12,1.33,1.33,0,0,1,.18-1.78c.67-.69,1.34-1.37,2-2a1.2,1.2,0,0,1,1.76-.16,2.32,2.32,0,0,0,3.21.14,15.89,15.89,0,0,1,2.73-1,1.05,1.05,0,0,0,.52-.54A11.74,11.74,0,0,0,40,5.38a1.38,1.38,0,0,1,1.47-1.2h2.75c.8,0,1.38.36,1.43,1.13a2.32,2.32,0,0,0,2.18,2.37,11.75,11.75,0,0,1,2.65,1.23.63.63,0,0,0,.77,0c.37-.27.77-.52,1.17-.77a1.31,1.31,0,0,1,1.78.18c.69.66,1.38,1.33,2,2A5.42,5.42,0,0,1,56.84,11.34ZM55.17,32c-.33-.51-.67-1.07-1.05-1.6a1.16,1.16,0,0,1,0-1.35,14.59,14.59,0,0,0,1.62-3.59,2.26,2.26,0,0,1,2.4-2.16c.61,0,.89-.29.81-1s.17-1.51-.16-1.94-1.19-.38-1.83-.5A1,1,0,0,1,56,19a12.94,12.94,0,0,0-1.93-4.65,1,1,0,0,1,0-1.29c.39-.54.73-1.12,1-1.58l-2-2c-.5.32-1.06.66-1.59,1a1,1,0,0,1-1.29,0,12.29,12.29,0,0,0-4.65-1.93,1,1,0,0,1-.92-1c-.11-.64-.27-1.27-.41-1.93-.81,0-1.58,0-2.36,0-.37,0-.49.14-.54.48-.08.5-.23,1-.3,1.49a1,1,0,0,1-.95,1,12.5,12.5,0,0,0-4.6,1.91,1,1,0,0,1-1.29,0c-.54-.39-1.12-.73-1.6-1.05l-2,2c.35.53.71,1.12,1.1,1.69a.9.9,0,0,1,0,1.13,12.84,12.84,0,0,0-2,4.82.91.91,0,0,1-.82.78,15,15,0,0,0-1.67.37.65.65,0,0,0-.38.47,17,17,0,0,0,0,2,.63.63,0,0,0,.35.43,16.07,16.07,0,0,0,1.67.37.93.93,0,0,1,.86.81,12.52,12.52,0,0,0,2,4.77,1,1,0,0,1,0,1.18c-.39.57-.76,1.15-1.18,1.8.61.59,1.19,1.16,1.8,1.7a.55.55,0,0,0,.5,0c.52-.29,1-.63,1.5-1a.87.87,0,0,1,1.07,0,13.54,13.54,0,0,0,4.88,2,.87.87,0,0,1,.76.76c.13.69.3,1.38.45,2.07h2.8c.14-.66.29-1.3.41-1.94a1,1,0,0,1,.89-.93,12.44,12.44,0,0,0,4.71-2,1,1,0,0,1,1.19,0c.56.39,1.15.75,1.69,1.1Z"/><path class="cls-1" d="M31.76,21.65A11.12,11.12,0,1,1,42.81,32.81,11.16,11.16,0,0,1,31.76,21.65Zm1.47,0A9.65,9.65,0,1,0,42.89,12,9.69,9.69,0,0,0,33.23,21.68Z"/><path class="cls-1" d="M42.14,25.07c0-1,0-1.95,0-2.93a.85.85,0,0,0-.32-.56,2.26,2.26,0,0,1,0-4,.88.88,0,0,0,.34-.61c0-.54,0-1.1,0-1.65s.15-.9.73-.93.73.3.74.91c0,.22,0,.45,0,.67a1.93,1.93,0,0,0,.81,2A2.14,2.14,0,0,1,44,21.52a.75.75,0,0,0-.44.76c0,1.92,0,3.83,0,5.75,0,.39-.06.74-.49.88s-1-.18-1-.84C42.13,27.07,42.14,26.07,42.14,25.07Zm1.54-5.42a.78.78,0,0,0-.75-.84.78.78,0,1,0,0,1.56A.77.77,0,0,0,43.68,19.65Z"/><path class="cls-1" d="M48.3,18.46c0,1,0,2,0,3.05a.93.93,0,0,0,.36.66,2.28,2.28,0,0,1,0,3.95,1,1,0,0,0-.37.65,13.08,13.08,0,0,0,0,1.4.7.7,0,0,1-.77.77c-.47,0-.67-.33-.69-.77a5,5,0,0,1,0-.55,1.8,1.8,0,0,0-.76-1.84,2.14,2.14,0,0,1,.34-3.55.75.75,0,0,0,.42-.77c0-2,0-4,0-6.05a1.24,1.24,0,0,1,.33-.86c.46-.4,1.1,0,1.11.67,0,1.08,0,2.16,0,3.24Zm-.73,4.91a.75.75,0,0,0-.79.76.76.76,0,0,0,.75.81.77.77,0,0,0,.82-.8A.75.75,0,0,0,47.57,23.37Z"/><path class="cls-1" d="M38.94,17.89c0,.86,0,1.71,0,2.57a.85.85,0,0,0,.35.59,2.27,2.27,0,0,1,0,4,.86.86,0,0,0-.33.6c0,.82,0,1.63,0,2.45,0,.5-.2.86-.73.85s-.74-.35-.74-.85c0-.82,0-1.64,0-2.45a.84.84,0,0,0-.34-.6,2.27,2.27,0,0,1,0-4,.9.9,0,0,0,.34-.6c0-1.72,0-3.43,0-5.14,0-.66.46-1.08.94-.83a1.12,1.12,0,0,1,.51.78C39,16.13,38.94,17,38.94,17.89ZM39,23a.76.76,0,0,0-.8-.75.75.75,0,0,0-.76.84.72.72,0,0,0,.82.71A.75.75,0,0,0,39,23Z"/></svg>