<svg id="Layer_1" data-name="Layer 1" xmlns="http://www.w3.org/2000/svg" viewBox="0 0 65 65"><defs><style>.cls-1{fill:#190f2d;}</style></defs><path class="cls-1" d="M31.74,61.83a12.13,12.13,0,0,1-1.7-.7,4.41,4.41,0,0,1-2.27-3.69c-.06-.8,0-1.61,0-2.49h-5c-.81,0-1.07-.21-1.25-1Q18,39.26,14.55,24.56c-.35-1.51-.7-3-1.07-4.52a4,4,0,0,0-.31-.67,1.13,1.13,0,0,1-.18-.48c.11-1.54-.56-2.94-.82-4.41-.11-.67-.32-1.32-.45-2a.48.48,0,0,0-.58-.46c-1,0-2,0-3,0C7.41,12,7,11.72,7,11.16s.39-.91,1.09-.91h4c.74,0,1,.21,1.17.93.5,2.07,1,4.13,1.46,6.21.1.45.29.54.7.53,1.12,0,2.24,0,3.42,0,0-.57,0-1.09,0-1.6a1,1,0,0,1,1-1h3.16c.3-.72.6-1.39.85-2.08a.67.67,0,0,0-.15-.53c-.6-.63-1.23-1.23-1.84-1.85s-.63-1.07,0-1.68l3.74-3.73a1,1,0,0,1,1.64,0c.73.72,1.44,1.45,2.13,2.14.74-.28,1.41-.51,2.06-.8a.68.68,0,0,0,.31-.51c0-.89,0-1.78,0-2.67s.32-1.19,1.2-1.19h5.34c.8,0,1.14.33,1.15,1.12s0,1.75,0,2.62a.55.55,0,0,0,.45.66,5.41,5.41,0,0,1,1.3.51c.46.28.74.15,1.07-.22.56-.61,1.16-1.19,1.76-1.77a.91.91,0,0,1,1.47,0c1.32,1.31,2.63,2.62,3.94,3.95a.91.91,0,0,1,0,1.43c-.66.68-1.33,1.35-2,2a.5.5,0,0,0-.12.7,5.22,5.22,0,0,1,.52,1.28c.12.59.44.7,1,.68.79,0,1.58,0,2.38,0s1.11.34,1.12,1.15c0,.42,0,.85,0,1.27a.9.9,0,0,0,0,.16,2.68,2.68,0,0,0,.42.05h2.56c.79,0,1.11.33,1.12,1.14V37.17a7,7,0,0,0,.15.9,2.3,2.3,0,0,1,0,.45c-.06.78-.17,1.56-.19,2.34,0,1.43,0,2.87,0,4.3,0,1-.29,1.32-1.31,1.32H21.6l1.56,6.65h12A4.86,4.86,0,0,0,36,53a2.2,2.2,0,0,1,.57-.05c.59.06,1.17.21,1.75.21,5.06,0,10.11,0,15.16,0a3.06,3.06,0,0,0,1-.17.91.91,0,0,1,1.26.8,32.64,32.64,0,0,1-.07,3.83,4.62,4.62,0,0,1-3.72,4.15,2.77,2.77,0,0,0-.26.1H50.21a9.93,9.93,0,0,1-1.2-.4,4.67,4.67,0,0,1-2.86-4.28c0-.73,0-1.45,0-2.16H37.21c0,.77,0,1.5,0,2.23a4.29,4.29,0,0,1-1.74,3.51,14.22,14.22,0,0,1-2.33,1.1ZM15.31,19.6c.06.34.07.51.11.67Q18.22,32.15,21,44c.12.49.3.63.8.63H54.59V39.29H38.71a.89.89,0,0,1-.87-.91.9.9,0,0,1,.82-.9,4.51,4.51,0,0,1,.52,0H54.6V33.63h-15a.82.82,0,0,1-.78-.79c-.06-.62.34-1,1-1H54.59V28H41.41c-.27,0-.54,0-.81,0a.87.87,0,0,1-.84-.86.9.9,0,0,1,.77-.94,3,3,0,0,1,.52,0H54.59V19.69H28.49a8.82,8.82,0,0,0-1.23.22,2.15,2.15,0,0,1-.67,0c-.41-.06-.81-.2-1.22-.22-.79,0-1.59,0-2.38,0a8.76,8.76,0,0,0-3.1.22c-.12,0-.3,0-.45,0ZM44.66,7.17c-.66.66-1.33,1.34-2,2a1,1,0,0,1-1.31.22c-1-.44-2-.85-3-1.24a1,1,0,0,1-.74-1V5.28c0-.36,0-.72,0-1.09h-4c0,.94,0,1.84,0,2.75s-.19,1-.94,1.3S30.88,8.92,30,9.31s-1,.35-1.6-.23-1.29-1.32-1.9-1.94L23.63,10l1.86,1.81c.7.7.7.89.28,1.77a22.71,22.71,0,0,0-1,2.46c-.29.86-.48,1-1.41,1H20.7v.77h5.39a9.62,9.62,0,0,1,19,0h5.36V17.1H47.67c-.7,0-.94-.23-1.18-.87-.35-.94-.73-1.87-1.15-2.78-.31-.68-.31-.95.24-1.49s1.32-1.31,2-2ZM43.21,17.88a7.62,7.62,0,0,0-8-6.79c-3.74.16-7.55,3.77-7.21,6.79ZM29.53,55c0,.69,0,1.36,0,2a2.94,2.94,0,0,0,5.58,1.2A7.2,7.2,0,0,0,35.39,55ZM48,55c0,.76,0,1.47,0,2.18a2.91,2.91,0,0,0,2.51,2.7,2.82,2.82,0,0,0,3.14-1.92,17.9,17.9,0,0,0,.26-3Z"/></svg>