<svg id="Layer_1" data-name="Layer 1" xmlns="http://www.w3.org/2000/svg" viewBox="0 0 65 65"><defs><style>.cls-1{fill:#190f2d;}</style></defs><path class="cls-1" d="M1.12,29.14c0-.2.11-.39.17-.58a4.65,4.65,0,0,1,4.37-3.48c2.51,0,5,0,7.52,0H14v-.77q0-6.42,0-12.85a4.17,4.17,0,0,1,3.17-4.25,5,5,0,0,1,1.28-.13H54.72a4.18,4.18,0,0,1,4.46,4.49c0,6.08,0,12.16,0,18.24v.81c.58,0,1.11,0,1.62.12a3.46,3.46,0,0,1,2.95,3.34q0,7.83,0,15.66a3.48,3.48,0,0,1-3.43,3.4c-2.65,0-5.31,0-8,0a3.54,3.54,0,0,1-3.46-3.69c0-2.1,0-4.2,0-6.3v-.75H41.79v3.17c0,1.18,0,1.18,1.19,1.18h1.35c.85,0,1.3.34,1.28,1s-.45.93-1.26.93H28.81c-.75,0-1.16-.35-1.16-1s.4-.92,1.18-.93,1.43,0,2.14,0c.15,0,.43-.21.43-.32,0-1.32,0-2.65,0-4H24.55v.74c0,3.4,0,6.81,0,10.21a4.72,4.72,0,0,1-3.65,4.87,6.85,6.85,0,0,1-1.57.15h-13a4.81,4.81,0,0,1-5.17-3.91s-.05-.06-.07-.09Zm56.17,1.5V11.58A2.35,2.35,0,0,0,54.64,9H18.55a2.33,2.33,0,0,0-2.63,2.63V25c1.25,0,2.43,0,3.61,0a4.75,4.75,0,0,1,5,5c0,1.29,0,2.57,0,3.86v.65H48.82a3.84,3.84,0,0,1,4.43-3.88C54.57,30.71,55.89,30.64,57.29,30.64ZM3,41.68q0,5.79,0,11.56a2.87,2.87,0,0,0,3.17,3.18H19.42a2.9,2.9,0,0,0,3.21-3.22q0-11.54,0-23.06a2.91,2.91,0,0,0-3.18-3.2H6.26C4.13,26.94,3,28,3,30.18Zm58.83.25h0q0-3.72,0-7.46A1.67,1.67,0,0,0,60,32.56c-2.4,0-4.81,0-7.21,0a1.7,1.7,0,0,0-2,1.94V49.24a1.71,1.71,0,0,0,1.94,2h7.15c1.36,0,2-.62,2-2C61.86,46.78,61.86,44.36,61.86,41.93Zm-13-5.43H24.57v3.87H48.88Zm-9,5.86H33.34v4.31h6.53Z"/></svg>