<svg id="Layer_1" data-name="Layer 1" xmlns="http://www.w3.org/2000/svg" viewBox="0 0 65 65"><defs><style>.cls-1{fill:#4dc0b3;}</style></defs><path class="cls-1" d="M18.92,14.62V7.54c0-1,.15-1.2,1.08-1.56,4.1-1.6,8.2-3.2,12.31-4.77a2,2,0,0,1,1.29,0C37.75,2.79,41.88,4.41,46,6A1.22,1.22,0,0,1,47,7.43V21.77a1.25,1.25,0,0,1-1,1.44c-4.1,1.6-8.2,3.18-12.3,4.79a1.82,1.82,0,0,1-1.43,0q-6.1-2.4-12.23-4.76c-1-.38-1.1-.59-1.1-1.62ZM34.06,25.38a1.76,1.76,0,0,0,.28,0c3.32-1.29,6.65-2.59,10-3.87.38-.15.42-.37.42-.7,0-3.81,0-7.61,0-11.42a4.6,4.6,0,0,0,0-.5l-.27.07c-3.32,1.29-6.65,2.59-10,3.86-.36.14-.39.34-.39.66,0,2.54,0,5.08,0,7.63ZM21.16,8.8c0,4.12,0,8.13,0,12.14,0,.18.25.44.45.52,2.16.86,4.34,1.7,6.51,2.54l3.62,1.41a1,1,0,0,0,0-.12q0-6,0-12a.56.56,0,0,0-.25-.42c-.54-.24-1.11-.44-1.74-.68,0,.66,0,1.26,0,1.85,0,1.15-.65,1.63-1.73,1.26l-3.92-1.34a1.24,1.24,0,0,1-1-1.43c0-.83,0-1.65,0-2.48a.73.73,0,0,0-.25-.54C22.37,9.23,21.8,9,21.16,8.8Zm6.32,0a2.05,2.05,0,0,0,2,.25c2.79-1.15,5.61-2.2,8.41-3.3a4.43,4.43,0,0,0,.5-.24,1.79,1.79,0,0,0-2-.2,21.72,21.72,0,0,1-2.07.82ZM23.21,7.13a1.91,1.91,0,0,0,2,.16c1.27-.57,2.6-1,3.91-1.54l4.92-1.92c-1-.54-1-.54-1.84-.2L28.29,5.15Zm19.47.06c-1-.54-1-.54-1.86-.2L37.94,8.11l-6.1,2.38a1.72,1.72,0,0,0,1.94.17,7,7,0,0,1,.86-.34ZM27.59,12.74c0-.45,0-.8,0-1.15a.49.49,0,0,0-.22-.37c-.62-.27-1.26-.5-2-.77,0,.46,0,.85,0,1.23a.54.54,0,0,0,.28.4C26.28,12.31,26.88,12.5,27.59,12.74Z"/><path class="cls-1" d="M9.16,34.15c.83-.34,1.53-.59,2.2-.9a1,1,0,0,0,.38-.52,1.33,1.33,0,0,0,0-.49c0-1,.4-1.42,1.43-1.42q1.8,0,3.6,0c.95,0,1.41.41,1.35,1.36a1,1,0,0,0,.92,1.28,11.64,11.64,0,0,1,1.72.73,7.61,7.61,0,0,1,.68-.84,1.08,1.08,0,0,1,1.61,0c1,.94,2,1.91,2.9,2.89a1.1,1.1,0,0,1,0,1.61,8.66,8.66,0,0,1-.8.72c.34.84.63,1.59.94,2.32a.53.53,0,0,0,.34.26,3.2,3.2,0,0,0,.62,0c1,0,1.42.4,1.43,1.43v3.6c0,.94-.42,1.41-1.36,1.34a1,1,0,0,0-1.28.93,11.83,11.83,0,0,1-.74,1.72,7.65,7.65,0,0,1,.85.68,1.1,1.1,0,0,1,0,1.61c-.95,1-1.92,1.95-2.9,2.9a1.1,1.1,0,0,1-1.61,0,10.2,10.2,0,0,1-.71-.8c-.84.34-1.59.63-2.32.94a.53.53,0,0,0-.26.34,3.2,3.2,0,0,0,0,.62c0,1-.41,1.43-1.43,1.43h-3.6c-.95,0-1.41-.42-1.35-1.36.05-.76-.19-1.11-.92-1.28a11,11,0,0,1-1.72-.74,7.65,7.65,0,0,1-.68.85,1.1,1.1,0,0,1-1.61,0c-1-1-1.95-1.92-2.9-2.9a1.1,1.1,0,0,1,0-1.61,8.5,8.5,0,0,1,.8-.71c-.34-.85-.63-1.59-.94-2.33a.57.57,0,0,0-.35-.25,3.09,3.09,0,0,0-.61,0c-1,0-1.43-.39-1.43-1.42,0-1.22,0-2.44,0-3.67,0-.87.43-1.35,1.3-1.28a1.09,1.09,0,0,0,1.36-1,10.75,10.75,0,0,1,.72-1.67A6.64,6.64,0,0,1,4,37.84a1.1,1.1,0,0,1,0-1.61c.95-1,1.91-1.94,2.9-2.89a1.1,1.1,0,0,1,1.61,0A10.29,10.29,0,0,1,9.16,34.15ZM3.68,45.29l.45,0c1.22,0,1.35.15,1.69,1.34a7.65,7.65,0,0,0,.79,2c.7,1.1,1.08,2.09-.27,2.92L7.76,53c.15-.17.32-.38.51-.57a1.22,1.22,0,0,1,1.48-.19c1.1.5,2.23,1,3.36,1.39A1.15,1.15,0,0,1,14,54.72v.88h1.93c0-.28,0-.52,0-.77,0-.75.3-1,1-1.29,1.06-.38,2.11-.81,3.13-1.29a1.25,1.25,0,0,1,1.67.22l.62.58,1-1.1.25-.29-.31-.34c-.82-.85-.82-1.08-.26-2.11A13.53,13.53,0,0,0,24,47c.51-1.6.48-1.61,2.1-1.72,0,0,.07,0,.11-.06V43.41l-.48,0c-1.13,0-1.3-.19-1.62-1.29a7.87,7.87,0,0,0-.8-2.07c-.69-1.1-1.09-2.08.28-2.92l-1.45-1.39c-.15.18-.3.4-.49.59a1.21,1.21,0,0,1-1.48.19c-1.1-.49-2.23-1-3.35-1.39A1.14,1.14,0,0,1,15.92,34c0-.3,0-.6,0-.89H14c0,.24,0,.44,0,.64,0,.92-.27,1.16-1.12,1.45a22.14,22.14,0,0,0-2.9,1.2c-.83.41-1.19.42-1.87-.24-.14-.14-.3-.27-.42-.38L6.24,37.17a5.2,5.2,0,0,1,.65.48,1.19,1.19,0,0,1,.2,1.52c-.49,1.08-.94,2.19-1.36,3.3a1.18,1.18,0,0,1-1.17.91H3.68Z"/><path class="cls-1" d="M24.54,61.67c.17.38.29.64.39.91a1.1,1.1,0,0,1-.59,1.4A1,1,0,0,1,23,63.53c-.62-1.21-1.2-2.45-1.75-3.69a1,1,0,0,1,.66-1.46c1.25-.43,2.51-.83,3.78-1.21a1.11,1.11,0,0,1,.66,2.12l-.69.25,0,.19c1.57.33,3.12.76,4.7,1a23.41,23.41,0,0,0,12.66-1.79c.8-.35,1.37-.22,1.69.35A1.11,1.11,0,0,1,44,60.88a24.92,24.92,0,0,1-5.9,1.83,25.93,25.93,0,0,1-13-.91A4.31,4.31,0,0,0,24.54,61.67Z"/><path class="cls-1" d="M11.88,15.08a9.64,9.64,0,0,1-1-.14,1.11,1.11,0,0,1-.9-1.16,1.06,1.06,0,0,1,1.08-1c1.38.07,2.76.18,4.13.33a1.07,1.07,0,0,1,.88,1.39c-.25,1.22-.52,2.43-.79,3.64a1.13,1.13,0,1,1-2.18-.51c0-.15.06-.31.12-.68-.37.34-.63.55-.86.78A23.68,23.68,0,0,0,5.14,32.36c0,.12,0,.24-.06.36a1.1,1.1,0,0,1-1.24,1,1,1,0,0,1-.94-1.23,34.86,34.86,0,0,1,.69-4,25.62,25.62,0,0,1,8-13l.27-.26S11.86,15.15,11.88,15.08Z"/><path class="cls-1" d="M60.44,29.51c.25-.33.42-.59.62-.82a1.12,1.12,0,0,1,1.5-.2,1.07,1.07,0,0,1,.31,1.44c-.76,1.15-1.55,2.29-2.37,3.41a1,1,0,0,1-1.55.1c-1-.88-2-1.77-2.93-2.68A1.07,1.07,0,0,1,56,29.2a1.09,1.09,0,0,1,1.56-.05,1.88,1.88,0,0,0,.65.37c-.28-1-.51-2.05-.85-3A23.67,23.67,0,0,0,49.1,15.09c-.16-.12-.33-.24-.49-.38a1.12,1.12,0,0,1-.2-1.55A1.06,1.06,0,0,1,50,13,36.48,36.48,0,0,1,53,15.56a25.54,25.54,0,0,1,7.26,13.35C60.32,29.07,60.37,29.23,60.44,29.51Z"/><path class="cls-1" d="M52.68,35.17c-.62-1-.61-1.55,0-2s1.14-.25,1.84.55,1.17,1.34,1.75,2,.6,1.43-.31,2l-2.32,1.54c-.77.51-1.34.5-1.77,0s-.35-1.07.43-1.87c-.61.08-1.08.11-1.54.22a9,9,0,0,0-6.89,7.38c0,.21-.06.41-.1.61a1.11,1.11,0,0,1-2.2-.34A11.32,11.32,0,0,1,52.26,35.21,4.12,4.12,0,0,0,52.68,35.17Z"/><path class="cls-1" d="M43.05,52.33c-.48,1-1,1.29-1.63,1s-.84-.88-.49-1.91c.29-.84.57-1.68.87-2.51.35-1,.94-1.24,1.87-.78l2.6,1.3c.77.38,1,.89.82,1.52s-.76.8-1.6.59l-.18,0a8.66,8.66,0,0,0,3.61,3.13A9,9,0,0,0,56.2,55c.15-.06.3-.14.46-.19a1.11,1.11,0,0,1,1.41.68,1.08,1.08,0,0,1-.61,1.39,10.22,10.22,0,0,1-4.13,1,11.22,11.22,0,0,1-10-5.21l-.18-.26Z"/><path class="cls-1" d="M62.71,52.11a5,5,0,0,1,.6-.06,1.12,1.12,0,0,1,1.13.88,1,1,0,0,1-.68,1.24c-1.26.3-2.54.55-3.82.74-.6.08-1-.36-1.09-1-.09-1.14-.16-2.27-.21-3.41a1.07,1.07,0,0,1,1-1.2,1.1,1.1,0,0,1,1.22,1,3.46,3.46,0,0,1,.06.41,9.05,9.05,0,0,0-2.48-11.3l-.29-.24a1.11,1.11,0,1,1,1.38-1.74,11,11,0,0,1,3.83,4.93A11.21,11.21,0,0,1,63,51.51Z"/><path class="cls-1" d="M7.38,44.35A7.57,7.57,0,1,1,15,51.92,7.59,7.59,0,0,1,7.38,44.35Zm7.55,5.33a5.34,5.34,0,1,0-5.32-5.34A5.35,5.35,0,0,0,14.93,49.68Z"/></svg>