<svg id="Layer_1" data-name="Layer 1" xmlns="http://www.w3.org/2000/svg" viewBox="0 0 65 65"><defs><style>.cls-1{fill:#4dc0b3;}</style></defs><path class="cls-1" d="M1.06,29.21c.2-1.39.33-2.8.64-4.19a1.26,1.26,0,0,1,.66-.89c1.18-.66,2.35-1.34,3.52-2a.83.83,0,0,1,1,0c2.05,1.2,4.12,2.4,6.19,3.57a1,1,0,0,1,.52.94c0,3.19,0,6.37,0,9.55,0,.73,0,.76-.67.42-1.25-.71-2.49-1.43-3.75-2.13a.84.84,0,0,1-.46-.85c0-1.45,0-2.91,0-4.37a1,1,0,0,0-.49-.9,2.5,2.5,0,0,0-3.56-.05,1.19,1.19,0,0,0-.58,1c0,1.44,0,2.88,0,4.32a.81.81,0,0,1-.48.83c-.62.33-1.22.68-1.82,1-.41.25-.54.1-.58-.31a3.55,3.55,0,0,0-.12-1Z"/><path class="cls-1" d="M48.55,24.61c0,3,0,5.95,0,8.93a1.06,1.06,0,0,1-.6,1.08q-3.06,1.73-6.08,3.5a.84.84,0,0,1-1,0q-3.13-1.83-6.29-3.64a.77.77,0,0,1-.43-.74c0-2.42,0-4.85,0-7.27a.84.84,0,0,1,.48-.78L41,22.06a.74.74,0,0,1,.85,0c.47.29,1,.54,1.44.83s.43.1.43-.25c0-.94,0-1.89,0-2.83,0-2.26,0-4.52,0-6.78,0-.71,0-.74.68-.4,1.22.64,2.42,1.31,3.65,1.94a.89.89,0,0,1,.54.91Q48.54,20.05,48.55,24.61Zm-9.43,5.5c-.34,1.06.2,1.62,1.11,2a.24.24,0,0,1,.11.06c.73.69,1.39.43,2.18,0a2,2,0,0,0,1.2-2.07,2,2,0,0,0-1.13-2,2,2,0,0,0-2.39,0C39.39,28.61,38.78,29.06,39.12,30.11Z"/><path class="cls-1" d="M31.14,30.17c0,1.15,0,2.3,0,3.45a.94.94,0,0,1-.53.94c-2,1.15-4.07,2.33-6.08,3.51a1,1,0,0,1-1.18,0c-2-1.19-4-2.34-6-3.48a1.05,1.05,0,0,1-.62-1q0-3.45,0-6.9a1.07,1.07,0,0,1,.61-1c2.07-1.17,4.14-2.36,6.19-3.56a.8.8,0,0,1,.91,0q3.12,1.82,6.24,3.6a.93.93,0,0,1,.49.91C31.13,27.79,31.14,29,31.14,30.17Z"/><path class="cls-1" d="M56.65,30.27c-.34,1,.35,1.5,1.27,2,1.79.95,3.52,2,5.28,3,.51.3.52.39,0,.68-1.26.73-2.53,1.44-3.79,2.18a.74.74,0,0,1-.85,0q-3.13-1.83-6.29-3.63a.85.85,0,0,1-.47-.85q0-3.54,0-7.08a.94.94,0,0,1,.54-.93c2-1.17,4.1-2.35,6.13-3.55a.9.9,0,0,1,1,0c1.14.69,2.31,1.34,3.46,2a1,1,0,0,1,.5.66,38.06,38.06,0,0,1,.71,4.75.73.73,0,0,1-.41.8c-.62.33-1.21.7-1.81,1.05-.36.21-.54.15-.53-.29,0-.61,0-1.23,0-1.85a.71.71,0,0,0-.43-.74l-.1-.06c-2-1.19-2-1.19-3.9.08a.67.67,0,0,0-.35.6C56.66,29.43,56.65,29.76,56.65,30.27Z"/><path class="cls-1" d="M39.76,45.36c0,1.19,0,2.39,0,3.58a1,1,0,0,1-.57,1q-3.09,1.74-6.13,3.55a1.15,1.15,0,0,1-1.4,0c-.61-.41-1.27-.75-1.91-1.12-.31-.18-.33-.33,0-.51a1.1,1.1,0,0,1,1.37,0,1.8,1.8,0,0,0,2.47,0c1.4-.93,2.9-1.72,4.37-2.54a1.11,1.11,0,0,0,.67-1.11c0-1.91,0-3.82,0-5.73A1.12,1.12,0,0,0,38,41.38c-1.73-1-3.43-2-5.13-2.94a.86.86,0,0,0-1,0q-2.64,1.55-5.29,3a.87.87,0,0,0-.48.84q0,3.06,0,6.1a.79.79,0,0,0,.46.8c.36.19.71.41,1.07.6.93.48,1.61.09,1.62-1,0-1.66,0-3.33,0-5,0-.37,0-.74,0-1.11s.17-.51.53-.52.61.09.61.51c0,2.17.06,4.35,0,6.53-.08,1.72-1.49,2.45-3,1.65-.65-.34-1.28-.74-1.93-1.09a.82.82,0,0,1-.45-.8V41.66a.84.84,0,0,1,.46-.8Q28.7,39,31.94,37.1a.74.74,0,0,1,.85,0Q36,39,39.3,40.86a.89.89,0,0,1,.46.87C39.75,42.94,39.76,44.15,39.76,45.36Z"/><path class="cls-1" d="M34.05,42a2.68,2.68,0,0,1,2.71,1.45c.12.27.35.62,0,.88A.81.81,0,0,1,35.65,44a1.24,1.24,0,0,0-1-.72,4.91,4.91,0,0,0-1.71.12.59.59,0,0,0-.55.57c0,.35.27.45.54.5.74.15,1.49.28,2.24.41a3.17,3.17,0,0,1,1,.31,1.63,1.63,0,0,1,1,1.53,1.69,1.69,0,0,1-1,1.69,5.79,5.79,0,0,1-3.85.18A2,2,0,0,1,31,47c0-.2-.19-.49.13-.57s.81-.22.95.16c.42,1.2,1.45.95,2.32,1.07a3,3,0,0,0,.73-.07.78.78,0,0,0,.74-.71c.05-.41-.3-.58-.62-.65-.82-.18-1.65-.34-2.48-.48a1.62,1.62,0,0,1-1.44-2.43,2.2,2.2,0,0,1,2-1.24C33.56,42,33.81,42,34.05,42Z"/><path class="cls-1" d="M57.61,30.1A1.67,1.67,0,0,1,59,28.53a1.78,1.78,0,0,1,1.5,1.58A1.72,1.72,0,0,1,59,31.68,1.64,1.64,0,0,1,57.61,30.1Z"/></svg>