<svg id="Layer_1" data-name="Layer 1" xmlns="http://www.w3.org/2000/svg" viewBox="0 0 65 65"><defs><style>.cls-1{fill:#190f2d;}</style></defs><path class="cls-1" d="M60.87.84l.65.21A4.68,4.68,0,0,1,62,9.84a4.61,4.61,0,0,1-5.26-1.13,1.19,1.19,0,0,0-1-.43c-1.88,0-3.76,0-5.63,0a1.37,1.37,0,0,0-.87.34c-.93.87-1.82,1.77-2.7,2.69a1.47,1.47,0,0,0-.31.76c0,.54,0,1.08,0,1.62A1.65,1.65,0,0,0,47,15.49a1.75,1.75,0,0,0,.8.34c2.71,0,5.41,0,8.12,0a1.26,1.26,0,0,0,.83-.38A4.69,4.69,0,1,1,63.42,22a4.65,4.65,0,0,1-6.66-.14,1.11,1.11,0,0,0-.91-.4c-2.67,0-5.33,0-8,0a1.09,1.09,0,0,0-.92.38,4.71,4.71,0,0,1-3,1.5,1,1,0,0,0-.64.37c-1.06,1.37-2.07,2.77-3.12,4.14-.21.28-.26.5,0,.77a1.11,1.11,0,0,1,.21.38c.21.94.81,1.11,1.69,1.06,1.37-.07,2.75,0,4.13,0,.83,0,1.22.3,1.23.91s-.4,1-1.26,1H41.28v1.82H55.49V32c-.22,0-.43,0-.65,0-1.27,0-2.55,0-3.82,0a.94.94,0,0,1-1-1,1,1,0,0,1,1-.89h.44c1.44,0,2.88,0,4.32,0a1.19,1.19,0,0,0,1-.41,4.6,4.6,0,0,1,5.33-1,4.69,4.69,0,0,1,2.74,4.58,4.63,4.63,0,0,1-3.59,4.22,4.47,4.47,0,0,1-4.46-1.31,1.23,1.23,0,0,0-1-.42c-4.79,0-9.59,0-14.38,0-.45,0-.72.08-.88.56a10.05,10.05,0,0,1-.66,1.31c1.15,1.54,2.31,3.09,3.49,4.62a.76.76,0,0,0,.48.21A4.88,4.88,0,0,1,47,43.94a1.1,1.1,0,0,0,.69.29q4.1,0,8.19,0a1.15,1.15,0,0,0,.78-.35,4.69,4.69,0,0,1,8,4.48,4.67,4.67,0,0,1-4.77,3.38,4.81,4.81,0,0,1-3.15-1.46,1.37,1.37,0,0,0-.83-.39c-2.71,0-5.42,0-8.13,0a1.77,1.77,0,0,0-1.51,1.49A7.57,7.57,0,0,0,46.35,54c.3.75,1.22,1.23,1.75,1.92a3.76,3.76,0,0,0,3.67,1.53c1.34-.14,2.7,0,4.06,0a1.28,1.28,0,0,0,.83-.38,4.69,4.69,0,0,1,8,4.46,4.68,4.68,0,0,1-4.78,3.36,4.42,4.42,0,0,1-3-1.4,1.2,1.2,0,0,0-1-.4c-2.29,0-4.58,0-6.88,0a3.65,3.65,0,0,1-2.84-1.17c-1.45-1.52-2.95-3-4.46-4.47a3.28,3.28,0,0,1-1-2.52c0-1.22,0-2.46,0-3.68a1.3,1.3,0,0,0-.35-.79,4.84,4.84,0,0,1-1.36-4.3,1.16,1.16,0,0,0-.16-.73c-1-1.4-2.08-2.77-3.1-4.16a.6.6,0,0,0-.74-.24,8.43,8.43,0,1,1,0-16.34.75.75,0,0,0,.93-.33c1-1.34,2-2.64,2.93-4a1.19,1.19,0,0,0,.19-.78,5,5,0,0,1,1.34-4.31,1.51,1.51,0,0,0,.37-.9c0-1.23,0-2.46,0-3.69a3.1,3.1,0,0,1,1-2.35Q44,6,46.34,3.61a3,3,0,0,1,2.29-.95c2.38,0,4.75,0,7.13,0a1.28,1.28,0,0,0,1.09-.44A5.41,5.41,0,0,1,59.37.84Zm-28,38.57a6.56,6.56,0,1,0-6.61-6.52A6.54,6.54,0,0,0,32.86,39.41ZM55.49,59.32H49.63a1.68,1.68,0,0,1-1.33-.55C47.17,57.6,46,56.49,44.88,55.3a1.94,1.94,0,0,1-.47-1.14c-.08-.8,0-1.61,0-2.45H42.51c0,1.09,0,2.15,0,3.2a2.06,2.06,0,0,0,.5,1.2c1.47,1.54,3,3,4.48,4.53a1.78,1.78,0,0,0,1.39.56c2,0,4,0,6,0,.19,0,.39,0,.59,0ZM44.38,14c0-.84-.05-1.65,0-2.45a2,2,0,0,1,.47-1.15C46,9.23,47.17,8.11,48.3,6.94a1.67,1.67,0,0,1,1.33-.53c1.73,0,3.45,0,5.18,0l.67,0V4.6a.69.69,0,0,0-.21,0c-2.25,0-4.5,0-6.74,0a1.36,1.36,0,0,0-.86.4c-1.6,1.56-3.17,3.14-4.74,4.72a1.25,1.25,0,0,0-.39.68c0,1.22,0,2.44,0,3.65Zm13-8.52a2.81,2.81,0,1,0,2.86-2.77A2.81,2.81,0,0,0,57.35,5.49ZM40.72,18.65a2.79,2.79,0,0,0,2.8,2.82,2.81,2.81,0,0,0,0-5.62A2.8,2.8,0,0,0,40.72,18.65Zm19.42-2.8A2.81,2.81,0,1,0,63,18.67,2.81,2.81,0,0,0,60.14,15.85ZM40.72,47a2.81,2.81,0,0,0,2.8,2.84,2.82,2.82,0,0,0,0-5.63A2.8,2.8,0,0,0,40.72,47Zm19.47-2.79A2.81,2.81,0,1,0,63,47.1,2.82,2.82,0,0,0,60.19,44.24Zm0,13.13A2.82,2.82,0,0,0,60.1,63a2.82,2.82,0,1,0,.08-5.63Zm0-27.32A2.81,2.81,0,1,0,63,32.85,2.8,2.8,0,0,0,60.13,30.05ZM48.17,48h7.3V46.15h-7.3Zm7.3-28.4v-1.8H48.18v1.8ZM38.68,26.73,41.48,23,40,21.83l-2.8,3.76ZM40,43.89l1.5-1.12L38.64,39l-1.49,1.13Z"/><path class="cls-1" d="M.84,28.86a9.79,9.79,0,0,1,.44-1.15,3.35,3.35,0,0,1,3-1.84c.89,0,1.79,0,2.69,0a1.58,1.58,0,0,0,1.57-1.09l1.41-3.4a1.6,1.6,0,0,0-.33-1.9c-.59-.61-1.21-1.2-1.8-1.81a3.42,3.42,0,0,1,0-5C9.43,11,11,9.42,12.65,7.83a3.44,3.44,0,0,1,5.11,0c.58.57,1.14,1.15,1.72,1.73a1.61,1.61,0,0,0,1.94.34c1.1-.48,2.22-.94,3.34-1.38A1.62,1.62,0,0,0,25.89,6.9c0-.6,0-1.21,0-1.81,0-2.49.57-3.34,2.84-4.25H37l.5.22a3.17,3.17,0,0,1,1.94,4.28C39.18,6,39,6.59,38.7,7.21s-.75.88-1.28.66-.7-.7-.46-1.36.43-1.13.65-1.69a1.42,1.42,0,0,0-1.46-2.1c-1.64,0-3.29,0-4.94,0-.56,0-1.12,0-1.69,0a1.6,1.6,0,0,0-1.75,1.74c0,.81,0,1.63,0,2.44a3.45,3.45,0,0,1-2.37,3.39c-1.07.41-2.12.85-3.17,1.31a3.44,3.44,0,0,1-4.08-.73c-.56-.55-1.11-1.12-1.68-1.68a1.59,1.59,0,0,0-2.51,0Q11.55,11.55,9.17,14a1.57,1.57,0,0,0,0,2.42c.58.6,1.18,1.18,1.76,1.78a3.45,3.45,0,0,1,.69,4c-.46,1.06-.9,2.14-1.33,3.22a3.46,3.46,0,0,1-3.36,2.33c-.83,0-1.66,0-2.5,0a1.57,1.57,0,0,0-1.69,1.68q0,3.44,0,6.87A1.58,1.58,0,0,0,4.44,38c.88,0,1.75,0,2.63,0a3.3,3.3,0,0,1,3.15,2.15c.52,1.18,1,2.37,1.49,3.57A3.37,3.37,0,0,1,11,47.52c-.58.62-1.21,1.21-1.8,1.82a1.57,1.57,0,0,0,0,2.42c1.6,1.61,3.2,3.22,4.82,4.82a1.57,1.57,0,0,0,2.42,0c.62-.6,1.2-1.22,1.82-1.81a3.37,3.37,0,0,1,3.87-.69c1.15.47,2.31.94,3.46,1.43a3.33,3.33,0,0,1,2.19,3.12c0,.86,0,1.71,0,2.57A1.63,1.63,0,0,0,29.58,63a9.53,9.53,0,0,1,1.07,0,.86.86,0,0,1,.84.91.83.83,0,0,1-.82.93,8.28,8.28,0,0,1-2-.06,3.41,3.41,0,0,1-2.79-3.44c0-.83,0-1.66,0-2.5a1.57,1.57,0,0,0-1.14-1.66c-1.1-.44-2.2-.9-3.29-1.36a1.59,1.59,0,0,0-2,.35c-.6.58-1.17,1.19-1.77,1.77a3.44,3.44,0,0,1-5,0c-1.66-1.64-3.32-3.29-5-5a3.39,3.39,0,0,1,0-4.88c.58-.6,1.18-1.17,1.77-1.77a1.64,1.64,0,0,0,.37-2.1C9.43,43.17,9,42.1,8.56,41A1.61,1.61,0,0,0,6.9,39.86H4.59A3.46,3.46,0,0,1,.93,37a.51.51,0,0,0-.09-.16Z"/><path class="cls-1" d="M34.4,52.57c-1.95-.2-3.81-.27-5.62-.59a18,18,0,0,1-8-3.68,1,1,0,0,1-.08-1.62c.49-.32.9-.12,1.31.2a17.38,17.38,0,0,0,6.05,3,17.16,17.16,0,0,0,5.54.62c-.48-1.23-.91-2.41-1.4-3.56-.07-.16-.45-.25-.69-.27a14,14,0,0,1-12.23-17.3A13.75,13.75,0,0,1,30.74,19.05a2,2,0,0,0,2-1.69c.2-.71.52-1.39.81-2.15a16.19,16.19,0,0,0-4.84.43A17.71,17.71,0,0,0,15.25,30.8a17.36,17.36,0,0,0,3.33,12.55c.09.12.18.23.26.36a.94.94,0,0,1-.14,1.38,1,1,0,0,1-1.37-.28,19,19,0,0,1-3.06-5.69A19.59,19.59,0,0,1,29.9,13.52a28.44,28.44,0,0,1,3.92-.18c.37,0,.56-.1.68-.45.22-.67.49-1.33.75-2a1,1,0,1,1,1.75.68l-3,7.68A2.24,2.24,0,0,1,32,20.75a12.07,12.07,0,0,0-.8,24l.75.09A2.27,2.27,0,0,1,34.1,46.5q2.37,6.21,4.76,12.41a12.27,12.27,0,0,0,.57,1.46c1,1.91-.65,4.33-2.86,4.49a13.53,13.53,0,0,1-1.56,0A.94.94,0,1,1,35,63c.46,0,.92,0,1.38,0a1.38,1.38,0,0,0,1.24-2l-3.06-8C34.51,52.81,34.42,52.6,34.4,52.57Z"/></svg>