<svg id="Layer_1" data-name="Layer 1" xmlns="http://www.w3.org/2000/svg" viewBox="0 0 65 65"><defs><style>.cls-1{fill:blue;}.cls-2{fill:#f3f945;}</style></defs><path class="cls-1" d="M62,56.75c-.53.5-1,1-1.59,1.49-1.57,1.28-3.18,2.53-4.76,3.81a1.37,1.37,0,0,1-1.53.34A1.42,1.42,0,0,1,53.41,61c0-.26,0-.53,0-.89H44c-1.24,0-1.66-.42-1.66-1.65s0-2.73,0-4.09.39-1.63,1.6-1.63h9.46c0-.44,0-.81,0-1.19a1.24,1.24,0,0,1,.71-1.16,1.19,1.19,0,0,1,1.34.19c2,1.57,3.93,3.13,5.88,4.71a9,9,0,0,1,.68.7Zm-17.17.83h.75c2.82,0,5.65,0,8.47,0,.85,0,1.58.12,1.83,1.13l2.92-2.34L55.93,54c-.28,1-1,1.11-1.81,1.1-2.88,0-5.76,0-8.64,0h-.61Z"/><path class="cls-2" d="M62,21c-.42.73-.91,1-1.49.89a1.2,1.2,0,0,1-.95-1.21c0-.79,0-1.57,0-2.36a1.19,1.19,0,0,1,.93-1.27,1.2,1.2,0,0,1,1.41.71s.07.08.1.13Z"/><path class="cls-2" d="M18.14,3.51A1.45,1.45,0,0,1,19,4.69,1.21,1.21,0,0,1,17.81,6C17,6,16.2,6,15.4,6a1.22,1.22,0,0,1-.57-2.33l.2-.12Z"/><path class="cls-2" d="M62,35.78c-.42.73-.91,1-1.49.89a1.2,1.2,0,0,1-.95-1.21c0-.79,0-1.57,0-2.36a1.19,1.19,0,0,1,.93-1.27,1.21,1.21,0,0,1,1.41.7,1.21,1.21,0,0,0,.1.14Z"/><path class="cls-2" d="M25.51,3.51a1.43,1.43,0,0,1,.88,1.18A1.2,1.2,0,0,1,25.19,6c-.81,0-1.61,0-2.42,0a1.22,1.22,0,0,1-.56-2.33l.19-.12Z"/><path class="cls-2" d="M62,43.15c-.42.74-.91,1-1.49.89a1.2,1.2,0,0,1-.95-1.21c0-.78,0-1.57,0-2.35a1.19,1.19,0,0,1,.93-1.28,1.21,1.21,0,0,1,1.41.71A.64.64,0,0,0,62,40Z"/><path class="cls-2" d="M32.89,3.51a1.45,1.45,0,0,1,.88,1.18A1.21,1.21,0,0,1,32.56,6c-.8,0-1.61,0-2.41,0a1.22,1.22,0,0,1-.57-2.33l.2-.12Z"/><path class="cls-2" d="M40.26,3.51a1.43,1.43,0,0,1,.88,1.18A1.2,1.2,0,0,1,39.94,6c-.81,0-1.61,0-2.42,0a1.23,1.23,0,0,1-1.26-1A1.24,1.24,0,0,1,37,3.63l.2-.12Z"/><path class="cls-2" d="M62,50.53c-.42.73-.91,1-1.49.89a1.21,1.21,0,0,1-.95-1.21c0-.79,0-1.57,0-2.36a1.18,1.18,0,0,1,.93-1.27,1.21,1.21,0,0,1,1.41.7.64.64,0,0,0,.1.13Z"/><path class="cls-2" d="M47.64,3.51a1.47,1.47,0,0,1,.88,1.18A1.21,1.21,0,0,1,47.31,6c-.8,0-1.61,0-2.41,0a1.22,1.22,0,0,1-.57-2.33l.2-.12Z"/><path class="cls-2" d="M55,3.51a1.43,1.43,0,0,1,.88,1.18A1.2,1.2,0,0,1,54.68,6c-.8,0-1.6,0-2.41,0A1.23,1.23,0,0,1,51,5a1.24,1.24,0,0,1,.69-1.37l.2-.12Z"/><path class="cls-2" d="M62,13.65c-.42.74-.91,1-1.49.89a1.2,1.2,0,0,1-.95-1.21c0-.78,0-1.57,0-2.35a1.18,1.18,0,0,1,.93-1.27,1.2,1.2,0,0,1,1.41.7.64.64,0,0,0,.1.13Z"/><path class="cls-2" d="M62,28.4c-.42.74-.91,1-1.49.89a1.2,1.2,0,0,1-.95-1.21c0-.78,0-1.57,0-2.35a1.19,1.19,0,0,1,.93-1.28,1.21,1.21,0,0,1,1.41.71.64.64,0,0,0,.1.13Z"/><path class="cls-2" d="M62,6.28c-.56,1-1.49,1.26-2.06.54a7.39,7.39,0,0,0-1.25-1.25C58,5,58.3,4.06,59.27,3.51h1.85l.92.92Z"/><path class="cls-1" d="M7.94,47.71V45.36a7,7,0,0,1-.85-.23A2.37,2.37,0,0,1,5.5,42.82c0-2.44,0-4.88,0-7.32A2.43,2.43,0,0,1,8,33H37.36a2.44,2.44,0,0,1,2.55,2.59q0,3.48,0,7a2.49,2.49,0,0,1-2.18,2.72,1.61,1.61,0,0,0-.25.07v2.36a2.53,2.53,0,0,1,2.36,2,3,3,0,0,1,.06.74c0,2.32,0,4.65,0,7a2.48,2.48,0,0,1-2.61,2.66H8.1a2.46,2.46,0,0,1-2.6-2.61c0-2.23,0-4.46,0-6.68C5.49,48.88,6.11,48.11,7.94,47.71ZM8,35.49v7.3H37.43v-7.3ZM37.43,50.24H8v7.31H37.43Zm-27-2.53h24.5V45.35H10.44Z"/><path class="cls-1" d="M5.49,12.12c-.46,0-.82,0-1.18,0a1.2,1.2,0,0,1-1.1-.73,1.18,1.18,0,0,1,.18-1.29c1.6-2,3.2-4,4.82-6a1.19,1.19,0,0,1,1.95,0C11.74,6,13.3,7.94,14.85,9.89c.34.43.7.89.37,1.52a1.53,1.53,0,0,1-1.52.73h-.83v16.7c0,1.35-.37,1.72-1.7,1.72H7.25c-1.37,0-1.76-.38-1.76-1.73V12.12Zm4.93,15.94v-.7c0-5.28,0-10.56,0-15.84,0-.86.06-1.63,1.12-1.89L9.19,6.71,6.86,9.62c1,.28,1.12,1,1.12,1.77,0,5.34,0,10.67,0,16v.66Z"/><path class="cls-2" d="M48.52,25.65c0,.4,0,.81,0,1.21a1.21,1.21,0,0,1-1.26,1.22,1.19,1.19,0,0,1-1.19-1.22c0-.83,0-1.65,0-2.47a1.18,1.18,0,0,1,1.22-1.19,1.21,1.21,0,0,1,1.23,1.19C48.55,24.81,48.52,25.23,48.52,25.65Z"/><path class="cls-2" d="M46.06,33c0-.4,0-.8,0-1.2a1.22,1.22,0,0,1,1.24-1.24,1.19,1.19,0,0,1,1.21,1.2c0,.82,0,1.65,0,2.47a1.19,1.19,0,0,1-1.21,1.21,1.21,1.21,0,0,1-1.25-1.23C46,33.82,46.06,33.42,46.06,33Z"/><path class="cls-2" d="M17.79,19.49c-.43,0-.85,0-1.27,0a1.22,1.22,0,0,1,0-2.44,24.67,24.67,0,0,1,2.58,0,1.15,1.15,0,0,1,1.14,1.2,1.18,1.18,0,0,1-1.12,1.23c-.44,0-.88,0-1.32,0Z"/><path class="cls-2" d="M25.22,19.5c-.42,0-.85,0-1.27,0a1.21,1.21,0,0,1-1.22-1.25A1.19,1.19,0,0,1,23.94,17c.82,0,1.65,0,2.47,0a1.19,1.19,0,0,1,1.2,1.21,1.21,1.21,0,0,1-1.18,1.24c-.4,0-.81,0-1.21,0Z"/><path class="cls-2" d="M32.53,19.49c-.42,0-.84,0-1.26,0a1.22,1.22,0,0,1,0-2.44,24.67,24.67,0,0,1,2.58,0A1.15,1.15,0,0,1,35,18.25a1.19,1.19,0,0,1-1.12,1.23c-.44,0-.88,0-1.33,0Z"/><path class="cls-2" d="M40,17c.41,0,.81,0,1.21,0a1.22,1.22,0,0,1,0,2.44c-.84,0-1.69,0-2.53,0a1.17,1.17,0,0,1-1.15-1.25A1.19,1.19,0,0,1,38.64,17c.44,0,.88,0,1.32,0Z"/><path class="cls-2" d="M46.06,40.35c0-.41,0-.81,0-1.21a1.22,1.22,0,0,1,1.23-1.2,1.18,1.18,0,0,1,1.22,1.19c0,.84,0,1.69,0,2.53a1.19,1.19,0,0,1-1.24,1.17,1.22,1.22,0,0,1-1.21-1.22C46,41.19,46.06,40.77,46.06,40.35Z"/><path class="cls-2" d="M46.06,47.76c0-.4,0-.8,0-1.2a1.21,1.21,0,0,1,1.24-1.24,1.18,1.18,0,0,1,1.21,1.2c0,.82,0,1.65,0,2.47a1.23,1.23,0,0,1-2.46,0C46,48.57,46.06,48.17,46.06,47.76Z"/><path class="cls-2" d="M48.55,18.93a7.2,7.2,0,0,1-.07.8,1.18,1.18,0,0,1-1.06,1,1.25,1.25,0,0,1-1.28-.77,1.17,1.17,0,0,0-.5-.51,1.24,1.24,0,0,1-.78-1.27,1.12,1.12,0,0,1,1-1.08,7,7,0,0,1,1.59,0,1.12,1.12,0,0,1,1,1.06,5.33,5.33,0,0,1,0,.8Z"/><path class="cls-2" d="M12.89,40.38c-.43,0-.85,0-1.27,0a1.24,1.24,0,0,1-1.2-1.23A1.19,1.19,0,0,1,11.63,38c.84,0,1.69,0,2.53,0a1.19,1.19,0,0,1,1.17,1.18,1.23,1.23,0,0,1-1.18,1.25C13.73,40.4,13.31,40.38,12.89,40.38Z"/><path class="cls-2" d="M33.85,38A1.17,1.17,0,0,1,35,39.21a1.21,1.21,0,0,1-1.29,1.17,1.24,1.24,0,0,1-1.14-1.28A1.21,1.21,0,0,1,33.85,38Z"/><path class="cls-2" d="M12.89,52.69c.42,0,.85,0,1.27,0a1.21,1.21,0,0,1,.05,2.42c-.9,0-1.8,0-2.7,0a1.21,1.21,0,0,1,.06-2.41C12,52.67,12.45,52.7,12.89,52.69Z"/><path class="cls-2" d="M33.78,52.69a1.18,1.18,0,0,1,1.2,1.2,1.21,1.21,0,0,1-1.22,1.24,1.23,1.23,0,0,1-1.21-1.21A1.22,1.22,0,0,1,33.78,52.69Z"/></svg>