<svg id="Layer_1" data-name="Layer 1" xmlns="http://www.w3.org/2000/svg" viewBox="0 0 65 65"><defs><style>.cls-1{fill:#190f2d;}</style></defs><path class="cls-1" d="M32.56,43.12h-.77a1.51,1.51,0,0,1-1.67-1.49,1.31,1.31,0,0,0-2.25-.93,1.48,1.48,0,0,1-2.18-.09c-.41-.4-.82-.8-1.22-1.22a1.47,1.47,0,0,1-.1-2.09c.83-1.09.42-2.1-.94-2.31A1.48,1.48,0,0,1,22,33.4c0-.58,0-1.15,0-1.73a1.46,1.46,0,0,1,1.4-1.55c1.39-.22,1.79-1.21.94-2.34a1.44,1.44,0,0,1,.07-2c.43-.47.88-.92,1.34-1.35a1.46,1.46,0,0,1,2-.08c1.1.83,2.11.43,2.32-.91A1.5,1.5,0,0,1,31.77,22c.55,0,1.11,0,1.67,0A1.46,1.46,0,0,1,35,23.39c.22,1.4,1.21,1.8,2.33,1a1.45,1.45,0,0,1,2.05.09c.45.42.88.85,1.3,1.3a1.45,1.45,0,0,1,.1,2.05c-.85,1.13-.45,2.11.95,2.33a1.45,1.45,0,0,1,1.39,1.5c0,.62,0,1.23,0,1.85A1.45,1.45,0,0,1,41.75,35c-1.44.23-1.82,1.19-1,2.37a1.43,1.43,0,0,1-.07,2c-.44.48-.9.94-1.38,1.39a1.44,1.44,0,0,1-2,.07c-1.14-.85-2.13-.46-2.35.93a1.47,1.47,0,0,1-1.55,1.41C33.16,43.13,32.86,43.12,32.56,43.12ZM25.76,26.8c1.39,2.26.67,4.17-1.8,4.94a.55.55,0,0,0-.28.36c-.05.23,0,.48,0,.71,0,.39.11.52.5.62a2.83,2.83,0,0,1,2.22,2.23,3,3,0,0,1-.61,2.61l1.05,1.07c.05,0,.1,0,.12,0a3,3,0,0,1,4.81,1.83c0,.12.24.26.39.31a2.9,2.9,0,0,0,.59,0c.4,0,.61,0,.72-.52a2.83,2.83,0,0,1,2.2-2.19,3,3,0,0,1,2.59.57l1.09-1.08c-1.35-2.17-.62-4.1,1.84-4.86a.5.5,0,0,0,.28-.36,5.56,5.56,0,0,0,0-.71c0-.39-.09-.53-.5-.62a2.81,2.81,0,0,1-2.16-2,2.92,2.92,0,0,1,.51-2.78l-1-1.16c-2.14,1.41-4.24.63-4.92-1.76a.62.62,0,0,0-.39-.31c-.2-.05-.43,0-.65,0-.41,0-.55.11-.65.53a2.86,2.86,0,0,1-2.26,2.2,3.11,3.11,0,0,1-2.61-.63Z"/><path class="cls-1" d="M54.13,42.74l-2.39.88c-.6.22-1.07.06-1.25-.4s0-.92.69-1.16c1.35-.52,2.71-1,4.06-1.52.68-.25,1-.08,1.3.61.52,1.37,1,2.74,1.53,4.12a.85.85,0,0,1-.4,1.2c-.49.19-.92,0-1.15-.63s-.56-1.47-.79-2.08c-1.12,1.65-2.14,3.42-3.42,5A24.91,24.91,0,0,1,35.17,58a31.21,31.21,0,0,1-3.21.14q-13.7,0-27.39,0a5.54,5.54,0,0,1-.71,0,.81.81,0,0,1,0-1.61,4.26,4.26,0,0,1,.71,0q13.74,0,27.46,0A24.07,24.07,0,0,0,47.9,50.82,23.4,23.4,0,0,0,54.13,42.74Z"/><path class="cls-1" d="M55.5,26h5.42c.8,0,1.08.27,1.08,1.06v11c0,.76-.28,1-1,1H49.9c-.78,0-1-.26-1-1q0-5.53,0-11.07c0-.77.27-1,1-1Zm4.81,1.7H50.55v9.72h9.76Z"/><path class="cls-1" d="M10.61,39.12c-2.12,0-4.25,0-6.37,0-1,0-1.37-.58-.86-1.47l6.36-11c.52-.89,1.2-.9,1.71,0,2.13,3.67,4.24,7.34,6.36,11,.52.9.17,1.48-.89,1.48Zm-5.17-1.7H15.76L10.6,28.48Z"/><path class="cls-1" d="M32.56,16.27a6.57,6.57,0,1,1,6.57-6.53A6.56,6.56,0,0,1,32.56,16.27Zm0-1.67a4.9,4.9,0,1,0-4.9-4.86A4.87,4.87,0,0,0,32.57,14.6Z"/><path class="cls-1" d="M9.45,21.46c.74-1.21,1.41-2.42,2.2-3.55A25.28,25.28,0,0,1,23,8.87c.7-.29,1.15-.18,1.37.33s0,.91-.72,1.2A23.89,23.89,0,0,0,11.19,21.91l-.21.45,1.33-.47,1.11-.41c.59-.21,1.07,0,1.24.44s-.07.89-.68,1.13l-3.45,1.28c-1.56.58-1.6.56-2.18-1-.43-1.15-.86-2.3-1.28-3.46-.22-.59,0-1.07.43-1.23s.9.06,1.13.67S9.17,20.74,9.45,21.46Z"/><path class="cls-1" d="M42.74,11c.32.87.59,1.59.85,2.32s.13,1.16-.36,1.36-.93-.06-1.19-.75c-.49-1.32-1-2.64-1.47-4-.27-.74-.11-1.09.65-1.37,1.34-.51,2.68-1,4-1.49.6-.22,1.08-.06,1.25.4s-.05.92-.7,1.16l-2.2.83c.24.14.39.24.55.32A25.54,25.54,0,0,1,56.25,23l.09.22a.84.84,0,0,1-.45,1.18c-.45.18-.83,0-1.09-.54-.62-1.25-1.16-2.53-1.88-3.71a23.44,23.44,0,0,0-9.52-8.84C43.23,11.18,43.05,11.11,42.74,11Z"/><path class="cls-1" d="M59,56.28l-2.15-2.12c-.5-.5-.55-1-.18-1.35s.86-.33,1.34.16q1.78,1.76,3.54,3.53c.57.58.57,1,0,1.53l-3.54,3.53c-.5.5-1,.55-1.35.17s-.32-.86.17-1.35L59,58.27,59,58.1H44.08c-.95,0-1.38-.27-1.36-.86s.42-.81,1.35-.81H59Z"/><path class="cls-1" d="M22.92,55a.82.82,0,0,1-1.29.68,49.87,49.87,0,0,1-5-3.16A24.57,24.57,0,0,1,8.76,41.84l-.06-.17a.84.84,0,0,1,.45-1.18c.45-.17.84,0,1.09.55.55,1.15,1,2.33,1.65,3.42A23.69,23.69,0,0,0,22.07,54C22.48,54.2,22.91,54.38,22.92,55Z"/><path class="cls-1" d="M32.6,27.06a5.5,5.5,0,1,1-5.53,5.45A5.48,5.48,0,0,1,32.6,27.06Zm3.79,5.51a3.83,3.83,0,1,0-3.82,3.81A3.8,3.8,0,0,0,36.39,32.57Z"/></svg>