<svg id="Layer_1" data-name="Layer 1" xmlns="http://www.w3.org/2000/svg" viewBox="0 0 65 65"><defs><style>.cls-1{fill:#190f2d;}</style></defs><path class="cls-1" d="M.29,37.93a1.48,1.48,0,0,1,1.38-.61q12.92,0,25.84,0c1.09,0,1.37.28,1.37,1.38V58.84c0,1.09-.28,1.37-1.37,1.37H1.67a1.48,1.48,0,0,1-1.38-.6Zm13,12.62-.37.5c-.68.88-1.37,1.75-2,2.64A.93.93,0,0,0,11,55a1,1,0,0,0,1.33-.16c.09-.1.17-.21.26-.32l7.75-10a1,1,0,0,1,1.71-.18l1.76,1.52,3.12,2.66V39.29H2.24V52l.13.09c.25-.29.5-.61.77-.89Q5.57,48.8,8,46.35c.55-.55,1.1-.61,1.54-.1C10.82,47.66,12,49.1,13.27,50.55Z"/><path class="cls-1" d="M49.2,15.41H45.4c-.81,0-1.25-.33-1.26-.94s.43-1,1.23-1h6.07c.94,0,1.27.32,1.27,1.24v6.13c0,.76-.35,1.19-.94,1.21s-1-.44-1-1.23V17q-8.7,8.72-17.45,17.45h4a1,1,0,1,1,0,1.9H31c-.86,0-1.2-.33-1.2-1.18q0-3.11,0-6.19c0-.76.34-1.2.93-1.2s1,.43,1,1.23v3.83Z"/><path class="cls-1" d="M51.73,7.82V9.66H15.59V7.82Z"/><path class="cls-1" d="M58.4,14.49V50.64H56.56V14.49Z"/><path class="cls-1" d="M13.63,8.73c0,.9,0,1.79,0,2.69a1,1,0,0,1-1.13,1.13H7.14c-.78,0-1.13-.36-1.13-1.14C6,9.63,6,7.84,6,6.05c0-.78.35-1.12,1.13-1.13H12.5c.78,0,1.12.35,1.13,1.13S13.63,7.84,13.63,8.73Z"/><path class="cls-1" d="M61.29,8.73v2.69c0,.77-.36,1.12-1.14,1.13H54.79c-.78,0-1.12-.36-1.13-1.14V6.05c0-.78.35-1.12,1.13-1.13h5.37a1,1,0,0,1,1.13,1.13Z"/><path class="cls-1" d="M57.44,60.21H54.76a1,1,0,0,1-1.09-1.1q0-2.72,0-5.43a1,1,0,0,1,1.1-1.09c1.81,0,3.61,0,5.42,0a1,1,0,0,1,1.09,1.1q0,2.72,0,5.43c0,.74-.36,1.08-1.1,1.09Z"/><path class="cls-1" d="M10.73,35.4H8.9V14.48h1.83Z"/><path class="cls-1" d="M30.81,57.31V55.48H51.73v1.83Z"/><path class="cls-1" d="M16.49,44a1.91,1.91,0,1,1-1.9-1.9A1.92,1.92,0,0,1,16.49,44Z"/></svg>