<svg id="Layer_1" data-name="Layer 1" xmlns="http://www.w3.org/2000/svg" viewBox="0 0 65 65"><defs><style>.cls-1{fill:blue;}.cls-2{fill:#f3f945;}</style></defs><path class="cls-1" d="M32.43,53H5.27c-1.17,0-1.43-.25-1.43-1.43V38.16c0-1.1.28-1.37,1.37-1.37H59.66c1.09,0,1.37.27,1.37,1.36V51.62c0,1.09-.28,1.37-1.37,1.37ZM5.77,51H59.09V38.72H5.77Z"/><path class="cls-1" d="M54.3,34.85H52.48a19.9,19.9,0,0,0-8.3-16.15,19.22,19.22,0,0,0-12.93-3.8A20.09,20.09,0,0,0,12.39,34.84H10.48c.27-7.64,3.32-13.86,9.7-18.07,7.67-5.07,15.72-5.24,23.65-.57A21.35,21.35,0,0,1,54.3,34.85Z"/><path class="cls-1" d="M49.56,34.85H47.83L47,29.91l-1.86.73L44.4,28.9l1.8-.77-2.3-3.44-1.23,1.45-1.46-1.45,1.4-1.29-3.42-2.29-.78,1.79-1.73-.71.71-1.81-4-.81v1.92H31.49V19.57l-4,.79.73,1.83-1.74.72-.77-1.8-3.43,2.3,1.43,1.18L22.22,26,21,24.67l-2.32,3.45,1.8.78-.73,1.74L18,30a14.62,14.62,0,0,0-.87,4.9H15.26c.17-5.58,2.29-10.21,6.76-13.55,5.69-4.25,11.89-4.8,18.26-1.64A16.85,16.85,0,0,1,49.56,34.85Z"/><path class="cls-2" d="M37.14,34.85H35.33A2.75,2.75,0,0,0,34,32.54a4,4,0,0,0-1.85-.48c-1.41,0-2.4,1.13-2.63,2.78H27.67a4.37,4.37,0,0,1,2-3.82c2.67-1.62,5-3.74,7.47-5.57.16-.11.32-.3.49-.31s.75,0,.93.15a1.28,1.28,0,0,1,.32,1c-.51,2.56-1.08,5.12-1.62,7.67C37.22,34.24,37.19,34.53,37.14,34.85Zm-1.28-3.4.66-3.08L34,30.3Z"/><path class="cls-1" d="M54.72,22l-1.55.9c-.93-1.23-1.77-2.5-2.76-3.64S48.29,17.13,47.17,16l1.09-1.41A25.55,25.55,0,0,1,54.72,22Z"/><path class="cls-1" d="M54.81,26.63l-.76-1.83L55.77,24l.82,2Z"/><path class="cls-1" d="M9.34,49.88,8,48.44c.53-.54,1.1-1.13,1.7-1.69a.64.64,0,0,0,.18-.86A3.76,3.76,0,0,1,11,41.44a3.81,3.81,0,0,1,6,4.17,3.75,3.75,0,0,1-3.78,2.6A3.14,3.14,0,0,1,12,47.92a.69.69,0,0,0-1,.21C10.47,48.72,9.91,49.28,9.34,49.88Zm4-7.37a1.92,1.92,0,0,0-1.9,1.89,1.91,1.91,0,1,0,1.9-1.89Z"/><path class="cls-1" d="M41,49.15H39.14v-8.5H41Z"/><path class="cls-1" d="M21.92,49.15H20.09V47.31h1.83Z"/><path class="cls-1" d="M23.9,47.3h1.83v1.85H23.9Z"/><path class="cls-1" d="M27.7,49.14V47.32h1.84v1.82Z"/><path class="cls-1" d="M31.52,47.3h1.82v1.84H31.52Z"/><path class="cls-1" d="M35.29,49.13V47.31h1.88v1.82Z"/></svg>