<svg id="Layer_1" data-name="Layer 1" xmlns="http://www.w3.org/2000/svg" viewBox="0 0 65 65"><defs><style>.cls-1{fill:#f3f945;}.cls-2{fill:blue;}</style></defs><path class="cls-1" d="M54.14,19c-.24.29-.38.47-.54.63L35.78,37.42c-.86.86-1.24.86-2.1,0-1.79-1.79-3.58-3.59-5.54-5.54a3.35,3.35,0,0,1-.41.64Q18,42.24,8.33,51.93c-.92.92-1.28.93-2.19,0L3.48,49.28c-.64-.65-.66-1.11,0-1.74q12-12,24-23.95c.62-.63,1.09-.62,1.74,0l5.5,5.52L49.5,14.29l-1.57-1.45a1,1,0,0,1-.38-1.16A1.08,1.08,0,0,1,48.61,11l8.49-.77a1,1,0,0,1,1.26,1.24q-.37,4.21-.77,8.43a1,1,0,0,1-1.92.69C55.2,20.06,54.71,19.56,54.14,19Zm-3.3-6.19-.13.2a5.52,5.52,0,0,1,.55.4c.86.84.85,1.25,0,2.1L35.7,31c-.74.74-1.18.75-1.92,0-1.68-1.68-3.36-3.35-5-5a2,2,0,0,1-.29-.52L5.56,48.41l1.78,1.8c.14-.17.29-.37.46-.54L27.2,30.26c.88-.88,1.25-.88,2.15,0l4.93,4.94.46.42.52-.49,9.39-9.39,8.57-8.57c.69-.69,1.12-.71,1.83,0a5.48,5.48,0,0,1,.55.72l.19-.15.49-5.46Z"/><path class="cls-2" d="M58.37,31.46c0,.8,0,1.6,0,2.41a2.87,2.87,0,0,1-3,2.9c-.87,0-1.07.13-1.3,1a23.9,23.9,0,0,1-2.33,5.63c-.47.84-.44,1.06.23,1.71a2.87,2.87,0,0,1,.14,4.06c-1.19,1.26-2.42,2.49-3.68,3.67a2.87,2.87,0,0,1-4.06-.14c-.64-.66-.87-.69-1.65-.25A24,24,0,0,1,37,54.78C36.23,55,36,55.27,36,56a2.86,2.86,0,0,1-3,3.07H28.31a2.89,2.89,0,0,1-3-3.08c0-.78-.16-1-.9-1.23a24,24,0,0,1-5.86-2.43c-.66-.38-1-.32-1.5.26-1.35,1.41-3.56,1.36-4.94-.7a.87.87,0,0,1,.2-1.18.91.91,0,0,1,1.25,0c.22.17.41.4.62.59a.94.94,0,0,0,1.42,0,2.92,2.92,0,0,1,4.05-.55A23.11,23.11,0,0,0,25,52.91,2.82,2.82,0,0,1,27.3,56c0,.77.33,1.13,1.12,1.14,1.52,0,3,0,4.57,0,.76,0,1.09-.36,1.07-1.11a2.87,2.87,0,0,1,2.27-3.1,23.45,23.45,0,0,0,5.51-2.27,2.9,2.9,0,0,1,3.86.55.94.94,0,0,0,1.54,0q1.65-1.62,3.28-3.28a.93.93,0,0,0,0-1.5,2.89,2.89,0,0,1-.56-3.9,23.27,23.27,0,0,0,2.25-5.46,2.88,2.88,0,0,1,3.08-2.3c.79,0,1.13-.3,1.13-1.1,0-1.52,0-3.05,0-4.57,0-.76-.35-1.1-1.11-1.07-2.37.08-3.23-1.77-3.35-3.6a.71.71,0,0,1,.67-.82,1.26,1.26,0,0,1,1,.31,3.54,3.54,0,0,1,.5,1.23,1,1,0,0,0,1.14.9,2.88,2.88,0,0,1,3.17,3.17C58.38,30,58.37,30.71,58.37,31.46Z"/><path class="cls-2" d="M30.68,3.72c.82,0,1.65,0,2.47,0a2.86,2.86,0,0,1,2.89,3c0,.85.18,1,1,1.31,1.79.67,3.56,1.39,5.31,2.14a1,1,0,0,1,.61,1.45c-.31.54-.83.59-1.56.28-1.67-.7-3.33-1.41-5-2a3,3,0,0,1-2.28-3.1c0-.79-.3-1.13-1.11-1.13H28.38c-.76,0-1.08.35-1.07,1.11A2.87,2.87,0,0,1,25,9.92a23,23,0,0,0-5.45,2.26,2.91,2.91,0,0,1-3.86-.56.94.94,0,0,0-1.54,0C13,12.67,12,13.75,10.89,14.84a1,1,0,0,0,0,1.58,2.88,2.88,0,0,1,.57,3.76,23.9,23.9,0,0,0-2.33,5.63,2.87,2.87,0,0,1-3,2.23C5.31,28,5,28.32,5,29.15c0,1.51,0,3,0,4.51,0,.81.34,1.14,1.13,1.12,2.38-.06,3.23,1.79,3.33,3.62a.78.78,0,0,1-.75.83.88.88,0,0,1-1.06-.54,9,9,0,0,1-.37-1.18,1,1,0,0,0-1.11-.76,2.86,2.86,0,0,1-3.15-3c0-1.56,0-3.13,0-4.7a2.87,2.87,0,0,1,3.12-3,1,1,0,0,0,1.19-.89,23.77,23.77,0,0,1,2.42-5.85,1,1,0,0,0-.24-1.52,2.86,2.86,0,0,1-.11-4.23q1.71-1.76,3.46-3.45a2.88,2.88,0,0,1,4.24.1,1,1,0,0,0,1.51.23A24.32,24.32,0,0,1,24.39,8c.79-.21,1-.46.94-1.27a2.87,2.87,0,0,1,2.94-3C29.07,3.71,29.87,3.72,30.68,3.72Z"/><path class="cls-2" d="M30.12,15.93a15.26,15.26,0,0,1,9.69,2.95c.15.11.3.22.44.34a1,1,0,0,1,.19,1.42,1,1,0,0,1-1.42.12,12.94,12.94,0,0,0-4.63-2.39c-7.82-2.17-16.67,3.34-17.18,12,0,.74-.41,1.15-1,1.13s-1-.45-.94-1.19a14.66,14.66,0,0,1,5.66-10.9A15.23,15.23,0,0,1,30.12,15.93Z"/><path class="cls-2" d="M30.85,46.89a15,15,0,0,1-9.57-3.18c-.58-.45-.72-.94-.43-1.43a1,1,0,0,1,1.59-.16,12.86,12.86,0,0,0,4.65,2.35c7.82,2.09,16.53-3.41,17.07-12,.05-.77.44-1.19,1.07-1.15s1,.49.9,1.23a14.88,14.88,0,0,1-6.59,11.54A15.38,15.38,0,0,1,30.85,46.89Z"/></svg>