<svg id="Layer_1" data-name="Layer 1" xmlns="http://www.w3.org/2000/svg" viewBox="0 0 65 65"><defs><style>.cls-1{fill:#190f2d;}</style></defs><path class="cls-1" d="M38.62,20.47V14.1c-.65,0-1.3,0-1.95,0a1.4,1.4,0,0,1-1.46-.72,1.44,1.44,0,0,1,.26-1.61c1.69-2.35,3.36-4.71,5-7.07.78-1.1,1.72-1.11,2.5,0,1.69,2.37,3.37,4.75,5.07,7.12a1.4,1.4,0,0,1,.22,1.61,1.38,1.38,0,0,1-1.42.68H44.94v6.33h6.33c0-.67,0-1.34,0-2A1.34,1.34,0,0,1,52,17.06a1.37,1.37,0,0,1,1.56.21l7.21,5.14a1.33,1.33,0,0,1,0,2.4L53.53,30a1.4,1.4,0,0,1-1.57.21,1.39,1.39,0,0,1-.69-1.42c0-.65,0-1.3,0-2H44.9v.69c0,4.58,0,9.15,0,13.73A20.9,20.9,0,0,1,28.63,61.75a20.31,20.31,0,0,1-17-3.53,1.39,1.39,0,0,1-.2-2.31c.72-.75,1.46-1.48,2.21-2.21a1.44,1.44,0,0,1,2.16-.19,14.51,14.51,0,0,0,18.83-2.14,13.86,13.86,0,0,0,3.94-9.51c.09-4.94,0-9.88,0-14.83a2,2,0,0,0,0-.27c-.19,0-.37,0-.56,0-4.61,0-9.23,0-13.84,0A14.61,14.61,0,0,0,9.66,38.52a14.15,14.15,0,0,0,2.13,10.89c.7,1.07.66,1.54-.23,2.43-.68.69-1.36,1.38-2.05,2a1.41,1.41,0,0,1-2.35-.18A20.92,20.92,0,0,1,24.27,20.47H38.62ZM12.76,57c.12.08.22.17.34.24,6.57,4.25,13.42,4.72,20.25.93,6.57-3.65,9.85-9.51,9.91-17,.08-9.17,0-18.34,0-27.51,0-.92.24-1.16,1.16-1.16h2.12L41.77,5.74,37,12.48h2c1.07,0,1.29.21,1.29,1.28q0,13.67,0,27.34a19.68,19.68,0,0,1-.19,2.65A16.25,16.25,0,0,1,17.76,56.38c-1-.43-2-1-2.89-1.47Zm-2.24-6.55L10.25,50a15.8,15.8,0,0,1-2-12.73,16.27,16.27,0,0,1,15.9-12.18c4.58,0,9.15,0,13.72,0h.7v-3h-.68c-4.57,0-9.14,0-13.72,0a20.1,20.1,0,0,0-7.61,1.48A19.29,19.29,0,0,0,8.08,52.21c.11.15.23.29.3.38ZM59.63,23.61l-6.74-4.79c0,.77,0,1.42,0,2.07,0,1-.23,1.2-1.18,1.2H45v3h6.8c.87,0,1.14.27,1.14,1.14,0,.68,0,1.36,0,2.12a3.31,3.31,0,0,0,.34-.21C55.34,26.67,57.44,25.17,59.63,23.61Z"/><path class="cls-1" d="M34.51,34.49c-.27.48-.47.93-.75,1.33a.77.77,0,0,0-.09.94.78.78,0,0,1,.09.21,1.81,1.81,0,0,0,1.78,1.6,1.2,1.2,0,0,1,1.05,1.32c0,1,0,2,0,3a1.24,1.24,0,0,1-1.14,1.37,1.82,1.82,0,0,0-1.67,1.43A1.47,1.47,0,0,0,34,47.26a1.41,1.41,0,0,1-.19,2.19L32,51.25a1.41,1.41,0,0,1-2,.2c-.32-.2-.7-.55-1-.5a7.23,7.23,0,0,0-1.81.73c-.13.07-.17.37-.21.57-.3,1.51-.58,1.74-2.13,1.74h-2.2a1.39,1.39,0,0,1-1.53-1.26c-.09-.36-.1-.89-.35-1a8.25,8.25,0,0,0-1.8-.76c-.09,0-.25.06-.35.13-.25.15-.48.32-.73.47a1.34,1.34,0,0,1-1.75-.17c-.71-.68-1.41-1.38-2.09-2.09a1.37,1.37,0,0,1-.11-1.89c.19-.31.56-.67.51-.93a7.55,7.55,0,0,0-.75-1.87c-.08-.16-.44-.19-.68-.23-1.33-.26-1.62-.61-1.63-1.94,0-.79,0-1.58,0-2.37a1.39,1.39,0,0,1,1.26-1.53c.36-.08.87-.07,1-.3a9.81,9.81,0,0,0,.79-1.85c0-.09-.07-.25-.13-.36s-.31-.45-.45-.68a1.36,1.36,0,0,1,.19-1.84c.64-.66,1.3-1.32,2-2a1.39,1.39,0,0,1,2-.19c.31.2.67.57.93.51a7.14,7.14,0,0,0,1.86-.76c.16-.08.19-.43.24-.67.25-1.34.58-1.62,1.93-1.62.81,0,1.62,0,2.43,0A1.27,1.27,0,0,1,26.84,30a1.73,1.73,0,0,0,1.31,1.57,1.59,1.59,0,0,0,1.78-.17,1.36,1.36,0,0,1,2.09.19c.64.63,1.28,1.24,1.88,1.89A6.84,6.84,0,0,1,34.51,34.49ZM13,42.67c.4.08.71.18,1,.21a1.24,1.24,0,0,1,1.12.92c.28.78.67,1.52.92,2.31a1.81,1.81,0,0,1-.1,1.07,5.13,5.13,0,0,1-.59.94L17.27,50a5.29,5.29,0,0,1,1-.62,1.65,1.65,0,0,1,1-.1,19.58,19.58,0,0,1,2.55,1.06,1.63,1.63,0,0,1,.64.81,6.51,6.51,0,0,1,.28,1.23c.62,0,1.18,0,1.73,0,1,0,.84.18,1-.83a1.53,1.53,0,0,1,1.15-1.41,11.58,11.58,0,0,0,1.18-.47c1.78-.73,1.33-.73,2.86.26l.1,0,1.87-1.86a8.69,8.69,0,0,0-.54-.8A1.18,1.18,0,0,1,31.92,46c.35-.75.65-1.53,1-2.3a1.09,1.09,0,0,1,.92-.76c.39,0,.77-.16,1.14-.24V40.08c-.4-.08-.75-.18-1.11-.23a1.1,1.1,0,0,1-1-.79c-.31-.8-.65-1.6-1-2.4A1,1,0,0,1,32,35.57c.24-.33.47-.69.63-.93l-1.86-1.88a8.66,8.66,0,0,0-.76.52,1.28,1.28,0,0,1-1.5.14c-.74-.34-1.49-.63-2.24-.93a1,1,0,0,1-.7-.84c-.06-.41-.17-.82-.26-1.21H22.7a8.7,8.7,0,0,0-.19.94,1.31,1.31,0,0,1-1,1.21c-.74.26-1.47.57-2.19.89a1.08,1.08,0,0,1-1.19-.11c-.32-.24-.66-.45-.89-.6l-1.92,1.9c1.32,1,.83,2.16.23,3.34a.54.54,0,0,0-.05.11A2.14,2.14,0,0,1,13.36,40a.49.49,0,0,0-.33.34C13,41.13,13,41.88,13,42.67Z"/><path class="cls-1" d="M24,48.25a6.87,6.87,0,1,1,6.92-6.86A6.92,6.92,0,0,1,24,48.25ZM24,46.63a5.25,5.25,0,1,0-5.27-5.21A5.29,5.29,0,0,0,24,46.63Z"/></svg>