<svg id="Layer_1" data-name="Layer 1" xmlns="http://www.w3.org/2000/svg" viewBox="0 0 65 65"><defs><style>.cls-1{fill:blue;}.cls-2{fill:#f3f945;}</style></defs><path class="cls-1" d="M46.37,3.43a2.9,2.9,0,0,1,1.74,2.34c.88,3.81,3.49,5.86,7.17,6.73.4.09.8.12,1.2.21a2,2,0,0,1,1.63,1.9c0,4.13-.08,8.26-.14,12.38,0,.62-.38.94-.89.9s-.74-.43-.73-1q.1-5.94.19-11.88a.63.63,0,0,0-.64-.73,11.39,11.39,0,0,1-5.4-2.09,9.71,9.71,0,0,1-4-6.36A.76.76,0,0,0,45.58,5q-13.15,0-26.32,0a.72.72,0,0,0-.83.66C17.48,10.35,14.5,13,10,14.05a11.34,11.34,0,0,1-1.14.2.57.57,0,0,0-.55.64q.08,5.94.17,11.88c0,.68-.18,1.11-.7,1.17s-.88-.32-.91-1c-.07-1.35-.14-2.69-.16-4,0-2.6,0-5.2,0-7.8a2.21,2.21,0,0,1,2.2-2.51,9.32,9.32,0,0,0,6.5-3.77,6.77,6.77,0,0,0,1.33-3.06A2.68,2.68,0,0,1,18.5,3.43Z"/><path class="cls-1" d="M32.43,7.17c3.24,0,6.48,0,9.73,0A2.83,2.83,0,0,1,45,8.87a13.64,13.64,0,0,0,7.09,6.6,3.05,3.05,0,0,1,2.14,3.26c-.1,2.47,0,4.94-.2,7.4a32.32,32.32,0,0,1-4.12,13.35A38.94,38.94,0,0,1,33.76,55a2.59,2.59,0,0,1-2.58,0,39,39,0,0,1-16-15.32A34,34,0,0,1,10.68,22.9c0-1.51,0-3,0-4.53a2.69,2.69,0,0,1,1.82-2.74A14.23,14.23,0,0,0,20,8.7a2.59,2.59,0,0,1,2.53-1.53Zm0,1.6H22.62a1.18,1.18,0,0,0-1.2.69,15.78,15.78,0,0,1-8.35,7.69,1.12,1.12,0,0,0-.77,1.18c0,1.64,0,3.28,0,4.92a32,32,0,0,0,4.06,15.38,37.24,37.24,0,0,0,15.46,15,1.33,1.33,0,0,0,1.36-.08A38.25,38.25,0,0,0,46,42.62a32,32,0,0,0,6.39-16.13c.25-2.59.17-5.22.23-7.84,0-1.15,0-1.18-1.08-1.64a15.69,15.69,0,0,1-7.93-7.37,1.41,1.41,0,0,0-1.47-.88C38.88,8.78,35.67,8.77,32.46,8.77Z"/><path class="cls-1" d="M32.37,60.1a6.39,6.39,0,0,1-.91-.29,47.62,47.62,0,0,1-13.23-9.2A39.35,39.35,0,0,1,7.72,31.93c0-.25-.15-.57,0-.75a1.19,1.19,0,0,1,.71-.56c.43-.09.71.21.82.64.3,1.1.56,2.21.93,3.29a38.37,38.37,0,0,0,15.12,19.8c2.15,1.47,4.5,2.65,6.78,3.93a1,1,0,0,0,.76,0A42.51,42.51,0,0,0,50.2,43.77a36.83,36.83,0,0,0,5.36-12.1c0-.07,0-.14,0-.21.17-.64.55-.93,1-.81s.68.57.52,1.22A38.42,38.42,0,0,1,51.5,44.73,43.1,43.1,0,0,1,35.33,58.82c-.7.36-1.4.74-2.11,1.07A4.4,4.4,0,0,1,32.37,60.1Z"/><path class="cls-2" d="M40.34,23.55h1.09a2.58,2.58,0,0,1,2.81,2.82c0,2.36,0,4.72,0,7.08,0,1.33,0,2.65,0,4a2.58,2.58,0,0,1-2.76,2.78h-18a2.56,2.56,0,0,1-2.74-2.78V26.32a2.55,2.55,0,0,1,2.75-2.77h1.13v-.61c0-1.45-.05-2.92.11-4.36a7.86,7.86,0,0,1,15.47-.49,12.07,12.07,0,0,1,.16,2.08C40.36,21.28,40.34,22.38,40.34,23.55ZM32.48,38.6h8.84c1,0,1.3-.3,1.3-1.28V26.44c0-1-.3-1.28-1.29-1.28q-8.88,0-17.74,0c-1,0-1.27.3-1.27,1.24q0,5.48,0,10.94c0,.95.31,1.26,1.26,1.26Zm6.17-15.08a44.12,44.12,0,0,0,0-4.75,6.08,6.08,0,0,0-5.87-5.31A6,6,0,0,0,26.5,18a38.22,38.22,0,0,0-.39,5.51Z"/><path class="cls-2" d="M31.66,34c0-.16,0-.33,0-.49a1.12,1.12,0,0,0-.47-1.12,1.8,1.8,0,0,1-.08-2.65,1.89,1.89,0,0,1,2.72,0,1.82,1.82,0,0,1-.09,2.65,1.22,1.22,0,0,0-.47,1.13c0,.48,0,1,0,1.43a.81.81,0,1,1-1.61,0Z"/></svg>