<svg id="Layer_1" data-name="Layer 1" xmlns="http://www.w3.org/2000/svg" viewBox="0 0 65 65"><defs><style>.cls-1{fill:blue;}.cls-2{fill:#f3f945;}</style></defs><path class="cls-1" d="M1.72,28.87c.15-1,.29-2,.48-3a25.92,25.92,0,0,1,19.48-20,1.25,1.25,0,0,1,1.61.85c.18.69-.26,1.29-1.1,1.5C12.9,10.62,7,16.54,4.74,25.78c-2,8.08.25,15.31,6,21.3a22.59,22.59,0,0,0,15.81,7c1.5.06,3-.12,4.57-.19V50.75c-6.92,1.08-13-.64-18-5.54a19.44,19.44,0,0,1-6-14.5A20.13,20.13,0,0,1,29.27,10.8a19.39,19.39,0,0,1,15.1,9.25c3.51,5.47,4,11.38,2.05,17.61,1,0,2,0,2.91,0,.14,0,.34-.28.4-.47a21.45,21.45,0,0,0,0-12.47A23.11,23.11,0,0,0,36.15,9.35a31.3,31.3,0,0,0-3.6-1.12C31.81,8,31.44,7.65,31.43,7a1.21,1.21,0,0,1,1.63-1.15,23,23,0,0,1,7.32,2.9A25.94,25.94,0,0,1,52.8,27.6a23.13,23.13,0,0,1-.52,9.4c-.05.19-.09.38-.16.67h.67c1.64,0,3.28,0,4.92,0a5.13,5.13,0,0,1,5.45,5.45q0,7.26,0,14.52a5.12,5.12,0,0,1-5.4,5.43H36.58a5.1,5.1,0,0,1-5.38-5.39c0-.46,0-.91,0-1.4-.79.08-1.52.17-2.25.21a24.85,24.85,0,0,1-18.39-6.33A25,25,0,0,1,2,35c-.11-.69-.2-1.38-.29-2.07Zm8,.82h1c.81,0,1.31.45,1.33,1.15a1.21,1.21,0,0,1-1.31,1.25h-1c.53,9.61,8.9,16.33,16.52,16.46v-.89c0-.85.45-1.37,1.17-1.38s1.21.53,1.23,1.39c0,.31,0,.62,0,1,.81-.12,1.49-.24,2.19-.32.37,0,.44-.22.44-.55q0-2.34,0-4.68a6.19,6.19,0,0,1,.12-1.43,5.17,5.17,0,0,1,5.09-4c.43,0,.85,0,1.31,0,0-1.28,0-2.46,0-3.64a1.2,1.2,0,0,1,.74-1.19,1.16,1.16,0,0,1,1.33.24l1.44,1.26,2.85,2.48A12,12,0,0,0,45,32.09c-.33,0-.67,0-1,0a1.22,1.22,0,0,1-1.25-1.25A1.18,1.18,0,0,1,44,29.7h1A17.6,17.6,0,0,0,28.56,13.2a11.61,11.61,0,0,1,0,1.18,1.19,1.19,0,0,1-2.37-.09c0-.37,0-.74,0-1.11A17.65,17.65,0,0,0,9.68,29.69Zm30.44,6.87c0,.81,0,1.47,0,2.13,0,.93-.43,1.36-1.35,1.37H36.61a2.75,2.75,0,0,0-3,3q0,7.29,0,14.58a2.73,2.73,0,0,0,3,3H57.73a2.75,2.75,0,0,0,3-3.05V43.28c0-2.19-1-3.21-3.24-3.21-4.16,0-8.32,0-12.48,0a2.23,2.23,0,0,1-1.61-.62C42.38,38.51,41.3,37.59,40.12,36.56Z"/><path class="cls-1" d="M26.18,6.42a1.18,1.18,0,0,1,1.18-1.18,1.25,1.25,0,0,1,1.2,1.19,1.22,1.22,0,0,1-1.23,1.2A1.17,1.17,0,0,1,26.18,6.42Z"/><path class="cls-2" d="M28.57,24.72c0,2,0,3.92,0,5.88A1.74,1.74,0,0,1,28,31.93c-2.08,2.07-4.14,4.16-6.25,6.21a1.63,1.63,0,0,1-1.13.5,1.63,1.63,0,0,1-1-.73,1,1,0,0,1,.25-1.26l2.16-2.17c1.23-1.23,2.45-2.46,3.7-3.68a1.28,1.28,0,0,0,.41-1q0-5.37,0-10.73c0-.22,0-.44,0-.66a1.18,1.18,0,0,1,2.3-.22,2.77,2.77,0,0,1,.08.76C28.58,20.88,28.57,22.8,28.57,24.72Z"/><path class="cls-2" d="M41.09,52.09c.83-.83,1.66-1.66,2.48-2.51A1.68,1.68,0,0,1,44.9,49c1.28,0,2.56,0,3.84,0a1,1,0,0,0,.59-.17c.71-.65,1.38-1.33,2.07-2l0-.17c-.28,0-.56,0-.84,0a1.16,1.16,0,0,1-1.19-1.17,1.14,1.14,0,0,1,1.16-1.2c1.32,0,2.64,0,4,0a1.15,1.15,0,0,1,1.16,1.26q0,1.86,0,3.72a1.19,1.19,0,0,1-1.2,1.29,1.22,1.22,0,0,1-1.2-1.3v-.87a9.64,9.64,0,0,0-1.11,1.1,4.4,4.4,0,0,1-4.66,1.92,3.78,3.78,0,0,0-4,1.62,17,17,0,0,1-1.7,1.71H53.94c1.12,0,1.65.39,1.65,1.19s-.56,1.21-1.65,1.21H40.2c-1.26,0-1.64-.38-1.64-1.65V44.31A1.25,1.25,0,0,1,39.43,43,1.21,1.21,0,0,1,41,44.24c0,2.38,0,4.76,0,7.14V52Z"/></svg>