<svg id="Layer_1" data-name="Layer 1" xmlns="http://www.w3.org/2000/svg" viewBox="0 0 65 65"><defs><style>.cls-1{fill:blue;}.cls-2{fill:#f3f945;}</style></defs><path class="cls-1" d="M60.86,57.37c-.53.5-1,1-1.59,1.49-1.57,1.29-3.18,2.54-4.76,3.81A1.38,1.38,0,0,1,53,63a1.45,1.45,0,0,1-.75-1.44c0-.27,0-.53,0-.89H42.85c-1.24,0-1.66-.42-1.66-1.66V55c0-1.24.39-1.64,1.61-1.64h9.45c0-.43,0-.81,0-1.18A1.24,1.24,0,0,1,53,51a1.2,1.2,0,0,1,1.35.18l5.88,4.72a6.35,6.35,0,0,1,.67.7Zm-17.17.84h.75c2.83,0,5.65,0,8.47,0,.85,0,1.58.11,1.84,1.13L57.66,57l-2.91-2.33c-.28,1-1,1.12-1.81,1.11-2.88,0-5.76,0-8.64,0h-.61Z"/><path class="cls-2" d="M60.86,21.65c-.42.74-.91,1-1.49.9a1.23,1.23,0,0,1-.95-1.22c0-.78,0-1.56,0-2.35a1.22,1.22,0,0,1,2.34-.57,1.47,1.47,0,0,0,.1.13Z"/><path class="cls-2" d="M17,4.14a1.42,1.42,0,0,1,.88,1.17,1.21,1.21,0,0,1-1.21,1.27c-.8,0-1.6,0-2.41,0a1.21,1.21,0,0,1-1.26-1,1.25,1.25,0,0,1,.69-1.38l.2-.11Z"/><path class="cls-2" d="M60.86,36.4c-.42.74-.91,1-1.49.89a1.21,1.21,0,0,1-.95-1.21c0-.78,0-1.57,0-2.35a1.22,1.22,0,0,1,2.34-.57,1.47,1.47,0,0,0,.1.13Z"/><path class="cls-2" d="M24.33,4.14a1.42,1.42,0,0,1,.88,1.17A1.21,1.21,0,0,1,24,6.58c-.81,0-1.61,0-2.41,0a1.21,1.21,0,0,1-1.27-1A1.26,1.26,0,0,1,21,4.25l.19-.11Z"/><path class="cls-2" d="M60.86,43.78c-.42.73-.91,1-1.49.89a1.21,1.21,0,0,1-.95-1.21c0-.79,0-1.57,0-2.36a1.22,1.22,0,0,1,2.34-.57l.1.14Z"/><path class="cls-2" d="M31.71,4.14a1.43,1.43,0,0,1,.88,1.17,1.21,1.21,0,0,1-1.21,1.27c-.8,0-1.61,0-2.41,0a1.23,1.23,0,0,1-1.27-1,1.27,1.27,0,0,1,.7-1.38l.2-.11Z"/><path class="cls-2" d="M39.08,4.14A1.42,1.42,0,0,1,40,5.31a1.21,1.21,0,0,1-1.2,1.27c-.81,0-1.61,0-2.41,0a1.21,1.21,0,0,1-1.27-1,1.25,1.25,0,0,1,.7-1.38L36,4.14Z"/><path class="cls-2" d="M60.86,51.15c-.42.74-.91,1-1.49.89a1.21,1.21,0,0,1-.95-1.21c0-.78,0-1.57,0-2.35a1.22,1.22,0,0,1,2.34-.57,1.47,1.47,0,0,0,.1.13Z"/><path class="cls-2" d="M46.46,4.14a1.43,1.43,0,0,1,.88,1.17,1.21,1.21,0,0,1-1.21,1.27c-.8,0-1.61,0-2.41,0a1.23,1.23,0,0,1-1.27-1,1.26,1.26,0,0,1,.7-1.38l.2-.11Z"/><path class="cls-2" d="M53.83,4.14a1.42,1.42,0,0,1,.88,1.17,1.21,1.21,0,0,1-1.2,1.27c-.81,0-1.61,0-2.42,0a1.21,1.21,0,0,1-1.26-1,1.25,1.25,0,0,1,.7-1.38l.19-.11Z"/><path class="cls-2" d="M60.86,14.28c-.42.74-.91,1-1.49.89A1.21,1.21,0,0,1,58.42,14c0-.78,0-1.57,0-2.35A1.22,1.22,0,0,1,60.76,11a1.47,1.47,0,0,1,.1.13Z"/><path class="cls-2" d="M60.86,29c-.42.73-.91,1-1.49.89a1.21,1.21,0,0,1-.95-1.21c0-.79,0-1.57,0-2.36a1.2,1.2,0,0,1,.93-1.27,1.21,1.21,0,0,1,1.41.71,1.47,1.47,0,0,1,.1.13Z"/><path class="cls-2" d="M60.86,6.9c-.56,1-1.49,1.27-2.06.55A7,7,0,0,0,57.55,6.2c-.72-.57-.43-1.51.55-2.06h1.84l.92.92Z"/><path class="cls-1" d="M6.76,48.33V46c-.29-.08-.58-.13-.84-.23a2.38,2.38,0,0,1-1.6-2.32c0-2.43,0-4.87,0-7.31a2.42,2.42,0,0,1,2.54-2.49H36.18a2.45,2.45,0,0,1,2.56,2.58v7a2.46,2.46,0,0,1-2.18,2.72l-.24.07v2.37a2.52,2.52,0,0,1,2.35,2,3.74,3.74,0,0,1,.07.75v7a2.46,2.46,0,0,1-2.61,2.65H6.92a2.46,2.46,0,0,1-2.6-2.61c0-2.22,0-4.45,0-6.68C4.31,49.51,4.93,48.73,6.76,48.33Zm.07-12.21v7.29H36.25V36.12ZM36.26,50.87H6.84v7.3H36.26Zm-27-2.53h24.5V46H9.26Z"/><path class="cls-1" d="M4.31,12.75c-.46,0-.82,0-1.18,0A1.21,1.21,0,0,1,2,12a1.2,1.2,0,0,1,.18-1.3c1.61-2,3.2-4,4.82-6a1.2,1.2,0,0,1,2,0c1.58,1.93,3.14,3.88,4.69,5.83.34.43.7.89.37,1.51a1.55,1.55,0,0,1-1.52.74h-.83v16.7c0,1.35-.37,1.72-1.7,1.72H6.07c-1.37,0-1.76-.39-1.76-1.74V12.75ZM9.24,28.68V28c0-5.28,0-10.55,0-15.83,0-.86.06-1.63,1.12-1.9L8,7.34,5.68,10.25c1,.28,1.12.95,1.12,1.77,0,5.33,0,10.67,0,16v.66Z"/><path class="cls-2" d="M47.34,26.28c0,.4,0,.8,0,1.2a1.2,1.2,0,0,1-1.26,1.22,1.18,1.18,0,0,1-1.19-1.22c0-.82,0-1.65,0-2.47a1.19,1.19,0,0,1,1.22-1.19A1.21,1.21,0,0,1,47.34,25C47.37,25.43,47.34,25.85,47.34,26.28Z"/><path class="cls-2" d="M44.88,33.64c0-.4,0-.81,0-1.21a1.21,1.21,0,0,1,1.24-1.23,1.19,1.19,0,0,1,1.22,1.2c0,.82,0,1.65,0,2.47a1.2,1.2,0,0,1-1.21,1.21,1.22,1.22,0,0,1-1.25-1.23C44.86,34.45,44.88,34,44.88,33.64Z"/><path class="cls-2" d="M16.61,20.12c-.42,0-.85,0-1.27,0a1.2,1.2,0,0,1-1.17-1.24,1.18,1.18,0,0,1,1.16-1.2q1.29-.06,2.58,0a1.16,1.16,0,0,1,1.14,1.21,1.18,1.18,0,0,1-1.12,1.22,11.63,11.63,0,0,1-1.32,0Z"/><path class="cls-2" d="M24,20.12c-.42,0-.84,0-1.26,0a1.21,1.21,0,0,1-1.23-1.25,1.19,1.19,0,0,1,1.21-1.21c.82,0,1.65,0,2.47,0a1.19,1.19,0,0,1,1.2,1.22,1.2,1.2,0,0,1-1.18,1.23c-.4,0-.81,0-1.21,0Z"/><path class="cls-2" d="M31.36,20.12c-.43,0-.85,0-1.27,0a1.2,1.2,0,0,1-1.17-1.24,1.18,1.18,0,0,1,1.16-1.2q1.29-.06,2.58,0a1.16,1.16,0,0,1,1.14,1.21,1.18,1.18,0,0,1-1.12,1.22,11.63,11.63,0,0,1-1.32,0Z"/><path class="cls-2" d="M38.79,17.66c.4,0,.8,0,1.2,0a1.21,1.21,0,0,1,1.19,1.23A1.19,1.19,0,0,1,40,20.11a23.73,23.73,0,0,1-2.53,0,1.16,1.16,0,0,1-1.15-1.25,1.18,1.18,0,0,1,1.16-1.18c.44,0,.88,0,1.33,0Z"/><path class="cls-2" d="M44.88,41c0-.4,0-.8,0-1.2a1.19,1.19,0,0,1,1.22-1.2,1.18,1.18,0,0,1,1.22,1.19q.06,1.26,0,2.52a1.17,1.17,0,0,1-1.24,1.17,1.21,1.21,0,0,1-1.21-1.21C44.86,41.82,44.88,41.39,44.88,41Z"/><path class="cls-2" d="M44.88,48.39c0-.4,0-.81,0-1.21a1.23,1.23,0,0,1,2.46,0c0,.82,0,1.64,0,2.47a1.2,1.2,0,0,1-1.21,1.21,1.22,1.22,0,0,1-1.25-1.23C44.86,49.2,44.88,48.79,44.88,48.39Z"/><path class="cls-2" d="M47.37,19.55a7,7,0,0,1-.07.8,1.16,1.16,0,0,1-1.06,1A1.25,1.25,0,0,1,45,20.55a1.21,1.21,0,0,0-.5-.5,1.26,1.26,0,0,1-.78-1.28,1.12,1.12,0,0,1,1-1.07,7.77,7.77,0,0,1,1.6,0,1.14,1.14,0,0,1,1,1.06,5.34,5.34,0,0,1,0,.8Z"/><path class="cls-2" d="M11.71,41c-.42,0-.85,0-1.27,0a1.23,1.23,0,0,1-1.2-1.22,1.21,1.21,0,0,1,1.21-1.21c.84,0,1.69,0,2.53,0a1.19,1.19,0,0,1,1.17,1.18A1.21,1.21,0,0,1,13,41C12.55,41,12.13,41,11.71,41Z"/><path class="cls-2" d="M32.67,38.57a1.18,1.18,0,0,1,1.13,1.27A1.2,1.2,0,0,1,32.51,41a1.23,1.23,0,0,1-1.14-1.27A1.21,1.21,0,0,1,32.67,38.57Z"/><path class="cls-2" d="M11.71,53.32c.43,0,.85,0,1.27,0a1.2,1.2,0,0,1,1.17,1.19A1.19,1.19,0,0,1,13,55.74q-1.35.06-2.7,0a1.21,1.21,0,0,1,.06-2.41C10.83,53.3,11.27,53.32,11.71,53.32Z"/><path class="cls-2" d="M32.61,53.32a1.18,1.18,0,0,1,1.19,1.2,1.21,1.21,0,0,1-1.22,1.24,1.25,1.25,0,0,1-1.21-1.21A1.21,1.21,0,0,1,32.61,53.32Z"/></svg>