<svg id="Layer_1" data-name="Layer 1" xmlns="http://www.w3.org/2000/svg" viewBox="0 0 65 65"><defs><style>.cls-1{fill:blue;}.cls-2{fill:#f3f945;}</style></defs><path class="cls-1" d="M31.53,46.55h-.89q-10.45,0-20.91,0a5.08,5.08,0,0,1-5.24-4,6.34,6.34,0,0,1-.14-1.51q0-15.68,0-31.36A5.15,5.15,0,0,1,9.89,4.18h45.5a5.1,5.1,0,0,1,5.23,4,6.35,6.35,0,0,1,.15,1.51V41.05a5.12,5.12,0,0,1-4.05,5.38,7,7,0,0,1-1.51.12q-10.4,0-20.79,0h-.78a2.53,2.53,0,0,0-.06.41c0,2.13,0,4.26,0,6.4,0,.41.16.57.51.73a3.56,3.56,0,0,1,2,4,3.61,3.61,0,0,1-7,.19A3.55,3.55,0,0,1,31,54.13a.86.86,0,0,0,.58-1C31.52,51,31.53,48.83,31.53,46.55Zm1-2.06H55.23c2.28,0,3.46-1.18,3.46-3.48V9.72c0-2.28-1.2-3.49-3.47-3.49H9.91c-2.29,0-3.49,1.2-3.49,3.47V41.06a3.08,3.08,0,0,0,3.44,3.43Zm1.54,12.84a1.54,1.54,0,1,0-1.51,1.53A1.51,1.51,0,0,0,34.09,57.33Z"/><path class="cls-2" d="M44.12,27.13l-4,5.34c-2,2.62-3.91,5.24-5.88,7.86a1.72,1.72,0,0,1-.71.58.91.91,0,0,1-1.12-.37,1,1,0,0,1,.07-1.29l3.25-4.36,6.71-9,.39-.55c-1.14-1.57-2.27-3.15-3.4-4.72L33.14,11.9l-.21-.31a1,1,0,1,1,1.65-1.22c.36.47.69,1,1,1.44l8.12,11.24c.12.17.25.33.42.56l1.42-1.88,8.33-11.17a2.68,2.68,0,0,1,.4-.49,1,1,0,0,1,1.6,1.19,3.1,3.1,0,0,1-.39.58q-4.86,6.53-9.74,13a.72.72,0,0,0,0,1q4.69,6.47,9.35,12.94a6,6,0,0,1,.36.52,1,1,0,0,1-1.66,1.18,6.13,6.13,0,0,1-.38-.51L44.59,27.76C44.46,27.57,44.31,27.39,44.12,27.13Z"/><path class="cls-2" d="M9.07,21.31q0-5.07,0-10.14a2.34,2.34,0,0,1,.07-.75,1,1,0,0,1,1-.64,1,1,0,0,1,.9.84,3.29,3.29,0,0,1,0,.7q0,9.81,0,19.64a7.54,7.54,0,0,0,5.42,7.55c4.55,1.34,10.1-1.25,10.14-7.65s0-13,0-19.45c0-.21,0-.43,0-.64a1,1,0,0,1,1-1,1,1,0,0,1,1,1c0,.12,0,.25,0,.38,0,6.59.05,13.18,0,19.76,0,3.83-1.55,7-5,8.83-5.83,3.13-14.15.07-14.57-8.23-.17-3.39,0-6.8,0-10.2Z"/></svg>