<svg id="Layer_1" data-name="Layer 1" xmlns="http://www.w3.org/2000/svg" viewBox="0 0 65 65"><defs><style>.cls-1{fill:#190f2d;}</style></defs><path class="cls-1" d="M63.25,43.23c-.1.4-.19.81-.31,1.21a7.22,7.22,0,0,1-6.77,5.16c-1.27,0-2.55,0-3.83,0a1.37,1.37,0,1,1,0-2.71h3.24a4.64,4.64,0,0,0,4.84-5.72A8.77,8.77,0,0,0,53,33.68c-.94-.15-.88-.12-1.28.73a24.39,24.39,0,0,1-1.58,2.88,1.35,1.35,0,0,1-2.05.48,1.41,1.41,0,0,1-.11-2.11,8.36,8.36,0,0,0-5-13.23,8,8,0,0,0-4.51.36c.27.55.53,1.06.77,1.58a1.38,1.38,0,1,1-2.48,1.14,12.37,12.37,0,0,0-8.56-7.14A12.57,12.57,0,0,0,12.65,28.78c-.09.65-.09,1.31-.13,2,0,.31.09.45.42.51a8.89,8.89,0,0,1,3.6,1.55A1.39,1.39,0,1,1,15,35.05,6.54,6.54,0,1,0,11,46.89c.7,0,1.4,0,2.09,0a1.3,1.3,0,0,1,1.17,1.3,1.32,1.32,0,0,1-1.13,1.35,11.33,11.33,0,0,1-6.35-1A9.28,9.28,0,0,1,9.21,31.28c.45-.09.58-.22.58-.68A15.22,15.22,0,0,1,22,15.6,14.71,14.71,0,0,1,36.26,20a.84.84,0,0,0,1.1.27,11.1,11.1,0,0,1,14.83,8.33c.13.72.14,1.46.22,2.26.58.09,1.21.16,1.83.29A11.49,11.49,0,0,1,63.14,41a2.13,2.13,0,0,0,.11.33Z"/><path class="cls-1" d="M63.25,6.9c-.06.19-.13.38-.19.56A3.8,3.8,0,0,1,61,10c-.84.36-.93.89-.91,1.66,0,1.69,0,3.39,0,5.09a1.57,1.57,0,0,1-.76,1.45c-2.09,1.37-4.16,2.76-6.24,4.13a1.37,1.37,0,1,1-1.5-2.27c1.77-1.19,3.55-2.38,5.33-3.55a.78.78,0,0,0,.44-.76c0-1.62,0-3.23,0-4.85a.59.59,0,0,0-.4-.63,4.39,4.39,0,0,1-2.64-4.65,4.44,4.44,0,0,1,3.5-3.78,1.47,1.47,0,0,0,.22-.1h1.43l.55.2a4.34,4.34,0,0,1,2.71,2.32c.18.38.31.8.46,1.2ZM58.82,4.49a1.72,1.72,0,1,0-.06,3.43,1.68,1.68,0,0,0,1.75-1.71A1.7,1.7,0,0,0,58.82,4.49Z"/><path class="cls-1" d="M7,1.75l.56.18a4.45,4.45,0,0,1,3.17,3.82,4.37,4.37,0,0,1-2.54,4.48.74.74,0,0,0-.52.79c0,1.56,0,3.12,0,4.67a.92.92,0,0,0,.49.87c1,.65,2,1.32,3,2a1.33,1.33,0,0,1,.51,1.69,1.31,1.31,0,0,1-1.46.78,1.82,1.82,0,0,1-.7-.3C8.26,19.89,7,19,5.67,18.16A1.48,1.48,0,0,1,5,16.8c0-2,0-3.91,0-5.87a.58.58,0,0,0-.39-.63,4.44,4.44,0,0,1,.79-8.44.84.84,0,0,0,.21-.11ZM4.61,6.2A1.68,1.68,0,0,0,6.35,7.92a1.72,1.72,0,1,0,0-3.43A1.69,1.69,0,0,0,4.61,6.2Z"/><path class="cls-1" d="M33.28,1.75a10.46,10.46,0,0,1,1.11.4,4.28,4.28,0,0,1,2.61,4,4.25,4.25,0,0,1-2.57,4.11.72.72,0,0,0-.52.79c0,.8,0,1.6,0,2.4a1.35,1.35,0,1,1-2.7,0c0-.84,0-1.68,0-2.52a.81.81,0,0,0-.35-.57,4.47,4.47,0,0,1,.85-8.5c.06,0,.1-.06.15-.09Zm-.7,2.74a1.69,1.69,0,0,0-1.74,1.73,1.67,1.67,0,0,0,1.7,1.7,1.72,1.72,0,1,0,0-3.43Z"/><path class="cls-1" d="M47.76,48c0,.66,0,1.31,0,2a1.39,1.39,0,0,1-1.16,1.46,3,3,0,0,1-.59.13,2,2,0,0,0-2,1.72,1,1,0,0,0,0,.65c.27.51.61,1,.91,1.48a1.39,1.39,0,0,1-.2,1.9c-.92.94-1.85,1.87-2.79,2.8a1.4,1.4,0,0,1-1.9.22,6.24,6.24,0,0,1-.86-.54,1.63,1.63,0,0,0-2-.23c-.45.24-.73.44-.8,1A12.77,12.77,0,0,1,36,61.94a1.38,1.38,0,0,1-1.49,1.19h-4a1.38,1.38,0,0,1-1.5-1.19,7.28,7.28,0,0,1-.24-1,1.59,1.59,0,0,0-1.25-1.56,1.17,1.17,0,0,0-1.15.11c-.46.33-.94.62-1.42.9a1.32,1.32,0,0,1-1.79-.23c-1-.93-1.91-1.88-2.84-2.83a1.37,1.37,0,0,1-.2-1.9,6.6,6.6,0,0,1,.57-.91,1.6,1.6,0,0,0,.21-2,1.17,1.17,0,0,0-.89-.73c-.55-.1-1.09-.24-1.63-.37A1.34,1.34,0,0,1,17.35,50q0-2.07,0-4.14a1.39,1.39,0,0,1,1.14-1.41,5.08,5.08,0,0,1,.94-.2,1.7,1.7,0,0,0,1.7-1.41,1,1,0,0,0-.07-1,17.31,17.31,0,0,1-.93-1.47,1.32,1.32,0,0,1,.2-1.75c1-1,1.94-2,2.93-2.92A1.33,1.33,0,0,1,25,35.52a16.07,16.07,0,0,1,1.42.89c.34.25.62.15,1,.06a1.83,1.83,0,0,0,1.49-1.85,3.34,3.34,0,0,1,.17-.76,1.34,1.34,0,0,1,1.41-1.14c1.37,0,2.75,0,4.13,0A1.36,1.36,0,0,1,36,33.83a4.71,4.71,0,0,1,.18.81,1.76,1.76,0,0,0,1.39,1.73,1.26,1.26,0,0,0,1.35-.13,10.75,10.75,0,0,1,1.16-.73,1.33,1.33,0,0,1,1.71.17c1,1,2,2,3,3A1.35,1.35,0,0,1,45,40.35a4.1,4.1,0,0,1-.42.66,1.87,1.87,0,0,0-.25,2.41c.21.36.36.65.83.71a10.36,10.36,0,0,1,1.34.3A1.43,1.43,0,0,1,47.76,46C47.77,46.68,47.76,47.32,47.76,48ZM31.53,60.4c.6,0,1.16,0,1.71,0a.61.61,0,0,0,.41-.36A10.81,10.81,0,0,0,34,58.63a1.58,1.58,0,0,1,1.18-1.29,18.45,18.45,0,0,0,2.26-.92,1.54,1.54,0,0,1,1.64.07l1.61,1c.41-.42.82-.81,1.17-1.24a.6.6,0,0,0,0-.54,8.81,8.81,0,0,0-.73-1.17,1.62,1.62,0,0,1,0-1.8A14.49,14.49,0,0,0,42,50.56a1.64,1.64,0,0,1,1.34-1.22c.55-.11,1.1-.25,1.62-.38,0-.72.21-1.48-.07-2s-1-.34-1.59-.49l-.12,0a1.42,1.42,0,0,1-1.08-1c-.32-.88-.68-1.74-1.06-2.59a1.45,1.45,0,0,1,0-1.48c.27-.43.55-.84.78-1.28a.55.55,0,0,0,0-.5c-.35-.45-.76-.86-1.14-1.29-.58.36-1,.63-1.49.93a1.62,1.62,0,0,1-1.79.07,18,18,0,0,0-2.27-.92,1.67,1.67,0,0,1-1.23-1.31c-.41-1.78-.43-1.78-2.27-1.65l-.16.06c-.13.55-.27,1.13-.4,1.71a1.55,1.55,0,0,1-1.06,1.18c-.84.32-1.67.66-2.48,1A1.48,1.48,0,0,1,26,39.39l-1.58-1L23,39.88c.31.49.62,1,1,1.53a1.56,1.56,0,0,1,.07,1.64,23,23,0,0,0-.94,2.32A1.53,1.53,0,0,1,22,46.47c-.51.11-1,.21-1.52.36-.14,0-.35.22-.35.34,0,.6,0,1.19,0,1.77l1.94.45a1.49,1.49,0,0,1,1.11,1.06,24.44,24.44,0,0,0,1,2.31A1.52,1.52,0,0,1,24,54.35c-.35.55-.69,1.1-1,1.52l1.44,1.54,1.61-1a1.48,1.48,0,0,1,1.53-.06c.76.34,1.53.68,2.32,1a1.55,1.55,0,0,1,1.1,1.21C31.22,59.12,31.37,59.72,31.53,60.4Z"/><path class="cls-1" d="M45.5,5.07A4.51,4.51,0,0,1,50,8.56a4.39,4.39,0,0,1-2.45,5,.81.81,0,0,0-.54.9c0,.79,0,1.59,0,2.39a1.37,1.37,0,0,1-1.37,1.49,1.35,1.35,0,0,1-1.37-1.48c0-.84,0-1.68,0-2.52a.67.67,0,0,0-.49-.74,4.43,4.43,0,0,1-2.61-4.39,4.48,4.48,0,0,1,3.5-4A6.88,6.88,0,0,1,45.5,5.07Zm.19,6.15a1.71,1.71,0,0,0,1.73-1.68,1.78,1.78,0,0,0-1.76-1.76A1.74,1.74,0,0,0,44,9.5,1.68,1.68,0,0,0,45.69,11.22Z"/><path class="cls-1" d="M23.91,9.71a4.47,4.47,0,0,1-2.68,3.9,1.45,1.45,0,0,0-.56.54,1.38,1.38,0,0,1-2.41.07,2.21,2.21,0,0,0-.75-.68,4.46,4.46,0,0,1,2.67-8.42A4.55,4.55,0,0,1,23.91,9.71Zm-4.49,1.51a1.68,1.68,0,0,0,1.75-1.71,1.73,1.73,0,1,0-3.46,0A1.7,1.7,0,0,0,19.42,11.22Z"/><path class="cls-1" d="M25.77,47.85a6.78,6.78,0,0,1,6.57-6.68,1.34,1.34,0,0,1,1.57,1.26c0,.82-.48,1.35-1.42,1.44a4.07,4.07,0,1,0,4.13,4.34,4.71,4.71,0,0,1,0-.53,1.37,1.37,0,0,1,2.7.44,6.79,6.79,0,0,1-13.58-.27Z"/></svg>