<svg id="Layer_1" data-name="Layer 1" xmlns="http://www.w3.org/2000/svg" viewBox="0 0 65 65"><defs><style>.cls-1{fill:#4dc0b3;}</style></defs><path class="cls-1" d="M13.83,13.11,9,11.82c0,.24,0,.42,0,.6,0,2.05,0,4.1,0,6.14a.82.82,0,0,0,.48.83c.66.34,1.29.75,1.94,1.1a1.21,1.21,0,0,1,.7,1.15c0,2.54,0,5.08,0,7.63a1.32,1.32,0,0,1-.55,1,1.37,1.37,0,0,1-1.12-.16c-.82-.52-1.57-1.15-2.39-1.77-.76.57-1.52,1.12-2.26,1.7a1.14,1.14,0,0,1-1.31.26,1.15,1.15,0,0,1-.54-1.17c0-2.44,0-4.88,0-7.32a1.36,1.36,0,0,1,.79-1.34c.64-.34,1.25-.74,1.89-1.07a.75.75,0,0,0,.44-.79c0-2.15,0-4.3,0-6.45,0-.63-.1-1-.81-1.08a.91.91,0,0,1-.82-1,1,1,0,0,1,.82-1L6.43,9,24.81,4.14c2.61-.69,5.22-1.4,7.84-2.07a2.94,2.94,0,0,1,1.32,0Q47.07,5.52,60.13,9l.24.08a1,1,0,0,1,.91,1c0,.58-.37.87-.91,1-1.4.36-2.79.74-4.19,1.11l-3.41.92V26.7c0,1-.22,1.28-1.2,1.46-4.65.87-9.3,1.72-14,2.58A28.85,28.85,0,0,1,27,30.43L14.91,28.12c-.85-.16-1.08-.44-1.08-1.3V13.11Zm37,.57c-.28.06-.5.1-.72.16L34,18.09a2.85,2.85,0,0,1-1.33,0C28.46,17,24.23,15.88,20,14.75l-4.12-1.08a1.35,1.35,0,0,0-.06.24q0,6,0,12c0,.36.16.43.47.49,4.08.76,8.16,1.54,12.24,2.29a22.86,22.86,0,0,0,8.08.21c4.52-.79,9-1.65,13.53-2.45.5-.09.67-.25.67-.79,0-3.76,0-7.52,0-11.29Zm5.38-3.52V10l-.39-.13q-11-2.93-22-5.84a2,2,0,0,0-1,0L17.47,8.15l-7,1.87a1.36,1.36,0,0,0,.61.31q10.83,2.87,21.67,5.73a2.56,2.56,0,0,0,1.2,0q6.95-1.81,13.88-3.67ZM10,27.4c0-1.8,0-3.46,0-5.13,0-.14-.17-.31-.3-.4C8,20.75,8,20.76,6.3,21.77c0,0-.08,0-.1.06-.14.23-.37.45-.38.68,0,1.47,0,2.94,0,4.4a3.35,3.35,0,0,0,.07.45L7,26.54c.83-.62,1.06-.62,1.91,0Z"/><path class="cls-1" d="M18.15,55.82c.33.57.64,1.11.93,1.65a2.62,2.62,0,0,1-1,3.61c-1,.61-2.07,1.2-3.12,1.77a2.58,2.58,0,0,1-3.63-1Q6.72,53.69,2.15,45.58a2.59,2.59,0,0,1,1-3.64c1-.59,2-1.18,3.07-1.74a2.63,2.63,0,0,1,3.64,1c.26.43.5.86.77,1.33l.67-.37c3-1.74,6.07-3.53,9.15-5.2a8.08,8.08,0,0,1,6.83-.48c3,1.07,6,2,9.06,2.94a11.21,11.21,0,0,0,1.15.25,4.21,4.21,0,0,1,3.14,6.05c0,.07-.06.15-.15.42.72-.34,1.33-.58,1.89-.9,3.63-2.09,7.24-4.21,10.87-6.32a12.4,12.4,0,0,1,5-1.85,4.42,4.42,0,0,1,3.13,8c-6.7,4.17-13.42,8.29-20.14,12.43a8.43,8.43,0,0,1-6.85,1c-4.48-1.21-9-2.4-13.45-3.62a1.7,1.7,0,0,0-1.62.22A12.52,12.52,0,0,1,18.15,55.82ZM11.63,44.3l5.53,9.77c.71-.4,1.32-.82,2-1.12a2.16,2.16,0,0,1,1.27-.16c4.78,1.24,9.54,2.52,14.3,3.8a6.64,6.64,0,0,0,5.43-.71q10.08-6.21,20.15-12.43a2.44,2.44,0,0,0-1.91-4.39,11.29,11.29,0,0,0-4.19,1.62c-3.77,2.19-7.53,4.4-11.31,6.57a7.11,7.11,0,0,1-5.09.85c-3.05-.65-6.06-1.44-9.08-2.2A1,1,0,0,1,28,44.63,1,1,0,0,1,29.28,44c.64.16,1.27.37,1.91.54,1.74.45,3.47.94,5.22,1.34a2.09,2.09,0,0,0,2.69-1.7,2.26,2.26,0,0,0-1.87-2.52c-.39-.09-.78-.13-1.15-.25-3.17-1-6.35-2-9.49-3a6.08,6.08,0,0,0-4.86.22c-1.33.66-2.62,1.4-3.91,2.14C15.77,41.88,13.74,43.07,11.63,44.3ZM7.69,41.78a3.26,3.26,0,0,0-.51.18c-1,.56-2,1.12-3,1.7-.48.28-.45.67-.2,1.11q4.51,7.95,9,15.9c.35.61.61.68,1.21.35l2.64-1.49c.73-.42.79-.65.37-1.39l-4.36-7.71q-2.25-4-4.52-8A4.52,4.52,0,0,0,7.69,41.78Z"/><path class="cls-1" d="M8.15,45.22a1.09,1.09,0,0,1-1.09,1.11,1.11,1.11,0,1,1,1.09-1.11Z"/></svg>