<svg id="Layer_1" data-name="Layer 1" xmlns="http://www.w3.org/2000/svg" viewBox="0 0 65 65"><defs><style>.cls-1{fill:#190f2d;}</style></defs><path class="cls-1" d="M27.49,42.82c-1.31-1.31-2.53-2.51-3.74-3.71A12.79,12.79,0,0,1,22.66,38a11.33,11.33,0,0,1-.79-1.24l.15-.12c-.39-.06-.79-.09-1.18-.18a4.56,4.56,0,0,1-3.5-3.23,3.2,3.2,0,0,0-3-2.54,15.62,15.62,0,0,1-1.78-.27A.91.91,0,0,1,12,28.92a8.39,8.39,0,0,1,5.49-3.28,7.12,7.12,0,0,1,7.81,6.75c0,.29,0,.59,0,.89l.16-.15a6.92,6.92,0,0,1,1.25.78c1.46,1.4,2.88,2.85,4.31,4.29l.4.37,4.45-4.45L34.46,33,36,31.51l1,1.32.21-.1c.3-.9.66-1.78.88-2.69a2.25,2.25,0,0,1,1.78-1.78c2.34-.71,4.64-1.53,7-2.31.48-.15.94-.28,1.35.14s.27.87.11,1.35c-.83,2.47-1.66,4.94-2.47,7.42A1.52,1.52,0,0,1,44.7,36c-1.08.32-2.13.71-3.32,1.11l1.4,1.17-1.56,1.35-1.09-1.26-4.58,4.59a2.5,2.5,0,0,1,.55.35q7.35,7.32,14.67,14.65a3,3,0,0,1,1,2.71,2.75,2.75,0,0,1-1.94,2.26,2.7,2.7,0,0,1-2.9-.65c-1.13-1.08-2.22-2.2-3.33-3.31-2.36-2.36-4.71-4.73-7.09-7.07a1.42,1.42,0,0,0-.87-.37c-2.76,0-5.51,0-8.26,0a1.19,1.19,0,0,0-.94.4Q21.35,57,16.25,62.08a2.89,2.89,0,0,1-4.42-3.72,5.76,5.76,0,0,1,.53-.57L26.86,43.3A5.14,5.14,0,0,1,27.49,42.82Zm9.68-7.25a4.74,4.74,0,0,1-.4.54l-23.05,23c-.68.68-.79,1.24-.33,1.7s1,.36,1.7-.35l23.06-23a2.45,2.45,0,0,1,.57-.32ZM32.9,45.51a1.92,1.92,0,0,0,.19.2l15,15,.22.21a1,1,0,0,0,1.37-1.34,4.64,4.64,0,0,0-.38-.39L34.68,44.58l-.42-.4Zm-18-16.73a5.1,5.1,0,0,1,4.36,4,2.46,2.46,0,0,0,2,1.78,15.36,15.36,0,0,0,2.2.14c0-.73,0-1.37,0-2a5.17,5.17,0,0,0-8.52-3.9Zm28.87.4-.08-.12c-1.12.37-2.24.72-3.35,1.12a.82.82,0,0,0-.37.49c-.41,1.13-.79,2.27-1.17,3.41a.53.53,0,0,0,.09.4c.34.4.7.77,1,1.09,1.32-.44,2.52-.83,3.71-1.25a.82.82,0,0,0,.5-.35c.41-1.13.77-2.27,1.15-3.4l-.1-.08L42.77,32.9l-1.43-1.42ZM30,40.06,25.7,35.69,24.47,37l4.33,4.35Zm1.55,7-2.5,2.48h5Z"/><path class="cls-1" d="M46.55,51.5V49.57h12.1c1.1,0,1.38-.29,1.38-1.4V8.5c0-1.1-.29-1.38-1.4-1.38H7.38C6.28,7.12,6,7.41,6,8.52V48.19c0,1.1.28,1.38,1.4,1.38h9.18V51.5H7.22a2.9,2.9,0,0,1-3.14-3.1V8.29A2.89,2.89,0,0,1,7.17,5.2H58.89A2.88,2.88,0,0,1,62,8.26q0,20.07,0,40.15a2.88,2.88,0,0,1-3,3.08Z"/><path class="cls-1" d="M20.45,45.71v1.93H11.1a2.91,2.91,0,0,1-3.16-3.15V12.18a2.91,2.91,0,0,1,3.12-3.13h41a2.9,2.9,0,0,1,3.15,3.16c0,3.23,0,6.47,0,9.7v.62H53.27V12.31c0-1-.3-1.33-1.33-1.33H11.2c-1,0-1.33.3-1.33,1.33V44.38c0,1,.3,1.33,1.32,1.33h9.26Z"/><path class="cls-1" d="M23.33,24.46H21.44a9.83,9.83,0,0,1,3.78-7.65H18.57v.88H16.66V13.91h1.86l.05.9h25l0-.89h1.87V17.7H43.66l-.06-.89H36.94a9.85,9.85,0,0,1,2.8,3.43,9.45,9.45,0,0,1,1,4.21h-1.9A7.79,7.79,0,0,0,36,18.51a7.46,7.46,0,0,0-5.19-1.73A7.79,7.79,0,0,0,23.33,24.46Z"/><path class="cls-1" d="M42.68,47.57V45.71h9.26c1,0,1.33-.3,1.33-1.32,0-3.18,0-6.35,0-9.53v-.69h1.87a.51.51,0,0,1,0,.12c0,3.52,0,7,0,10.55a2.8,2.8,0,0,1-2.71,2.78c-3.22,0-6.43,0-9.65,0A.87.87,0,0,1,42.68,47.57Z"/><path class="cls-1" d="M54.25,32.2a3.86,3.86,0,1,1,3.85-3.88A3.86,3.86,0,0,1,54.25,32.2Zm1.91-3.84a1.93,1.93,0,1,0-1.93,1.91A1.92,1.92,0,0,0,56.16,28.36Z"/><path class="cls-1" d="M23,58.23l.83-1.67a16.6,16.6,0,0,0,14.81-.11l.84,1.62A17.88,17.88,0,0,1,23,58.23Z"/></svg>