<svg id="Layer_1" data-name="Layer 1" xmlns="http://www.w3.org/2000/svg" viewBox="0 0 65 65"><defs><style>.cls-1{fill:blue;}.cls-2{fill:#f3f945;}</style></defs><path class="cls-1" d="M36,1.57a9,9,0,0,1,.84.66L54.56,19.91a3.53,3.53,0,0,1,0,5.46L44.14,35.81a3.53,3.53,0,0,1-5.49,0Q31.83,29,25,22.16a2.39,2.39,0,0,0-1-.58c-1.54-.43-3.1-.81-4.66-1.2a1.26,1.26,0,0,1-.63-2.29l16-16c.2-.19.42-.37.62-.55Zm1.51,29.71,2.83,2.82c.79.78,1.28.78,2.08,0L52.8,23.73c.86-.86.86-1.31,0-2.18L36.14,4.89l-.32-.3L21.88,18.53c.78.2,1.61.4,2.43.64a.77.77,0,0,0,.89-.24c2.35-2.37,4.71-4.72,7.07-7.08a4,4,0,0,1,.53-.48,1.17,1.17,0,0,1,1.45.07,1.15,1.15,0,0,1,.27,1.47,3.13,3.13,0,0,1-.5.6l-6.64,6.64-.41.43L30.8,24.4c.35-.37.71-.8,1.11-1.19a1.19,1.19,0,0,1,1.77-.05,1.21,1.21,0,0,1-.06,1.73c-.39.4-.82.77-1.19,1.12L36,29.56c.35-.36.72-.78,1.13-1.16a1.19,1.19,0,0,1,1.77,0,1.21,1.21,0,0,1-.07,1.72C38.42,30.49,38,30.86,37.54,31.28Z"/><path class="cls-1" d="M50.35,60.9h4.4A1.2,1.2,0,0,1,55,63.29a4.85,4.85,0,0,1-.66,0H11.85a1.2,1.2,0,0,1,0-2.4c1.26,0,2.53,0,3.8,0h.55c-.93-.9-1.9-1.71-2.72-2.66a13.7,13.7,0,0,1-3.39-8.93c0-2.49,0-5,0-7.48,0-1.15.41-1.56,1.56-1.56h40c1.23,0,2.45,0,3.68,0a1.16,1.16,0,0,1,1.24,1.19c0,3,.1,6-.11,9a13.57,13.57,0,0,1-5.58,10Zm4-18.17H12.53c0,2.3-.06,4.55,0,6.79a11.79,11.79,0,0,0,11.4,11.35q9.43.12,18.86,0A11.56,11.56,0,0,0,54,51.24,82.27,82.27,0,0,0,54.33,42.73Z"/><path class="cls-2" d="M19.38,30.79a3.5,3.5,0,0,1-3.17-5.2,18.79,18.79,0,0,1,2.34-3,1.07,1.07,0,0,1,1.66,0,22.22,22.22,0,0,1,2.34,3C24,27.91,22,30.82,19.38,30.79Zm0-5.64c-.45.66-.82,1.15-1.12,1.69a1,1,0,0,0,.4,1.31,1.23,1.23,0,0,0,1.51-.06,1,1,0,0,0,.32-1.28C20.17,26.28,19.8,25.79,19.37,25.15Z"/><path class="cls-2" d="M29.86,35.17a3.75,3.75,0,0,1-3.95,3.53,3.6,3.6,0,0,1-3.38-3.86A3,3,0,0,1,23,33.49c.74-1,1.53-2,2.36-3a1.07,1.07,0,0,1,1.57-.05,10,10,0,0,1,2.59,3.36A9.5,9.5,0,0,1,29.86,35.17Zm-3.68-2.06c-.29.36-.49.6-.68.86a5.67,5.67,0,0,0-.42.66,1,1,0,0,0,.3,1.39,1.21,1.21,0,0,0,1.55,0,1,1,0,0,0,.28-1.39C26.91,34.12,26.56,33.67,26.18,33.11Z"/></svg>