<svg id="Layer_1" data-name="Layer 1" xmlns="http://www.w3.org/2000/svg" viewBox="0 0 65 65"><defs><style>.cls-1{fill:blue;}.cls-2{fill:#f3f945;}</style></defs><path class="cls-1" d="M31.92,63.43a7.44,7.44,0,0,1-3-2.58,2.14,2.14,0,0,1,.16-2.73c.12-.15.25-.29.38-.44-1.3-.34-2.58-.6-3.81-1A25.09,25.09,0,0,1,11.59,45.47c-.72-1.19-.28-2.16,1-2.61a7.3,7.3,0,0,0,2.09-1.13c1.09-.85,2-.77,2.76.42a18.54,18.54,0,0,0,10.9,8.29l.55.12a2.23,2.23,0,0,1-.16-.48,5.63,5.63,0,0,1-.1-1.35,6.49,6.49,0,0,1,3.18-3.25,2.26,2.26,0,0,1,2.17.59c2.25,2.24,4.51,4.48,6.73,6.74a2.24,2.24,0,0,1,0,3.21Q37.39,59.41,34,62.75a5.89,5.89,0,0,1-1.11.68ZM13.27,44.7a.07.07,0,0,0,0,.06,3.21,3.21,0,0,0,.19.31,23.28,23.28,0,0,0,7,7.13A23,23,0,0,0,31.25,56c.48,0,1,.09,1.18.65s-.16.9-.5,1.24l-1.28,1.28a.57.57,0,0,0,0,.93c.45.43.88.88,1.32,1.32a.55.55,0,0,0,.89,0l6.51-6.52a.56.56,0,0,0,0-.89l-6.52-6.52a.59.59,0,0,0-.94,0c-.39.4-.78.81-1.2,1.19a.63.63,0,0,0,0,1.07c.47.43.9.91,1.36,1.35s.62.71.39,1.22-.67.56-1.17.51a20,20,0,0,1-12.5-6.09c-1.06-1.09-2-2.33-2.89-3.47Z"/><path class="cls-2" d="M64.24,34a7.37,7.37,0,0,1-2.57,3,2.15,2.15,0,0,1-2.74-.16c-.15-.12-.29-.25-.47-.41-.25,1.07-.44,2.09-.74,3.08s-.76,2.2-1.18,3.28a.91.91,0,0,1-1.27.64.93.93,0,0,1-.39-1.33,23.21,23.21,0,0,0,1.92-7.55,1,1,0,0,1,.68-1c.48-.16.8.12,1.1.43s.89.87,1.32,1.32a.62.62,0,0,0,1.06,0c.4-.43.82-.83,1.23-1.24a.54.54,0,0,0,0-.88l-6.52-6.53a.55.55,0,0,0-.89,0q-3.27,3.25-6.52,6.52a.56.56,0,0,0,0,.89c.44.45.89.88,1.33,1.32a.57.57,0,0,0,.93,0c.49-.5,1-1,1.49-1.49a.94.94,0,0,1,1.13-.31.92.92,0,0,1,.51,1.06,19.64,19.64,0,0,1-5.27,11.75,44.46,44.46,0,0,1-4,3.4L44,50l1.49,2.71.47-.27a24.18,24.18,0,0,0,6.73-6.49,2,2,0,0,1,.52-.57.81.81,0,0,1,1.09.16.84.84,0,0,1,.06,1.15c-.65.87-1.28,1.76-2,2.58a24.43,24.43,0,0,1-6.12,5.11c-1.2.72-2.16.29-2.62-1a7.27,7.27,0,0,0-1.12-2.09c-.86-1.09-.77-2,.41-2.76a18.57,18.57,0,0,0,8.31-11c0-.13,0-.26.1-.48-.2.07-.34.11-.47.17a2.24,2.24,0,0,1-2.46-.48c-.54-.5-1.07-1-1.57-1.57a2.25,2.25,0,0,1,0-3.17c2.25-2.29,4.53-4.57,6.82-6.81a2.21,2.21,0,0,1,3.11,0Q60.23,28.53,63.6,32A4.74,4.74,0,0,1,64.24,33Z"/><path class="cls-2" d="M8.28,28.72c.25-1.06.44-2.06.72-3A25.09,25.09,0,0,1,20.42,10.8c1.25-.77,2.19-.34,2.67,1.06a7.09,7.09,0,0,0,1.11,2c.85,1.08.76,2-.43,2.76A18.53,18.53,0,0,0,15.6,27.17c-.09.28-.15.57-.25.95a2.58,2.58,0,0,1,.51-.19A4.31,4.31,0,0,1,17,27.81,6.2,6.2,0,0,1,20.45,31a2.27,2.27,0,0,1-.61,2.17c-2.23,2.24-4.45,4.48-6.7,6.69a2.26,2.26,0,0,1-3.29,0Q6.51,36.55,3.2,33.22a2.27,2.27,0,0,1,0-3.3c.42-.45.87-.89,1.32-1.32A2.33,2.33,0,0,1,8,28.51,1.44,1.44,0,0,0,8.28,28.72ZM21.22,12.44l-.47.27a23.51,23.51,0,0,0-7,6.87A23.07,23.07,0,0,0,10,30.43c-.05.49-.1,1-.65,1.18s-.9-.16-1.24-.5-.86-.85-1.28-1.28a.57.57,0,0,0-.93,0L4.54,31.14a.54.54,0,0,0,0,.88l6.52,6.52a.56.56,0,0,0,.89,0q3.25-3.26,6.52-6.52a.57.57,0,0,0,0-.9c-.43-.44-.88-.88-1.32-1.32a.57.57,0,0,0-.93,0c-.46.48-.94.93-1.4,1.41s-.71.61-1.22.38S13,31,13.1,30.46a20,20,0,0,1,6.17-12.59c1.07-1,2.28-1.88,3.39-2.79Z"/><path class="cls-1" d="M37.78,14.54a2.51,2.51,0,0,1-.64,3.34c-.4.36-.76.77-1.15,1.14a2.3,2.3,0,0,1-3.26,0c-.76-.72-1.49-1.47-2.22-2.22a.91.91,0,0,1-.07-1.34.88.88,0,0,1,1.33.06c.7.67,1.38,1.35,2.05,2a.63.63,0,0,0,1.07,0c.39-.41.79-.8,1.19-1.19a.59.59,0,0,0,0-1c-.51-.49-1-1-1.5-1.49a.94.94,0,0,1-.3-1.13.92.92,0,0,1,1.05-.51A19.53,19.53,0,0,1,47.1,17.55a47.47,47.47,0,0,1,3.43,4c.1.12.18.25.23.31l2.72-1.49c-.08-.13-.18-.33-.31-.52A23.32,23.32,0,0,0,35.47,9.13a2.7,2.7,0,0,1-.41-.05.88.88,0,0,1-.52-1.54c.46-.51,1-1,1.44-1.46s.51-.66,0-1.19L34.77,3.7a.52.52,0,0,0-.84,0l-6.56,6.57a.54.54,0,0,0,0,.88l1.32,1.33c.5.51.54,1,.13,1.42s-.93.33-1.43-.17-.92-.9-1.36-1.36a2.27,2.27,0,0,1,0-3.34q3.3-3.34,6.65-6.65a2.26,2.26,0,0,1,3.29,0c.48.45,1,.93,1.41,1.41a2.31,2.31,0,0,1,.05,3.39c-.08.08-.14.17-.22.26,1.29.34,2.57.6,3.8,1A25,25,0,0,1,55.15,19.64c.72,1.19.28,2.15-1,2.61A7.3,7.3,0,0,0,52,23.38c-1.09.85-2,.76-2.76-.42a18.49,18.49,0,0,0-10.91-8.29C38.21,14.62,38.06,14.6,37.78,14.54Z"/><path class="cls-1" d="M33.37,43a10.4,10.4,0,1,1,10.4-10.36A10.39,10.39,0,0,1,33.37,43ZM42,32.6a8.59,8.59,0,1,0-8.62,8.54A8.57,8.57,0,0,0,42,32.6Z"/><path class="cls-1" d="M40.26,32.6A6.79,6.79,0,0,1,35.8,39a1.4,1.4,0,0,1-1.09-.17,1,1,0,0,1-.19-.9,1.59,1.59,0,0,1,.8-.65,5.11,5.11,0,1,0-4.18-.14c.2.1.41.17.6.28a.86.86,0,0,1,.4,1.09.83.83,0,0,1-1,.56,1.85,1.85,0,0,1-.4-.12,6.9,6.9,0,1,1,9.52-6.34Z"/><path class="cls-2" d="M32.59,32.65l1.88-1.94c.51-.51,1-.55,1.42-.15A1,1,0,0,1,35.76,32L33.34,34.4c-.58.57-1,.56-1.6,0-.27-.27-.54-.53-.8-.81a.91.91,0,1,1,1.26-1.28Z"/></svg>