<svg id="Layer_1" data-name="Layer 1" xmlns="http://www.w3.org/2000/svg" viewBox="0 0 65 65"><defs><style>.cls-1{fill:blue;}.cls-2{fill:#f3f945;}</style></defs><path class="cls-1" d="M50.36,51c-.64,2.19-1.25,4.33-1.88,6.46a1.44,1.44,0,0,1-.4.71c-.45.39-1,.16-1.31-.52l-2.87-7L42,45.83a4.49,4.49,0,0,1-5.48,0c-.11.26-.21.45-.29.65-1.5,3.68-3,7.36-4.5,11a1.53,1.53,0,0,1-.62.75c-.47.26-.94-.07-1.13-.73-.57-2-1.14-3.93-1.7-5.89-.06-.19-.12-.38-.21-.63l-.59.31c-1.73,1-3.47,2-5.19,2.94-.42.24-.83.47-1.27.09s-.28-.86-.1-1.32c1.63-4,3.24-7.95,4.86-11.93.08-.18.14-.36.23-.62H16.39a5.7,5.7,0,0,1-3.27-.78c-.6,1-1.63.94-2.64.93s-2.22,0-3.32,0a2,2,0,0,1-2.1-2.11q0-6.6,0-13.21a2,2,0,0,1,2.1-2.12c1.2,0,2.41,0,3.62,0a2.3,2.3,0,0,1,2.64,1.56A6.33,6.33,0,0,0,16,21.86c.52-1.15.93-2.34,1.4-3.52a26.12,26.12,0,0,1,1-2.45,2.51,2.51,0,0,1,3.2-1.41.49.49,0,0,0,.37-.05c.8-.46,1.57-1,2.39-1.4a4.33,4.33,0,0,0,2-2c.28-.57.59-1.14.92-1.69a3.86,3.86,0,0,1,3.48-2c.65,0,1.29,0,1.93,0a4.4,4.4,0,0,0,2.64-.7c.57-.36,1.16-.71,1.75-1a4.19,4.19,0,0,1,4.26,0c.56.31,1.12.63,1.65,1a4.75,4.75,0,0,0,3,.79,19.39,19.39,0,0,1,2.41,0A3.43,3.43,0,0,1,51,9.13a20.4,20.4,0,0,1,1.08,1.94A4.11,4.11,0,0,0,54,13c.53.26,1,.55,1.55.82a4,4,0,0,1,2.2,3.8c0,.6,0,1.2,0,1.81A4.34,4.34,0,0,0,58.43,22c.42.66.82,1.33,1.18,2a3.92,3.92,0,0,1,0,3.76,14.31,14.31,0,0,1-.93,1.61,5.16,5.16,0,0,0-.94,3.47,13.37,13.37,0,0,1,0,2.1,3.55,3.55,0,0,1-1.78,2.79c-.48.3-1,.55-1.47.83a13.13,13.13,0,0,0-1.15.66c-.93.63-1,.95-.6,2Q55.1,47.09,57.49,53c0,.12.14.23.13.34a2.26,2.26,0,0,1-.21,1c-.24.34-.66.26-1,0L51,51.33ZM28,40.34c1,2.19,1.42,2.48,3.71,2.44h.37a6.39,6.39,0,0,1,4.64,1.31,3.67,3.67,0,0,0,5,0,6.07,6.07,0,0,1,4.64-1.28,3.46,3.46,0,0,0,4.12-2.45,5.45,5.45,0,0,1,3.19-3.2A3.46,3.46,0,0,0,56.1,33a6.06,6.06,0,0,1,1.27-4.64,3.69,3.69,0,0,0,0-5,6.32,6.32,0,0,1-1.28-4.59c0-.28,0-.56,0-.84a2.6,2.6,0,0,0-1.74-2.91,7.41,7.41,0,0,1-4.3-4.3c0-.06-.07-.1-.09-.16A2.47,2.47,0,0,0,47.27,9,8.56,8.56,0,0,1,41,7.32a2.87,2.87,0,0,0-3.59,0c-.18.12-.38.22-.56.35A6.64,6.64,0,0,1,32,9,3.33,3.33,0,0,0,28,11.35a6,6,0,0,1-3.34,3.37c-.58.26-1.11.62-1.69.95a6.61,6.61,0,0,1,.45,5.77c-.26.79-.45,1.61-.69,2.5,1.26,0,2.44,0,3.62,0,.44,0,.6-.1.69-.57A12.4,12.4,0,1,1,36.53,38a12.57,12.57,0,0,1-5.66-2.91l-1.36,1.47C30.11,38.3,29.7,39.38,28,40.34Zm2.75-7.83a10.76,10.76,0,1,0,6.52-17.22c-4.34.77-8.66,5.13-8.56,8.64a2.76,2.76,0,0,1,2.07,4.29C32.17,29.66,32.17,31,30.76,32.51ZM20,32.63a2.75,2.75,0,0,1-.21-4.45c0-.06,0-.14-.09-.21a2.66,2.66,0,0,1,.93-3.63.88.88,0,0,0,.32-.4c.39-1.39.82-2.77,1.13-4.18a3.79,3.79,0,0,0-.67-3.31c-.53-.66-1.1-.64-1.55.08a7.72,7.72,0,0,0-.59,1.31c-.61,1.57-1.12,3.18-1.82,4.71a7.12,7.12,0,0,1-3.75,3.82c-.36.15-.32.41-.32.68v9.7c0,1.17.27,1.56,1.4,1.9a4.73,4.73,0,0,0,1.12.16h4.58a2.58,2.58,0,0,0,.32,0L21,36.41C19.61,35.3,19.37,34.44,20,32.63ZM6.72,31.92c0,2.13,0,4.26,0,6.39,0,.49.15.69.66.68,1.24,0,2.49,0,3.73,0,.5,0,.68-.18.68-.67q0-6.39,0-12.78c0-.51-.16-.73-.7-.71-1.22,0-2.45,0-3.67,0-.53,0-.7.18-.7.7C6.73,27.66,6.72,29.79,6.72,31.92Zm24.2,23,4.09-10a3.39,3.39,0,0,0-.89-.35,14.85,14.85,0,0,0-2.4-.12c-1.92.11-3.54-.35-4.59-2.11,0,0,0,0-.09,0l-3.85,9.47.67-.35,3.92-2.23c.95-.54,1.36-.36,1.67.68C29.92,51.53,30.4,53.16,30.92,55Zm20.41-12.7c-.13.17-.23.29-.32.42a3.82,3.82,0,0,1-3.31,1.76c-.93,0-1.85,0-2.77,0a7.92,7.92,0,0,0-1.56.43L47.47,55c.52-1.79,1-3.43,1.48-5.06.31-1.08.71-1.24,1.7-.68l4,2.29a5.07,5.07,0,0,0,.5.21Zm-26-10.89c1.06,0,2.13,0,3.19,0a4,4,0,0,0,.78-.06,1,1,0,0,0,.84-1,.94.94,0,0,0-.82-1,3.38,3.38,0,0,0-.78-.07H22.09a3.37,3.37,0,0,0-.84.08.92.92,0,0,0-.77.94.93.93,0,0,0,.76,1,3.25,3.25,0,0,0,.83.08C23.16,31.39,24.24,31.38,25.33,31.38Zm0-5.77H22.6c-1.05,0-1.54.33-1.55,1s.51,1,1.53,1.05h5.49a1.55,1.55,0,0,0,.87-.15,1.36,1.36,0,0,0,.57-.87,1.37,1.37,0,0,0-.55-.88,1.49,1.49,0,0,0-.81-.15Zm0,9.48h0c.93,0,1.85,0,2.77,0,.76,0,1.19-.42,1.19-1s-.4-.94-1.12-1c-.14,0-.28,0-.42,0H22.9a3.39,3.39,0,0,0-.78.08.92.92,0,0,0-.77,1,1,1,0,0,0,.82,1,3.44,3.44,0,0,0,.72.05Zm0,3.71H27a1,1,0,0,0,1.06-.94.93.93,0,0,0-.93-1q-1.86-.09-3.72,0a.92.92,0,0,0-.93,1,1,1,0,0,0,1,.94C24.14,38.83,24.72,38.8,25.3,38.8Z"/><path class="cls-2" d="M37.58,28.45l4.32-5.14c.45-.53.9-1.08,1.36-1.61a.81.81,0,0,1,1.21-.19.84.84,0,0,1,0,1.27c-2,2.44-4.08,4.86-6.12,7.28a.84.84,0,0,1-1.36.12L34,27.55a.84.84,0,0,1-.17-1.27.85.85,0,0,1,1.28,0Z"/><path class="cls-2" d="M9.23,36a.83.83,0,0,1,.78.89.94.94,0,0,1-.9.88.84.84,0,0,1-.79-.89A.94.94,0,0,1,9.23,36Z"/></svg>