<svg id="Layer_1" data-name="Layer 1" xmlns="http://www.w3.org/2000/svg" viewBox="0 0 65 65"><defs><style>.cls-1{fill:#190f2d;}</style></defs><path class="cls-1" d="M63.59,50.69c-.1.45-.19.89-.29,1.33A10.67,10.67,0,0,1,53,60.23q-21.17,0-42.32,0A10.67,10.67,0,0,1,.13,49.94c0-1,.3-1.34,1.31-1.34H4.59v-.79q0-16.52,0-33a12.66,12.66,0,0,1,3-8.54,7.65,7.65,0,0,1,6.13-2.82q18.12,0,36.25,0a7.93,7.93,0,0,1,6.72,3.41,13.11,13.11,0,0,1,2.48,8.08V48.6c1.07,0,2.08,0,3.08,0a1.45,1.45,0,0,1,1.39.62Zm-36.44,1.7h9.38V49.94c0-1.08.26-1.34,1.35-1.34H57.15c0-.26,0-.44,0-.63q0-16.47,0-33a12.23,12.23,0,0,0-1.06-5.3c-1.33-2.83-3.37-4.42-6.72-4.39-11.91.09-23.83,0-35.75,0A5.89,5.89,0,0,0,8.79,7.71a11.44,11.44,0,0,0-2.27,7.36q0,16.42,0,32.84c0,.22,0,.44,0,.69H25.89c.95,0,1.25.3,1.26,1.26ZM2,50.53A18.27,18.27,0,0,0,2.79,53a8.64,8.64,0,0,0,8.35,5.32q15.78,0,31.55,0h10a8.79,8.79,0,0,0,6.55-2.75,8.63,8.63,0,0,0,2.39-5.07H38.5a.68.68,0,0,0,0,.17c0,.78,0,1.57,0,2.35,0,1-.31,1.31-1.29,1.31H26.49c-.93,0-1.22-.3-1.22-1.23s0-1.72,0-2.61Z"/><path class="cls-1" d="M31.92,14.65H49.63c.21,0,.42,0,.62,0a.91.91,0,0,1,.93,1,.89.89,0,0,1-.89.93c-.2,0-.41,0-.61,0H14a5.08,5.08,0,0,1-.68,0,.86.86,0,0,1-.8-.94.87.87,0,0,1,.82-.93,5.1,5.1,0,0,1,.68,0Z"/><path class="cls-1" d="M31.79,21.94H13.89a3.19,3.19,0,0,1-.62,0,.87.87,0,0,1-.75-.92.84.84,0,0,1,.71-.94A3.64,3.64,0,0,1,14,20H49.71c1,0,1.48.29,1.47,1s-.43,1-1.49,1Z"/><path class="cls-1" d="M38.05,32.79c0-1,0-2,0-3a.93.93,0,0,1,1-1,.92.92,0,0,1,1,1c0,2,.05,4.05,0,6.07a3.34,3.34,0,0,1-3.71,3.29,3.33,3.33,0,0,1-3.49-3.46c0-1.92,0-3.84,0-5.76,0-.54.13-1,.72-1.15s1.19.28,1.2,1.09c0,1.88,0,3.76,0,5.64,0,.89.18,1.27.83,1.55a2,2,0,0,0,2.18-.36,1.83,1.83,0,0,0,.34-1C38.08,34.73,38.05,33.76,38.05,32.79Z"/><path class="cls-1" d="M13.88,32.26v-3c0-.69.33-1.07.91-1.09s1,.36,1,1.09c0,1.88,0,3.75,0,5.63a1.5,1.5,0,0,0,.84,1.58,2,2,0,0,0,2.14-.28,1.93,1.93,0,0,0,.4-1.11c0-1.94,0-3.88,0-5.82,0-.73.35-1.1,1-1.09s.94.39.94,1.12c0,2,0,3.93,0,5.89a3.35,3.35,0,0,1-3.62,3.39,3.32,3.32,0,0,1-3.58-3.42Z"/><path class="cls-1" d="M44.62,34c-.88-1.23-1.73-2.39-2.56-3.57a1,1,0,0,1,.35-1.54.93.93,0,0,1,1.22.43c.71,1,1.43,2,2.19,3.08l2.2-3c.28-.37.6-.63,1.1-.46a.94.94,0,0,1,.47,1.54c-.73,1-1.47,2-2.24,3a.65.65,0,0,0,0,1c.74,1,1.43,2,2.13,3A1,1,0,0,1,49.3,39c-.48.32-1,.18-1.42-.41l-2.1-2.95L44,38c-.17.23-.34.47-.52.69a.89.89,0,0,1-1.35.22A.92.92,0,0,1,42,37.56c.73-1,1.48-2,2.21-3Z"/><path class="cls-1" d="M27,41.18a1,1,0,0,1-1-1.3c.31-1.25.66-2.51,1-3.76.82-3.06,1.63-6.13,2.46-9.19.18-.66.55-.93,1.09-.84s1,.61.75,1.4q-.66,2.52-1.34,5c-.69,2.58-1.39,5.17-2.07,7.76C27.78,40.8,27.51,41.16,27,41.18Z"/><path class="cls-1" d="M24.89,33.29c0,1.32,0,2.64,0,4,0,.79-.37,1.24-1,1.23s-.95-.45-1-1.2V29.35c0-.8.35-1.22,1-1.21s1,.41,1,1.19C24.9,30.65,24.89,32,24.89,33.29Z"/></svg>