<svg id="Layer_1" data-name="Layer 1" xmlns="http://www.w3.org/2000/svg" viewBox="0 0 65 65"><defs><style>.cls-1{fill:#190f2d;}</style></defs><path class="cls-1" d="M1.75,30.67c.16-1.15.31-2.3.48-3.45.14-1,.48-1.29,1.48-1.29H6.76l2.83-6.84L7.35,16.86a1.15,1.15,0,0,1-.14-1.78,30.43,30.43,0,0,1,7.55-7.55,1.17,1.17,0,0,1,1.82.16c.77.77,1.53,1.55,2.19,2.23l6.85-2.86V4c0-.9.3-1.25,1.17-1.41a30,30,0,0,1,10.74,0,1.15,1.15,0,0,1,1.12,1.33c0,1.11,0,2.21,0,3.19L45.6,9.78l2.09-2.09a1.17,1.17,0,0,1,1.82-.16,30.43,30.43,0,0,1,7.55,7.55,1.17,1.17,0,0,1-.16,1.82l-2.2,2.18,2.83,6.85h3.11c.91,0,1.25.3,1.41,1.18a30.22,30.22,0,0,1,0,10.73A1.18,1.18,0,0,1,60.69,39H57.54l-2.86,6.84L56.85,48c.72.72.74,1.1.14,1.95a30.45,30.45,0,0,1-7.42,7.43c-.82.58-1.2.55-1.91-.16s-1.49-1.53-2.14-2.2l-6.86,2.87v3c0,1-.28,1.34-1.29,1.49l-3.57.48H30.36l-3.51-.49c-.92-.13-1.23-.49-1.23-1.42V57.84L18.78,55c-.67.68-1.43,1.46-2.2,2.22a1.16,1.16,0,0,1-1.82.17,30.79,30.79,0,0,1-7.51-7.51c-.57-.81-.54-1.2.17-1.91L9.6,45.83,6.76,39h-3c-1,0-1.35-.29-1.49-1.29s-.32-2.3-.48-3.45Zm13.76-21a27.57,27.57,0,0,0-6.16,6.18c.81.8,1.61,1.57,2.39,2.36A1.07,1.07,0,0,1,12,19.73,24.21,24.21,0,0,0,8.86,27.2a1.08,1.08,0,0,1-1.16.9H4.91a6,6,0,0,0-.61,0,24.34,24.34,0,0,0,0,8.21c0,.33.17.47.53.46.91,0,1.82,0,2.73,0s1.17.22,1.37,1.07A24.72,24.72,0,0,0,11.82,45c.53.86.48,1.18-.25,1.92l-2.21,2.2a28.16,28.16,0,0,0,6.14,6.14l2.15-2.15c.81-.82,1.09-.86,2.06-.27a23.63,23.63,0,0,0,6.8,2.84c1.1.26,1.28.5,1.28,1.64v3a26.75,26.75,0,0,0,8.61,0,.87.87,0,0,0,.06-.15c0-1.05,0-2.1,0-3.15a1.12,1.12,0,0,1,1-1.3,24.17,24.17,0,0,0,7.2-3c.8-.49,1.15-.44,1.82.23l2.26,2.26a28.07,28.07,0,0,0,6.15-6.16c-.75-.73-1.5-1.46-2.24-2.2s-.76-1-.22-1.92a24.09,24.09,0,0,0,2.86-6.87c.27-1.12.47-1.27,1.63-1.27,1,0,2,0,2.91,0a1.71,1.71,0,0,0,.1-.25,22.91,22.91,0,0,0,0-8.09.6.6,0,0,0-.46-.35c-.93,0-1.86,0-2.79,0s-1.15-.25-1.34-1a24.43,24.43,0,0,0-3-7.2c-.47-.77-.41-1.13.24-1.78S54.1,16.67,54.8,16A25.32,25.32,0,0,0,48.63,9.8c-.68.69-1.37,1.4-2.07,2.1s-1.06.75-1.88.24A24.1,24.1,0,0,0,37.54,9.2c-.8-.2-1-.5-1-1.33s0-1.82,0-2.73c0-.37-.1-.55-.48-.58-1.18-.09-2.36-.31-3.54-.3-1.55,0-3.1.2-4.68.31V7.81c0,.9-.22,1.19-1.11,1.41a24.35,24.35,0,0,0-7.09,2.94c-.8.5-1.16.45-1.82-.22S16.27,10.42,15.51,9.65Z"/><path class="cls-1" d="M32.15,12.92A19.54,19.54,0,1,1,12.61,32.41,19.55,19.55,0,0,1,32.15,12.92ZM14.78,32.46A17.36,17.36,0,1,0,32.11,15.1,17.31,17.31,0,0,0,14.78,32.46Z"/><path class="cls-1" d="M40.51,22.48c1.15-.94,1.65-1.06,2.16-.56s.38,1-.56,2.16a12.52,12.52,0,0,1,2.53,4.76,12.8,12.8,0,0,1-3.12,12.63,1.11,1.11,0,0,1-1.66.22c-.51-.46-.47-1.09.1-1.71a10.86,10.86,0,0,0,1-13.89c-.11-.16-.24-.31-.4-.51l-3,3.06c-.68.68-1.36,1.38-2.06,2.05a.65.65,0,0,0-.2.81A3.24,3.24,0,1,1,29,33.4a3.09,3.09,0,0,1,.8-3.23A3,3,0,0,1,33,29.34a.86.86,0,0,0,1-.27c1.64-1.66,3.3-3.3,5-5-.16-.14-.26-.25-.38-.34a10.5,10.5,0,0,0-11.53-.87,10.33,10.33,0,0,0-5.79,9.88,10.43,10.43,0,0,0,2.92,7.12l.12.13a1.11,1.11,0,0,1,.07,1.68,1.06,1.06,0,0,1-1.62-.18,21,21,0,0,1-2.3-3.28,13,13,0,0,1,20-15.75ZM32.13,33.53a1.08,1.08,0,0,0,0-2.15,1,1,0,0,0-1.11,1.05A1.06,1.06,0,0,0,32.13,33.53Z"/></svg>