<svg id="Layer_1" data-name="Layer 1" xmlns="http://www.w3.org/2000/svg" viewBox="0 0 65 65"><defs><style>.cls-1{fill:blue;}.cls-2{fill:#f3f945;}</style></defs><path class="cls-1" d="M63.22,34.49a1.62,1.62,0,0,1-1.63.86c-2.87,0-5.74,0-8.61,0h-.71c0,.86,0,1.66,0,2.45a1.52,1.52,0,0,1-2.49,1.34c-2.55-1.74-5.11-3.46-7.66-5.21a1.51,1.51,0,0,1,0-2.7L49.78,26a1.54,1.54,0,0,1,1.7-.16,1.52,1.52,0,0,1,.79,1.5c0,.78,0,1.57,0,2.45h.65c2.89,0,5.78,0,8.67,0a1.61,1.61,0,0,1,1.63.85ZM43.34,32.56l7.12,4.83V34.78c0-1,.29-1.25,1.26-1.25h9.66V31.6H51.85c-1.16,0-1.39-.24-1.39-1.42V27.73Z"/><path class="cls-1" d="M30.45,63.41a1.61,1.61,0,0,1-.86-1.63c0-2.88,0-5.75,0-8.62v-.7c-.87,0-1.66,0-2.46,0a1.52,1.52,0,0,1-1.5-.8,1.53,1.53,0,0,1,.17-1.7c.5-.71,1-1.43,1.46-2.14a.91.91,0,0,1,1.34-.33.89.89,0,0,1,.16,1.32c-.38.59-.77,1.16-1.23,1.84h2.67c.89,0,1.19.31,1.19,1.2v9.72h1.93V51.92c0-1,.28-1.27,1.3-1.27H37s.07,0,.17-.08l-4.77-7c-.35.51-.65,1-1,1.38s-.93.71-1.38.38a1,1,0,0,1-.12-1.39c.38-.57.76-1.13,1.16-1.69a1.48,1.48,0,0,1,2.56,0q2.7,3.93,5.34,7.87a1.49,1.49,0,0,1-1.26,2.39c-.84,0-1.68,0-2.58,0v.71c0,2.87,0,5.74,0,8.62a1.61,1.61,0,0,1-.85,1.63Z"/><path class="cls-1" d="M23.51,27.27l1.19.81a5.26,5.26,0,0,1,0,9l-1.17.8a10.23,10.23,0,0,0,3.56,3.57l.82-1.18a5.25,5.25,0,0,1,9,0c.26.37.52.75.8,1.17a10.34,10.34,0,0,0,3.58-3.56L40,37c-.56-.41-.7-.93-.37-1.38s.83-.48,1.39-.11.94.61,1.39.95a1.55,1.55,0,0,1,.45,2.17,11.87,11.87,0,0,1-4.42,4.42,1.55,1.55,0,0,1-2.18-.47c-.36-.5-.69-1-1.05-1.54a3.43,3.43,0,0,0-5.68,0c-.37.51-.69,1-1.06,1.54a1.55,1.55,0,0,1-2.17.47,11.92,11.92,0,0,1-4.39-4.36,1.59,1.59,0,0,1,.51-2.3l1.34-.92a3.43,3.43,0,0,0,0-5.82c-.46-.32-.93-.62-1.39-.95a1.59,1.59,0,0,1-.48-2.31,12,12,0,0,1,4.36-4.32,1.55,1.55,0,0,1,2.21.48c.35.49.67,1,1,1.49a3.43,3.43,0,0,0,5.72,0c.35-.48.67-1,1-1.49a1.56,1.56,0,0,1,2.22-.47,11.85,11.85,0,0,1,4.37,4.38,1.56,1.56,0,0,1-.46,2.22c-.45.33-.92.64-1.39.95a3.49,3.49,0,0,0-1.63,2.74c-.06.65-.44,1-1,1a.89.89,0,0,1-.8-1.07,5.18,5.18,0,0,1,2.2-4c.47-.34.95-.65,1.46-1a10.28,10.28,0,0,0-3.55-3.57l-.86,1.24a5.25,5.25,0,0,1-8.89,0l-.83-1.21A10.12,10.12,0,0,0,23.51,27.27Z"/><path class="cls-1" d="M12.49,35.33H7.41c-1.5,0-3,0-4.52,0A1.21,1.21,0,0,1,1.54,34c0-1,0-1.92,0-2.89A1.21,1.21,0,0,1,2.9,29.79h9.59c0-.83,0-1.63,0-2.42a1.52,1.52,0,0,1,.82-1.55A1.56,1.56,0,0,1,15,26c2.55,1.74,5.11,3.47,7.66,5.22a1.51,1.51,0,0,1,0,2.67L15,39.11a1.56,1.56,0,0,1-1.7.19,1.53,1.53,0,0,1-.81-1.55C12.51,37,12.49,36.19,12.49,35.33Zm1.81-7.61v2.63c0,1-.3,1.25-1.26,1.25H3.39v1.93H13c1,0,1.28.28,1.29,1.28V37.4l7.11-4.84Z"/><path class="cls-1" d="M27.54,14.48l4.84,7.11,4.84-7.11H34.54c-.89,0-1.19-.31-1.19-1.2q0-4.51,0-9V3.56H31.41V4.88c0,1.1,0,2.21,0,3.31a.91.91,0,0,1-.9.94.87.87,0,0,1-.89-.88c0-1.8,0-3.61,0-5.42a1.14,1.14,0,0,1,1.19-1.11c1.05,0,2.09,0,3.13,0a1.2,1.2,0,0,1,1.21,1.36v9.59c.81,0,1.59,0,2.36,0a1.56,1.56,0,0,1,1.61.83,1.63,1.63,0,0,1-.23,1.75c-1.72,2.51-3.42,5-5.15,7.56a1.52,1.52,0,0,1-2.73,0c-1.73-2.53-3.45-5.08-5.18-7.61a1.58,1.58,0,0,1-.19-1.7,1.55,1.55,0,0,1,1.55-.82c.78,0,1.56,0,2.37,0a3.51,3.51,0,0,1,.07-.43.87.87,0,0,1,.95-.67.84.84,0,0,1,.82.81,6.63,6.63,0,0,1,0,1.26.89.89,0,0,1-1,.83Z"/><path class="cls-2" d="M26.14,19.62a2.17,2.17,0,0,1-.54.59A14.41,14.41,0,0,0,20,25.81a.91.91,0,0,1-1.28.4.9.9,0,0,1-.3-1.26,15.65,15.65,0,0,1,6.34-6.33C25.46,18.26,26.16,18.7,26.14,19.62Z"/><path class="cls-2" d="M19.38,38.79c.13.1.48.25.62.5a14.53,14.53,0,0,0,5.64,5.63.9.9,0,1,1-.88,1.57,15.65,15.65,0,0,1-6.32-6.35C18.09,39.5,18.5,38.81,19.38,38.79Z"/><path class="cls-2" d="M39.41,46.73c-.24-.21-.62-.4-.71-.67a1.64,1.64,0,0,1,.21-1c.06-.14.29-.21.44-.3a14,14,0,0,0,5.25-5.26l.16-.26A.91.91,0,0,1,46,38.91a.86.86,0,0,1,.3,1.25A34.89,34.89,0,0,1,44,43.37a13.63,13.63,0,0,1-3.8,3C40,46.5,39.75,46.58,39.41,46.73Z"/><path class="cls-2" d="M46.54,25.52c-.2.24-.36.62-.62.7a1.77,1.77,0,0,1-1-.16c-.14,0-.22-.27-.31-.43a14.09,14.09,0,0,0-5.34-5.33l-.11-.06a.93.93,0,0,1-.44-1.31A.87.87,0,0,1,40,18.67a27.28,27.28,0,0,1,3.52,2.69,27.66,27.66,0,0,1,2.64,3.41A3.87,3.87,0,0,1,46.54,25.52Z"/></svg>