<svg id="Layer_1" data-name="Layer 1" xmlns="http://www.w3.org/2000/svg" viewBox="0 0 65 65"><defs><style>.cls-1{fill:blue;}.cls-2{fill:#f3f945;}</style></defs><path class="cls-1" d="M21.38,31.79H7.9a2.8,2.8,0,0,1-3.11-3.08V9.07A2.8,2.8,0,0,1,7.84,6H34.91A2.79,2.79,0,0,1,38,9.07V28.71a2.8,2.8,0,0,1-3.11,3.08ZM6.63,16.14V28.62C6.63,29.68,6.9,30,8,30H34.79c1.06,0,1.34-.27,1.34-1.31V16.72c0-.19,0-.37,0-.58Zm29.5-1.88c0-1.87,0-3.69,0-5.51,0-.61-.41-.92-1.09-.92H7.74C7,7.83,6.64,8.17,6.63,9v5.3Z"/><path class="cls-1" d="M43.56,35.48H57a2.79,2.79,0,0,1,3.06,3V58.27a2.79,2.79,0,0,1-3,3H29.91a2.78,2.78,0,0,1-3-3V38.45a2.78,2.78,0,0,1,3-3ZM28.76,45.64v.56c0,4,0,8,0,12,0,1,.28,1.27,1.26,1.27H57c1,0,1.28-.29,1.28-1.31V46.22c0-.19,0-.37,0-.58Zm0-1.9H58.25v-5c0-1.13-.25-1.38-1.39-1.38H29.69a.9.9,0,0,0-.93.9C28.75,40.06,28.76,41.88,28.76,43.74Z"/><path class="cls-1" d="M52.72,30.34c0-1.33,0-2.67,0-4a11.23,11.23,0,0,0-.1-1.84,4.52,4.52,0,0,0-4.45-3.76c-2.3,0-4.61,0-6.91,0H40.8a1,1,0,0,1-1-.94,1,1,0,0,1,1-.9c.27,0,.53,0,.8,0,2.12,0,4.23,0,6.34,0a6.44,6.44,0,0,1,6.66,6.64v4.88a3.89,3.89,0,0,0,.38-.3c.57-.56,1.13-1.15,1.72-1.7a.89.89,0,0,1,1.33,0,.9.9,0,0,1,0,1.29q-1.8,1.83-3.63,3.63a.89.89,0,0,1-1.38,0q-1.83-1.78-3.62-3.62a.91.91,0,1,1,1.29-1.29c.66.66,1.29,1.35,1.94,2Z"/><path class="cls-1" d="M10.07,36.79l-1.8,1.85c-.51.51-1.07.55-1.46.14s-.35-.91.15-1.42l3.42-3.42a.93.93,0,0,1,1.54,0q1.74,1.73,3.46,3.46a.93.93,0,1,1-1.29,1.31c-.64-.63-1.27-1.27-2-2,0,.31,0,.47,0,.63,0,1.77-.06,3.54.12,5.29a4.4,4.4,0,0,0,4.31,3.82c2.4,0,4.8,0,7.2,0a2.54,2.54,0,0,1,.68.09.82.82,0,0,1,.58.94.85.85,0,0,1-.77.8,3.53,3.53,0,0,1-.46,0h-6.8a6.45,6.45,0,0,1-6.7-6.71c0-1.57,0-3.14,0-4.71Z"/><path class="cls-2" d="M28.28,9.67a1.38,1.38,0,1,1-1.36,1.41A1.39,1.39,0,0,1,28.28,9.67Z"/><path class="cls-2" d="M32.93,9.67A1.38,1.38,0,1,1,31.52,11,1.4,1.4,0,0,1,32.93,9.67Z"/><path class="cls-2" d="M50.43,41.93a1.38,1.38,0,1,1,1.37-1.41A1.4,1.4,0,0,1,50.43,41.93Z"/><path class="cls-2" d="M56.41,40.54A1.38,1.38,0,1,1,55,39.17,1.4,1.4,0,0,1,56.41,40.54Z"/></svg>